G04*
G04 #@! TF.GenerationSoftware,Altium Limited,Altium Designer,19.1.5 (86)*
G04*
G04 Layer_Color=8421504*
%FSLAX25Y25*%
%MOIN*%
G70*
G01*
G75*
%ADD20R,0.01181X0.01299*%
%ADD21R,0.01575X0.02165*%
%ADD22O,0.02200X0.08600*%
%ADD23R,0.02200X0.08600*%
%ADD24R,0.02756X0.05709*%
%ADD25R,0.02165X0.02165*%
%ADD26R,0.01968X0.03937*%
%ADD27R,0.01968X0.03543*%
D20*
X-63327Y44094D02*
D03*
X-65020D02*
D03*
X5217Y-87795D02*
D03*
X6909D02*
D03*
X-3071D02*
D03*
X-4764D02*
D03*
X92579Y-2756D02*
D03*
X90886D02*
D03*
X86673D02*
D03*
X84980D02*
D03*
X91024Y7480D02*
D03*
X89331D02*
D03*
X81445D02*
D03*
X83126D02*
D03*
D21*
X80020Y20079D02*
D03*
X82972D02*
D03*
D22*
X-19724Y-80166D02*
D03*
D23*
X-14724D02*
D03*
X-9724D02*
D03*
X-4724D02*
D03*
X276D02*
D03*
X5276D02*
D03*
X10276D02*
D03*
Y-61566D02*
D03*
X5276D02*
D03*
X276D02*
D03*
X-4724D02*
D03*
X-9724D02*
D03*
X-14724D02*
D03*
X-19724D02*
D03*
D24*
X83169Y13386D02*
D03*
X89272D02*
D03*
D25*
X8071Y-94095D02*
D03*
X4528D02*
D03*
D26*
X86417Y-8268D02*
D03*
X91535D02*
D03*
D27*
X86811Y2362D02*
D03*
X81693D02*
D03*
M02*
