G04*
G04 #@! TF.GenerationSoftware,Altium Limited,Altium Designer,19.1.5 (86)*
G04*
G04 Layer_Color=8388736*
%FSLAX25Y25*%
%MOIN*%
G70*
G01*
G75*
%ADD28R,0.01457X0.01575*%
%ADD29R,0.02375X0.02965*%
%ADD30O,0.03000X0.09400*%
%ADD31R,0.03000X0.09400*%
%ADD32R,0.03556X0.06509*%
%ADD33R,0.02965X0.02965*%
%ADD34R,0.02769X0.04737*%
%ADD35R,0.02769X0.04343*%
%ADD36R,0.01378X0.01496*%
%ADD37C,0.06800*%
%ADD38R,0.08674X0.07099*%
%ADD39O,0.08674X0.07099*%
%ADD40O,0.07099X0.08674*%
%ADD41R,0.07099X0.08674*%
D28*
X-63327Y44094D02*
D03*
X-65020D02*
D03*
X5217Y-87795D02*
D03*
X6909D02*
D03*
X-3071D02*
D03*
X-4764D02*
D03*
X92579Y-2756D02*
D03*
X90886D02*
D03*
X86673D02*
D03*
X84980D02*
D03*
X91024Y7480D02*
D03*
X89331D02*
D03*
D29*
X80020Y20079D02*
D03*
X82972D02*
D03*
D30*
X-19724Y-80166D02*
D03*
D31*
X-14724D02*
D03*
X-9724D02*
D03*
X-4724D02*
D03*
X276D02*
D03*
X5276D02*
D03*
X10276D02*
D03*
Y-61566D02*
D03*
X5276D02*
D03*
X276D02*
D03*
X-4724D02*
D03*
X-9724D02*
D03*
X-14724D02*
D03*
X-19724D02*
D03*
D32*
X83169Y13386D02*
D03*
X89272D02*
D03*
D33*
X8071Y-94095D02*
D03*
X4528D02*
D03*
D34*
X86417Y-8268D02*
D03*
X91535D02*
D03*
D35*
X86811Y2362D02*
D03*
X81693D02*
D03*
D36*
X81445Y7480D02*
D03*
X83126D02*
D03*
D37*
X83517Y-83517D02*
D03*
X-83517D02*
D03*
X83517Y83517D02*
D03*
X-83517D02*
D03*
D38*
X38976Y-61260D02*
D03*
D39*
Y-71260D02*
D03*
Y-81260D02*
D03*
D40*
X65000Y30000D02*
D03*
Y-30000D02*
D03*
Y-20000D02*
D03*
Y-10000D02*
D03*
Y0D02*
D03*
Y10000D02*
D03*
Y20000D02*
D03*
X55000Y30000D02*
D03*
X45000D02*
D03*
X35000D02*
D03*
X25000D02*
D03*
X15000D02*
D03*
X5000D02*
D03*
X-5000D02*
D03*
X-15000D02*
D03*
X-25000D02*
D03*
X-35000D02*
D03*
X-45000D02*
D03*
X-55000D02*
D03*
X-65000D02*
D03*
X55000Y-30000D02*
D03*
X45000D02*
D03*
X35000D02*
D03*
X25000D02*
D03*
X15000D02*
D03*
X5000D02*
D03*
X-5000D02*
D03*
X-15000D02*
D03*
X-25000D02*
D03*
X-35000D02*
D03*
X-45000D02*
D03*
X-55000D02*
D03*
X-35000Y20000D02*
D03*
X-25000D02*
D03*
X-15000D02*
D03*
D41*
X-65000Y-30000D02*
D03*
M02*
