G04*
G04 #@! TF.GenerationSoftware,Altium Limited,Altium Designer,19.1.5 (86)*
G04*
G04 Layer_Color=16711935*
%FSLAX25Y25*%
%MOIN*%
G70*
G01*
G75*
%ADD37C,0.06800*%
%ADD38R,0.08674X0.07099*%
%ADD39O,0.08674X0.07099*%
%ADD40O,0.07099X0.08674*%
%ADD41R,0.07099X0.08674*%
D37*
X83517Y-83517D02*
D03*
X-83517D02*
D03*
X83517Y83517D02*
D03*
X-83517D02*
D03*
D38*
X38976Y-61260D02*
D03*
D39*
Y-71260D02*
D03*
Y-81260D02*
D03*
D40*
X65000Y30000D02*
D03*
Y-30000D02*
D03*
Y-20000D02*
D03*
Y-10000D02*
D03*
Y0D02*
D03*
Y10000D02*
D03*
Y20000D02*
D03*
X55000Y30000D02*
D03*
X45000D02*
D03*
X35000D02*
D03*
X25000D02*
D03*
X15000D02*
D03*
X5000D02*
D03*
X-5000D02*
D03*
X-15000D02*
D03*
X-25000D02*
D03*
X-35000D02*
D03*
X-45000D02*
D03*
X-55000D02*
D03*
X-65000D02*
D03*
X55000Y-30000D02*
D03*
X45000D02*
D03*
X35000D02*
D03*
X25000D02*
D03*
X15000D02*
D03*
X5000D02*
D03*
X-5000D02*
D03*
X-15000D02*
D03*
X-25000D02*
D03*
X-35000D02*
D03*
X-45000D02*
D03*
X-55000D02*
D03*
X-35000Y20000D02*
D03*
X-25000D02*
D03*
X-15000D02*
D03*
D41*
X-65000Y-30000D02*
D03*
M02*
