G04*
G04 #@! TF.GenerationSoftware,Altium Limited,Altium Designer,19.1.5 (86)*
G04*
G04 Layer_Physical_Order=2*
G04 Layer_Color=16711680*
%FSLAX25Y25*%
%MOIN*%
G70*
G01*
G75*
%ADD16C,0.01575*%
%ADD46C,0.01968*%
%ADD50C,0.06000*%
%ADD51R,0.07874X0.06299*%
%ADD52O,0.07874X0.06299*%
%ADD53O,0.06299X0.07874*%
%ADD54R,0.06299X0.07874*%
%ADD55C,0.02362*%
D16*
X-45000Y8779D02*
Y30000D01*
Y8779D02*
X-25984Y-10236D01*
X-13386Y-68110D02*
X-1181Y-80315D01*
X17717D01*
X76772Y-58661D02*
X96063Y-39370D01*
X55905Y-58661D02*
X76772D01*
X51575Y-62992D02*
X55905Y-58661D01*
X51575Y-83465D02*
Y-62992D01*
X42126Y-92913D02*
X51575Y-83465D01*
X-9692Y-92913D02*
X42126D01*
X72047Y-53937D02*
X73622Y-55512D01*
X53150Y-53937D02*
X72047D01*
X48031Y-59055D02*
X53150Y-53937D01*
X48031Y-82284D02*
Y-59055D01*
X43307Y-87008D02*
X48031Y-82284D01*
X-15157Y-87008D02*
X43307D01*
X5276Y-72598D02*
X6614Y-71260D01*
X96063Y-39370D02*
Y13583D01*
X89272Y20374D02*
X96063Y13583D01*
X-17126Y-88976D02*
X-15157Y-87008D01*
X77165Y-50000D02*
X80709Y-46457D01*
X7087Y-50000D02*
X77165D01*
X91339Y-34646D02*
Y-27953D01*
X84646Y-41339D02*
X91339Y-34646D01*
X12598Y-41339D02*
X84646D01*
X-3937Y-45276D02*
X-3543D01*
X-8268Y-49606D02*
X-3937Y-45276D01*
X0Y-40551D02*
X2362Y-42913D01*
Y-62992D02*
Y-42913D01*
X-4331Y-69685D02*
X2362Y-62992D01*
X-8268Y-53543D02*
Y-49606D01*
X-13386Y-46177D02*
X-10122Y-42913D01*
X-13386Y-68110D02*
Y-46177D01*
X0Y-19685D02*
X9449Y-10236D01*
X0Y-40551D02*
Y-19685D01*
X6614Y-71260D02*
X38976D01*
D46*
X-25984Y-10236D02*
X9449D01*
X65748D01*
D50*
X83517Y-83517D02*
D03*
X-83517D02*
D03*
X83517Y83517D02*
D03*
X-83517D02*
D03*
D51*
X38976Y-61260D02*
D03*
D52*
Y-71260D02*
D03*
Y-81260D02*
D03*
D53*
X65000Y30000D02*
D03*
Y-30000D02*
D03*
Y-20000D02*
D03*
Y-10000D02*
D03*
Y0D02*
D03*
Y10000D02*
D03*
Y20000D02*
D03*
X55000Y30000D02*
D03*
X45000D02*
D03*
X35000D02*
D03*
X25000D02*
D03*
X15000D02*
D03*
X5000D02*
D03*
X-5000D02*
D03*
X-15000D02*
D03*
X-25000D02*
D03*
X-35000D02*
D03*
X-45000D02*
D03*
X-55000D02*
D03*
X-65000D02*
D03*
X55000Y-30000D02*
D03*
X45000D02*
D03*
X35000D02*
D03*
X25000D02*
D03*
X15000D02*
D03*
X5000D02*
D03*
X-5000D02*
D03*
X-15000D02*
D03*
X-25000D02*
D03*
X-35000D02*
D03*
X-45000D02*
D03*
X-55000D02*
D03*
X-35000Y20000D02*
D03*
X-25000D02*
D03*
X-15000D02*
D03*
D54*
X-65000Y-30000D02*
D03*
D55*
X17717Y-80315D02*
D03*
X5276Y-72598D02*
D03*
X-9692Y-92913D02*
D03*
X89272Y20374D02*
D03*
X73622Y-55512D02*
D03*
X-17126Y-88976D02*
D03*
X80709Y-46457D02*
D03*
X7087Y-50000D02*
D03*
X91339Y-27953D02*
D03*
X12598Y-41339D02*
D03*
X-3543Y-45276D02*
D03*
X-8268Y-53543D02*
D03*
X-4331Y-69685D02*
D03*
X-10122Y-42913D02*
D03*
M02*
