G04*
G04 #@! TF.GenerationSoftware,Altium Limited,Altium Designer,19.1.5 (86)*
G04*
G04 Layer_Physical_Order=1*
G04 Layer_Color=255*
%FSLAX25Y25*%
%MOIN*%
G70*
G01*
G75*
%ADD15C,0.00787*%
%ADD16C,0.01575*%
%ADD20R,0.01181X0.01299*%
%ADD21R,0.01575X0.02165*%
%ADD22O,0.02200X0.08600*%
%ADD23R,0.02200X0.08600*%
%ADD24R,0.02756X0.05709*%
%ADD25R,0.02165X0.02165*%
%ADD26R,0.01968X0.03937*%
%ADD27R,0.01968X0.03543*%
%ADD42C,0.01181*%
%ADD43C,0.00945*%
%ADD44C,0.00866*%
%ADD45C,0.01000*%
%ADD46C,0.01968*%
%ADD47C,0.01457*%
%ADD48C,0.01102*%
%ADD49C,0.01535*%
%ADD50C,0.06000*%
%ADD51R,0.07874X0.06299*%
%ADD52O,0.07874X0.06299*%
%ADD53O,0.06299X0.07874*%
%ADD54R,0.06299X0.07874*%
%ADD55C,0.02362*%
G36*
X9931Y117739D02*
X16517Y116997D01*
X23051Y115886D01*
X29513Y114412D01*
X35881Y112577D01*
X42137Y110388D01*
X48260Y107852D01*
X54232Y104976D01*
X60032Y101770D01*
X65644Y98244D01*
X71050Y94409D01*
X76231Y90276D01*
X78481Y88266D01*
X77747Y87372D01*
X77106Y86172D01*
X76711Y84870D01*
X76627Y84017D01*
X83517D01*
Y83517D01*
X84017D01*
Y76627D01*
X84870Y76711D01*
X86172Y77106D01*
X87372Y77747D01*
X88266Y78481D01*
X90276Y76231D01*
X94409Y71050D01*
X98244Y65644D01*
X101770Y60032D01*
X104976Y54232D01*
X107852Y48260D01*
X110388Y42137D01*
X112577Y35881D01*
X114412Y29513D01*
X115886Y23051D01*
X116997Y16517D01*
X117739Y9931D01*
X118110Y3314D01*
Y0D01*
Y-3314D01*
X117739Y-9931D01*
X116997Y-16517D01*
X115886Y-23051D01*
X114412Y-29513D01*
X112577Y-35882D01*
X110388Y-42137D01*
X107852Y-48260D01*
X104976Y-54232D01*
X101770Y-60032D01*
X98244Y-65644D01*
X94409Y-71050D01*
X90276Y-76231D01*
X88266Y-78481D01*
X87372Y-77747D01*
X86172Y-77106D01*
X84870Y-76711D01*
X84017Y-76627D01*
Y-83517D01*
X83517D01*
Y-84017D01*
X76627D01*
X76711Y-84870D01*
X77106Y-86172D01*
X77747Y-87372D01*
X78481Y-88266D01*
X76231Y-90276D01*
X71050Y-94409D01*
X65644Y-98244D01*
X60032Y-101770D01*
X54232Y-104976D01*
X48260Y-107852D01*
X42137Y-110388D01*
X35881Y-112577D01*
X29513Y-114412D01*
X23051Y-115886D01*
X16517Y-116997D01*
X9931Y-117739D01*
X3314Y-118110D01*
X-3314D01*
X-9931Y-117739D01*
X-16517Y-116997D01*
X-23051Y-115886D01*
X-29513Y-114412D01*
X-35882Y-112577D01*
X-42137Y-110388D01*
X-48260Y-107852D01*
X-54232Y-104976D01*
X-60032Y-101770D01*
X-65644Y-98244D01*
X-71050Y-94409D01*
X-76231Y-90276D01*
X-78481Y-88266D01*
X-77747Y-87372D01*
X-77106Y-86172D01*
X-76711Y-84870D01*
X-76627Y-84017D01*
X-83517D01*
Y-83517D01*
X-84017D01*
Y-76627D01*
X-84870Y-76711D01*
X-86172Y-77106D01*
X-87372Y-77747D01*
X-88266Y-78481D01*
X-90276Y-76231D01*
X-94409Y-71050D01*
X-98244Y-65644D01*
X-101770Y-60032D01*
X-104976Y-54232D01*
X-107852Y-48260D01*
X-110388Y-42137D01*
X-112577Y-35882D01*
X-114412Y-29513D01*
X-115886Y-23051D01*
X-116997Y-16517D01*
X-117739Y-9931D01*
X-118110Y-3314D01*
Y0D01*
Y3314D01*
X-117739Y9931D01*
X-116997Y16517D01*
X-115886Y23051D01*
X-114412Y29513D01*
X-112577Y35881D01*
X-110388Y42137D01*
X-107852Y48260D01*
X-104976Y54232D01*
X-101770Y60032D01*
X-98244Y65644D01*
X-94409Y71050D01*
X-90276Y76231D01*
X-88266Y78481D01*
X-87372Y77747D01*
X-86172Y77106D01*
X-84870Y76711D01*
X-84017Y76627D01*
Y83517D01*
X-83517D01*
Y84017D01*
X-76627D01*
X-76711Y84870D01*
X-77106Y86172D01*
X-77747Y87372D01*
X-78481Y88266D01*
X-76231Y90276D01*
X-71050Y94409D01*
X-65644Y98244D01*
X-60032Y101770D01*
X-54232Y104976D01*
X-48260Y107852D01*
X-42137Y110388D01*
X-35882Y112577D01*
X-29513Y114412D01*
X-23051Y115886D01*
X-16517Y116997D01*
X-9931Y117739D01*
X-3314Y118110D01*
X3314D01*
X9931Y117739D01*
D02*
G37*
%LPC*%
G36*
X83017Y83017D02*
X76627D01*
X76711Y82163D01*
X77106Y80861D01*
X77747Y79662D01*
X78610Y78610D01*
X79662Y77747D01*
X80861Y77106D01*
X82163Y76711D01*
X83017Y76627D01*
Y83017D01*
D02*
G37*
G36*
X-76627D02*
X-83017D01*
Y76627D01*
X-82163Y76711D01*
X-80861Y77106D01*
X-79662Y77747D01*
X-78610Y78610D01*
X-77747Y79662D01*
X-77106Y80861D01*
X-76711Y82163D01*
X-76627Y83017D01*
D02*
G37*
G36*
X-61736Y45744D02*
X-62827D01*
Y44594D01*
X-61736D01*
Y45744D01*
D02*
G37*
G36*
Y43595D02*
X-62827D01*
Y42445D01*
X-61736D01*
Y43595D01*
D02*
G37*
G36*
X-54500Y34907D02*
Y30500D01*
X-50815D01*
Y30787D01*
X-50957Y31871D01*
X-51375Y32880D01*
X-52040Y33747D01*
X-52907Y34412D01*
X-53917Y34830D01*
X-54500Y34907D01*
D02*
G37*
G36*
X-55500Y34907D02*
X-56083Y34830D01*
X-57093Y34412D01*
X-57960Y33747D01*
X-58625Y32880D01*
X-59043Y31871D01*
X-59185Y30787D01*
Y30500D01*
X-55500D01*
Y34907D01*
D02*
G37*
G36*
X65000Y34468D02*
X64047Y34343D01*
X63160Y33975D01*
X62397Y33390D01*
X61812Y32628D01*
X61444Y31740D01*
X61319Y30787D01*
Y29213D01*
X61444Y28260D01*
X61812Y27372D01*
X62397Y26610D01*
X63160Y26025D01*
X64047Y25657D01*
X65000Y25532D01*
X65953Y25657D01*
X66840Y26025D01*
X67603Y26610D01*
X68188Y27372D01*
X68556Y28260D01*
X68681Y29213D01*
Y30787D01*
X68556Y31740D01*
X68188Y32628D01*
X67603Y33390D01*
X66840Y33975D01*
X65953Y34343D01*
X65000Y34468D01*
D02*
G37*
G36*
X55000D02*
X54047Y34343D01*
X53159Y33975D01*
X52397Y33390D01*
X51812Y32628D01*
X51444Y31740D01*
X51319Y30787D01*
Y29213D01*
X51444Y28260D01*
X51812Y27372D01*
X52397Y26610D01*
X53159Y26025D01*
X54047Y25657D01*
X55000Y25532D01*
X55953Y25657D01*
X56840Y26025D01*
X57603Y26610D01*
X58188Y27372D01*
X58556Y28260D01*
X58681Y29213D01*
Y30787D01*
X58556Y31740D01*
X58188Y32628D01*
X57603Y33390D01*
X56840Y33975D01*
X55953Y34343D01*
X55000Y34468D01*
D02*
G37*
G36*
X45000D02*
X44047Y34343D01*
X43159Y33975D01*
X42397Y33390D01*
X41812Y32628D01*
X41444Y31740D01*
X41319Y30787D01*
Y29213D01*
X41444Y28260D01*
X41812Y27372D01*
X42397Y26610D01*
X43159Y26025D01*
X44047Y25657D01*
X45000Y25532D01*
X45953Y25657D01*
X46841Y26025D01*
X47603Y26610D01*
X48188Y27372D01*
X48556Y28260D01*
X48681Y29213D01*
Y30787D01*
X48556Y31740D01*
X48188Y32628D01*
X47603Y33390D01*
X46841Y33975D01*
X45953Y34343D01*
X45000Y34468D01*
D02*
G37*
G36*
X35000D02*
X34047Y34343D01*
X33159Y33975D01*
X32397Y33390D01*
X31812Y32628D01*
X31444Y31740D01*
X31319Y30787D01*
Y29213D01*
X31444Y28260D01*
X31812Y27372D01*
X32397Y26610D01*
X33159Y26025D01*
X34047Y25657D01*
X35000Y25532D01*
X35953Y25657D01*
X36841Y26025D01*
X37603Y26610D01*
X38188Y27372D01*
X38556Y28260D01*
X38681Y29213D01*
Y30787D01*
X38556Y31740D01*
X38188Y32628D01*
X37603Y33390D01*
X36841Y33975D01*
X35953Y34343D01*
X35000Y34468D01*
D02*
G37*
G36*
X25000D02*
X24047Y34343D01*
X23159Y33975D01*
X22397Y33390D01*
X21812Y32628D01*
X21444Y31740D01*
X21319Y30787D01*
Y29213D01*
X21444Y28260D01*
X21812Y27372D01*
X22397Y26610D01*
X23159Y26025D01*
X24047Y25657D01*
X25000Y25532D01*
X25953Y25657D01*
X26841Y26025D01*
X27603Y26610D01*
X28188Y27372D01*
X28556Y28260D01*
X28681Y29213D01*
Y30787D01*
X28556Y31740D01*
X28188Y32628D01*
X27603Y33390D01*
X26841Y33975D01*
X25953Y34343D01*
X25000Y34468D01*
D02*
G37*
G36*
X15000D02*
X14047Y34343D01*
X13160Y33975D01*
X12397Y33390D01*
X11812Y32628D01*
X11444Y31740D01*
X11319Y30787D01*
Y29213D01*
X11444Y28260D01*
X11812Y27372D01*
X12397Y26610D01*
X13160Y26025D01*
X14047Y25657D01*
X15000Y25532D01*
X15953Y25657D01*
X16840Y26025D01*
X17603Y26610D01*
X18188Y27372D01*
X18556Y28260D01*
X18681Y29213D01*
Y30787D01*
X18556Y31740D01*
X18188Y32628D01*
X17603Y33390D01*
X16840Y33975D01*
X15953Y34343D01*
X15000Y34468D01*
D02*
G37*
G36*
X5000D02*
X4047Y34343D01*
X3159Y33975D01*
X2397Y33390D01*
X1812Y32628D01*
X1444Y31740D01*
X1319Y30787D01*
Y29213D01*
X1444Y28260D01*
X1812Y27372D01*
X2397Y26610D01*
X3159Y26025D01*
X4047Y25657D01*
X5000Y25532D01*
X5953Y25657D01*
X6841Y26025D01*
X7603Y26610D01*
X8188Y27372D01*
X8556Y28260D01*
X8681Y29213D01*
Y30787D01*
X8556Y31740D01*
X8188Y32628D01*
X7603Y33390D01*
X6841Y33975D01*
X5953Y34343D01*
X5000Y34468D01*
D02*
G37*
G36*
X-5000D02*
X-5953Y34343D01*
X-6841Y33975D01*
X-7603Y33390D01*
X-8188Y32628D01*
X-8556Y31740D01*
X-8681Y30787D01*
Y29213D01*
X-8556Y28260D01*
X-8188Y27372D01*
X-7603Y26610D01*
X-6841Y26025D01*
X-5953Y25657D01*
X-5000Y25532D01*
X-4047Y25657D01*
X-3159Y26025D01*
X-2397Y26610D01*
X-1812Y27372D01*
X-1444Y28260D01*
X-1319Y29213D01*
Y30787D01*
X-1444Y31740D01*
X-1812Y32628D01*
X-2397Y33390D01*
X-3159Y33975D01*
X-4047Y34343D01*
X-5000Y34468D01*
D02*
G37*
G36*
X-15000D02*
X-15953Y34343D01*
X-16840Y33975D01*
X-17603Y33390D01*
X-18188Y32628D01*
X-18556Y31740D01*
X-18681Y30787D01*
Y29213D01*
X-18556Y28260D01*
X-18188Y27372D01*
X-17603Y26610D01*
X-16840Y26025D01*
X-15953Y25657D01*
X-15000Y25532D01*
X-14047Y25657D01*
X-13160Y26025D01*
X-12397Y26610D01*
X-11812Y27372D01*
X-11444Y28260D01*
X-11319Y29213D01*
Y30787D01*
X-11444Y31740D01*
X-11812Y32628D01*
X-12397Y33390D01*
X-13160Y33975D01*
X-14047Y34343D01*
X-15000Y34468D01*
D02*
G37*
G36*
X-25000D02*
X-25953Y34343D01*
X-26841Y33975D01*
X-27603Y33390D01*
X-28188Y32628D01*
X-28556Y31740D01*
X-28681Y30787D01*
Y29213D01*
X-28556Y28260D01*
X-28188Y27372D01*
X-27603Y26610D01*
X-26841Y26025D01*
X-25953Y25657D01*
X-25000Y25532D01*
X-24047Y25657D01*
X-23159Y26025D01*
X-22397Y26610D01*
X-21812Y27372D01*
X-21444Y28260D01*
X-21319Y29213D01*
Y30787D01*
X-21444Y31740D01*
X-21812Y32628D01*
X-22397Y33390D01*
X-23159Y33975D01*
X-24047Y34343D01*
X-25000Y34468D01*
D02*
G37*
G36*
X-35000D02*
X-35953Y34343D01*
X-36841Y33975D01*
X-37603Y33390D01*
X-38188Y32628D01*
X-38556Y31740D01*
X-38681Y30787D01*
Y29213D01*
X-38556Y28260D01*
X-38188Y27372D01*
X-37603Y26610D01*
X-36841Y26025D01*
X-35953Y25657D01*
X-35000Y25532D01*
X-34047Y25657D01*
X-33159Y26025D01*
X-32397Y26610D01*
X-31812Y27372D01*
X-31444Y28260D01*
X-31319Y29213D01*
Y30787D01*
X-31444Y31740D01*
X-31812Y32628D01*
X-32397Y33390D01*
X-33159Y33975D01*
X-34047Y34343D01*
X-35000Y34468D01*
D02*
G37*
G36*
X-45000D02*
X-45953Y34343D01*
X-46841Y33975D01*
X-47603Y33390D01*
X-48188Y32628D01*
X-48556Y31740D01*
X-48681Y30787D01*
Y29213D01*
X-48556Y28260D01*
X-48188Y27372D01*
X-47603Y26610D01*
X-46841Y26025D01*
X-45953Y25657D01*
X-45000Y25532D01*
X-44047Y25657D01*
X-43159Y26025D01*
X-42397Y26610D01*
X-41812Y27372D01*
X-41444Y28260D01*
X-41319Y29213D01*
Y30787D01*
X-41444Y31740D01*
X-41812Y32628D01*
X-42397Y33390D01*
X-43159Y33975D01*
X-44047Y34343D01*
X-45000Y34468D01*
D02*
G37*
G36*
X-63827Y45744D02*
X-64917D01*
Y45244D01*
X-66110D01*
Y42945D01*
X-66020D01*
Y34315D01*
X-66840Y33975D01*
X-67603Y33390D01*
X-68188Y32628D01*
X-68556Y31740D01*
X-68681Y30787D01*
Y29213D01*
X-68556Y28260D01*
X-68188Y27372D01*
X-67603Y26610D01*
X-66840Y26025D01*
X-65953Y25657D01*
X-65000Y25532D01*
X-64047Y25657D01*
X-63160Y26025D01*
X-62397Y26610D01*
X-61812Y27372D01*
X-61444Y28260D01*
X-61319Y29213D01*
Y30787D01*
X-61444Y31740D01*
X-61812Y32628D01*
X-62397Y33390D01*
X-63160Y33975D01*
X-63980Y34315D01*
Y42445D01*
X-63827D01*
Y44094D01*
Y45744D01*
D02*
G37*
G36*
X-50815Y29500D02*
X-54500D01*
Y25093D01*
X-53917Y25170D01*
X-52907Y25588D01*
X-52040Y26253D01*
X-51375Y27120D01*
X-50957Y28129D01*
X-50815Y29213D01*
Y29500D01*
D02*
G37*
G36*
X-55500D02*
X-59185D01*
Y29213D01*
X-59043Y28129D01*
X-58625Y27120D01*
X-57960Y26253D01*
X-57093Y25588D01*
X-56083Y25170D01*
X-55500Y25093D01*
Y29500D01*
D02*
G37*
G36*
X-15000Y24468D02*
X-15953Y24343D01*
X-16840Y23975D01*
X-17603Y23390D01*
X-18188Y22628D01*
X-18556Y21740D01*
X-18681Y20787D01*
Y19213D01*
X-18556Y18260D01*
X-18188Y17372D01*
X-17603Y16610D01*
X-16840Y16025D01*
X-15953Y15657D01*
X-15000Y15531D01*
X-14047Y15657D01*
X-13160Y16025D01*
X-12397Y16610D01*
X-11812Y17372D01*
X-11444Y18260D01*
X-11319Y19213D01*
Y20787D01*
X-11444Y21740D01*
X-11812Y22628D01*
X-12397Y23390D01*
X-13160Y23975D01*
X-14047Y24343D01*
X-15000Y24468D01*
D02*
G37*
G36*
X-35000D02*
X-35953Y24343D01*
X-36841Y23975D01*
X-37603Y23390D01*
X-38188Y22628D01*
X-38556Y21740D01*
X-38681Y20787D01*
Y19213D01*
X-38556Y18260D01*
X-38188Y17372D01*
X-37603Y16610D01*
X-36841Y16025D01*
X-35953Y15657D01*
X-35000Y15531D01*
X-34047Y15657D01*
X-33159Y16025D01*
X-32397Y16610D01*
X-31812Y17372D01*
X-31444Y18260D01*
X-31319Y19213D01*
Y20787D01*
X-31444Y21740D01*
X-31812Y22628D01*
X-32397Y23390D01*
X-33159Y23975D01*
X-34047Y24343D01*
X-35000Y24468D01*
D02*
G37*
G36*
X92614Y9130D02*
X91524D01*
Y7980D01*
X92614D01*
Y9130D01*
D02*
G37*
G36*
Y6980D02*
X91524D01*
Y5831D01*
X92614D01*
Y6980D01*
D02*
G37*
G36*
X89272Y22088D02*
X88616Y21958D01*
X88060Y21586D01*
X87688Y21030D01*
X87558Y20374D01*
X87688Y19718D01*
X87959Y19313D01*
Y16740D01*
X87394D01*
Y10031D01*
X88252D01*
Y8630D01*
X88240D01*
Y6331D01*
X89433D01*
Y5831D01*
X90524D01*
Y7480D01*
Y9130D01*
X90291D01*
Y10031D01*
X91150D01*
Y16740D01*
X90584D01*
Y19313D01*
X90855Y19718D01*
X90986Y20374D01*
X90855Y21030D01*
X90484Y21586D01*
X89928Y21958D01*
X89272Y22088D01*
D02*
G37*
G36*
X65000Y14469D02*
X64047Y14343D01*
X63160Y13975D01*
X62397Y13390D01*
X61812Y12628D01*
X61444Y11740D01*
X61319Y10787D01*
Y9213D01*
X61444Y8260D01*
X61812Y7372D01*
X62397Y6610D01*
X63160Y6025D01*
X64047Y5657D01*
X65000Y5531D01*
X65953Y5657D01*
X66840Y6025D01*
X67603Y6610D01*
X68188Y7372D01*
X68556Y8260D01*
X68681Y9213D01*
Y10787D01*
X68556Y11740D01*
X68188Y12628D01*
X67603Y13390D01*
X66840Y13975D01*
X65953Y14343D01*
X65000Y14469D01*
D02*
G37*
G36*
X65500Y4907D02*
Y500D01*
X69185D01*
Y787D01*
X69043Y1871D01*
X68625Y2880D01*
X67959Y3747D01*
X67093Y4412D01*
X66083Y4830D01*
X65500Y4907D01*
D02*
G37*
G36*
X64500Y4907D02*
X63917Y4830D01*
X62907Y4412D01*
X62041Y3747D01*
X61375Y2880D01*
X60957Y1871D01*
X60815Y787D01*
Y500D01*
X64500D01*
Y4907D01*
D02*
G37*
G36*
X90386Y-1106D02*
X89295D01*
Y-2256D01*
X90386D01*
Y-1106D01*
D02*
G37*
G36*
X64500Y-500D02*
X60815D01*
Y-787D01*
X60957Y-1871D01*
X61375Y-2880D01*
X62041Y-3747D01*
X62907Y-4412D01*
X63917Y-4830D01*
X64500Y-4907D01*
Y-500D01*
D02*
G37*
G36*
X69185D02*
X65500D01*
Y-4907D01*
X66083Y-4830D01*
X67093Y-4412D01*
X67959Y-3747D01*
X68625Y-2880D01*
X69043Y-1871D01*
X69185Y-787D01*
Y-500D01*
D02*
G37*
G36*
X92476Y-1106D02*
X91386D01*
Y-2756D01*
X90886D01*
Y-3256D01*
X89295D01*
Y-4405D01*
X90230D01*
X90507Y-4888D01*
X90505Y-4905D01*
X90424Y-5315D01*
Y-5799D01*
X90051D01*
Y-10736D01*
X90223D01*
Y-26676D01*
X90127Y-26741D01*
X89755Y-27297D01*
X89625Y-27953D01*
X89755Y-28609D01*
X90127Y-29165D01*
X90683Y-29536D01*
X91339Y-29667D01*
X91995Y-29536D01*
X92551Y-29165D01*
X92922Y-28609D01*
X93053Y-27953D01*
X92922Y-27297D01*
X92848Y-27186D01*
Y-10736D01*
X93020D01*
Y-5799D01*
X93020D01*
X93053Y-5313D01*
X93278Y-5089D01*
X93510Y-4741D01*
X93584Y-4370D01*
X93591Y-4331D01*
X93669Y-3906D01*
X93669Y-3906D01*
Y-1606D01*
X92476D01*
Y-1106D01*
D02*
G37*
G36*
X88295Y4634D02*
X85327D01*
Y91D01*
X85791D01*
Y-1606D01*
X83890D01*
Y-3291D01*
X83476Y-3705D01*
X82677D01*
X82287Y-3782D01*
X81956Y-4003D01*
X79594Y-6366D01*
X79373Y-6696D01*
X79295Y-7087D01*
X79373Y-7477D01*
X79594Y-7808D01*
X79689Y-7903D01*
Y-45116D01*
X79497Y-45245D01*
X79125Y-45801D01*
X78995Y-46457D01*
X79125Y-47113D01*
X79497Y-47669D01*
X80053Y-48040D01*
X80709Y-48171D01*
X81365Y-48040D01*
X81921Y-47669D01*
X82292Y-47113D01*
X82423Y-46457D01*
X82292Y-45801D01*
X81921Y-45245D01*
X81728Y-45116D01*
Y-7480D01*
X81668Y-7176D01*
X83100Y-5744D01*
X83858D01*
X84249Y-5666D01*
X84579Y-5445D01*
X84659Y-5326D01*
X85161Y-4824D01*
X85623Y-5015D01*
Y-5799D01*
X84933D01*
Y-10736D01*
X87902D01*
Y-5799D01*
X87606D01*
Y-3906D01*
X87764D01*
Y-2895D01*
X87831Y-2559D01*
Y91D01*
X88295D01*
Y4634D01*
D02*
G37*
G36*
X65000Y-5531D02*
X64047Y-5657D01*
X63160Y-6025D01*
X62397Y-6610D01*
X61812Y-7372D01*
X61444Y-8260D01*
X61319Y-9213D01*
Y-10787D01*
X61444Y-11740D01*
X61812Y-12628D01*
X62397Y-13390D01*
X63160Y-13975D01*
X64047Y-14343D01*
X65000Y-14469D01*
X65953Y-14343D01*
X66840Y-13975D01*
X67603Y-13390D01*
X68188Y-12628D01*
X68556Y-11740D01*
X68681Y-10787D01*
Y-9213D01*
X68556Y-8260D01*
X68188Y-7372D01*
X67603Y-6610D01*
X66840Y-6025D01*
X65953Y-5657D01*
X65000Y-5531D01*
D02*
G37*
G36*
Y-15531D02*
X64047Y-15657D01*
X63160Y-16025D01*
X62397Y-16610D01*
X61812Y-17372D01*
X61444Y-18260D01*
X61319Y-19213D01*
Y-20787D01*
X61444Y-21740D01*
X61812Y-22628D01*
X62397Y-23390D01*
X63160Y-23975D01*
X64047Y-24343D01*
X65000Y-24468D01*
X65953Y-24343D01*
X66840Y-23975D01*
X67603Y-23390D01*
X68188Y-22628D01*
X68556Y-21740D01*
X68681Y-20787D01*
Y-19213D01*
X68556Y-18260D01*
X68188Y-17372D01*
X67603Y-16610D01*
X66840Y-16025D01*
X65953Y-15657D01*
X65000Y-15531D01*
D02*
G37*
G36*
X-25000Y24468D02*
X-25953Y24343D01*
X-26841Y23975D01*
X-27603Y23390D01*
X-28188Y22628D01*
X-28556Y21740D01*
X-28681Y20787D01*
Y19213D01*
X-28556Y18260D01*
X-28188Y17372D01*
X-27603Y16610D01*
X-26841Y16025D01*
X-26313Y15806D01*
Y-6890D01*
X-26213Y-7392D01*
X-25928Y-7818D01*
X-11374Y-22372D01*
Y-27156D01*
X-11557Y-27246D01*
X-11874Y-27291D01*
X-12397Y-26610D01*
X-13160Y-26025D01*
X-14047Y-25657D01*
X-15000Y-25532D01*
X-15953Y-25657D01*
X-16840Y-26025D01*
X-17603Y-26610D01*
X-18188Y-27372D01*
X-18556Y-28260D01*
X-18681Y-29213D01*
Y-30787D01*
X-18556Y-31740D01*
X-18188Y-32628D01*
X-17603Y-33390D01*
X-16840Y-33975D01*
X-15953Y-34343D01*
X-15000Y-34468D01*
X-14047Y-34343D01*
X-13160Y-33975D01*
X-12397Y-33390D01*
X-11874Y-32709D01*
X-11557Y-32754D01*
X-11374Y-32844D01*
Y-41762D01*
X-11706Y-42257D01*
X-11836Y-42913D01*
X-11706Y-43569D01*
X-11334Y-44125D01*
X-10778Y-44497D01*
X-10122Y-44627D01*
X-9466Y-44497D01*
X-8910Y-44125D01*
X-8539Y-43569D01*
X-8408Y-42913D01*
X-8539Y-42257D01*
X-8870Y-41762D01*
Y-32289D01*
X-8370Y-32189D01*
X-8188Y-32628D01*
X-7603Y-33390D01*
X-6841Y-33975D01*
X-5953Y-34343D01*
X-5000Y-34468D01*
X-4047Y-34343D01*
X-3159Y-33975D01*
X-2397Y-33390D01*
X-1812Y-32628D01*
X-1444Y-31740D01*
X-1319Y-30787D01*
Y-29213D01*
X-1444Y-28260D01*
X-1812Y-27372D01*
X-2397Y-26610D01*
X-3159Y-26025D01*
X-4047Y-25657D01*
X-5000Y-25532D01*
X-5953Y-25657D01*
X-6841Y-26025D01*
X-7603Y-26610D01*
X-8188Y-27372D01*
X-8370Y-27811D01*
X-8870Y-27711D01*
Y-22070D01*
X-8809Y-21768D01*
X-8909Y-21265D01*
X-9194Y-20840D01*
X-23687Y-6346D01*
Y15806D01*
X-23159Y16025D01*
X-22397Y16610D01*
X-21812Y17372D01*
X-21444Y18260D01*
X-21319Y19213D01*
Y20787D01*
X-21444Y21740D01*
X-21812Y22628D01*
X-22397Y23390D01*
X-23159Y23975D01*
X-24047Y24343D01*
X-25000Y24468D01*
D02*
G37*
G36*
X-60850Y-25063D02*
X-64500D01*
Y-29500D01*
X-60850D01*
Y-25063D01*
D02*
G37*
G36*
X-65500D02*
X-69150D01*
Y-29500D01*
X-65500D01*
Y-25063D01*
D02*
G37*
G36*
X65000Y-25532D02*
X64047Y-25657D01*
X63160Y-26025D01*
X62397Y-26610D01*
X61812Y-27372D01*
X61444Y-28260D01*
X61319Y-29213D01*
Y-30787D01*
X61444Y-31740D01*
X61812Y-32628D01*
X62397Y-33390D01*
X63160Y-33975D01*
X64047Y-34343D01*
X65000Y-34468D01*
X65953Y-34343D01*
X66840Y-33975D01*
X67603Y-33390D01*
X68188Y-32628D01*
X68556Y-31740D01*
X68681Y-30787D01*
Y-29213D01*
X68556Y-28260D01*
X68188Y-27372D01*
X67603Y-26610D01*
X66840Y-26025D01*
X65953Y-25657D01*
X65000Y-25532D01*
D02*
G37*
G36*
X55000D02*
X54047Y-25657D01*
X53159Y-26025D01*
X52397Y-26610D01*
X51812Y-27372D01*
X51444Y-28260D01*
X51319Y-29213D01*
Y-30787D01*
X51444Y-31740D01*
X51812Y-32628D01*
X52397Y-33390D01*
X53159Y-33975D01*
X54047Y-34343D01*
X55000Y-34468D01*
X55953Y-34343D01*
X56840Y-33975D01*
X57603Y-33390D01*
X58188Y-32628D01*
X58556Y-31740D01*
X58681Y-30787D01*
Y-29213D01*
X58556Y-28260D01*
X58188Y-27372D01*
X57603Y-26610D01*
X56840Y-26025D01*
X55953Y-25657D01*
X55000Y-25532D01*
D02*
G37*
G36*
X45000D02*
X44047Y-25657D01*
X43159Y-26025D01*
X42397Y-26610D01*
X41812Y-27372D01*
X41444Y-28260D01*
X41319Y-29213D01*
Y-30787D01*
X41444Y-31740D01*
X41812Y-32628D01*
X42397Y-33390D01*
X43159Y-33975D01*
X44047Y-34343D01*
X45000Y-34468D01*
X45953Y-34343D01*
X46841Y-33975D01*
X47603Y-33390D01*
X48188Y-32628D01*
X48556Y-31740D01*
X48681Y-30787D01*
Y-29213D01*
X48556Y-28260D01*
X48188Y-27372D01*
X47603Y-26610D01*
X46841Y-26025D01*
X45953Y-25657D01*
X45000Y-25532D01*
D02*
G37*
G36*
X35000D02*
X34047Y-25657D01*
X33159Y-26025D01*
X32397Y-26610D01*
X31812Y-27372D01*
X31444Y-28260D01*
X31319Y-29213D01*
Y-30787D01*
X31444Y-31740D01*
X31812Y-32628D01*
X32397Y-33390D01*
X33159Y-33975D01*
X34047Y-34343D01*
X35000Y-34468D01*
X35953Y-34343D01*
X36841Y-33975D01*
X37603Y-33390D01*
X38188Y-32628D01*
X38556Y-31740D01*
X38681Y-30787D01*
Y-29213D01*
X38556Y-28260D01*
X38188Y-27372D01*
X37603Y-26610D01*
X36841Y-26025D01*
X35953Y-25657D01*
X35000Y-25532D01*
D02*
G37*
G36*
X25000D02*
X24047Y-25657D01*
X23159Y-26025D01*
X22397Y-26610D01*
X21812Y-27372D01*
X21444Y-28260D01*
X21319Y-29213D01*
Y-30787D01*
X21444Y-31740D01*
X21812Y-32628D01*
X22397Y-33390D01*
X23159Y-33975D01*
X24047Y-34343D01*
X25000Y-34468D01*
X25953Y-34343D01*
X26841Y-33975D01*
X27603Y-33390D01*
X28188Y-32628D01*
X28556Y-31740D01*
X28681Y-30787D01*
Y-29213D01*
X28556Y-28260D01*
X28188Y-27372D01*
X27603Y-26610D01*
X26841Y-26025D01*
X25953Y-25657D01*
X25000Y-25532D01*
D02*
G37*
G36*
X15000D02*
X14047Y-25657D01*
X13160Y-26025D01*
X12397Y-26610D01*
X11812Y-27372D01*
X11444Y-28260D01*
X11319Y-29213D01*
Y-30787D01*
X11444Y-31740D01*
X11812Y-32628D01*
X12397Y-33390D01*
X13160Y-33975D01*
X14047Y-34343D01*
X15000Y-34468D01*
X15953Y-34343D01*
X16840Y-33975D01*
X17603Y-33390D01*
X18188Y-32628D01*
X18556Y-31740D01*
X18681Y-30787D01*
Y-29213D01*
X18556Y-28260D01*
X18188Y-27372D01*
X17603Y-26610D01*
X16840Y-26025D01*
X15953Y-25657D01*
X15000Y-25532D01*
D02*
G37*
G36*
X5000D02*
X4047Y-25657D01*
X3159Y-26025D01*
X2397Y-26610D01*
X1812Y-27372D01*
X1444Y-28260D01*
X1319Y-29213D01*
Y-30787D01*
X1444Y-31740D01*
X1812Y-32628D01*
X2397Y-33390D01*
X3159Y-33975D01*
X4047Y-34343D01*
X5000Y-34468D01*
X5953Y-34343D01*
X6841Y-33975D01*
X7603Y-33390D01*
X8188Y-32628D01*
X8556Y-31740D01*
X8681Y-30787D01*
Y-29213D01*
X8556Y-28260D01*
X8188Y-27372D01*
X7603Y-26610D01*
X6841Y-26025D01*
X5953Y-25657D01*
X5000Y-25532D01*
D02*
G37*
G36*
X-25000D02*
X-25953Y-25657D01*
X-26841Y-26025D01*
X-27603Y-26610D01*
X-28188Y-27372D01*
X-28556Y-28260D01*
X-28681Y-29213D01*
Y-30787D01*
X-28556Y-31740D01*
X-28188Y-32628D01*
X-27603Y-33390D01*
X-26841Y-33975D01*
X-25953Y-34343D01*
X-25000Y-34468D01*
X-24047Y-34343D01*
X-23159Y-33975D01*
X-22397Y-33390D01*
X-21812Y-32628D01*
X-21444Y-31740D01*
X-21319Y-30787D01*
Y-29213D01*
X-21444Y-28260D01*
X-21812Y-27372D01*
X-22397Y-26610D01*
X-23159Y-26025D01*
X-24047Y-25657D01*
X-25000Y-25532D01*
D02*
G37*
G36*
X-35000D02*
X-35953Y-25657D01*
X-36841Y-26025D01*
X-37603Y-26610D01*
X-38188Y-27372D01*
X-38556Y-28260D01*
X-38681Y-29213D01*
Y-30787D01*
X-38556Y-31740D01*
X-38188Y-32628D01*
X-37603Y-33390D01*
X-36841Y-33975D01*
X-35953Y-34343D01*
X-35000Y-34468D01*
X-34047Y-34343D01*
X-33159Y-33975D01*
X-32397Y-33390D01*
X-31812Y-32628D01*
X-31444Y-31740D01*
X-31319Y-30787D01*
Y-29213D01*
X-31444Y-28260D01*
X-31812Y-27372D01*
X-32397Y-26610D01*
X-33159Y-26025D01*
X-34047Y-25657D01*
X-35000Y-25532D01*
D02*
G37*
G36*
X-45000D02*
X-45953Y-25657D01*
X-46841Y-26025D01*
X-47603Y-26610D01*
X-48188Y-27372D01*
X-48556Y-28260D01*
X-48681Y-29213D01*
Y-30787D01*
X-48556Y-31740D01*
X-48188Y-32628D01*
X-47603Y-33390D01*
X-46841Y-33975D01*
X-45953Y-34343D01*
X-45000Y-34468D01*
X-44047Y-34343D01*
X-43159Y-33975D01*
X-42397Y-33390D01*
X-41812Y-32628D01*
X-41444Y-31740D01*
X-41319Y-30787D01*
Y-29213D01*
X-41444Y-28260D01*
X-41812Y-27372D01*
X-42397Y-26610D01*
X-43159Y-26025D01*
X-44047Y-25657D01*
X-45000Y-25532D01*
D02*
G37*
G36*
X-55000D02*
X-55953Y-25657D01*
X-56840Y-26025D01*
X-57603Y-26610D01*
X-58188Y-27372D01*
X-58556Y-28260D01*
X-58681Y-29213D01*
Y-30787D01*
X-58556Y-31740D01*
X-58188Y-32628D01*
X-57603Y-33390D01*
X-56840Y-33975D01*
X-55953Y-34343D01*
X-55000Y-34468D01*
X-54047Y-34343D01*
X-53159Y-33975D01*
X-52397Y-33390D01*
X-51812Y-32628D01*
X-51444Y-31740D01*
X-51319Y-30787D01*
Y-29213D01*
X-51444Y-28260D01*
X-51812Y-27372D01*
X-52397Y-26610D01*
X-53159Y-26025D01*
X-54047Y-25657D01*
X-55000Y-25532D01*
D02*
G37*
G36*
X-60850Y-30500D02*
X-64500D01*
Y-34937D01*
X-60850D01*
Y-30500D01*
D02*
G37*
G36*
X-65500D02*
X-69150D01*
Y-34937D01*
X-65500D01*
Y-30500D01*
D02*
G37*
G36*
X12598Y-39625D02*
X11942Y-39755D01*
X11386Y-40127D01*
X11015Y-40683D01*
X10920Y-41161D01*
X8118Y-43963D01*
X-2482D01*
X-2887Y-43692D01*
X-3543Y-43562D01*
X-4199Y-43692D01*
X-4755Y-44064D01*
X-5127Y-44620D01*
X-5257Y-45276D01*
X-5127Y-45932D01*
X-4755Y-46488D01*
X-4199Y-46859D01*
X-3543Y-46990D01*
X-2887Y-46859D01*
X-2482Y-46588D01*
X8661D01*
X9164Y-46488D01*
X9590Y-46204D01*
X12776Y-43017D01*
X13254Y-42922D01*
X13810Y-42551D01*
X14182Y-41995D01*
X14312Y-41339D01*
X14182Y-40683D01*
X13810Y-40127D01*
X13254Y-39755D01*
X12598Y-39625D01*
D02*
G37*
G36*
X-4150Y-48081D02*
X-13173D01*
X-13676Y-48181D01*
X-14101Y-48465D01*
X-19038Y-53403D01*
X-20653Y-55017D01*
X-20937Y-55443D01*
X-21037Y-55945D01*
Y-56766D01*
X-21324D01*
Y-66366D01*
X-18124D01*
Y-56766D01*
X-18124D01*
X-18189Y-56266D01*
X-17567Y-55643D01*
X-17079D01*
X-16418Y-56305D01*
X-16324Y-56766D01*
X-16324D01*
Y-66366D01*
X-13124D01*
Y-56766D01*
X-13412D01*
Y-56142D01*
X-13512Y-55639D01*
X-13796Y-55214D01*
X-15466Y-53543D01*
X-12630Y-50706D01*
X-4693D01*
X-1037Y-54363D01*
Y-56766D01*
X-1324D01*
Y-66366D01*
X1876D01*
Y-56766D01*
X1588D01*
Y-55254D01*
X1606Y-55227D01*
X1706Y-54724D01*
Y-52118D01*
X2512Y-51313D01*
X6025D01*
X6431Y-51584D01*
X7087Y-51714D01*
X7743Y-51584D01*
X8299Y-51212D01*
X8670Y-50656D01*
X8801Y-50000D01*
X8670Y-49344D01*
X8299Y-48788D01*
X7743Y-48416D01*
X7087Y-48286D01*
X6431Y-48416D01*
X6025Y-48687D01*
X1969D01*
X1466Y-48787D01*
X1040Y-49072D01*
X-534Y-50647D01*
X-995Y-50692D01*
X-3221Y-48465D01*
X-3647Y-48181D01*
X-4150Y-48081D01*
D02*
G37*
G36*
X-8268Y-51829D02*
X-8924Y-51960D01*
X-9480Y-52331D01*
X-9851Y-52887D01*
X-9982Y-53543D01*
X-9851Y-54199D01*
X-9750Y-54351D01*
X-10653Y-55253D01*
X-10937Y-55679D01*
X-11037Y-56181D01*
Y-56766D01*
X-11324D01*
Y-66366D01*
X-8124D01*
Y-56766D01*
X-8124D01*
X-8003Y-56316D01*
X-7340Y-55653D01*
X-7055Y-55227D01*
X-6955Y-54724D01*
Y-54605D01*
X-6684Y-54199D01*
X-6554Y-53543D01*
X-6684Y-52887D01*
X-7056Y-52331D01*
X-7612Y-51960D01*
X-8268Y-51829D01*
D02*
G37*
G36*
X65000Y24468D02*
X64047Y24343D01*
X63160Y23975D01*
X62397Y23390D01*
X61812Y22628D01*
X61444Y21740D01*
X61319Y20787D01*
Y19213D01*
X61444Y18260D01*
X61812Y17372D01*
X62397Y16610D01*
X63160Y16025D01*
X64047Y15657D01*
X65000Y15531D01*
X65953Y15657D01*
X66840Y16025D01*
X67603Y16610D01*
X68188Y17372D01*
X68556Y18260D01*
X68615Y18708D01*
X78732D01*
Y18496D01*
X81180D01*
X81307Y18496D01*
X81680Y18189D01*
Y16740D01*
X81291D01*
Y10031D01*
X82120D01*
Y8630D01*
X80354D01*
Y6331D01*
X80545D01*
Y4634D01*
X80209D01*
Y155D01*
X74642Y-5412D01*
X74301Y-5480D01*
X73875Y-5765D01*
X73590Y-6191D01*
X73491Y-6693D01*
Y-53787D01*
X73444Y-53833D01*
X72966Y-53928D01*
X72410Y-54300D01*
X72039Y-54856D01*
X71908Y-55512D01*
X72039Y-56168D01*
X72410Y-56724D01*
X72966Y-57095D01*
X73622Y-57226D01*
X74278Y-57095D01*
X74834Y-56724D01*
X75206Y-56168D01*
X75301Y-55689D01*
X75731Y-55259D01*
X76016Y-54833D01*
X76116Y-54331D01*
Y-6822D01*
X82414Y-524D01*
X82635Y-193D01*
X82691Y91D01*
X83177D01*
Y4634D01*
X82447D01*
Y6331D01*
X84216D01*
Y8630D01*
X84022D01*
Y10031D01*
X85047D01*
Y16740D01*
X84265D01*
Y20079D01*
X84260Y20105D01*
Y21661D01*
X81807D01*
X81685Y21661D01*
X81307D01*
X81185Y21661D01*
X78732D01*
Y21293D01*
X68615D01*
X68556Y21740D01*
X68188Y22628D01*
X67603Y23390D01*
X66840Y23975D01*
X65953Y24343D01*
X65000Y24468D01*
D02*
G37*
G36*
X-2624Y-56266D02*
X-4224D01*
Y-61066D01*
X-2624D01*
Y-56266D01*
D02*
G37*
G36*
X-5224D02*
X-6824D01*
Y-61066D01*
X-5224D01*
Y-56266D01*
D02*
G37*
G36*
X14961Y-53806D02*
X11024D01*
X10521Y-53905D01*
X10095Y-54190D01*
X9347Y-54938D01*
X9063Y-55364D01*
X8963Y-55866D01*
Y-56766D01*
X8676D01*
Y-66366D01*
X11876D01*
Y-56766D01*
X12237Y-56431D01*
X14417D01*
X20481Y-62494D01*
X20906Y-62779D01*
X21409Y-62879D01*
X34539D01*
Y-64909D01*
X43413D01*
Y-57610D01*
X34539D01*
Y-60254D01*
X21952D01*
X15889Y-54190D01*
X15463Y-53905D01*
X14961Y-53806D01*
D02*
G37*
G36*
X-2624Y-62066D02*
X-4224D01*
Y-66866D01*
X-2624D01*
Y-62066D01*
D02*
G37*
G36*
X-5224D02*
X-6824D01*
Y-66866D01*
X-5224D01*
Y-62066D01*
D02*
G37*
G36*
X39764Y-67579D02*
X38189D01*
X37236Y-67704D01*
X36348Y-68072D01*
X35586Y-68657D01*
X35001Y-69419D01*
X34633Y-70307D01*
X34508Y-71260D01*
X34633Y-72213D01*
X35001Y-73100D01*
X35586Y-73863D01*
X36348Y-74448D01*
X37236Y-74815D01*
X38189Y-74941D01*
X39764D01*
X40716Y-74815D01*
X41604Y-74448D01*
X42367Y-73863D01*
X42952Y-73100D01*
X43319Y-72213D01*
X43445Y-71260D01*
X43319Y-70307D01*
X42952Y-69419D01*
X42367Y-68657D01*
X41604Y-68072D01*
X40716Y-67704D01*
X39764Y-67579D01*
D02*
G37*
G36*
X2376Y-74866D02*
X776D01*
Y-79666D01*
X2376D01*
Y-74866D01*
D02*
G37*
G36*
X-224D02*
X-1824D01*
Y-79666D01*
X-224D01*
Y-74866D01*
D02*
G37*
G36*
X5276Y-70884D02*
X4620Y-71015D01*
X4064Y-71386D01*
X3692Y-71943D01*
X3562Y-72598D01*
X3692Y-73254D01*
X3963Y-73660D01*
Y-75366D01*
X3676D01*
Y-84966D01*
X4284D01*
Y-86646D01*
X4126D01*
Y-88945D01*
X4364D01*
Y-90183D01*
X3912Y-90635D01*
X3741Y-90749D01*
X3500Y-91110D01*
X3416Y-91535D01*
Y-92512D01*
X2945D01*
Y-95677D01*
X6110D01*
Y-95677D01*
X6488D01*
Y-95677D01*
X9653D01*
Y-92512D01*
X9183D01*
Y-89016D01*
X9098Y-88590D01*
X8857Y-88230D01*
X8658Y-88097D01*
X8543Y-87603D01*
X8557Y-87491D01*
X10691Y-85357D01*
X11033Y-85128D01*
X11142Y-84966D01*
X11876D01*
Y-75521D01*
X14894D01*
X16605Y-77232D01*
Y-79036D01*
X16504Y-79103D01*
X16133Y-79659D01*
X16003Y-80315D01*
X16133Y-80971D01*
X16504Y-81527D01*
X17061Y-81898D01*
X17717Y-82029D01*
X18372Y-81898D01*
X18928Y-81527D01*
X19300Y-80971D01*
X19431Y-80315D01*
X19300Y-79659D01*
X18928Y-79103D01*
X18828Y-79036D01*
Y-76772D01*
X18828Y-76772D01*
X18744Y-76346D01*
X18503Y-75985D01*
X18503Y-75985D01*
X16141Y-73623D01*
X15780Y-73382D01*
X15354Y-73298D01*
X15354Y-73298D01*
X11024D01*
X10598Y-73382D01*
X10237Y-73623D01*
X10237Y-73623D01*
X9564Y-74297D01*
X9323Y-74658D01*
X9238Y-75083D01*
X8872Y-75366D01*
X8676D01*
Y-84568D01*
X6767Y-86476D01*
X6267Y-86269D01*
Y-84966D01*
X6876D01*
Y-75366D01*
X6588D01*
Y-73660D01*
X6859Y-73254D01*
X6990Y-72598D01*
X6859Y-71943D01*
X6488Y-71386D01*
X5931Y-71015D01*
X5276Y-70884D01*
D02*
G37*
G36*
X83017Y-76627D02*
X82163Y-76711D01*
X80861Y-77106D01*
X79662Y-77747D01*
X78610Y-78610D01*
X77747Y-79662D01*
X77106Y-80861D01*
X76711Y-82163D01*
X76627Y-83017D01*
X83017D01*
Y-76627D01*
D02*
G37*
G36*
X-83017D02*
Y-83017D01*
X-76627D01*
X-76711Y-82163D01*
X-77106Y-80861D01*
X-77747Y-79662D01*
X-78610Y-78610D01*
X-79662Y-77747D01*
X-80861Y-77106D01*
X-82163Y-76711D01*
X-83017Y-76627D01*
D02*
G37*
G36*
X6876Y-56766D02*
X3676D01*
Y-66366D01*
X3963D01*
Y-67480D01*
X4063Y-67983D01*
X4347Y-68409D01*
X6159Y-70219D01*
X6584Y-70504D01*
X7087Y-70604D01*
X14417D01*
X26001Y-82188D01*
X26427Y-82473D01*
X26929Y-82573D01*
X34782D01*
X35001Y-83100D01*
X35586Y-83863D01*
X36348Y-84448D01*
X37236Y-84816D01*
X38189Y-84941D01*
X39764D01*
X40716Y-84816D01*
X41604Y-84448D01*
X42367Y-83863D01*
X42952Y-83100D01*
X43319Y-82213D01*
X43445Y-81260D01*
X43319Y-80307D01*
X42952Y-79419D01*
X42367Y-78657D01*
X41604Y-78072D01*
X40716Y-77704D01*
X39764Y-77579D01*
X38189D01*
X37236Y-77704D01*
X36348Y-78072D01*
X35586Y-78657D01*
X35001Y-79419D01*
X34782Y-79947D01*
X27473D01*
X15889Y-68363D01*
X15463Y-68079D01*
X14961Y-67979D01*
X7630D01*
X6588Y-66937D01*
Y-66366D01*
X6876D01*
Y-56766D01*
D02*
G37*
G36*
X2376Y-80666D02*
X776D01*
Y-85466D01*
X2376D01*
Y-80666D01*
D02*
G37*
G36*
X-224D02*
X-1824D01*
Y-85466D01*
X-224D01*
Y-80666D01*
D02*
G37*
G36*
X-1480Y-86146D02*
X-2571D01*
Y-87295D01*
X-1480D01*
Y-86146D01*
D02*
G37*
G36*
Y-88295D02*
X-2571D01*
Y-89445D01*
X-1480D01*
Y-88295D01*
D02*
G37*
G36*
X-4331Y-67971D02*
X-4987Y-68102D01*
X-5543Y-68473D01*
X-5914Y-69029D01*
X-6045Y-69685D01*
X-5914Y-70341D01*
X-5643Y-70746D01*
Y-75366D01*
X-6324D01*
Y-84966D01*
X-5716D01*
Y-86646D01*
X-5854D01*
Y-88945D01*
X-4661D01*
Y-89445D01*
X-3571D01*
Y-87795D01*
Y-86146D01*
X-3733D01*
Y-84966D01*
X-3124D01*
Y-80639D01*
X-2933Y-80352D01*
X-2817Y-79772D01*
X-2933Y-79193D01*
X-3018Y-79065D01*
Y-70746D01*
X-2747Y-70341D01*
X-2617Y-69685D01*
X-2747Y-69029D01*
X-3119Y-68473D01*
X-3675Y-68102D01*
X-4331Y-67971D01*
D02*
G37*
G36*
X-19724Y-75335D02*
X-20349Y-75459D01*
X-20878Y-75813D01*
X-21232Y-76342D01*
X-21356Y-76966D01*
Y-83366D01*
X-21232Y-83990D01*
X-21037Y-84282D01*
Y-87756D01*
X-20937Y-88258D01*
X-20653Y-88684D01*
X-19432Y-89904D01*
X-19006Y-90189D01*
X-18504Y-90289D01*
X-18187D01*
X-17782Y-90560D01*
X-17126Y-90690D01*
X-16470Y-90560D01*
X-16065Y-90289D01*
X-15748D01*
X-15246Y-90189D01*
X-14820Y-89904D01*
X-13796Y-88881D01*
X-13512Y-88455D01*
X-13412Y-87953D01*
Y-84966D01*
X-13124D01*
Y-75366D01*
X-16324D01*
Y-84966D01*
X-16037D01*
Y-87081D01*
X-16369Y-87320D01*
X-16537Y-87379D01*
X-17126Y-87262D01*
X-17782Y-87393D01*
X-18051Y-87573D01*
X-18412Y-87212D01*
Y-84282D01*
X-18217Y-83990D01*
X-18093Y-83366D01*
Y-76966D01*
X-18217Y-76342D01*
X-18571Y-75813D01*
X-19100Y-75459D01*
X-19724Y-75335D01*
D02*
G37*
G36*
X-8124Y-75366D02*
X-11324D01*
Y-84966D01*
X-11155D01*
Y-92077D01*
X-11275Y-92257D01*
X-11406Y-92913D01*
X-11275Y-93569D01*
X-10904Y-94125D01*
X-10348Y-94497D01*
X-9692Y-94627D01*
X-9036Y-94497D01*
X-8480Y-94125D01*
X-8108Y-93569D01*
X-7978Y-92913D01*
X-8108Y-92257D01*
X-8480Y-91701D01*
X-8530Y-91668D01*
Y-84966D01*
X-8124D01*
Y-75366D01*
D02*
G37*
%LPD*%
D15*
X5276Y-90787D02*
Y-87795D01*
X86614Y-2756D02*
X86811Y-2559D01*
D16*
X10350Y-80240D02*
X10424Y-80315D01*
X10276Y-80166D02*
X10350Y-80240D01*
X21409Y-61566D02*
X38670D01*
X14961Y-55118D02*
X21409Y-61566D01*
X11024Y-55118D02*
X14961D01*
X10276Y-55866D02*
X11024Y-55118D01*
X10276Y-61566D02*
Y-55866D01*
X-9843Y-92913D02*
Y-80284D01*
X5276Y-80166D02*
Y-72598D01*
X-9843Y-92913D02*
X-9692D01*
X-9935D02*
X-9843D01*
Y-80284D02*
X-9724Y-80166D01*
X89272Y13386D02*
Y20374D01*
X73622Y-55512D02*
X74803Y-54331D01*
Y-6693D01*
X-17126Y-88976D02*
X-15748D01*
X-18504D02*
X-17126D01*
X-14724Y-87953D02*
Y-80166D01*
X-15748Y-88976D02*
X-14724Y-87953D01*
X-19724Y-87756D02*
X-18504Y-88976D01*
X1969Y-50000D02*
X7087D01*
X394Y-51575D02*
X1969Y-50000D01*
X394Y-54724D02*
Y-51575D01*
X91535Y-27953D02*
Y-8268D01*
X8661Y-45276D02*
X12598Y-41339D01*
X-3543Y-45276D02*
X8661D01*
X-4150Y-49394D02*
X276Y-53819D01*
X-13173Y-49394D02*
X-4150D01*
X-8268Y-54724D02*
Y-53543D01*
X-18110Y-54331D02*
X-13173Y-49394D01*
X-9724Y-56181D02*
X-8268Y-54724D01*
X-9724Y-61566D02*
Y-56181D01*
X276Y-61566D02*
Y-53819D01*
X-16535Y-54331D02*
X-14724Y-56142D01*
X-19724Y-55945D02*
X-18110Y-54331D01*
X-16535D01*
X-19724Y-87756D02*
Y-80166D01*
X-14724Y-61566D02*
Y-56142D01*
X-19724Y-61566D02*
Y-55945D01*
X-4331Y-79772D02*
Y-69685D01*
X-25000Y-6890D02*
X-10122Y-21768D01*
X-25000Y-6890D02*
Y20000D01*
X14961Y-69291D02*
X26929Y-81260D01*
X7087Y-69291D02*
X14961D01*
X5276Y-67480D02*
X7087Y-69291D01*
X26929Y-81260D02*
X38976D01*
X5276Y-67480D02*
Y-61566D01*
D20*
X-63327Y44094D02*
D03*
X-65020D02*
D03*
X5217Y-87795D02*
D03*
X6909D02*
D03*
X-3071D02*
D03*
X-4764D02*
D03*
X92579Y-2756D02*
D03*
X90886D02*
D03*
X86673D02*
D03*
X84980D02*
D03*
X91024Y7480D02*
D03*
X89331D02*
D03*
X81445D02*
D03*
X83126D02*
D03*
D21*
X80020Y20079D02*
D03*
X82972D02*
D03*
D22*
X-19724Y-80166D02*
D03*
D23*
X-14724D02*
D03*
X-9724D02*
D03*
X-4724D02*
D03*
X276D02*
D03*
X5276D02*
D03*
X10276D02*
D03*
Y-61566D02*
D03*
X5276D02*
D03*
X276D02*
D03*
X-4724D02*
D03*
X-9724D02*
D03*
X-14724D02*
D03*
X-19724D02*
D03*
D24*
X83169Y13386D02*
D03*
X89272D02*
D03*
D25*
X8071Y-94095D02*
D03*
X4528D02*
D03*
D26*
X86417Y-8268D02*
D03*
X91535D02*
D03*
D27*
X86811Y2362D02*
D03*
X81693D02*
D03*
D42*
X10350Y-80240D02*
Y-75083D01*
X17717Y-80315D02*
Y-76772D01*
X15354Y-74410D02*
X17717Y-76772D01*
X11024Y-74410D02*
X15354D01*
X10350Y-75083D02*
X11024Y-74410D01*
X8071Y-94095D02*
Y-89016D01*
X4528Y-94095D02*
Y-91535D01*
X91535Y-8268D02*
Y-5315D01*
D43*
X6850Y-87795D02*
X10276Y-84370D01*
X6850Y-87795D02*
X8071Y-89016D01*
X83858Y-4724D02*
X85039Y-3543D01*
Y-2756D01*
X5276Y-87795D02*
Y-80166D01*
X-4724Y-87795D02*
Y-80166D01*
X86614Y-8268D02*
Y-2756D01*
D44*
X81496Y1575D02*
Y7480D01*
X83071D02*
Y13386D01*
X92520Y-4331D02*
Y-2756D01*
D45*
X82677Y-4724D02*
X83858D01*
X74803Y-6693D02*
X81693Y197D01*
X80709Y-46457D02*
Y-7480D01*
X80315Y-7087D02*
X80709Y-7480D01*
X80315Y-7087D02*
X82677Y-4724D01*
X81693Y197D02*
Y2362D01*
X86811Y-2559D02*
Y2362D01*
X89272Y7579D02*
Y13386D01*
X-65000Y30000D02*
Y44055D01*
D46*
X-4724Y-80166D02*
X-4331Y-79772D01*
D47*
X-10122Y-42913D02*
Y-21768D01*
D48*
X10276Y-84370D02*
Y-80166D01*
X4528Y-91535D02*
X5276Y-90787D01*
X91535Y-5315D02*
X92520Y-4331D01*
D49*
X82972Y13484D02*
X83071Y13386D01*
X82972Y13484D02*
Y20079D01*
X65000Y20000D02*
X79941D01*
D50*
X83517Y-83517D02*
D03*
X-83517D02*
D03*
X83517Y83517D02*
D03*
X-83517D02*
D03*
D51*
X38976Y-61260D02*
D03*
D52*
Y-71260D02*
D03*
Y-81260D02*
D03*
D53*
X65000Y30000D02*
D03*
Y-30000D02*
D03*
Y-20000D02*
D03*
Y-10000D02*
D03*
Y0D02*
D03*
Y10000D02*
D03*
Y20000D02*
D03*
X55000Y30000D02*
D03*
X45000D02*
D03*
X35000D02*
D03*
X25000D02*
D03*
X15000D02*
D03*
X5000D02*
D03*
X-5000D02*
D03*
X-15000D02*
D03*
X-25000D02*
D03*
X-35000D02*
D03*
X-45000D02*
D03*
X-55000D02*
D03*
X-65000D02*
D03*
X55000Y-30000D02*
D03*
X45000D02*
D03*
X35000D02*
D03*
X25000D02*
D03*
X15000D02*
D03*
X5000D02*
D03*
X-5000D02*
D03*
X-15000D02*
D03*
X-25000D02*
D03*
X-35000D02*
D03*
X-45000D02*
D03*
X-55000D02*
D03*
X-35000Y20000D02*
D03*
X-25000D02*
D03*
X-15000D02*
D03*
D54*
X-65000Y-30000D02*
D03*
D55*
X17717Y-80315D02*
D03*
X5276Y-72598D02*
D03*
X-9692Y-92913D02*
D03*
X89272Y20374D02*
D03*
X73622Y-55512D02*
D03*
X-17126Y-88976D02*
D03*
X80709Y-46457D02*
D03*
X7087Y-50000D02*
D03*
X91339Y-27953D02*
D03*
X12598Y-41339D02*
D03*
X-3543Y-45276D02*
D03*
X-8268Y-53543D02*
D03*
X-4331Y-69685D02*
D03*
X-10122Y-42913D02*
D03*
M02*
