G75*
%MOIN*%
%OFA0B0*%
%FSLAX25Y25*%
%IPPOS*%
%LPD*%
%AMOC8*
5,1,8,0,0,1.08239X$1,22.5*
%
%ADD10R,0.07887X0.07099*%
%ADD11C,0.06800*%
%ADD12R,0.04540X0.09265*%
%ADD13R,0.13595X0.09265*%
%ADD14R,0.05131X0.04737*%
%ADD15R,0.04737X0.05131*%
%ADD16R,0.08674X0.05524*%
%ADD17R,0.05524X0.08674*%
%ADD18C,0.08300*%
%ADD19C,0.06343*%
%ADD20C,0.03778*%
D10*
X0026300Y0045788D03*
X0026300Y0056812D03*
D11*
X0016500Y0072400D02*
X0010500Y0072400D01*
X0010500Y0090200D02*
X0016500Y0090200D01*
X0016500Y0102400D02*
X0010500Y0102400D01*
X0036100Y0102400D02*
X0042100Y0102400D01*
X0042100Y0090200D02*
X0036100Y0090200D01*
X0036100Y0072400D02*
X0042100Y0072400D01*
X0042100Y0120200D02*
X0036100Y0120200D01*
X0016500Y0120200D02*
X0010500Y0120200D01*
X0086300Y0019300D02*
X0086300Y0013300D01*
X0096300Y0013300D02*
X0096300Y0019300D01*
X0106300Y0019300D02*
X0106300Y0013300D01*
X0203300Y0016300D02*
X0209300Y0016300D01*
X0209300Y0026300D02*
X0203300Y0026300D01*
X0203300Y0036300D02*
X0209300Y0036300D01*
X0209300Y0046300D02*
X0203300Y0046300D01*
X0203300Y0066300D02*
X0209300Y0066300D01*
X0209300Y0076300D02*
X0203300Y0076300D01*
X0203300Y0086300D02*
X0209300Y0086300D01*
X0209300Y0096300D02*
X0203300Y0096300D01*
X0203300Y0106300D02*
X0209300Y0106300D01*
X0209300Y0116300D02*
X0203300Y0116300D01*
D12*
X0060355Y0009883D03*
X0051300Y0009883D03*
X0042245Y0009883D03*
D13*
X0051300Y0032717D03*
D14*
X0039646Y0131300D03*
X0032954Y0131300D03*
X0019646Y0131300D03*
X0012954Y0131300D03*
D15*
X0131300Y0119646D03*
X0131300Y0112954D03*
X0121300Y0034646D03*
X0121300Y0027954D03*
D16*
X0120080Y0049174D03*
X0120080Y0057048D03*
X0120080Y0064922D03*
X0120080Y0072796D03*
X0120080Y0080670D03*
X0120080Y0088544D03*
X0120080Y0096418D03*
X0120080Y0104292D03*
X0056300Y0104292D03*
X0056300Y0096418D03*
X0056300Y0088544D03*
X0056300Y0080670D03*
X0056300Y0072796D03*
X0056300Y0064922D03*
X0056300Y0057048D03*
X0056300Y0049174D03*
D17*
X0068111Y0041300D03*
X0075985Y0041300D03*
X0083859Y0041300D03*
X0091733Y0041300D03*
X0099607Y0041300D03*
X0107481Y0041300D03*
D18*
X0136300Y0036300D03*
X0136300Y0046300D03*
X0136300Y0056300D03*
X0136300Y0066300D03*
X0136300Y0076300D03*
X0136300Y0086300D03*
X0186300Y0086300D03*
X0186300Y0076300D03*
X0186300Y0066300D03*
X0186300Y0056300D03*
X0186300Y0046300D03*
X0186300Y0036300D03*
X0186300Y0026300D03*
X0186300Y0016300D03*
X0136300Y0016300D03*
X0136300Y0026300D03*
D19*
X0011300Y0012363D03*
X0011300Y0020237D03*
D20*
X0055300Y0025900D03*
X0061300Y0021300D03*
M02*
