G75*
%MOIN*%
%OFA0B0*%
%FSLAX25Y25*%
%IPPOS*%
%LPD*%
%AMOC8*
5,1,8,0,0,1.08239X$1,22.5*
%
%ADD10C,0.00000*%
%ADD11C,0.00400*%
%ADD12C,0.00600*%
%ADD13C,0.00500*%
%ADD14C,0.00200*%
%ADD15C,0.00800*%
%ADD16C,0.00100*%
D10*
X0001300Y0001300D02*
X0001300Y0149761D01*
X0225001Y0149761D01*
X0225001Y0001300D01*
X0001300Y0001300D01*
D11*
X0016500Y0009059D02*
X0021100Y0010592D01*
X0016500Y0012126D01*
X0019311Y0013859D02*
X0019311Y0016926D01*
X0020844Y0015392D02*
X0017778Y0015392D01*
X0016500Y0018781D02*
X0016500Y0019803D01*
X0016500Y0019292D02*
X0021100Y0019292D01*
X0021100Y0018781D02*
X0021100Y0019803D01*
X0021100Y0021765D02*
X0016500Y0021765D01*
X0021100Y0024320D01*
X0016500Y0024320D01*
X0016500Y0026631D02*
X0016500Y0027909D01*
X0016500Y0026631D02*
X0021100Y0026631D01*
X0019056Y0026631D02*
X0019056Y0027909D01*
X0019054Y0027979D01*
X0019048Y0028050D01*
X0019039Y0028119D01*
X0019025Y0028188D01*
X0019008Y0028257D01*
X0018987Y0028324D01*
X0018962Y0028390D01*
X0018934Y0028454D01*
X0018902Y0028517D01*
X0018867Y0028578D01*
X0018828Y0028637D01*
X0018787Y0028694D01*
X0018742Y0028748D01*
X0018694Y0028800D01*
X0018644Y0028849D01*
X0018590Y0028896D01*
X0018535Y0028939D01*
X0018477Y0028979D01*
X0018417Y0029016D01*
X0018355Y0029049D01*
X0018291Y0029079D01*
X0018226Y0029106D01*
X0018160Y0029129D01*
X0018092Y0029148D01*
X0018023Y0029163D01*
X0017954Y0029175D01*
X0017884Y0029183D01*
X0017813Y0029187D01*
X0017743Y0029187D01*
X0017672Y0029183D01*
X0017602Y0029175D01*
X0017533Y0029163D01*
X0017464Y0029148D01*
X0017396Y0029129D01*
X0017330Y0029106D01*
X0017265Y0029079D01*
X0017201Y0029049D01*
X0017139Y0029016D01*
X0017079Y0028979D01*
X0017021Y0028939D01*
X0016966Y0028896D01*
X0016912Y0028849D01*
X0016862Y0028800D01*
X0016814Y0028748D01*
X0016769Y0028694D01*
X0016728Y0028637D01*
X0016689Y0028578D01*
X0016654Y0028517D01*
X0016622Y0028454D01*
X0016594Y0028390D01*
X0016569Y0028324D01*
X0016548Y0028257D01*
X0016531Y0028188D01*
X0016517Y0028119D01*
X0016508Y0028050D01*
X0016502Y0027979D01*
X0016500Y0027909D01*
X0016500Y0031065D02*
X0019822Y0031065D01*
X0019822Y0031064D02*
X0019892Y0031066D01*
X0019963Y0031072D01*
X0020032Y0031081D01*
X0020101Y0031095D01*
X0020170Y0031112D01*
X0020237Y0031133D01*
X0020303Y0031158D01*
X0020367Y0031186D01*
X0020430Y0031218D01*
X0020491Y0031253D01*
X0020550Y0031292D01*
X0020607Y0031333D01*
X0020661Y0031378D01*
X0020713Y0031426D01*
X0020762Y0031476D01*
X0020809Y0031530D01*
X0020852Y0031585D01*
X0020892Y0031643D01*
X0020929Y0031703D01*
X0020962Y0031765D01*
X0020992Y0031829D01*
X0021019Y0031894D01*
X0021042Y0031960D01*
X0021061Y0032028D01*
X0021076Y0032097D01*
X0021088Y0032166D01*
X0021096Y0032236D01*
X0021100Y0032307D01*
X0021100Y0032377D01*
X0021096Y0032448D01*
X0021088Y0032518D01*
X0021076Y0032587D01*
X0021061Y0032656D01*
X0021042Y0032724D01*
X0021019Y0032790D01*
X0020992Y0032855D01*
X0020962Y0032919D01*
X0020929Y0032981D01*
X0020892Y0033041D01*
X0020852Y0033099D01*
X0020809Y0033154D01*
X0020762Y0033208D01*
X0020713Y0033258D01*
X0020661Y0033306D01*
X0020607Y0033351D01*
X0020550Y0033392D01*
X0020491Y0033431D01*
X0020430Y0033466D01*
X0020367Y0033498D01*
X0020303Y0033526D01*
X0020237Y0033551D01*
X0020170Y0033572D01*
X0020101Y0033589D01*
X0020032Y0033603D01*
X0019963Y0033612D01*
X0019892Y0033618D01*
X0019822Y0033620D01*
X0016500Y0033620D01*
X0016500Y0035415D02*
X0016500Y0037970D01*
X0016500Y0036692D02*
X0021100Y0036692D01*
X0032522Y0049781D02*
X0035078Y0049781D01*
X0035078Y0049782D02*
X0035140Y0049784D01*
X0035201Y0049789D01*
X0035262Y0049799D01*
X0035323Y0049812D01*
X0035382Y0049828D01*
X0035440Y0049848D01*
X0035497Y0049872D01*
X0035553Y0049899D01*
X0035607Y0049929D01*
X0035659Y0049963D01*
X0035708Y0049999D01*
X0035756Y0050039D01*
X0035801Y0050081D01*
X0035843Y0050126D01*
X0035883Y0050174D01*
X0035919Y0050223D01*
X0035953Y0050275D01*
X0035983Y0050329D01*
X0036010Y0050385D01*
X0036034Y0050442D01*
X0036054Y0050500D01*
X0036070Y0050559D01*
X0036083Y0050620D01*
X0036093Y0050681D01*
X0036098Y0050742D01*
X0036100Y0050804D01*
X0036100Y0051826D01*
X0036100Y0053544D02*
X0036100Y0056100D01*
X0036100Y0054822D02*
X0031500Y0054822D01*
X0032522Y0053544D01*
X0031500Y0051826D02*
X0031500Y0050804D01*
X0031502Y0050742D01*
X0031507Y0050681D01*
X0031517Y0050620D01*
X0031530Y0050559D01*
X0031546Y0050500D01*
X0031566Y0050442D01*
X0031590Y0050385D01*
X0031617Y0050329D01*
X0031647Y0050275D01*
X0031681Y0050223D01*
X0031718Y0050174D01*
X0031757Y0050126D01*
X0031799Y0050081D01*
X0031844Y0050039D01*
X0031892Y0049999D01*
X0031941Y0049963D01*
X0031993Y0049929D01*
X0032047Y0049899D01*
X0032103Y0049872D01*
X0032160Y0049848D01*
X0032218Y0049828D01*
X0032277Y0049812D01*
X0032338Y0049799D01*
X0032399Y0049789D01*
X0032460Y0049784D01*
X0032522Y0049782D01*
X0036730Y0023946D02*
X0036730Y0021390D01*
X0036730Y0022668D02*
X0032130Y0022668D01*
X0033152Y0021390D01*
X0032130Y0019672D02*
X0032130Y0018650D01*
X0032132Y0018588D01*
X0032137Y0018527D01*
X0032147Y0018466D01*
X0032160Y0018405D01*
X0032176Y0018346D01*
X0032196Y0018288D01*
X0032220Y0018231D01*
X0032247Y0018175D01*
X0032277Y0018121D01*
X0032311Y0018069D01*
X0032348Y0018020D01*
X0032387Y0017972D01*
X0032429Y0017927D01*
X0032474Y0017885D01*
X0032522Y0017845D01*
X0032571Y0017809D01*
X0032623Y0017775D01*
X0032677Y0017745D01*
X0032733Y0017718D01*
X0032790Y0017694D01*
X0032848Y0017674D01*
X0032907Y0017658D01*
X0032968Y0017645D01*
X0033029Y0017635D01*
X0033090Y0017630D01*
X0033152Y0017628D01*
X0033152Y0017627D02*
X0035708Y0017627D01*
X0035708Y0017628D02*
X0035770Y0017630D01*
X0035831Y0017635D01*
X0035892Y0017645D01*
X0035953Y0017658D01*
X0036012Y0017674D01*
X0036070Y0017694D01*
X0036127Y0017718D01*
X0036183Y0017745D01*
X0036237Y0017775D01*
X0036289Y0017809D01*
X0036338Y0017845D01*
X0036386Y0017885D01*
X0036431Y0017927D01*
X0036473Y0017972D01*
X0036513Y0018020D01*
X0036549Y0018069D01*
X0036583Y0018121D01*
X0036613Y0018175D01*
X0036640Y0018231D01*
X0036664Y0018288D01*
X0036684Y0018346D01*
X0036700Y0018405D01*
X0036713Y0018466D01*
X0036723Y0018527D01*
X0036728Y0018588D01*
X0036730Y0018650D01*
X0036730Y0019672D01*
X0036730Y0015829D02*
X0036730Y0014807D01*
X0036730Y0015318D02*
X0032130Y0015318D01*
X0032130Y0014807D02*
X0032130Y0015829D01*
X0127356Y0007933D02*
X0128762Y0007167D01*
X0128251Y0005250D02*
X0128161Y0005252D01*
X0128072Y0005257D01*
X0127983Y0005267D01*
X0127894Y0005280D01*
X0127806Y0005296D01*
X0127718Y0005317D01*
X0127632Y0005341D01*
X0127546Y0005368D01*
X0127462Y0005399D01*
X0127379Y0005434D01*
X0127298Y0005472D01*
X0127218Y0005513D01*
X0127141Y0005557D01*
X0127065Y0005605D01*
X0126991Y0005656D01*
X0126919Y0005710D01*
X0126850Y0005767D01*
X0126782Y0005826D01*
X0126718Y0005889D01*
X0128762Y0007166D02*
X0128816Y0007132D01*
X0128867Y0007095D01*
X0128916Y0007055D01*
X0128963Y0007012D01*
X0129006Y0006966D01*
X0129047Y0006918D01*
X0129085Y0006867D01*
X0129120Y0006814D01*
X0129152Y0006759D01*
X0129180Y0006702D01*
X0129204Y0006644D01*
X0129225Y0006584D01*
X0129242Y0006523D01*
X0129256Y0006461D01*
X0129265Y0006398D01*
X0129271Y0006335D01*
X0129273Y0006272D01*
X0129271Y0006210D01*
X0129266Y0006149D01*
X0129256Y0006088D01*
X0129243Y0006027D01*
X0129227Y0005968D01*
X0129207Y0005910D01*
X0129183Y0005853D01*
X0129156Y0005797D01*
X0129126Y0005743D01*
X0129092Y0005691D01*
X0129056Y0005642D01*
X0129016Y0005594D01*
X0128974Y0005549D01*
X0128929Y0005507D01*
X0128881Y0005467D01*
X0128832Y0005431D01*
X0128780Y0005397D01*
X0128726Y0005367D01*
X0128670Y0005340D01*
X0128613Y0005316D01*
X0128555Y0005296D01*
X0128496Y0005280D01*
X0128435Y0005267D01*
X0128374Y0005257D01*
X0128313Y0005252D01*
X0128251Y0005250D01*
X0129018Y0009467D02*
X0128951Y0009515D01*
X0128883Y0009560D01*
X0128812Y0009602D01*
X0128739Y0009640D01*
X0128665Y0009676D01*
X0128590Y0009709D01*
X0128513Y0009738D01*
X0128435Y0009764D01*
X0128356Y0009787D01*
X0128276Y0009806D01*
X0128195Y0009822D01*
X0128114Y0009834D01*
X0128032Y0009843D01*
X0127950Y0009848D01*
X0127868Y0009850D01*
X0127806Y0009848D01*
X0127745Y0009843D01*
X0127684Y0009833D01*
X0127623Y0009820D01*
X0127564Y0009804D01*
X0127506Y0009784D01*
X0127449Y0009760D01*
X0127393Y0009733D01*
X0127339Y0009703D01*
X0127287Y0009669D01*
X0127238Y0009633D01*
X0127190Y0009593D01*
X0127145Y0009551D01*
X0127103Y0009506D01*
X0127064Y0009458D01*
X0127027Y0009409D01*
X0126993Y0009357D01*
X0126963Y0009303D01*
X0126936Y0009247D01*
X0126912Y0009190D01*
X0126892Y0009132D01*
X0126876Y0009073D01*
X0126863Y0009012D01*
X0126853Y0008951D01*
X0126848Y0008890D01*
X0126846Y0008828D01*
X0126845Y0008828D02*
X0126847Y0008765D01*
X0126853Y0008702D01*
X0126862Y0008639D01*
X0126876Y0008577D01*
X0126893Y0008516D01*
X0126914Y0008456D01*
X0126938Y0008398D01*
X0126966Y0008341D01*
X0126998Y0008286D01*
X0127033Y0008233D01*
X0127071Y0008182D01*
X0127112Y0008134D01*
X0127155Y0008088D01*
X0127202Y0008045D01*
X0127251Y0008005D01*
X0127302Y0007968D01*
X0127356Y0007934D01*
X0130642Y0008317D02*
X0132176Y0008317D01*
X0131153Y0009850D02*
X0131153Y0006017D01*
X0131155Y0005962D01*
X0131161Y0005908D01*
X0131171Y0005854D01*
X0131184Y0005801D01*
X0131201Y0005749D01*
X0131222Y0005698D01*
X0131247Y0005649D01*
X0131275Y0005602D01*
X0131306Y0005557D01*
X0131340Y0005515D01*
X0131378Y0005475D01*
X0131418Y0005437D01*
X0131460Y0005403D01*
X0131505Y0005372D01*
X0131552Y0005344D01*
X0131601Y0005319D01*
X0131652Y0005298D01*
X0131704Y0005281D01*
X0131757Y0005268D01*
X0131811Y0005258D01*
X0131865Y0005252D01*
X0131920Y0005250D01*
X0132176Y0005250D01*
X0133873Y0006017D02*
X0133873Y0007294D01*
X0133873Y0006783D02*
X0135918Y0006783D01*
X0135918Y0007294D01*
X0135917Y0007294D02*
X0135915Y0007357D01*
X0135909Y0007420D01*
X0135900Y0007482D01*
X0135886Y0007543D01*
X0135869Y0007604D01*
X0135848Y0007663D01*
X0135823Y0007721D01*
X0135795Y0007778D01*
X0135764Y0007832D01*
X0135729Y0007884D01*
X0135691Y0007935D01*
X0135650Y0007983D01*
X0135606Y0008028D01*
X0135560Y0008070D01*
X0135511Y0008110D01*
X0135460Y0008146D01*
X0135406Y0008179D01*
X0135351Y0008209D01*
X0135293Y0008235D01*
X0135235Y0008258D01*
X0135175Y0008277D01*
X0135114Y0008292D01*
X0135052Y0008304D01*
X0134989Y0008312D01*
X0134926Y0008316D01*
X0134864Y0008316D01*
X0134801Y0008312D01*
X0134738Y0008304D01*
X0134676Y0008292D01*
X0134615Y0008277D01*
X0134555Y0008258D01*
X0134497Y0008235D01*
X0134439Y0008209D01*
X0134384Y0008179D01*
X0134330Y0008146D01*
X0134279Y0008110D01*
X0134230Y0008070D01*
X0134184Y0008028D01*
X0134140Y0007983D01*
X0134099Y0007935D01*
X0134061Y0007884D01*
X0134026Y0007832D01*
X0133995Y0007778D01*
X0133967Y0007721D01*
X0133942Y0007663D01*
X0133921Y0007604D01*
X0133904Y0007543D01*
X0133890Y0007482D01*
X0133881Y0007420D01*
X0133875Y0007357D01*
X0133873Y0007294D01*
X0133873Y0006017D02*
X0133875Y0005962D01*
X0133881Y0005908D01*
X0133891Y0005854D01*
X0133904Y0005801D01*
X0133921Y0005749D01*
X0133942Y0005698D01*
X0133967Y0005649D01*
X0133995Y0005602D01*
X0134026Y0005557D01*
X0134060Y0005515D01*
X0134098Y0005475D01*
X0134138Y0005437D01*
X0134180Y0005403D01*
X0134225Y0005372D01*
X0134272Y0005344D01*
X0134321Y0005319D01*
X0134372Y0005298D01*
X0134424Y0005281D01*
X0134477Y0005268D01*
X0134531Y0005258D01*
X0134585Y0005252D01*
X0134640Y0005250D01*
X0135918Y0005250D01*
X0137946Y0005250D02*
X0139224Y0005250D01*
X0139279Y0005252D01*
X0139333Y0005258D01*
X0139387Y0005268D01*
X0139440Y0005281D01*
X0139492Y0005298D01*
X0139543Y0005319D01*
X0139592Y0005344D01*
X0139639Y0005372D01*
X0139684Y0005403D01*
X0139726Y0005437D01*
X0139766Y0005475D01*
X0139804Y0005515D01*
X0139838Y0005557D01*
X0139869Y0005602D01*
X0139897Y0005649D01*
X0139922Y0005698D01*
X0139943Y0005749D01*
X0139960Y0005801D01*
X0139973Y0005854D01*
X0139983Y0005908D01*
X0139989Y0005962D01*
X0139991Y0006017D01*
X0139991Y0007550D01*
X0139989Y0007605D01*
X0139983Y0007659D01*
X0139973Y0007713D01*
X0139960Y0007766D01*
X0139943Y0007818D01*
X0139922Y0007869D01*
X0139897Y0007918D01*
X0139869Y0007965D01*
X0139838Y0008010D01*
X0139804Y0008052D01*
X0139766Y0008092D01*
X0139726Y0008130D01*
X0139684Y0008164D01*
X0139639Y0008195D01*
X0139592Y0008223D01*
X0139543Y0008248D01*
X0139492Y0008269D01*
X0139440Y0008286D01*
X0139387Y0008299D01*
X0139333Y0008309D01*
X0139279Y0008315D01*
X0139224Y0008317D01*
X0137946Y0008317D01*
X0137946Y0003717D01*
X0141996Y0003717D02*
X0141996Y0008317D01*
X0143274Y0008317D01*
X0143329Y0008315D01*
X0143383Y0008309D01*
X0143437Y0008299D01*
X0143490Y0008286D01*
X0143542Y0008269D01*
X0143593Y0008248D01*
X0143642Y0008223D01*
X0143689Y0008195D01*
X0143734Y0008164D01*
X0143776Y0008130D01*
X0143816Y0008092D01*
X0143854Y0008052D01*
X0143888Y0008010D01*
X0143919Y0007965D01*
X0143947Y0007918D01*
X0143972Y0007869D01*
X0143993Y0007818D01*
X0144010Y0007766D01*
X0144023Y0007713D01*
X0144033Y0007659D01*
X0144039Y0007605D01*
X0144041Y0007550D01*
X0144041Y0006017D01*
X0144039Y0005962D01*
X0144033Y0005908D01*
X0144023Y0005854D01*
X0144010Y0005801D01*
X0143993Y0005749D01*
X0143972Y0005698D01*
X0143947Y0005649D01*
X0143919Y0005602D01*
X0143888Y0005557D01*
X0143854Y0005515D01*
X0143816Y0005475D01*
X0143776Y0005437D01*
X0143734Y0005403D01*
X0143689Y0005372D01*
X0143642Y0005344D01*
X0143593Y0005319D01*
X0143542Y0005298D01*
X0143490Y0005281D01*
X0143437Y0005268D01*
X0143383Y0005258D01*
X0143329Y0005252D01*
X0143274Y0005250D01*
X0141996Y0005250D01*
X0145873Y0006017D02*
X0145873Y0007294D01*
X0145873Y0006783D02*
X0147917Y0006783D01*
X0147917Y0007294D01*
X0147915Y0007357D01*
X0147909Y0007420D01*
X0147900Y0007482D01*
X0147886Y0007543D01*
X0147869Y0007604D01*
X0147848Y0007663D01*
X0147823Y0007721D01*
X0147795Y0007778D01*
X0147764Y0007832D01*
X0147729Y0007884D01*
X0147691Y0007935D01*
X0147650Y0007983D01*
X0147606Y0008028D01*
X0147560Y0008070D01*
X0147511Y0008110D01*
X0147460Y0008146D01*
X0147406Y0008179D01*
X0147351Y0008209D01*
X0147293Y0008235D01*
X0147235Y0008258D01*
X0147175Y0008277D01*
X0147114Y0008292D01*
X0147052Y0008304D01*
X0146989Y0008312D01*
X0146926Y0008316D01*
X0146864Y0008316D01*
X0146801Y0008312D01*
X0146738Y0008304D01*
X0146676Y0008292D01*
X0146615Y0008277D01*
X0146555Y0008258D01*
X0146497Y0008235D01*
X0146439Y0008209D01*
X0146384Y0008179D01*
X0146330Y0008146D01*
X0146279Y0008110D01*
X0146230Y0008070D01*
X0146184Y0008028D01*
X0146140Y0007983D01*
X0146099Y0007935D01*
X0146061Y0007884D01*
X0146026Y0007832D01*
X0145995Y0007778D01*
X0145967Y0007721D01*
X0145942Y0007663D01*
X0145921Y0007604D01*
X0145904Y0007543D01*
X0145890Y0007482D01*
X0145881Y0007420D01*
X0145875Y0007357D01*
X0145873Y0007294D01*
X0145873Y0006017D02*
X0145875Y0005962D01*
X0145881Y0005908D01*
X0145891Y0005854D01*
X0145904Y0005801D01*
X0145921Y0005749D01*
X0145942Y0005698D01*
X0145967Y0005649D01*
X0145995Y0005602D01*
X0146026Y0005557D01*
X0146060Y0005515D01*
X0146098Y0005475D01*
X0146138Y0005437D01*
X0146180Y0005403D01*
X0146225Y0005372D01*
X0146272Y0005344D01*
X0146321Y0005319D01*
X0146372Y0005298D01*
X0146424Y0005281D01*
X0146477Y0005268D01*
X0146531Y0005258D01*
X0146585Y0005252D01*
X0146640Y0005250D01*
X0147917Y0005250D01*
X0149949Y0005250D02*
X0149949Y0008317D01*
X0151483Y0008317D01*
X0151483Y0007806D01*
X0155562Y0009850D02*
X0157095Y0007294D01*
X0158629Y0009850D01*
X0158629Y0005250D01*
X0160723Y0006272D02*
X0160723Y0007294D01*
X0160725Y0007357D01*
X0160731Y0007420D01*
X0160740Y0007482D01*
X0160754Y0007543D01*
X0160771Y0007604D01*
X0160792Y0007663D01*
X0160817Y0007721D01*
X0160845Y0007778D01*
X0160876Y0007832D01*
X0160911Y0007884D01*
X0160949Y0007935D01*
X0160990Y0007983D01*
X0161034Y0008028D01*
X0161080Y0008070D01*
X0161129Y0008110D01*
X0161180Y0008146D01*
X0161234Y0008179D01*
X0161289Y0008209D01*
X0161347Y0008235D01*
X0161405Y0008258D01*
X0161465Y0008277D01*
X0161526Y0008292D01*
X0161588Y0008304D01*
X0161651Y0008312D01*
X0161714Y0008316D01*
X0161776Y0008316D01*
X0161839Y0008312D01*
X0161902Y0008304D01*
X0161964Y0008292D01*
X0162025Y0008277D01*
X0162085Y0008258D01*
X0162143Y0008235D01*
X0162201Y0008209D01*
X0162256Y0008179D01*
X0162310Y0008146D01*
X0162361Y0008110D01*
X0162410Y0008070D01*
X0162456Y0008028D01*
X0162500Y0007983D01*
X0162541Y0007935D01*
X0162579Y0007884D01*
X0162614Y0007832D01*
X0162645Y0007778D01*
X0162673Y0007721D01*
X0162698Y0007663D01*
X0162719Y0007604D01*
X0162736Y0007543D01*
X0162750Y0007482D01*
X0162759Y0007420D01*
X0162765Y0007357D01*
X0162767Y0007294D01*
X0162767Y0006272D01*
X0162765Y0006209D01*
X0162759Y0006146D01*
X0162750Y0006084D01*
X0162736Y0006023D01*
X0162719Y0005962D01*
X0162698Y0005903D01*
X0162673Y0005845D01*
X0162645Y0005788D01*
X0162614Y0005734D01*
X0162579Y0005682D01*
X0162541Y0005631D01*
X0162500Y0005583D01*
X0162456Y0005538D01*
X0162410Y0005496D01*
X0162361Y0005456D01*
X0162310Y0005420D01*
X0162256Y0005387D01*
X0162201Y0005357D01*
X0162143Y0005331D01*
X0162085Y0005308D01*
X0162025Y0005289D01*
X0161964Y0005274D01*
X0161902Y0005262D01*
X0161839Y0005254D01*
X0161776Y0005250D01*
X0161714Y0005250D01*
X0161651Y0005254D01*
X0161588Y0005262D01*
X0161526Y0005274D01*
X0161465Y0005289D01*
X0161405Y0005308D01*
X0161347Y0005331D01*
X0161289Y0005357D01*
X0161234Y0005387D01*
X0161180Y0005420D01*
X0161129Y0005456D01*
X0161080Y0005496D01*
X0161034Y0005538D01*
X0160990Y0005583D01*
X0160949Y0005631D01*
X0160911Y0005682D01*
X0160876Y0005734D01*
X0160845Y0005788D01*
X0160817Y0005845D01*
X0160792Y0005903D01*
X0160771Y0005962D01*
X0160754Y0006023D01*
X0160740Y0006084D01*
X0160731Y0006146D01*
X0160725Y0006209D01*
X0160723Y0006272D01*
X0164753Y0006017D02*
X0164753Y0009850D01*
X0164242Y0008317D02*
X0165776Y0008317D01*
X0167473Y0007294D02*
X0167473Y0006272D01*
X0167475Y0006209D01*
X0167481Y0006146D01*
X0167490Y0006084D01*
X0167504Y0006023D01*
X0167521Y0005962D01*
X0167542Y0005903D01*
X0167567Y0005845D01*
X0167595Y0005788D01*
X0167626Y0005734D01*
X0167661Y0005682D01*
X0167699Y0005631D01*
X0167740Y0005583D01*
X0167784Y0005538D01*
X0167830Y0005496D01*
X0167879Y0005456D01*
X0167930Y0005420D01*
X0167984Y0005387D01*
X0168039Y0005357D01*
X0168097Y0005331D01*
X0168155Y0005308D01*
X0168215Y0005289D01*
X0168276Y0005274D01*
X0168338Y0005262D01*
X0168401Y0005254D01*
X0168464Y0005250D01*
X0168526Y0005250D01*
X0168589Y0005254D01*
X0168652Y0005262D01*
X0168714Y0005274D01*
X0168775Y0005289D01*
X0168835Y0005308D01*
X0168893Y0005331D01*
X0168951Y0005357D01*
X0169006Y0005387D01*
X0169060Y0005420D01*
X0169111Y0005456D01*
X0169160Y0005496D01*
X0169206Y0005538D01*
X0169250Y0005583D01*
X0169291Y0005631D01*
X0169329Y0005682D01*
X0169364Y0005734D01*
X0169395Y0005788D01*
X0169423Y0005845D01*
X0169448Y0005903D01*
X0169469Y0005962D01*
X0169486Y0006023D01*
X0169500Y0006084D01*
X0169509Y0006146D01*
X0169515Y0006209D01*
X0169517Y0006272D01*
X0169517Y0007294D01*
X0169515Y0007357D01*
X0169509Y0007420D01*
X0169500Y0007482D01*
X0169486Y0007543D01*
X0169469Y0007604D01*
X0169448Y0007663D01*
X0169423Y0007721D01*
X0169395Y0007778D01*
X0169364Y0007832D01*
X0169329Y0007884D01*
X0169291Y0007935D01*
X0169250Y0007983D01*
X0169206Y0008028D01*
X0169160Y0008070D01*
X0169111Y0008110D01*
X0169060Y0008146D01*
X0169006Y0008179D01*
X0168951Y0008209D01*
X0168893Y0008235D01*
X0168835Y0008258D01*
X0168775Y0008277D01*
X0168714Y0008292D01*
X0168652Y0008304D01*
X0168589Y0008312D01*
X0168526Y0008316D01*
X0168464Y0008316D01*
X0168401Y0008312D01*
X0168338Y0008304D01*
X0168276Y0008292D01*
X0168215Y0008277D01*
X0168155Y0008258D01*
X0168097Y0008235D01*
X0168039Y0008209D01*
X0167984Y0008179D01*
X0167930Y0008146D01*
X0167879Y0008110D01*
X0167830Y0008070D01*
X0167784Y0008028D01*
X0167740Y0007983D01*
X0167699Y0007935D01*
X0167661Y0007884D01*
X0167626Y0007832D01*
X0167595Y0007778D01*
X0167567Y0007721D01*
X0167542Y0007663D01*
X0167521Y0007604D01*
X0167504Y0007543D01*
X0167490Y0007482D01*
X0167481Y0007420D01*
X0167475Y0007357D01*
X0167473Y0007294D01*
X0165520Y0005250D02*
X0165465Y0005252D01*
X0165411Y0005258D01*
X0165357Y0005268D01*
X0165304Y0005281D01*
X0165252Y0005298D01*
X0165201Y0005319D01*
X0165152Y0005344D01*
X0165105Y0005372D01*
X0165060Y0005403D01*
X0165018Y0005437D01*
X0164978Y0005475D01*
X0164940Y0005515D01*
X0164906Y0005557D01*
X0164875Y0005602D01*
X0164847Y0005649D01*
X0164822Y0005698D01*
X0164801Y0005749D01*
X0164784Y0005801D01*
X0164771Y0005854D01*
X0164761Y0005908D01*
X0164755Y0005962D01*
X0164753Y0006017D01*
X0165520Y0005250D02*
X0165776Y0005250D01*
X0171549Y0005250D02*
X0171549Y0008317D01*
X0173083Y0008317D01*
X0173083Y0007806D01*
X0177117Y0009850D02*
X0177117Y0005250D01*
X0178395Y0005250D01*
X0178464Y0005252D01*
X0178533Y0005257D01*
X0178602Y0005267D01*
X0178670Y0005280D01*
X0178737Y0005297D01*
X0178803Y0005317D01*
X0178868Y0005341D01*
X0178932Y0005368D01*
X0178994Y0005399D01*
X0179054Y0005433D01*
X0179112Y0005470D01*
X0179168Y0005511D01*
X0179222Y0005554D01*
X0179274Y0005600D01*
X0179323Y0005649D01*
X0179369Y0005701D01*
X0179412Y0005755D01*
X0179453Y0005811D01*
X0179490Y0005869D01*
X0179524Y0005929D01*
X0179555Y0005991D01*
X0179582Y0006055D01*
X0179606Y0006120D01*
X0179626Y0006186D01*
X0179643Y0006253D01*
X0179656Y0006321D01*
X0179666Y0006390D01*
X0179671Y0006459D01*
X0179673Y0006528D01*
X0179673Y0008572D01*
X0179671Y0008641D01*
X0179666Y0008710D01*
X0179656Y0008779D01*
X0179643Y0008847D01*
X0179626Y0008914D01*
X0179606Y0008980D01*
X0179582Y0009045D01*
X0179555Y0009109D01*
X0179524Y0009171D01*
X0179490Y0009231D01*
X0179453Y0009289D01*
X0179412Y0009345D01*
X0179369Y0009399D01*
X0179323Y0009451D01*
X0179274Y0009500D01*
X0179222Y0009546D01*
X0179168Y0009589D01*
X0179112Y0009630D01*
X0179054Y0009667D01*
X0178994Y0009701D01*
X0178932Y0009732D01*
X0178868Y0009759D01*
X0178803Y0009783D01*
X0178737Y0009803D01*
X0178670Y0009820D01*
X0178602Y0009833D01*
X0178533Y0009843D01*
X0178464Y0009848D01*
X0178395Y0009850D01*
X0177117Y0009850D01*
X0181899Y0008317D02*
X0183432Y0008317D01*
X0183432Y0007806D01*
X0184845Y0008317D02*
X0184845Y0005250D01*
X0187545Y0005250D02*
X0188567Y0008317D01*
X0190273Y0007294D02*
X0190273Y0006017D01*
X0190273Y0006783D02*
X0192317Y0006783D01*
X0192317Y0007294D01*
X0192315Y0007357D01*
X0192309Y0007420D01*
X0192300Y0007482D01*
X0192286Y0007543D01*
X0192269Y0007604D01*
X0192248Y0007663D01*
X0192223Y0007721D01*
X0192195Y0007778D01*
X0192164Y0007832D01*
X0192129Y0007884D01*
X0192091Y0007935D01*
X0192050Y0007983D01*
X0192006Y0008028D01*
X0191960Y0008070D01*
X0191911Y0008110D01*
X0191860Y0008146D01*
X0191806Y0008179D01*
X0191751Y0008209D01*
X0191693Y0008235D01*
X0191635Y0008258D01*
X0191575Y0008277D01*
X0191514Y0008292D01*
X0191452Y0008304D01*
X0191389Y0008312D01*
X0191326Y0008316D01*
X0191264Y0008316D01*
X0191201Y0008312D01*
X0191138Y0008304D01*
X0191076Y0008292D01*
X0191015Y0008277D01*
X0190955Y0008258D01*
X0190897Y0008235D01*
X0190839Y0008209D01*
X0190784Y0008179D01*
X0190730Y0008146D01*
X0190679Y0008110D01*
X0190630Y0008070D01*
X0190584Y0008028D01*
X0190540Y0007983D01*
X0190499Y0007935D01*
X0190461Y0007884D01*
X0190426Y0007832D01*
X0190395Y0007778D01*
X0190367Y0007721D01*
X0190342Y0007663D01*
X0190321Y0007604D01*
X0190304Y0007543D01*
X0190290Y0007482D01*
X0190281Y0007420D01*
X0190275Y0007357D01*
X0190273Y0007294D01*
X0190273Y0006017D02*
X0190275Y0005962D01*
X0190281Y0005908D01*
X0190291Y0005854D01*
X0190304Y0005801D01*
X0190321Y0005749D01*
X0190342Y0005698D01*
X0190367Y0005649D01*
X0190395Y0005602D01*
X0190426Y0005557D01*
X0190460Y0005515D01*
X0190498Y0005475D01*
X0190538Y0005437D01*
X0190580Y0005403D01*
X0190625Y0005372D01*
X0190672Y0005344D01*
X0190721Y0005319D01*
X0190772Y0005298D01*
X0190824Y0005281D01*
X0190877Y0005268D01*
X0190931Y0005258D01*
X0190985Y0005252D01*
X0191040Y0005250D01*
X0192317Y0005250D01*
X0194349Y0005250D02*
X0194349Y0008317D01*
X0195882Y0008317D01*
X0195882Y0007806D01*
X0187545Y0005250D02*
X0186523Y0008317D01*
X0184973Y0009594D02*
X0184717Y0009594D01*
X0184717Y0009850D01*
X0184973Y0009850D01*
X0184973Y0009594D01*
X0181899Y0008317D02*
X0181899Y0005250D01*
X0171706Y0014028D02*
X0171704Y0013958D01*
X0171698Y0013887D01*
X0171689Y0013818D01*
X0171675Y0013749D01*
X0171658Y0013680D01*
X0171637Y0013613D01*
X0171612Y0013547D01*
X0171584Y0013483D01*
X0171552Y0013420D01*
X0171517Y0013359D01*
X0171478Y0013300D01*
X0171437Y0013243D01*
X0171392Y0013189D01*
X0171344Y0013137D01*
X0171294Y0013088D01*
X0171240Y0013041D01*
X0171185Y0012998D01*
X0171127Y0012958D01*
X0171067Y0012921D01*
X0171005Y0012888D01*
X0170941Y0012858D01*
X0170876Y0012831D01*
X0170810Y0012808D01*
X0170742Y0012789D01*
X0170673Y0012774D01*
X0170604Y0012762D01*
X0170534Y0012754D01*
X0170463Y0012750D01*
X0170393Y0012750D01*
X0170322Y0012754D01*
X0170252Y0012762D01*
X0170183Y0012774D01*
X0170114Y0012789D01*
X0170046Y0012808D01*
X0169980Y0012831D01*
X0169915Y0012858D01*
X0169851Y0012888D01*
X0169789Y0012921D01*
X0169729Y0012958D01*
X0169671Y0012998D01*
X0169616Y0013041D01*
X0169562Y0013088D01*
X0169512Y0013137D01*
X0169464Y0013189D01*
X0169419Y0013243D01*
X0169378Y0013300D01*
X0169339Y0013359D01*
X0169304Y0013420D01*
X0169272Y0013483D01*
X0169244Y0013547D01*
X0169219Y0013613D01*
X0169198Y0013680D01*
X0169181Y0013749D01*
X0169167Y0013818D01*
X0169158Y0013887D01*
X0169152Y0013958D01*
X0169150Y0014028D01*
X0169152Y0014098D01*
X0169158Y0014169D01*
X0169167Y0014238D01*
X0169181Y0014307D01*
X0169198Y0014376D01*
X0169219Y0014443D01*
X0169244Y0014509D01*
X0169272Y0014573D01*
X0169304Y0014636D01*
X0169339Y0014697D01*
X0169378Y0014756D01*
X0169419Y0014813D01*
X0169464Y0014867D01*
X0169512Y0014919D01*
X0169562Y0014968D01*
X0169616Y0015015D01*
X0169671Y0015058D01*
X0169729Y0015098D01*
X0169789Y0015135D01*
X0169851Y0015168D01*
X0169915Y0015198D01*
X0169980Y0015225D01*
X0170046Y0015248D01*
X0170114Y0015267D01*
X0170183Y0015282D01*
X0170252Y0015294D01*
X0170322Y0015302D01*
X0170393Y0015306D01*
X0170463Y0015306D01*
X0170534Y0015302D01*
X0170604Y0015294D01*
X0170673Y0015282D01*
X0170742Y0015267D01*
X0170810Y0015248D01*
X0170876Y0015225D01*
X0170941Y0015198D01*
X0171005Y0015168D01*
X0171067Y0015135D01*
X0171127Y0015098D01*
X0171185Y0015058D01*
X0171240Y0015015D01*
X0171294Y0014968D01*
X0171344Y0014919D01*
X0171392Y0014867D01*
X0171437Y0014813D01*
X0171478Y0014756D01*
X0171517Y0014697D01*
X0171552Y0014636D01*
X0171584Y0014573D01*
X0171612Y0014509D01*
X0171637Y0014443D01*
X0171658Y0014376D01*
X0171675Y0014307D01*
X0171689Y0014238D01*
X0171698Y0014169D01*
X0171704Y0014098D01*
X0171706Y0014028D01*
X0171450Y0016328D02*
X0171448Y0016265D01*
X0171442Y0016202D01*
X0171433Y0016140D01*
X0171419Y0016079D01*
X0171402Y0016018D01*
X0171381Y0015959D01*
X0171356Y0015901D01*
X0171328Y0015844D01*
X0171297Y0015790D01*
X0171262Y0015738D01*
X0171224Y0015687D01*
X0171183Y0015639D01*
X0171139Y0015594D01*
X0171093Y0015552D01*
X0171044Y0015512D01*
X0170993Y0015476D01*
X0170939Y0015443D01*
X0170884Y0015413D01*
X0170826Y0015387D01*
X0170768Y0015364D01*
X0170708Y0015345D01*
X0170647Y0015330D01*
X0170585Y0015318D01*
X0170522Y0015310D01*
X0170459Y0015306D01*
X0170397Y0015306D01*
X0170334Y0015310D01*
X0170271Y0015318D01*
X0170209Y0015330D01*
X0170148Y0015345D01*
X0170088Y0015364D01*
X0170030Y0015387D01*
X0169972Y0015413D01*
X0169917Y0015443D01*
X0169863Y0015476D01*
X0169812Y0015512D01*
X0169763Y0015552D01*
X0169717Y0015594D01*
X0169673Y0015639D01*
X0169632Y0015687D01*
X0169594Y0015738D01*
X0169559Y0015790D01*
X0169528Y0015844D01*
X0169500Y0015901D01*
X0169475Y0015959D01*
X0169454Y0016018D01*
X0169437Y0016079D01*
X0169423Y0016140D01*
X0169414Y0016202D01*
X0169408Y0016265D01*
X0169406Y0016328D01*
X0169408Y0016391D01*
X0169414Y0016454D01*
X0169423Y0016516D01*
X0169437Y0016577D01*
X0169454Y0016638D01*
X0169475Y0016697D01*
X0169500Y0016755D01*
X0169528Y0016812D01*
X0169559Y0016866D01*
X0169594Y0016918D01*
X0169632Y0016969D01*
X0169673Y0017017D01*
X0169717Y0017062D01*
X0169763Y0017104D01*
X0169812Y0017144D01*
X0169863Y0017180D01*
X0169917Y0017213D01*
X0169972Y0017243D01*
X0170030Y0017269D01*
X0170088Y0017292D01*
X0170148Y0017311D01*
X0170209Y0017326D01*
X0170271Y0017338D01*
X0170334Y0017346D01*
X0170397Y0017350D01*
X0170459Y0017350D01*
X0170522Y0017346D01*
X0170585Y0017338D01*
X0170647Y0017326D01*
X0170708Y0017311D01*
X0170768Y0017292D01*
X0170826Y0017269D01*
X0170884Y0017243D01*
X0170939Y0017213D01*
X0170993Y0017180D01*
X0171044Y0017144D01*
X0171093Y0017104D01*
X0171139Y0017062D01*
X0171183Y0017017D01*
X0171224Y0016969D01*
X0171262Y0016918D01*
X0171297Y0016866D01*
X0171328Y0016812D01*
X0171356Y0016755D01*
X0171381Y0016697D01*
X0171402Y0016638D01*
X0171419Y0016577D01*
X0171433Y0016516D01*
X0171442Y0016454D01*
X0171448Y0016391D01*
X0171450Y0016328D01*
X0166950Y0016328D02*
X0166948Y0016265D01*
X0166942Y0016202D01*
X0166933Y0016140D01*
X0166919Y0016079D01*
X0166902Y0016018D01*
X0166881Y0015959D01*
X0166856Y0015901D01*
X0166828Y0015844D01*
X0166797Y0015790D01*
X0166762Y0015738D01*
X0166724Y0015687D01*
X0166683Y0015639D01*
X0166639Y0015594D01*
X0166593Y0015552D01*
X0166544Y0015512D01*
X0166493Y0015476D01*
X0166439Y0015443D01*
X0166384Y0015413D01*
X0166326Y0015387D01*
X0166268Y0015364D01*
X0166208Y0015345D01*
X0166147Y0015330D01*
X0166085Y0015318D01*
X0166022Y0015310D01*
X0165959Y0015306D01*
X0165897Y0015306D01*
X0165834Y0015310D01*
X0165771Y0015318D01*
X0165709Y0015330D01*
X0165648Y0015345D01*
X0165588Y0015364D01*
X0165530Y0015387D01*
X0165472Y0015413D01*
X0165417Y0015443D01*
X0165363Y0015476D01*
X0165312Y0015512D01*
X0165263Y0015552D01*
X0165217Y0015594D01*
X0165173Y0015639D01*
X0165132Y0015687D01*
X0165094Y0015738D01*
X0165059Y0015790D01*
X0165028Y0015844D01*
X0165000Y0015901D01*
X0164975Y0015959D01*
X0164954Y0016018D01*
X0164937Y0016079D01*
X0164923Y0016140D01*
X0164914Y0016202D01*
X0164908Y0016265D01*
X0164906Y0016328D01*
X0164908Y0016391D01*
X0164914Y0016454D01*
X0164923Y0016516D01*
X0164937Y0016577D01*
X0164954Y0016638D01*
X0164975Y0016697D01*
X0165000Y0016755D01*
X0165028Y0016812D01*
X0165059Y0016866D01*
X0165094Y0016918D01*
X0165132Y0016969D01*
X0165173Y0017017D01*
X0165217Y0017062D01*
X0165263Y0017104D01*
X0165312Y0017144D01*
X0165363Y0017180D01*
X0165417Y0017213D01*
X0165472Y0017243D01*
X0165530Y0017269D01*
X0165588Y0017292D01*
X0165648Y0017311D01*
X0165709Y0017326D01*
X0165771Y0017338D01*
X0165834Y0017346D01*
X0165897Y0017350D01*
X0165959Y0017350D01*
X0166022Y0017346D01*
X0166085Y0017338D01*
X0166147Y0017326D01*
X0166208Y0017311D01*
X0166268Y0017292D01*
X0166326Y0017269D01*
X0166384Y0017243D01*
X0166439Y0017213D01*
X0166493Y0017180D01*
X0166544Y0017144D01*
X0166593Y0017104D01*
X0166639Y0017062D01*
X0166683Y0017017D01*
X0166724Y0016969D01*
X0166762Y0016918D01*
X0166797Y0016866D01*
X0166828Y0016812D01*
X0166856Y0016755D01*
X0166881Y0016697D01*
X0166902Y0016638D01*
X0166919Y0016577D01*
X0166933Y0016516D01*
X0166942Y0016454D01*
X0166948Y0016391D01*
X0166950Y0016328D01*
X0167206Y0014028D02*
X0167204Y0013958D01*
X0167198Y0013887D01*
X0167189Y0013818D01*
X0167175Y0013749D01*
X0167158Y0013680D01*
X0167137Y0013613D01*
X0167112Y0013547D01*
X0167084Y0013483D01*
X0167052Y0013420D01*
X0167017Y0013359D01*
X0166978Y0013300D01*
X0166937Y0013243D01*
X0166892Y0013189D01*
X0166844Y0013137D01*
X0166794Y0013088D01*
X0166740Y0013041D01*
X0166685Y0012998D01*
X0166627Y0012958D01*
X0166567Y0012921D01*
X0166505Y0012888D01*
X0166441Y0012858D01*
X0166376Y0012831D01*
X0166310Y0012808D01*
X0166242Y0012789D01*
X0166173Y0012774D01*
X0166104Y0012762D01*
X0166034Y0012754D01*
X0165963Y0012750D01*
X0165893Y0012750D01*
X0165822Y0012754D01*
X0165752Y0012762D01*
X0165683Y0012774D01*
X0165614Y0012789D01*
X0165546Y0012808D01*
X0165480Y0012831D01*
X0165415Y0012858D01*
X0165351Y0012888D01*
X0165289Y0012921D01*
X0165229Y0012958D01*
X0165171Y0012998D01*
X0165116Y0013041D01*
X0165062Y0013088D01*
X0165012Y0013137D01*
X0164964Y0013189D01*
X0164919Y0013243D01*
X0164878Y0013300D01*
X0164839Y0013359D01*
X0164804Y0013420D01*
X0164772Y0013483D01*
X0164744Y0013547D01*
X0164719Y0013613D01*
X0164698Y0013680D01*
X0164681Y0013749D01*
X0164667Y0013818D01*
X0164658Y0013887D01*
X0164652Y0013958D01*
X0164650Y0014028D01*
X0164652Y0014098D01*
X0164658Y0014169D01*
X0164667Y0014238D01*
X0164681Y0014307D01*
X0164698Y0014376D01*
X0164719Y0014443D01*
X0164744Y0014509D01*
X0164772Y0014573D01*
X0164804Y0014636D01*
X0164839Y0014697D01*
X0164878Y0014756D01*
X0164919Y0014813D01*
X0164964Y0014867D01*
X0165012Y0014919D01*
X0165062Y0014968D01*
X0165116Y0015015D01*
X0165171Y0015058D01*
X0165229Y0015098D01*
X0165289Y0015135D01*
X0165351Y0015168D01*
X0165415Y0015198D01*
X0165480Y0015225D01*
X0165546Y0015248D01*
X0165614Y0015267D01*
X0165683Y0015282D01*
X0165752Y0015294D01*
X0165822Y0015302D01*
X0165893Y0015306D01*
X0165963Y0015306D01*
X0166034Y0015302D01*
X0166104Y0015294D01*
X0166173Y0015282D01*
X0166242Y0015267D01*
X0166310Y0015248D01*
X0166376Y0015225D01*
X0166441Y0015198D01*
X0166505Y0015168D01*
X0166567Y0015135D01*
X0166627Y0015098D01*
X0166685Y0015058D01*
X0166740Y0015015D01*
X0166794Y0014968D01*
X0166844Y0014919D01*
X0166892Y0014867D01*
X0166937Y0014813D01*
X0166978Y0014756D01*
X0167017Y0014697D01*
X0167052Y0014636D01*
X0167084Y0014573D01*
X0167112Y0014509D01*
X0167137Y0014443D01*
X0167158Y0014376D01*
X0167175Y0014307D01*
X0167189Y0014238D01*
X0167198Y0014169D01*
X0167204Y0014098D01*
X0167206Y0014028D01*
X0162706Y0014794D02*
X0162706Y0016072D01*
X0162706Y0014794D02*
X0161172Y0014794D01*
X0162705Y0014794D02*
X0162703Y0014705D01*
X0162697Y0014616D01*
X0162688Y0014527D01*
X0162674Y0014439D01*
X0162657Y0014352D01*
X0162635Y0014265D01*
X0162610Y0014179D01*
X0162582Y0014095D01*
X0162549Y0014012D01*
X0162513Y0013930D01*
X0162474Y0013850D01*
X0162431Y0013772D01*
X0162385Y0013696D01*
X0162335Y0013622D01*
X0162283Y0013550D01*
X0162227Y0013480D01*
X0162168Y0013413D01*
X0162106Y0013349D01*
X0162042Y0013287D01*
X0161975Y0013228D01*
X0161905Y0013172D01*
X0161833Y0013120D01*
X0161759Y0013070D01*
X0161683Y0013024D01*
X0161605Y0012981D01*
X0161525Y0012942D01*
X0161443Y0012906D01*
X0161360Y0012873D01*
X0161276Y0012845D01*
X0161190Y0012820D01*
X0161103Y0012798D01*
X0161016Y0012781D01*
X0160928Y0012767D01*
X0160839Y0012758D01*
X0160750Y0012752D01*
X0160661Y0012750D01*
X0158206Y0013772D02*
X0155650Y0013772D01*
X0156672Y0017350D01*
X0160150Y0016072D02*
X0160150Y0015817D01*
X0160152Y0015755D01*
X0160157Y0015694D01*
X0160167Y0015633D01*
X0160180Y0015572D01*
X0160196Y0015513D01*
X0160216Y0015455D01*
X0160240Y0015398D01*
X0160267Y0015342D01*
X0160297Y0015288D01*
X0160331Y0015236D01*
X0160367Y0015187D01*
X0160407Y0015139D01*
X0160449Y0015094D01*
X0160494Y0015052D01*
X0160542Y0015012D01*
X0160591Y0014976D01*
X0160643Y0014942D01*
X0160697Y0014912D01*
X0160753Y0014885D01*
X0160810Y0014861D01*
X0160868Y0014841D01*
X0160927Y0014825D01*
X0160988Y0014812D01*
X0161049Y0014802D01*
X0161110Y0014797D01*
X0161172Y0014795D01*
X0160150Y0016072D02*
X0160152Y0016142D01*
X0160158Y0016213D01*
X0160167Y0016282D01*
X0160181Y0016351D01*
X0160198Y0016420D01*
X0160219Y0016487D01*
X0160244Y0016553D01*
X0160272Y0016617D01*
X0160304Y0016680D01*
X0160339Y0016741D01*
X0160378Y0016800D01*
X0160419Y0016857D01*
X0160464Y0016911D01*
X0160512Y0016963D01*
X0160562Y0017012D01*
X0160616Y0017059D01*
X0160671Y0017102D01*
X0160729Y0017142D01*
X0160789Y0017179D01*
X0160851Y0017212D01*
X0160915Y0017242D01*
X0160980Y0017269D01*
X0161046Y0017292D01*
X0161114Y0017311D01*
X0161183Y0017326D01*
X0161252Y0017338D01*
X0161322Y0017346D01*
X0161393Y0017350D01*
X0161463Y0017350D01*
X0161534Y0017346D01*
X0161604Y0017338D01*
X0161673Y0017326D01*
X0161742Y0017311D01*
X0161810Y0017292D01*
X0161876Y0017269D01*
X0161941Y0017242D01*
X0162005Y0017212D01*
X0162067Y0017179D01*
X0162127Y0017142D01*
X0162185Y0017102D01*
X0162240Y0017059D01*
X0162294Y0017012D01*
X0162344Y0016963D01*
X0162392Y0016911D01*
X0162437Y0016857D01*
X0162478Y0016800D01*
X0162517Y0016741D01*
X0162552Y0016680D01*
X0162584Y0016617D01*
X0162612Y0016553D01*
X0162637Y0016487D01*
X0162658Y0016420D01*
X0162675Y0016351D01*
X0162689Y0016282D01*
X0162698Y0016213D01*
X0162704Y0016142D01*
X0162706Y0016072D01*
X0157439Y0014794D02*
X0157439Y0012750D01*
X0153961Y0012750D02*
X0152428Y0017350D01*
X0150894Y0012750D01*
X0151278Y0013900D02*
X0153578Y0013900D01*
X0155562Y0009850D02*
X0155562Y0005250D01*
X0104929Y0085240D02*
X0102885Y0085240D01*
X0102885Y0089840D01*
X0104929Y0089840D01*
X0104418Y0087796D02*
X0102885Y0087796D01*
X0100398Y0087796D02*
X0098226Y0085240D01*
X0100782Y0085240D01*
X0098227Y0088818D02*
X0098252Y0088888D01*
X0098280Y0088957D01*
X0098311Y0089024D01*
X0098346Y0089090D01*
X0098384Y0089153D01*
X0098426Y0089215D01*
X0098470Y0089275D01*
X0098517Y0089332D01*
X0098567Y0089387D01*
X0098620Y0089439D01*
X0098676Y0089489D01*
X0098734Y0089535D01*
X0098794Y0089579D01*
X0098856Y0089620D01*
X0098920Y0089657D01*
X0098986Y0089691D01*
X0099054Y0089722D01*
X0099123Y0089749D01*
X0099193Y0089773D01*
X0099264Y0089794D01*
X0099337Y0089810D01*
X0099410Y0089823D01*
X0099484Y0089833D01*
X0099558Y0089838D01*
X0099632Y0089840D01*
X0099699Y0089838D01*
X0099766Y0089832D01*
X0099832Y0089823D01*
X0099897Y0089809D01*
X0099962Y0089792D01*
X0100025Y0089771D01*
X0100087Y0089746D01*
X0100148Y0089718D01*
X0100207Y0089686D01*
X0100264Y0089651D01*
X0100319Y0089612D01*
X0100371Y0089571D01*
X0100421Y0089526D01*
X0100468Y0089479D01*
X0100513Y0089429D01*
X0100554Y0089377D01*
X0100593Y0089322D01*
X0100628Y0089265D01*
X0100660Y0089206D01*
X0100688Y0089145D01*
X0100713Y0089083D01*
X0100734Y0089020D01*
X0100751Y0088955D01*
X0100765Y0088890D01*
X0100774Y0088824D01*
X0100780Y0088757D01*
X0100782Y0088690D01*
X0100781Y0088690D02*
X0100779Y0088623D01*
X0100774Y0088557D01*
X0100765Y0088491D01*
X0100752Y0088425D01*
X0100736Y0088361D01*
X0100717Y0088297D01*
X0100694Y0088234D01*
X0100668Y0088173D01*
X0100638Y0088113D01*
X0100605Y0088055D01*
X0100570Y0087999D01*
X0100531Y0087945D01*
X0100489Y0087893D01*
X0100445Y0087843D01*
X0100398Y0087796D01*
X0096282Y0085240D02*
X0093726Y0085240D01*
X0095004Y0085240D02*
X0095004Y0089840D01*
X0093726Y0088818D01*
X0091737Y0087029D02*
X0088671Y0087029D01*
X0085621Y0087285D02*
X0084343Y0087285D01*
X0085621Y0087284D02*
X0085691Y0087286D01*
X0085762Y0087292D01*
X0085831Y0087301D01*
X0085900Y0087315D01*
X0085969Y0087332D01*
X0086036Y0087353D01*
X0086102Y0087378D01*
X0086166Y0087406D01*
X0086229Y0087438D01*
X0086290Y0087473D01*
X0086349Y0087512D01*
X0086406Y0087553D01*
X0086460Y0087598D01*
X0086512Y0087646D01*
X0086561Y0087696D01*
X0086608Y0087750D01*
X0086651Y0087805D01*
X0086691Y0087863D01*
X0086728Y0087923D01*
X0086761Y0087985D01*
X0086791Y0088049D01*
X0086818Y0088114D01*
X0086841Y0088180D01*
X0086860Y0088248D01*
X0086875Y0088317D01*
X0086887Y0088386D01*
X0086895Y0088456D01*
X0086899Y0088527D01*
X0086899Y0088597D01*
X0086895Y0088668D01*
X0086887Y0088738D01*
X0086875Y0088807D01*
X0086860Y0088876D01*
X0086841Y0088944D01*
X0086818Y0089010D01*
X0086791Y0089075D01*
X0086761Y0089139D01*
X0086728Y0089201D01*
X0086691Y0089261D01*
X0086651Y0089319D01*
X0086608Y0089374D01*
X0086561Y0089428D01*
X0086512Y0089478D01*
X0086460Y0089526D01*
X0086406Y0089571D01*
X0086349Y0089612D01*
X0086290Y0089651D01*
X0086229Y0089686D01*
X0086166Y0089718D01*
X0086102Y0089746D01*
X0086036Y0089771D01*
X0085969Y0089792D01*
X0085900Y0089809D01*
X0085831Y0089823D01*
X0085762Y0089832D01*
X0085691Y0089838D01*
X0085621Y0089840D01*
X0084343Y0089840D01*
X0084343Y0085240D01*
X0081821Y0087157D02*
X0080415Y0087923D01*
X0080926Y0089840D02*
X0081008Y0089838D01*
X0081090Y0089833D01*
X0081172Y0089824D01*
X0081253Y0089812D01*
X0081334Y0089796D01*
X0081414Y0089777D01*
X0081493Y0089754D01*
X0081571Y0089728D01*
X0081648Y0089699D01*
X0081723Y0089666D01*
X0081797Y0089630D01*
X0081870Y0089592D01*
X0081941Y0089550D01*
X0082009Y0089505D01*
X0082076Y0089457D01*
X0080415Y0087924D02*
X0080361Y0087958D01*
X0080310Y0087995D01*
X0080261Y0088035D01*
X0080214Y0088078D01*
X0080171Y0088124D01*
X0080130Y0088172D01*
X0080092Y0088223D01*
X0080057Y0088276D01*
X0080025Y0088331D01*
X0079997Y0088388D01*
X0079973Y0088446D01*
X0079952Y0088506D01*
X0079935Y0088567D01*
X0079921Y0088629D01*
X0079912Y0088692D01*
X0079906Y0088755D01*
X0079904Y0088818D01*
X0079906Y0088880D01*
X0079911Y0088941D01*
X0079921Y0089002D01*
X0079934Y0089063D01*
X0079950Y0089122D01*
X0079970Y0089180D01*
X0079994Y0089237D01*
X0080021Y0089293D01*
X0080051Y0089347D01*
X0080085Y0089399D01*
X0080122Y0089448D01*
X0080161Y0089496D01*
X0080203Y0089541D01*
X0080248Y0089583D01*
X0080296Y0089623D01*
X0080345Y0089659D01*
X0080397Y0089693D01*
X0080451Y0089723D01*
X0080507Y0089750D01*
X0080564Y0089774D01*
X0080622Y0089794D01*
X0080681Y0089810D01*
X0080742Y0089823D01*
X0080803Y0089833D01*
X0080864Y0089838D01*
X0080926Y0089840D01*
X0078229Y0089840D02*
X0076185Y0089840D01*
X0076185Y0085240D01*
X0078229Y0085240D01*
X0081821Y0087156D02*
X0081875Y0087122D01*
X0081926Y0087085D01*
X0081975Y0087045D01*
X0082022Y0087002D01*
X0082065Y0086956D01*
X0082106Y0086908D01*
X0082144Y0086857D01*
X0082179Y0086804D01*
X0082211Y0086749D01*
X0082239Y0086692D01*
X0082263Y0086634D01*
X0082284Y0086574D01*
X0082301Y0086513D01*
X0082315Y0086451D01*
X0082324Y0086388D01*
X0082330Y0086325D01*
X0082332Y0086262D01*
X0082331Y0086262D02*
X0082329Y0086200D01*
X0082324Y0086139D01*
X0082314Y0086078D01*
X0082301Y0086017D01*
X0082285Y0085958D01*
X0082265Y0085900D01*
X0082241Y0085843D01*
X0082214Y0085787D01*
X0082184Y0085733D01*
X0082150Y0085681D01*
X0082114Y0085632D01*
X0082074Y0085584D01*
X0082032Y0085539D01*
X0081987Y0085497D01*
X0081939Y0085457D01*
X0081890Y0085421D01*
X0081838Y0085387D01*
X0081784Y0085357D01*
X0081728Y0085330D01*
X0081671Y0085306D01*
X0081613Y0085286D01*
X0081554Y0085270D01*
X0081493Y0085257D01*
X0081432Y0085247D01*
X0081371Y0085242D01*
X0081309Y0085240D01*
X0081309Y0085241D02*
X0081219Y0085243D01*
X0081130Y0085248D01*
X0081041Y0085258D01*
X0080952Y0085271D01*
X0080864Y0085287D01*
X0080776Y0085308D01*
X0080690Y0085332D01*
X0080604Y0085359D01*
X0080520Y0085390D01*
X0080437Y0085425D01*
X0080356Y0085463D01*
X0080276Y0085504D01*
X0080199Y0085548D01*
X0080123Y0085596D01*
X0080049Y0085647D01*
X0079977Y0085701D01*
X0079908Y0085758D01*
X0079840Y0085817D01*
X0079776Y0085880D01*
X0077718Y0087796D02*
X0076185Y0087796D01*
D12*
X0039300Y0084300D02*
X0039300Y0078300D01*
X0038300Y0078300D01*
X0038300Y0077300D01*
X0038300Y0084300D02*
X0038300Y0085300D01*
X0038300Y0084300D02*
X0039300Y0084300D01*
X0034800Y0093300D02*
X0031300Y0093300D01*
X0021800Y0093300D01*
X0017800Y0093300D01*
X0017800Y0099300D02*
X0021300Y0099300D01*
X0031300Y0099300D01*
X0034800Y0099300D01*
X0038300Y0107300D02*
X0038300Y0108300D01*
X0039300Y0108300D01*
X0039300Y0114300D01*
X0038300Y0114300D01*
X0038300Y0115300D01*
X0034800Y0123300D02*
X0031300Y0123300D01*
X0021800Y0123300D01*
X0017800Y0123300D01*
X0014300Y0115300D02*
X0014300Y0114300D01*
X0013300Y0114300D01*
X0013300Y0108300D01*
X0014300Y0108300D01*
X0014300Y0107300D01*
X0025300Y0111300D02*
X0025302Y0111363D01*
X0025308Y0111425D01*
X0025318Y0111487D01*
X0025331Y0111549D01*
X0025349Y0111609D01*
X0025370Y0111668D01*
X0025395Y0111726D01*
X0025424Y0111782D01*
X0025456Y0111836D01*
X0025491Y0111888D01*
X0025529Y0111937D01*
X0025571Y0111985D01*
X0025615Y0112029D01*
X0025663Y0112071D01*
X0025712Y0112109D01*
X0025764Y0112144D01*
X0025818Y0112176D01*
X0025874Y0112205D01*
X0025932Y0112230D01*
X0025991Y0112251D01*
X0026051Y0112269D01*
X0026113Y0112282D01*
X0026175Y0112292D01*
X0026237Y0112298D01*
X0026300Y0112300D01*
X0026363Y0112298D01*
X0026425Y0112292D01*
X0026487Y0112282D01*
X0026549Y0112269D01*
X0026609Y0112251D01*
X0026668Y0112230D01*
X0026726Y0112205D01*
X0026782Y0112176D01*
X0026836Y0112144D01*
X0026888Y0112109D01*
X0026937Y0112071D01*
X0026985Y0112029D01*
X0027029Y0111985D01*
X0027071Y0111937D01*
X0027109Y0111888D01*
X0027144Y0111836D01*
X0027176Y0111782D01*
X0027205Y0111726D01*
X0027230Y0111668D01*
X0027251Y0111609D01*
X0027269Y0111549D01*
X0027282Y0111487D01*
X0027292Y0111425D01*
X0027298Y0111363D01*
X0027300Y0111300D01*
X0027298Y0111237D01*
X0027292Y0111175D01*
X0027282Y0111113D01*
X0027269Y0111051D01*
X0027251Y0110991D01*
X0027230Y0110932D01*
X0027205Y0110874D01*
X0027176Y0110818D01*
X0027144Y0110764D01*
X0027109Y0110712D01*
X0027071Y0110663D01*
X0027029Y0110615D01*
X0026985Y0110571D01*
X0026937Y0110529D01*
X0026888Y0110491D01*
X0026836Y0110456D01*
X0026782Y0110424D01*
X0026726Y0110395D01*
X0026668Y0110370D01*
X0026609Y0110349D01*
X0026549Y0110331D01*
X0026487Y0110318D01*
X0026425Y0110308D01*
X0026363Y0110302D01*
X0026300Y0110300D01*
X0026237Y0110302D01*
X0026175Y0110308D01*
X0026113Y0110318D01*
X0026051Y0110331D01*
X0025991Y0110349D01*
X0025932Y0110370D01*
X0025874Y0110395D01*
X0025818Y0110424D01*
X0025764Y0110456D01*
X0025712Y0110491D01*
X0025663Y0110529D01*
X0025615Y0110571D01*
X0025571Y0110615D01*
X0025529Y0110663D01*
X0025491Y0110712D01*
X0025456Y0110764D01*
X0025424Y0110818D01*
X0025395Y0110874D01*
X0025370Y0110932D01*
X0025349Y0110991D01*
X0025331Y0111051D01*
X0025318Y0111113D01*
X0025308Y0111175D01*
X0025302Y0111237D01*
X0025300Y0111300D01*
X0019300Y0111300D02*
X0019302Y0111472D01*
X0019308Y0111643D01*
X0019319Y0111815D01*
X0019334Y0111986D01*
X0019353Y0112157D01*
X0019376Y0112327D01*
X0019403Y0112497D01*
X0019435Y0112666D01*
X0019470Y0112834D01*
X0019510Y0113001D01*
X0019554Y0113167D01*
X0019601Y0113332D01*
X0019653Y0113496D01*
X0019709Y0113658D01*
X0019769Y0113819D01*
X0019833Y0113979D01*
X0019901Y0114137D01*
X0019972Y0114293D01*
X0020047Y0114447D01*
X0020127Y0114600D01*
X0020209Y0114750D01*
X0020296Y0114899D01*
X0020386Y0115045D01*
X0020480Y0115189D01*
X0020577Y0115331D01*
X0020678Y0115470D01*
X0020782Y0115607D01*
X0020889Y0115741D01*
X0021000Y0115872D01*
X0021113Y0116001D01*
X0021230Y0116127D01*
X0021350Y0116250D01*
X0021473Y0116370D01*
X0021599Y0116487D01*
X0021728Y0116600D01*
X0021859Y0116711D01*
X0021993Y0116818D01*
X0022130Y0116922D01*
X0022269Y0117023D01*
X0022411Y0117120D01*
X0022555Y0117214D01*
X0022701Y0117304D01*
X0022850Y0117391D01*
X0023000Y0117473D01*
X0023153Y0117553D01*
X0023307Y0117628D01*
X0023463Y0117699D01*
X0023621Y0117767D01*
X0023781Y0117831D01*
X0023942Y0117891D01*
X0024104Y0117947D01*
X0024268Y0117999D01*
X0024433Y0118046D01*
X0024599Y0118090D01*
X0024766Y0118130D01*
X0024934Y0118165D01*
X0025103Y0118197D01*
X0025273Y0118224D01*
X0025443Y0118247D01*
X0025614Y0118266D01*
X0025785Y0118281D01*
X0025957Y0118292D01*
X0026128Y0118298D01*
X0026300Y0118300D01*
X0026472Y0118298D01*
X0026643Y0118292D01*
X0026815Y0118281D01*
X0026986Y0118266D01*
X0027157Y0118247D01*
X0027327Y0118224D01*
X0027497Y0118197D01*
X0027666Y0118165D01*
X0027834Y0118130D01*
X0028001Y0118090D01*
X0028167Y0118046D01*
X0028332Y0117999D01*
X0028496Y0117947D01*
X0028658Y0117891D01*
X0028819Y0117831D01*
X0028979Y0117767D01*
X0029137Y0117699D01*
X0029293Y0117628D01*
X0029447Y0117553D01*
X0029600Y0117473D01*
X0029750Y0117391D01*
X0029899Y0117304D01*
X0030045Y0117214D01*
X0030189Y0117120D01*
X0030331Y0117023D01*
X0030470Y0116922D01*
X0030607Y0116818D01*
X0030741Y0116711D01*
X0030872Y0116600D01*
X0031001Y0116487D01*
X0031127Y0116370D01*
X0031250Y0116250D01*
X0031370Y0116127D01*
X0031487Y0116001D01*
X0031600Y0115872D01*
X0031711Y0115741D01*
X0031818Y0115607D01*
X0031922Y0115470D01*
X0032023Y0115331D01*
X0032120Y0115189D01*
X0032214Y0115045D01*
X0032304Y0114899D01*
X0032391Y0114750D01*
X0032473Y0114600D01*
X0032553Y0114447D01*
X0032628Y0114293D01*
X0032699Y0114137D01*
X0032767Y0113979D01*
X0032831Y0113819D01*
X0032891Y0113658D01*
X0032947Y0113496D01*
X0032999Y0113332D01*
X0033046Y0113167D01*
X0033090Y0113001D01*
X0033130Y0112834D01*
X0033165Y0112666D01*
X0033197Y0112497D01*
X0033224Y0112327D01*
X0033247Y0112157D01*
X0033266Y0111986D01*
X0033281Y0111815D01*
X0033292Y0111643D01*
X0033298Y0111472D01*
X0033300Y0111300D01*
X0033298Y0111128D01*
X0033292Y0110957D01*
X0033281Y0110785D01*
X0033266Y0110614D01*
X0033247Y0110443D01*
X0033224Y0110273D01*
X0033197Y0110103D01*
X0033165Y0109934D01*
X0033130Y0109766D01*
X0033090Y0109599D01*
X0033046Y0109433D01*
X0032999Y0109268D01*
X0032947Y0109104D01*
X0032891Y0108942D01*
X0032831Y0108781D01*
X0032767Y0108621D01*
X0032699Y0108463D01*
X0032628Y0108307D01*
X0032553Y0108153D01*
X0032473Y0108000D01*
X0032391Y0107850D01*
X0032304Y0107701D01*
X0032214Y0107555D01*
X0032120Y0107411D01*
X0032023Y0107269D01*
X0031922Y0107130D01*
X0031818Y0106993D01*
X0031711Y0106859D01*
X0031600Y0106728D01*
X0031487Y0106599D01*
X0031370Y0106473D01*
X0031250Y0106350D01*
X0031127Y0106230D01*
X0031001Y0106113D01*
X0030872Y0106000D01*
X0030741Y0105889D01*
X0030607Y0105782D01*
X0030470Y0105678D01*
X0030331Y0105577D01*
X0030189Y0105480D01*
X0030045Y0105386D01*
X0029899Y0105296D01*
X0029750Y0105209D01*
X0029600Y0105127D01*
X0029447Y0105047D01*
X0029293Y0104972D01*
X0029137Y0104901D01*
X0028979Y0104833D01*
X0028819Y0104769D01*
X0028658Y0104709D01*
X0028496Y0104653D01*
X0028332Y0104601D01*
X0028167Y0104554D01*
X0028001Y0104510D01*
X0027834Y0104470D01*
X0027666Y0104435D01*
X0027497Y0104403D01*
X0027327Y0104376D01*
X0027157Y0104353D01*
X0026986Y0104334D01*
X0026815Y0104319D01*
X0026643Y0104308D01*
X0026472Y0104302D01*
X0026300Y0104300D01*
X0026128Y0104302D01*
X0025957Y0104308D01*
X0025785Y0104319D01*
X0025614Y0104334D01*
X0025443Y0104353D01*
X0025273Y0104376D01*
X0025103Y0104403D01*
X0024934Y0104435D01*
X0024766Y0104470D01*
X0024599Y0104510D01*
X0024433Y0104554D01*
X0024268Y0104601D01*
X0024104Y0104653D01*
X0023942Y0104709D01*
X0023781Y0104769D01*
X0023621Y0104833D01*
X0023463Y0104901D01*
X0023307Y0104972D01*
X0023153Y0105047D01*
X0023000Y0105127D01*
X0022850Y0105209D01*
X0022701Y0105296D01*
X0022555Y0105386D01*
X0022411Y0105480D01*
X0022269Y0105577D01*
X0022130Y0105678D01*
X0021993Y0105782D01*
X0021859Y0105889D01*
X0021728Y0106000D01*
X0021599Y0106113D01*
X0021473Y0106230D01*
X0021350Y0106350D01*
X0021230Y0106473D01*
X0021113Y0106599D01*
X0021000Y0106728D01*
X0020889Y0106859D01*
X0020782Y0106993D01*
X0020678Y0107130D01*
X0020577Y0107269D01*
X0020480Y0107411D01*
X0020386Y0107555D01*
X0020296Y0107701D01*
X0020209Y0107850D01*
X0020127Y0108000D01*
X0020047Y0108153D01*
X0019972Y0108307D01*
X0019901Y0108463D01*
X0019833Y0108621D01*
X0019769Y0108781D01*
X0019709Y0108942D01*
X0019653Y0109104D01*
X0019601Y0109268D01*
X0019554Y0109433D01*
X0019510Y0109599D01*
X0019470Y0109766D01*
X0019435Y0109934D01*
X0019403Y0110103D01*
X0019376Y0110273D01*
X0019353Y0110443D01*
X0019334Y0110614D01*
X0019319Y0110785D01*
X0019308Y0110957D01*
X0019302Y0111128D01*
X0019300Y0111300D01*
X0014300Y0085300D02*
X0014300Y0084300D01*
X0013300Y0084300D01*
X0013300Y0078300D01*
X0014300Y0078300D01*
X0014300Y0077300D01*
X0025300Y0081300D02*
X0025302Y0081363D01*
X0025308Y0081425D01*
X0025318Y0081487D01*
X0025331Y0081549D01*
X0025349Y0081609D01*
X0025370Y0081668D01*
X0025395Y0081726D01*
X0025424Y0081782D01*
X0025456Y0081836D01*
X0025491Y0081888D01*
X0025529Y0081937D01*
X0025571Y0081985D01*
X0025615Y0082029D01*
X0025663Y0082071D01*
X0025712Y0082109D01*
X0025764Y0082144D01*
X0025818Y0082176D01*
X0025874Y0082205D01*
X0025932Y0082230D01*
X0025991Y0082251D01*
X0026051Y0082269D01*
X0026113Y0082282D01*
X0026175Y0082292D01*
X0026237Y0082298D01*
X0026300Y0082300D01*
X0026363Y0082298D01*
X0026425Y0082292D01*
X0026487Y0082282D01*
X0026549Y0082269D01*
X0026609Y0082251D01*
X0026668Y0082230D01*
X0026726Y0082205D01*
X0026782Y0082176D01*
X0026836Y0082144D01*
X0026888Y0082109D01*
X0026937Y0082071D01*
X0026985Y0082029D01*
X0027029Y0081985D01*
X0027071Y0081937D01*
X0027109Y0081888D01*
X0027144Y0081836D01*
X0027176Y0081782D01*
X0027205Y0081726D01*
X0027230Y0081668D01*
X0027251Y0081609D01*
X0027269Y0081549D01*
X0027282Y0081487D01*
X0027292Y0081425D01*
X0027298Y0081363D01*
X0027300Y0081300D01*
X0027298Y0081237D01*
X0027292Y0081175D01*
X0027282Y0081113D01*
X0027269Y0081051D01*
X0027251Y0080991D01*
X0027230Y0080932D01*
X0027205Y0080874D01*
X0027176Y0080818D01*
X0027144Y0080764D01*
X0027109Y0080712D01*
X0027071Y0080663D01*
X0027029Y0080615D01*
X0026985Y0080571D01*
X0026937Y0080529D01*
X0026888Y0080491D01*
X0026836Y0080456D01*
X0026782Y0080424D01*
X0026726Y0080395D01*
X0026668Y0080370D01*
X0026609Y0080349D01*
X0026549Y0080331D01*
X0026487Y0080318D01*
X0026425Y0080308D01*
X0026363Y0080302D01*
X0026300Y0080300D01*
X0026237Y0080302D01*
X0026175Y0080308D01*
X0026113Y0080318D01*
X0026051Y0080331D01*
X0025991Y0080349D01*
X0025932Y0080370D01*
X0025874Y0080395D01*
X0025818Y0080424D01*
X0025764Y0080456D01*
X0025712Y0080491D01*
X0025663Y0080529D01*
X0025615Y0080571D01*
X0025571Y0080615D01*
X0025529Y0080663D01*
X0025491Y0080712D01*
X0025456Y0080764D01*
X0025424Y0080818D01*
X0025395Y0080874D01*
X0025370Y0080932D01*
X0025349Y0080991D01*
X0025331Y0081051D01*
X0025318Y0081113D01*
X0025308Y0081175D01*
X0025302Y0081237D01*
X0025300Y0081300D01*
X0019300Y0081300D02*
X0019302Y0081472D01*
X0019308Y0081643D01*
X0019319Y0081815D01*
X0019334Y0081986D01*
X0019353Y0082157D01*
X0019376Y0082327D01*
X0019403Y0082497D01*
X0019435Y0082666D01*
X0019470Y0082834D01*
X0019510Y0083001D01*
X0019554Y0083167D01*
X0019601Y0083332D01*
X0019653Y0083496D01*
X0019709Y0083658D01*
X0019769Y0083819D01*
X0019833Y0083979D01*
X0019901Y0084137D01*
X0019972Y0084293D01*
X0020047Y0084447D01*
X0020127Y0084600D01*
X0020209Y0084750D01*
X0020296Y0084899D01*
X0020386Y0085045D01*
X0020480Y0085189D01*
X0020577Y0085331D01*
X0020678Y0085470D01*
X0020782Y0085607D01*
X0020889Y0085741D01*
X0021000Y0085872D01*
X0021113Y0086001D01*
X0021230Y0086127D01*
X0021350Y0086250D01*
X0021473Y0086370D01*
X0021599Y0086487D01*
X0021728Y0086600D01*
X0021859Y0086711D01*
X0021993Y0086818D01*
X0022130Y0086922D01*
X0022269Y0087023D01*
X0022411Y0087120D01*
X0022555Y0087214D01*
X0022701Y0087304D01*
X0022850Y0087391D01*
X0023000Y0087473D01*
X0023153Y0087553D01*
X0023307Y0087628D01*
X0023463Y0087699D01*
X0023621Y0087767D01*
X0023781Y0087831D01*
X0023942Y0087891D01*
X0024104Y0087947D01*
X0024268Y0087999D01*
X0024433Y0088046D01*
X0024599Y0088090D01*
X0024766Y0088130D01*
X0024934Y0088165D01*
X0025103Y0088197D01*
X0025273Y0088224D01*
X0025443Y0088247D01*
X0025614Y0088266D01*
X0025785Y0088281D01*
X0025957Y0088292D01*
X0026128Y0088298D01*
X0026300Y0088300D01*
X0026472Y0088298D01*
X0026643Y0088292D01*
X0026815Y0088281D01*
X0026986Y0088266D01*
X0027157Y0088247D01*
X0027327Y0088224D01*
X0027497Y0088197D01*
X0027666Y0088165D01*
X0027834Y0088130D01*
X0028001Y0088090D01*
X0028167Y0088046D01*
X0028332Y0087999D01*
X0028496Y0087947D01*
X0028658Y0087891D01*
X0028819Y0087831D01*
X0028979Y0087767D01*
X0029137Y0087699D01*
X0029293Y0087628D01*
X0029447Y0087553D01*
X0029600Y0087473D01*
X0029750Y0087391D01*
X0029899Y0087304D01*
X0030045Y0087214D01*
X0030189Y0087120D01*
X0030331Y0087023D01*
X0030470Y0086922D01*
X0030607Y0086818D01*
X0030741Y0086711D01*
X0030872Y0086600D01*
X0031001Y0086487D01*
X0031127Y0086370D01*
X0031250Y0086250D01*
X0031370Y0086127D01*
X0031487Y0086001D01*
X0031600Y0085872D01*
X0031711Y0085741D01*
X0031818Y0085607D01*
X0031922Y0085470D01*
X0032023Y0085331D01*
X0032120Y0085189D01*
X0032214Y0085045D01*
X0032304Y0084899D01*
X0032391Y0084750D01*
X0032473Y0084600D01*
X0032553Y0084447D01*
X0032628Y0084293D01*
X0032699Y0084137D01*
X0032767Y0083979D01*
X0032831Y0083819D01*
X0032891Y0083658D01*
X0032947Y0083496D01*
X0032999Y0083332D01*
X0033046Y0083167D01*
X0033090Y0083001D01*
X0033130Y0082834D01*
X0033165Y0082666D01*
X0033197Y0082497D01*
X0033224Y0082327D01*
X0033247Y0082157D01*
X0033266Y0081986D01*
X0033281Y0081815D01*
X0033292Y0081643D01*
X0033298Y0081472D01*
X0033300Y0081300D01*
X0033298Y0081128D01*
X0033292Y0080957D01*
X0033281Y0080785D01*
X0033266Y0080614D01*
X0033247Y0080443D01*
X0033224Y0080273D01*
X0033197Y0080103D01*
X0033165Y0079934D01*
X0033130Y0079766D01*
X0033090Y0079599D01*
X0033046Y0079433D01*
X0032999Y0079268D01*
X0032947Y0079104D01*
X0032891Y0078942D01*
X0032831Y0078781D01*
X0032767Y0078621D01*
X0032699Y0078463D01*
X0032628Y0078307D01*
X0032553Y0078153D01*
X0032473Y0078000D01*
X0032391Y0077850D01*
X0032304Y0077701D01*
X0032214Y0077555D01*
X0032120Y0077411D01*
X0032023Y0077269D01*
X0031922Y0077130D01*
X0031818Y0076993D01*
X0031711Y0076859D01*
X0031600Y0076728D01*
X0031487Y0076599D01*
X0031370Y0076473D01*
X0031250Y0076350D01*
X0031127Y0076230D01*
X0031001Y0076113D01*
X0030872Y0076000D01*
X0030741Y0075889D01*
X0030607Y0075782D01*
X0030470Y0075678D01*
X0030331Y0075577D01*
X0030189Y0075480D01*
X0030045Y0075386D01*
X0029899Y0075296D01*
X0029750Y0075209D01*
X0029600Y0075127D01*
X0029447Y0075047D01*
X0029293Y0074972D01*
X0029137Y0074901D01*
X0028979Y0074833D01*
X0028819Y0074769D01*
X0028658Y0074709D01*
X0028496Y0074653D01*
X0028332Y0074601D01*
X0028167Y0074554D01*
X0028001Y0074510D01*
X0027834Y0074470D01*
X0027666Y0074435D01*
X0027497Y0074403D01*
X0027327Y0074376D01*
X0027157Y0074353D01*
X0026986Y0074334D01*
X0026815Y0074319D01*
X0026643Y0074308D01*
X0026472Y0074302D01*
X0026300Y0074300D01*
X0026128Y0074302D01*
X0025957Y0074308D01*
X0025785Y0074319D01*
X0025614Y0074334D01*
X0025443Y0074353D01*
X0025273Y0074376D01*
X0025103Y0074403D01*
X0024934Y0074435D01*
X0024766Y0074470D01*
X0024599Y0074510D01*
X0024433Y0074554D01*
X0024268Y0074601D01*
X0024104Y0074653D01*
X0023942Y0074709D01*
X0023781Y0074769D01*
X0023621Y0074833D01*
X0023463Y0074901D01*
X0023307Y0074972D01*
X0023153Y0075047D01*
X0023000Y0075127D01*
X0022850Y0075209D01*
X0022701Y0075296D01*
X0022555Y0075386D01*
X0022411Y0075480D01*
X0022269Y0075577D01*
X0022130Y0075678D01*
X0021993Y0075782D01*
X0021859Y0075889D01*
X0021728Y0076000D01*
X0021599Y0076113D01*
X0021473Y0076230D01*
X0021350Y0076350D01*
X0021230Y0076473D01*
X0021113Y0076599D01*
X0021000Y0076728D01*
X0020889Y0076859D01*
X0020782Y0076993D01*
X0020678Y0077130D01*
X0020577Y0077269D01*
X0020480Y0077411D01*
X0020386Y0077555D01*
X0020296Y0077701D01*
X0020209Y0077850D01*
X0020127Y0078000D01*
X0020047Y0078153D01*
X0019972Y0078307D01*
X0019901Y0078463D01*
X0019833Y0078621D01*
X0019769Y0078781D01*
X0019709Y0078942D01*
X0019653Y0079104D01*
X0019601Y0079268D01*
X0019554Y0079433D01*
X0019510Y0079599D01*
X0019470Y0079766D01*
X0019435Y0079934D01*
X0019403Y0080103D01*
X0019376Y0080273D01*
X0019353Y0080443D01*
X0019334Y0080614D01*
X0019319Y0080785D01*
X0019308Y0080957D01*
X0019302Y0081128D01*
X0019300Y0081300D01*
X0017800Y0069300D02*
X0021300Y0069300D01*
X0031300Y0069300D01*
X0034800Y0069300D01*
X0038505Y0028190D02*
X0044174Y0028190D01*
X0038505Y0028190D02*
X0038505Y0014410D01*
X0039646Y0014410D01*
X0044843Y0014410D02*
X0048702Y0014410D01*
X0053898Y0014410D02*
X0057757Y0014410D01*
X0062954Y0014410D02*
X0064095Y0014410D01*
X0064095Y0028190D01*
X0058426Y0028190D01*
X0081300Y0018800D02*
X0081300Y0013800D01*
X0083800Y0011300D01*
X0088800Y0011300D01*
X0091300Y0013800D01*
X0093800Y0011300D01*
X0098800Y0011300D01*
X0101300Y0013800D01*
X0103800Y0011300D01*
X0108800Y0011300D01*
X0111300Y0013800D01*
X0111300Y0018800D01*
X0108800Y0021300D01*
X0103800Y0021300D01*
X0101300Y0018800D01*
X0098800Y0021300D01*
X0093800Y0021300D01*
X0091300Y0018800D01*
X0088800Y0021300D01*
X0083800Y0021300D01*
X0081300Y0018800D01*
X0201300Y0018800D02*
X0201300Y0013800D01*
X0203800Y0011300D01*
X0208800Y0011300D01*
X0211300Y0013800D01*
X0211300Y0018800D01*
X0208800Y0021300D01*
X0211300Y0023800D01*
X0211300Y0028800D01*
X0208800Y0031300D01*
X0211300Y0033800D01*
X0211300Y0038800D01*
X0208800Y0041300D01*
X0211300Y0043800D01*
X0211300Y0048800D01*
X0208800Y0051300D01*
X0203800Y0051300D01*
X0201300Y0048800D01*
X0201300Y0043800D01*
X0203800Y0041300D01*
X0201300Y0038800D01*
X0201300Y0033800D01*
X0203800Y0031300D01*
X0201300Y0028800D01*
X0201300Y0023800D01*
X0203800Y0021300D01*
X0201300Y0018800D01*
X0203800Y0061300D02*
X0208800Y0061300D01*
X0211300Y0063800D01*
X0211300Y0068800D01*
X0208800Y0071300D01*
X0211300Y0073800D01*
X0211300Y0078800D01*
X0208800Y0081300D01*
X0211300Y0083800D01*
X0211300Y0088800D01*
X0208800Y0091300D01*
X0211300Y0093800D01*
X0211300Y0098800D01*
X0208800Y0101300D01*
X0211300Y0103800D01*
X0211300Y0108800D01*
X0208800Y0111300D01*
X0211300Y0113800D01*
X0211300Y0118800D01*
X0208800Y0121300D01*
X0203800Y0121300D01*
X0201300Y0118800D01*
X0201300Y0113800D01*
X0203800Y0111300D01*
X0201300Y0108800D01*
X0201300Y0103800D01*
X0203800Y0101300D01*
X0201300Y0098800D01*
X0201300Y0093800D01*
X0203800Y0091300D01*
X0201300Y0088800D01*
X0201300Y0083800D01*
X0203800Y0081300D01*
X0201300Y0078800D01*
X0201300Y0073800D01*
X0203800Y0071300D01*
X0201300Y0068800D01*
X0201300Y0063800D01*
X0203800Y0061300D01*
D13*
X0204050Y0054300D02*
X0208550Y0054300D01*
X0208550Y0053050D02*
X0208550Y0055550D01*
X0205050Y0053050D02*
X0204050Y0054300D01*
X0213050Y0051050D02*
X0213050Y0048550D01*
X0213550Y0048550D01*
X0213050Y0051050D02*
X0217550Y0049800D01*
X0217550Y0046550D02*
X0217550Y0044050D01*
X0217550Y0045300D02*
X0213050Y0045300D01*
X0214050Y0044050D01*
X0216425Y0041925D02*
X0216425Y0039675D01*
X0217550Y0039300D02*
X0213050Y0040800D01*
X0217550Y0042300D01*
X0217550Y0037350D02*
X0213050Y0037350D01*
X0215550Y0035850D01*
X0213050Y0034350D01*
X0217550Y0034350D01*
X0217550Y0032410D02*
X0217550Y0030410D01*
X0213050Y0030410D01*
X0213050Y0032410D01*
X0215050Y0031910D02*
X0215050Y0030410D01*
X0213050Y0028100D02*
X0217550Y0028100D01*
X0213050Y0025600D01*
X0217550Y0025600D01*
X0207550Y0010050D02*
X0207550Y0007550D01*
X0204050Y0008550D01*
X0206550Y0009300D02*
X0208550Y0009300D01*
X0191300Y0011300D02*
X0191300Y0091300D01*
X0131300Y0091300D01*
X0131300Y0011300D01*
X0191300Y0011300D01*
X0120080Y0041300D02*
X0056300Y0041300D01*
X0056300Y0136182D01*
X0120080Y0136182D01*
X0120080Y0041300D01*
X0117628Y0032895D02*
X0117628Y0031840D01*
X0116150Y0032262D01*
X0117206Y0032579D02*
X0118050Y0032579D01*
X0118050Y0030760D02*
X0117206Y0030338D01*
X0117206Y0030233D02*
X0117206Y0029705D01*
X0117206Y0030233D02*
X0117204Y0030278D01*
X0117198Y0030322D01*
X0117189Y0030366D01*
X0117176Y0030409D01*
X0117159Y0030450D01*
X0117139Y0030491D01*
X0117115Y0030529D01*
X0117089Y0030565D01*
X0117059Y0030598D01*
X0117027Y0030629D01*
X0116992Y0030658D01*
X0116955Y0030683D01*
X0116916Y0030704D01*
X0116875Y0030723D01*
X0116833Y0030738D01*
X0116789Y0030749D01*
X0116745Y0030757D01*
X0116700Y0030761D01*
X0116656Y0030761D01*
X0116611Y0030757D01*
X0116567Y0030749D01*
X0116523Y0030738D01*
X0116481Y0030723D01*
X0116440Y0030704D01*
X0116401Y0030683D01*
X0116364Y0030658D01*
X0116329Y0030629D01*
X0116297Y0030598D01*
X0116267Y0030565D01*
X0116241Y0030529D01*
X0116217Y0030491D01*
X0116197Y0030450D01*
X0116180Y0030409D01*
X0116167Y0030366D01*
X0116158Y0030322D01*
X0116152Y0030278D01*
X0116150Y0030233D01*
X0116150Y0029705D01*
X0118050Y0029705D01*
X0102010Y0027550D02*
X0100010Y0027550D01*
X0100010Y0023050D01*
X0102010Y0023050D01*
X0101510Y0025550D02*
X0100010Y0025550D01*
X0097850Y0025050D02*
X0097850Y0026300D01*
X0097850Y0025050D02*
X0096350Y0025050D01*
X0097850Y0025050D02*
X0097848Y0024963D01*
X0097842Y0024876D01*
X0097833Y0024789D01*
X0097820Y0024703D01*
X0097803Y0024617D01*
X0097782Y0024532D01*
X0097757Y0024449D01*
X0097729Y0024366D01*
X0097698Y0024285D01*
X0097663Y0024205D01*
X0097624Y0024127D01*
X0097582Y0024050D01*
X0097537Y0023975D01*
X0097488Y0023903D01*
X0097437Y0023832D01*
X0097382Y0023764D01*
X0097325Y0023699D01*
X0097264Y0023636D01*
X0097201Y0023575D01*
X0097136Y0023518D01*
X0097068Y0023463D01*
X0096997Y0023412D01*
X0096925Y0023363D01*
X0096850Y0023318D01*
X0096773Y0023276D01*
X0096695Y0023237D01*
X0096615Y0023202D01*
X0096534Y0023171D01*
X0096451Y0023143D01*
X0096368Y0023118D01*
X0096283Y0023097D01*
X0096197Y0023080D01*
X0096111Y0023067D01*
X0096024Y0023058D01*
X0095937Y0023052D01*
X0095850Y0023050D01*
X0093350Y0024050D02*
X0090850Y0024050D01*
X0091850Y0027550D01*
X0088700Y0027550D02*
X0088700Y0023050D01*
X0088700Y0025550D02*
X0086200Y0025550D01*
X0086200Y0027550D02*
X0086200Y0023050D01*
X0084050Y0024300D02*
X0084050Y0026300D01*
X0084048Y0026369D01*
X0084042Y0026438D01*
X0084033Y0026506D01*
X0084020Y0026573D01*
X0084003Y0026640D01*
X0083982Y0026706D01*
X0083958Y0026770D01*
X0083930Y0026833D01*
X0083899Y0026895D01*
X0083865Y0026955D01*
X0083827Y0027012D01*
X0083786Y0027068D01*
X0083743Y0027121D01*
X0083696Y0027172D01*
X0083647Y0027220D01*
X0083595Y0027265D01*
X0083540Y0027307D01*
X0083484Y0027346D01*
X0083425Y0027383D01*
X0083364Y0027415D01*
X0083302Y0027445D01*
X0083238Y0027471D01*
X0083173Y0027493D01*
X0083107Y0027512D01*
X0083040Y0027527D01*
X0082972Y0027538D01*
X0082903Y0027546D01*
X0082834Y0027550D01*
X0082766Y0027550D01*
X0082697Y0027546D01*
X0082628Y0027538D01*
X0082560Y0027527D01*
X0082493Y0027512D01*
X0082427Y0027493D01*
X0082362Y0027471D01*
X0082298Y0027445D01*
X0082236Y0027415D01*
X0082175Y0027383D01*
X0082116Y0027346D01*
X0082060Y0027307D01*
X0082005Y0027265D01*
X0081953Y0027220D01*
X0081904Y0027172D01*
X0081857Y0027121D01*
X0081814Y0027068D01*
X0081773Y0027012D01*
X0081735Y0026955D01*
X0081701Y0026895D01*
X0081670Y0026833D01*
X0081642Y0026770D01*
X0081618Y0026706D01*
X0081597Y0026640D01*
X0081580Y0026573D01*
X0081567Y0026506D01*
X0081558Y0026438D01*
X0081552Y0026369D01*
X0081550Y0026300D01*
X0081550Y0024300D01*
X0081552Y0024231D01*
X0081558Y0024162D01*
X0081567Y0024094D01*
X0081580Y0024027D01*
X0081597Y0023960D01*
X0081618Y0023894D01*
X0081642Y0023830D01*
X0081670Y0023767D01*
X0081701Y0023705D01*
X0081735Y0023645D01*
X0081773Y0023588D01*
X0081814Y0023532D01*
X0081857Y0023479D01*
X0081904Y0023428D01*
X0081953Y0023380D01*
X0082005Y0023335D01*
X0082060Y0023293D01*
X0082116Y0023254D01*
X0082175Y0023217D01*
X0082236Y0023185D01*
X0082298Y0023155D01*
X0082362Y0023129D01*
X0082427Y0023107D01*
X0082493Y0023088D01*
X0082560Y0023073D01*
X0082628Y0023062D01*
X0082697Y0023054D01*
X0082766Y0023050D01*
X0082834Y0023050D01*
X0082903Y0023054D01*
X0082972Y0023062D01*
X0083040Y0023073D01*
X0083107Y0023088D01*
X0083173Y0023107D01*
X0083238Y0023129D01*
X0083302Y0023155D01*
X0083364Y0023185D01*
X0083425Y0023217D01*
X0083484Y0023254D01*
X0083540Y0023293D01*
X0083595Y0023335D01*
X0083647Y0023380D01*
X0083696Y0023428D01*
X0083743Y0023479D01*
X0083786Y0023532D01*
X0083827Y0023588D01*
X0083865Y0023645D01*
X0083899Y0023705D01*
X0083930Y0023767D01*
X0083958Y0023830D01*
X0083982Y0023894D01*
X0084003Y0023960D01*
X0084020Y0024027D01*
X0084033Y0024094D01*
X0084042Y0024162D01*
X0084048Y0024231D01*
X0084050Y0024300D01*
X0092600Y0025050D02*
X0092600Y0023050D01*
X0095350Y0026050D02*
X0095350Y0026300D01*
X0095350Y0026050D02*
X0095352Y0025990D01*
X0095357Y0025929D01*
X0095366Y0025870D01*
X0095379Y0025811D01*
X0095395Y0025752D01*
X0095415Y0025695D01*
X0095438Y0025640D01*
X0095465Y0025585D01*
X0095494Y0025533D01*
X0095527Y0025482D01*
X0095563Y0025433D01*
X0095601Y0025387D01*
X0095643Y0025343D01*
X0095687Y0025301D01*
X0095733Y0025263D01*
X0095782Y0025227D01*
X0095833Y0025194D01*
X0095885Y0025165D01*
X0095940Y0025138D01*
X0095995Y0025115D01*
X0096052Y0025095D01*
X0096111Y0025079D01*
X0096170Y0025066D01*
X0096229Y0025057D01*
X0096290Y0025052D01*
X0096350Y0025050D01*
X0095350Y0026300D02*
X0095352Y0026369D01*
X0095358Y0026438D01*
X0095367Y0026506D01*
X0095380Y0026573D01*
X0095397Y0026640D01*
X0095418Y0026706D01*
X0095442Y0026770D01*
X0095470Y0026833D01*
X0095501Y0026895D01*
X0095535Y0026955D01*
X0095573Y0027012D01*
X0095614Y0027068D01*
X0095657Y0027121D01*
X0095704Y0027172D01*
X0095753Y0027220D01*
X0095805Y0027265D01*
X0095860Y0027307D01*
X0095916Y0027346D01*
X0095975Y0027383D01*
X0096036Y0027415D01*
X0096098Y0027445D01*
X0096162Y0027471D01*
X0096227Y0027493D01*
X0096293Y0027512D01*
X0096360Y0027527D01*
X0096428Y0027538D01*
X0096497Y0027546D01*
X0096566Y0027550D01*
X0096634Y0027550D01*
X0096703Y0027546D01*
X0096772Y0027538D01*
X0096840Y0027527D01*
X0096907Y0027512D01*
X0096973Y0027493D01*
X0097038Y0027471D01*
X0097102Y0027445D01*
X0097164Y0027415D01*
X0097225Y0027383D01*
X0097284Y0027346D01*
X0097340Y0027307D01*
X0097395Y0027265D01*
X0097447Y0027220D01*
X0097496Y0027172D01*
X0097543Y0027121D01*
X0097586Y0027068D01*
X0097627Y0027012D01*
X0097665Y0026955D01*
X0097699Y0026895D01*
X0097730Y0026833D01*
X0097758Y0026770D01*
X0097782Y0026706D01*
X0097803Y0026640D01*
X0097820Y0026573D01*
X0097833Y0026506D01*
X0097842Y0026438D01*
X0097848Y0026369D01*
X0097850Y0026300D01*
X0077800Y0018550D02*
X0077800Y0014050D01*
X0076550Y0014050D02*
X0079050Y0014050D01*
X0076550Y0017550D02*
X0077800Y0018550D01*
X0038050Y0062050D02*
X0035550Y0062050D01*
X0036800Y0062050D02*
X0036800Y0066550D01*
X0035550Y0065550D01*
X0033200Y0063925D02*
X0031825Y0064675D01*
X0032325Y0066550D02*
X0032405Y0066548D01*
X0032486Y0066543D01*
X0032566Y0066534D01*
X0032645Y0066522D01*
X0032724Y0066507D01*
X0032802Y0066488D01*
X0032880Y0066466D01*
X0032956Y0066441D01*
X0033031Y0066412D01*
X0033105Y0066380D01*
X0033177Y0066345D01*
X0033248Y0066307D01*
X0033317Y0066266D01*
X0033385Y0066222D01*
X0033450Y0066175D01*
X0031825Y0064675D02*
X0031773Y0064708D01*
X0031722Y0064744D01*
X0031674Y0064783D01*
X0031629Y0064825D01*
X0031586Y0064870D01*
X0031546Y0064918D01*
X0031509Y0064967D01*
X0031475Y0065019D01*
X0031444Y0065073D01*
X0031416Y0065129D01*
X0031392Y0065186D01*
X0031372Y0065245D01*
X0031355Y0065304D01*
X0031342Y0065365D01*
X0031333Y0065426D01*
X0031327Y0065488D01*
X0031325Y0065550D01*
X0031327Y0065610D01*
X0031332Y0065671D01*
X0031341Y0065730D01*
X0031354Y0065789D01*
X0031370Y0065848D01*
X0031390Y0065905D01*
X0031413Y0065960D01*
X0031440Y0066015D01*
X0031469Y0066067D01*
X0031502Y0066118D01*
X0031538Y0066167D01*
X0031576Y0066213D01*
X0031618Y0066257D01*
X0031662Y0066299D01*
X0031708Y0066337D01*
X0031757Y0066373D01*
X0031808Y0066406D01*
X0031860Y0066435D01*
X0031915Y0066462D01*
X0031970Y0066485D01*
X0032027Y0066505D01*
X0032086Y0066521D01*
X0032145Y0066534D01*
X0032204Y0066543D01*
X0032265Y0066548D01*
X0032325Y0066550D01*
X0031200Y0062674D02*
X0031263Y0062613D01*
X0031328Y0062555D01*
X0031396Y0062499D01*
X0031467Y0062446D01*
X0031539Y0062397D01*
X0031613Y0062350D01*
X0031689Y0062306D01*
X0031767Y0062266D01*
X0031847Y0062229D01*
X0031928Y0062195D01*
X0032010Y0062165D01*
X0032094Y0062138D01*
X0032179Y0062114D01*
X0032264Y0062094D01*
X0032350Y0062078D01*
X0032437Y0062065D01*
X0032525Y0062056D01*
X0032612Y0062051D01*
X0032700Y0062049D01*
X0032700Y0062050D02*
X0032760Y0062052D01*
X0032821Y0062057D01*
X0032880Y0062066D01*
X0032939Y0062079D01*
X0032998Y0062095D01*
X0033055Y0062115D01*
X0033110Y0062138D01*
X0033165Y0062165D01*
X0033217Y0062194D01*
X0033268Y0062227D01*
X0033317Y0062263D01*
X0033363Y0062301D01*
X0033407Y0062343D01*
X0033449Y0062387D01*
X0033487Y0062433D01*
X0033523Y0062482D01*
X0033556Y0062533D01*
X0033585Y0062585D01*
X0033612Y0062640D01*
X0033635Y0062695D01*
X0033655Y0062752D01*
X0033671Y0062811D01*
X0033684Y0062870D01*
X0033693Y0062929D01*
X0033698Y0062990D01*
X0033700Y0063050D01*
X0033698Y0063112D01*
X0033692Y0063174D01*
X0033683Y0063235D01*
X0033670Y0063296D01*
X0033653Y0063355D01*
X0033633Y0063414D01*
X0033609Y0063471D01*
X0033581Y0063527D01*
X0033550Y0063581D01*
X0033516Y0063633D01*
X0033479Y0063682D01*
X0033439Y0063730D01*
X0033396Y0063775D01*
X0033351Y0063817D01*
X0033303Y0063856D01*
X0033252Y0063892D01*
X0033200Y0063925D01*
X0035550Y0092050D02*
X0038050Y0092050D01*
X0035550Y0092050D02*
X0037675Y0094550D01*
X0036925Y0096550D02*
X0036852Y0096548D01*
X0036780Y0096543D01*
X0036708Y0096534D01*
X0036636Y0096521D01*
X0036565Y0096505D01*
X0036495Y0096485D01*
X0036427Y0096461D01*
X0036359Y0096435D01*
X0036293Y0096404D01*
X0036228Y0096371D01*
X0036166Y0096334D01*
X0036105Y0096295D01*
X0036046Y0096252D01*
X0035989Y0096206D01*
X0035935Y0096158D01*
X0035884Y0096107D01*
X0035834Y0096053D01*
X0035788Y0095997D01*
X0035745Y0095939D01*
X0035704Y0095878D01*
X0035667Y0095816D01*
X0035633Y0095752D01*
X0035602Y0095686D01*
X0035574Y0095619D01*
X0035550Y0095550D01*
X0037675Y0094550D02*
X0037721Y0094596D01*
X0037765Y0094645D01*
X0037805Y0094696D01*
X0037843Y0094749D01*
X0037878Y0094804D01*
X0037910Y0094861D01*
X0037939Y0094919D01*
X0037965Y0094979D01*
X0037987Y0095041D01*
X0038006Y0095103D01*
X0038022Y0095166D01*
X0038034Y0095230D01*
X0038043Y0095295D01*
X0038048Y0095360D01*
X0038050Y0095425D01*
X0038048Y0095490D01*
X0038042Y0095556D01*
X0038033Y0095620D01*
X0038020Y0095684D01*
X0038003Y0095748D01*
X0037982Y0095810D01*
X0037958Y0095871D01*
X0037930Y0095930D01*
X0037899Y0095988D01*
X0037865Y0096043D01*
X0037827Y0096097D01*
X0037787Y0096148D01*
X0037743Y0096197D01*
X0037697Y0096243D01*
X0037648Y0096287D01*
X0037597Y0096327D01*
X0037543Y0096365D01*
X0037488Y0096399D01*
X0037430Y0096430D01*
X0037371Y0096458D01*
X0037310Y0096482D01*
X0037248Y0096503D01*
X0037184Y0096520D01*
X0037120Y0096533D01*
X0037056Y0096542D01*
X0036990Y0096548D01*
X0036925Y0096550D01*
X0033200Y0093925D02*
X0031825Y0094675D01*
X0032325Y0096550D02*
X0032405Y0096548D01*
X0032486Y0096543D01*
X0032566Y0096534D01*
X0032645Y0096522D01*
X0032724Y0096507D01*
X0032802Y0096488D01*
X0032880Y0096466D01*
X0032956Y0096441D01*
X0033031Y0096412D01*
X0033105Y0096380D01*
X0033177Y0096345D01*
X0033248Y0096307D01*
X0033317Y0096266D01*
X0033385Y0096222D01*
X0033450Y0096175D01*
X0031825Y0094675D02*
X0031773Y0094708D01*
X0031722Y0094744D01*
X0031674Y0094783D01*
X0031629Y0094825D01*
X0031586Y0094870D01*
X0031546Y0094918D01*
X0031509Y0094967D01*
X0031475Y0095019D01*
X0031444Y0095073D01*
X0031416Y0095129D01*
X0031392Y0095186D01*
X0031372Y0095245D01*
X0031355Y0095304D01*
X0031342Y0095365D01*
X0031333Y0095426D01*
X0031327Y0095488D01*
X0031325Y0095550D01*
X0031327Y0095610D01*
X0031332Y0095671D01*
X0031341Y0095730D01*
X0031354Y0095789D01*
X0031370Y0095848D01*
X0031390Y0095905D01*
X0031413Y0095960D01*
X0031440Y0096015D01*
X0031469Y0096067D01*
X0031502Y0096118D01*
X0031538Y0096167D01*
X0031576Y0096213D01*
X0031618Y0096257D01*
X0031662Y0096299D01*
X0031708Y0096337D01*
X0031757Y0096373D01*
X0031808Y0096406D01*
X0031860Y0096435D01*
X0031915Y0096462D01*
X0031970Y0096485D01*
X0032027Y0096505D01*
X0032086Y0096521D01*
X0032145Y0096534D01*
X0032204Y0096543D01*
X0032265Y0096548D01*
X0032325Y0096550D01*
X0031200Y0092674D02*
X0031263Y0092613D01*
X0031328Y0092555D01*
X0031396Y0092499D01*
X0031467Y0092446D01*
X0031539Y0092397D01*
X0031613Y0092350D01*
X0031689Y0092306D01*
X0031767Y0092266D01*
X0031847Y0092229D01*
X0031928Y0092195D01*
X0032010Y0092165D01*
X0032094Y0092138D01*
X0032179Y0092114D01*
X0032264Y0092094D01*
X0032350Y0092078D01*
X0032437Y0092065D01*
X0032525Y0092056D01*
X0032612Y0092051D01*
X0032700Y0092049D01*
X0032700Y0092050D02*
X0032760Y0092052D01*
X0032821Y0092057D01*
X0032880Y0092066D01*
X0032939Y0092079D01*
X0032998Y0092095D01*
X0033055Y0092115D01*
X0033110Y0092138D01*
X0033165Y0092165D01*
X0033217Y0092194D01*
X0033268Y0092227D01*
X0033317Y0092263D01*
X0033363Y0092301D01*
X0033407Y0092343D01*
X0033449Y0092387D01*
X0033487Y0092433D01*
X0033523Y0092482D01*
X0033556Y0092533D01*
X0033585Y0092585D01*
X0033612Y0092640D01*
X0033635Y0092695D01*
X0033655Y0092752D01*
X0033671Y0092811D01*
X0033684Y0092870D01*
X0033693Y0092929D01*
X0033698Y0092990D01*
X0033700Y0093050D01*
X0033698Y0093112D01*
X0033692Y0093174D01*
X0033683Y0093235D01*
X0033670Y0093296D01*
X0033653Y0093355D01*
X0033633Y0093414D01*
X0033609Y0093471D01*
X0033581Y0093527D01*
X0033550Y0093581D01*
X0033516Y0093633D01*
X0033479Y0093682D01*
X0033439Y0093730D01*
X0033396Y0093775D01*
X0033351Y0093817D01*
X0033303Y0093856D01*
X0033252Y0093892D01*
X0033200Y0093925D01*
X0034705Y0126150D02*
X0034705Y0128050D01*
X0035233Y0128050D01*
X0035278Y0128048D01*
X0035322Y0128042D01*
X0035366Y0128033D01*
X0035409Y0128020D01*
X0035450Y0128003D01*
X0035491Y0127983D01*
X0035529Y0127959D01*
X0035565Y0127933D01*
X0035598Y0127903D01*
X0035629Y0127871D01*
X0035658Y0127836D01*
X0035683Y0127799D01*
X0035704Y0127760D01*
X0035723Y0127719D01*
X0035738Y0127677D01*
X0035749Y0127633D01*
X0035757Y0127589D01*
X0035761Y0127544D01*
X0035761Y0127500D01*
X0035757Y0127455D01*
X0035749Y0127411D01*
X0035738Y0127367D01*
X0035723Y0127325D01*
X0035704Y0127284D01*
X0035683Y0127245D01*
X0035658Y0127208D01*
X0035629Y0127173D01*
X0035598Y0127141D01*
X0035565Y0127111D01*
X0035529Y0127085D01*
X0035491Y0127061D01*
X0035450Y0127041D01*
X0035409Y0127024D01*
X0035366Y0127011D01*
X0035322Y0127002D01*
X0035278Y0126996D01*
X0035233Y0126994D01*
X0034705Y0126994D01*
X0035338Y0126994D02*
X0035760Y0126150D01*
X0036840Y0126150D02*
X0037895Y0126150D01*
X0037367Y0126150D02*
X0037367Y0128050D01*
X0036840Y0127628D01*
X0017895Y0126150D02*
X0016840Y0126150D01*
X0017737Y0127206D01*
X0017420Y0128050D02*
X0017372Y0128048D01*
X0017325Y0128042D01*
X0017277Y0128033D01*
X0017231Y0128020D01*
X0017186Y0128003D01*
X0017143Y0127983D01*
X0017101Y0127960D01*
X0017061Y0127933D01*
X0017024Y0127904D01*
X0016988Y0127871D01*
X0016956Y0127836D01*
X0016926Y0127798D01*
X0016900Y0127758D01*
X0016876Y0127716D01*
X0016856Y0127673D01*
X0016840Y0127628D01*
X0017737Y0127206D02*
X0017765Y0127235D01*
X0017792Y0127267D01*
X0017815Y0127301D01*
X0017836Y0127337D01*
X0017854Y0127374D01*
X0017868Y0127413D01*
X0017880Y0127452D01*
X0017888Y0127493D01*
X0017893Y0127534D01*
X0017895Y0127575D01*
X0017893Y0127616D01*
X0017888Y0127657D01*
X0017879Y0127698D01*
X0017866Y0127737D01*
X0017850Y0127776D01*
X0017831Y0127813D01*
X0017809Y0127847D01*
X0017784Y0127880D01*
X0017756Y0127911D01*
X0017725Y0127939D01*
X0017692Y0127964D01*
X0017658Y0127986D01*
X0017621Y0128005D01*
X0017582Y0128021D01*
X0017543Y0128034D01*
X0017502Y0128043D01*
X0017461Y0128048D01*
X0017420Y0128050D01*
X0015233Y0128050D02*
X0014705Y0128050D01*
X0014705Y0126150D01*
X0014705Y0126994D02*
X0015233Y0126994D01*
X0015338Y0126994D02*
X0015760Y0126150D01*
X0015233Y0126994D02*
X0015278Y0126996D01*
X0015322Y0127002D01*
X0015366Y0127011D01*
X0015409Y0127024D01*
X0015450Y0127041D01*
X0015491Y0127061D01*
X0015529Y0127085D01*
X0015565Y0127111D01*
X0015598Y0127141D01*
X0015629Y0127173D01*
X0015658Y0127208D01*
X0015683Y0127245D01*
X0015704Y0127284D01*
X0015723Y0127325D01*
X0015738Y0127367D01*
X0015749Y0127411D01*
X0015757Y0127455D01*
X0015761Y0127500D01*
X0015761Y0127544D01*
X0015757Y0127589D01*
X0015749Y0127633D01*
X0015738Y0127677D01*
X0015723Y0127719D01*
X0015704Y0127760D01*
X0015683Y0127799D01*
X0015658Y0127836D01*
X0015629Y0127871D01*
X0015598Y0127903D01*
X0015565Y0127933D01*
X0015529Y0127959D01*
X0015491Y0127983D01*
X0015450Y0128003D01*
X0015409Y0128020D01*
X0015366Y0128033D01*
X0015322Y0128042D01*
X0015278Y0128048D01*
X0015233Y0128050D01*
X0126150Y0117473D02*
X0126150Y0116840D01*
X0126150Y0117473D02*
X0126152Y0117513D01*
X0126158Y0117553D01*
X0126167Y0117592D01*
X0126180Y0117630D01*
X0126197Y0117666D01*
X0126217Y0117701D01*
X0126240Y0117734D01*
X0126267Y0117764D01*
X0126296Y0117792D01*
X0126327Y0117817D01*
X0126361Y0117838D01*
X0126397Y0117857D01*
X0126434Y0117872D01*
X0126473Y0117883D01*
X0126512Y0117891D01*
X0126552Y0117895D01*
X0126592Y0117895D01*
X0126632Y0117891D01*
X0126671Y0117883D01*
X0126710Y0117872D01*
X0126747Y0117857D01*
X0126783Y0117838D01*
X0126817Y0117817D01*
X0126848Y0117792D01*
X0126877Y0117764D01*
X0126904Y0117734D01*
X0126927Y0117701D01*
X0126947Y0117666D01*
X0126964Y0117630D01*
X0126977Y0117592D01*
X0126986Y0117553D01*
X0126992Y0117513D01*
X0126994Y0117473D01*
X0126994Y0117051D01*
X0126994Y0117367D02*
X0126996Y0117412D01*
X0127002Y0117456D01*
X0127011Y0117500D01*
X0127024Y0117543D01*
X0127041Y0117584D01*
X0127061Y0117625D01*
X0127085Y0117663D01*
X0127111Y0117699D01*
X0127141Y0117732D01*
X0127173Y0117763D01*
X0127208Y0117792D01*
X0127245Y0117817D01*
X0127284Y0117838D01*
X0127325Y0117857D01*
X0127367Y0117872D01*
X0127411Y0117883D01*
X0127455Y0117891D01*
X0127500Y0117895D01*
X0127544Y0117895D01*
X0127589Y0117891D01*
X0127633Y0117883D01*
X0127677Y0117872D01*
X0127719Y0117857D01*
X0127760Y0117838D01*
X0127799Y0117817D01*
X0127836Y0117792D01*
X0127871Y0117763D01*
X0127903Y0117732D01*
X0127933Y0117699D01*
X0127959Y0117663D01*
X0127983Y0117625D01*
X0128003Y0117584D01*
X0128020Y0117543D01*
X0128033Y0117500D01*
X0128042Y0117456D01*
X0128048Y0117412D01*
X0128050Y0117367D01*
X0128050Y0116840D01*
X0128050Y0115760D02*
X0127206Y0115338D01*
X0127206Y0115233D02*
X0127206Y0114705D01*
X0127206Y0115233D02*
X0127204Y0115278D01*
X0127198Y0115322D01*
X0127189Y0115366D01*
X0127176Y0115409D01*
X0127159Y0115450D01*
X0127139Y0115491D01*
X0127115Y0115529D01*
X0127089Y0115565D01*
X0127059Y0115598D01*
X0127027Y0115629D01*
X0126992Y0115658D01*
X0126955Y0115683D01*
X0126916Y0115704D01*
X0126875Y0115723D01*
X0126833Y0115738D01*
X0126789Y0115749D01*
X0126745Y0115757D01*
X0126700Y0115761D01*
X0126656Y0115761D01*
X0126611Y0115757D01*
X0126567Y0115749D01*
X0126523Y0115738D01*
X0126481Y0115723D01*
X0126440Y0115704D01*
X0126401Y0115683D01*
X0126364Y0115658D01*
X0126329Y0115629D01*
X0126297Y0115598D01*
X0126267Y0115565D01*
X0126241Y0115529D01*
X0126217Y0115491D01*
X0126197Y0115450D01*
X0126180Y0115409D01*
X0126167Y0115366D01*
X0126158Y0115322D01*
X0126152Y0115278D01*
X0126150Y0115233D01*
X0126150Y0114705D01*
X0128050Y0114705D01*
X0195050Y0117300D02*
X0196050Y0116050D01*
X0195050Y0117300D02*
X0199550Y0117300D01*
X0199550Y0116050D02*
X0199550Y0118550D01*
X0215050Y0095675D02*
X0217550Y0093550D01*
X0217550Y0096050D01*
X0214050Y0093550D02*
X0213981Y0093574D01*
X0213914Y0093602D01*
X0213848Y0093633D01*
X0213784Y0093667D01*
X0213722Y0093704D01*
X0213661Y0093745D01*
X0213603Y0093788D01*
X0213547Y0093834D01*
X0213493Y0093884D01*
X0213442Y0093935D01*
X0213394Y0093989D01*
X0213348Y0094046D01*
X0213305Y0094105D01*
X0213266Y0094166D01*
X0213229Y0094228D01*
X0213196Y0094293D01*
X0213165Y0094359D01*
X0213139Y0094427D01*
X0213115Y0094495D01*
X0213095Y0094565D01*
X0213079Y0094636D01*
X0213066Y0094708D01*
X0213057Y0094780D01*
X0213052Y0094852D01*
X0213050Y0094925D01*
X0213052Y0094990D01*
X0213058Y0095056D01*
X0213067Y0095120D01*
X0213080Y0095184D01*
X0213097Y0095248D01*
X0213118Y0095310D01*
X0213142Y0095371D01*
X0213170Y0095430D01*
X0213201Y0095488D01*
X0213235Y0095543D01*
X0213273Y0095597D01*
X0213313Y0095648D01*
X0213357Y0095697D01*
X0213403Y0095743D01*
X0213452Y0095787D01*
X0213503Y0095827D01*
X0213557Y0095865D01*
X0213613Y0095899D01*
X0213670Y0095930D01*
X0213729Y0095958D01*
X0213790Y0095982D01*
X0213852Y0096003D01*
X0213916Y0096020D01*
X0213980Y0096033D01*
X0214044Y0096042D01*
X0214110Y0096048D01*
X0214175Y0096050D01*
X0214240Y0096048D01*
X0214305Y0096043D01*
X0214370Y0096034D01*
X0214434Y0096022D01*
X0214497Y0096006D01*
X0214559Y0095987D01*
X0214621Y0095965D01*
X0214681Y0095939D01*
X0214739Y0095910D01*
X0214796Y0095878D01*
X0214851Y0095843D01*
X0214904Y0095805D01*
X0214955Y0095765D01*
X0215004Y0095721D01*
X0215050Y0095675D01*
X0215050Y0090550D02*
X0215050Y0089550D01*
X0215050Y0090550D02*
X0215048Y0090612D01*
X0215042Y0090673D01*
X0215033Y0090734D01*
X0215020Y0090794D01*
X0215003Y0090853D01*
X0214982Y0090911D01*
X0214958Y0090968D01*
X0214931Y0091023D01*
X0214900Y0091076D01*
X0214866Y0091128D01*
X0214829Y0091177D01*
X0214789Y0091224D01*
X0214746Y0091268D01*
X0214701Y0091309D01*
X0214653Y0091348D01*
X0214602Y0091384D01*
X0214550Y0091416D01*
X0214496Y0091445D01*
X0214440Y0091471D01*
X0214382Y0091493D01*
X0214324Y0091512D01*
X0214264Y0091527D01*
X0214203Y0091538D01*
X0214142Y0091546D01*
X0214081Y0091550D01*
X0214019Y0091550D01*
X0213958Y0091546D01*
X0213897Y0091538D01*
X0213836Y0091527D01*
X0213776Y0091512D01*
X0213718Y0091493D01*
X0213660Y0091471D01*
X0213604Y0091445D01*
X0213550Y0091416D01*
X0213498Y0091384D01*
X0213447Y0091348D01*
X0213399Y0091309D01*
X0213354Y0091268D01*
X0213311Y0091224D01*
X0213271Y0091177D01*
X0213234Y0091128D01*
X0213200Y0091076D01*
X0213169Y0091023D01*
X0213142Y0090968D01*
X0213118Y0090911D01*
X0213097Y0090853D01*
X0213080Y0090794D01*
X0213067Y0090734D01*
X0213058Y0090673D01*
X0213052Y0090612D01*
X0213050Y0090550D01*
X0213050Y0089050D01*
X0215050Y0090300D02*
X0215052Y0090369D01*
X0215058Y0090438D01*
X0215067Y0090506D01*
X0215080Y0090573D01*
X0215097Y0090640D01*
X0215118Y0090706D01*
X0215142Y0090770D01*
X0215170Y0090833D01*
X0215201Y0090895D01*
X0215235Y0090955D01*
X0215273Y0091012D01*
X0215314Y0091068D01*
X0215357Y0091121D01*
X0215404Y0091172D01*
X0215453Y0091220D01*
X0215505Y0091265D01*
X0215560Y0091307D01*
X0215616Y0091346D01*
X0215675Y0091383D01*
X0215736Y0091415D01*
X0215798Y0091445D01*
X0215862Y0091471D01*
X0215927Y0091493D01*
X0215993Y0091512D01*
X0216060Y0091527D01*
X0216128Y0091538D01*
X0216197Y0091546D01*
X0216266Y0091550D01*
X0216334Y0091550D01*
X0216403Y0091546D01*
X0216472Y0091538D01*
X0216540Y0091527D01*
X0216607Y0091512D01*
X0216673Y0091493D01*
X0216738Y0091471D01*
X0216802Y0091445D01*
X0216864Y0091415D01*
X0216925Y0091383D01*
X0216984Y0091346D01*
X0217040Y0091307D01*
X0217095Y0091265D01*
X0217147Y0091220D01*
X0217196Y0091172D01*
X0217243Y0091121D01*
X0217286Y0091068D01*
X0217327Y0091012D01*
X0217365Y0090955D01*
X0217399Y0090895D01*
X0217430Y0090833D01*
X0217458Y0090770D01*
X0217482Y0090706D01*
X0217503Y0090640D01*
X0217520Y0090573D01*
X0217533Y0090506D01*
X0217542Y0090438D01*
X0217548Y0090369D01*
X0217550Y0090300D01*
X0217550Y0089050D01*
X0217550Y0087050D02*
X0217550Y0084550D01*
X0215050Y0086675D01*
X0213050Y0085925D02*
X0213052Y0085852D01*
X0213057Y0085780D01*
X0213066Y0085708D01*
X0213079Y0085636D01*
X0213095Y0085565D01*
X0213115Y0085495D01*
X0213139Y0085427D01*
X0213165Y0085359D01*
X0213196Y0085293D01*
X0213229Y0085228D01*
X0213266Y0085166D01*
X0213305Y0085105D01*
X0213348Y0085046D01*
X0213394Y0084989D01*
X0213442Y0084935D01*
X0213493Y0084884D01*
X0213547Y0084834D01*
X0213603Y0084788D01*
X0213661Y0084745D01*
X0213722Y0084704D01*
X0213784Y0084667D01*
X0213848Y0084633D01*
X0213914Y0084602D01*
X0213981Y0084574D01*
X0214050Y0084550D01*
X0215050Y0086675D02*
X0215004Y0086721D01*
X0214955Y0086765D01*
X0214904Y0086805D01*
X0214851Y0086843D01*
X0214796Y0086878D01*
X0214739Y0086910D01*
X0214681Y0086939D01*
X0214621Y0086965D01*
X0214559Y0086987D01*
X0214497Y0087006D01*
X0214434Y0087022D01*
X0214370Y0087034D01*
X0214305Y0087043D01*
X0214240Y0087048D01*
X0214175Y0087050D01*
X0214110Y0087048D01*
X0214044Y0087042D01*
X0213980Y0087033D01*
X0213916Y0087020D01*
X0213852Y0087003D01*
X0213790Y0086982D01*
X0213729Y0086958D01*
X0213670Y0086930D01*
X0213613Y0086899D01*
X0213557Y0086865D01*
X0213503Y0086827D01*
X0213452Y0086787D01*
X0213403Y0086743D01*
X0213357Y0086697D01*
X0213313Y0086648D01*
X0213273Y0086597D01*
X0213235Y0086543D01*
X0213201Y0086488D01*
X0213170Y0086430D01*
X0213142Y0086371D01*
X0213118Y0086310D01*
X0213097Y0086248D01*
X0213080Y0086184D01*
X0213067Y0086120D01*
X0213058Y0086056D01*
X0213052Y0085990D01*
X0213050Y0085925D01*
X0213050Y0082850D02*
X0213050Y0080350D01*
X0213050Y0081600D02*
X0217550Y0081600D01*
X0215050Y0078910D02*
X0215050Y0076910D01*
X0213050Y0076910D02*
X0213050Y0078910D01*
X0213050Y0076910D02*
X0217550Y0076910D01*
X0216300Y0068550D02*
X0216050Y0068550D01*
X0215990Y0068548D01*
X0215929Y0068543D01*
X0215870Y0068534D01*
X0215811Y0068521D01*
X0215752Y0068505D01*
X0215695Y0068485D01*
X0215640Y0068462D01*
X0215585Y0068435D01*
X0215533Y0068406D01*
X0215482Y0068373D01*
X0215433Y0068337D01*
X0215387Y0068299D01*
X0215343Y0068257D01*
X0215301Y0068213D01*
X0215263Y0068167D01*
X0215227Y0068118D01*
X0215194Y0068067D01*
X0215165Y0068015D01*
X0215138Y0067960D01*
X0215115Y0067905D01*
X0215095Y0067848D01*
X0215079Y0067789D01*
X0215066Y0067730D01*
X0215057Y0067671D01*
X0215052Y0067610D01*
X0215050Y0067550D01*
X0215050Y0066050D01*
X0216300Y0066050D01*
X0216369Y0066052D01*
X0216438Y0066058D01*
X0216506Y0066067D01*
X0216573Y0066080D01*
X0216640Y0066097D01*
X0216706Y0066118D01*
X0216770Y0066142D01*
X0216833Y0066170D01*
X0216895Y0066201D01*
X0216955Y0066235D01*
X0217012Y0066273D01*
X0217068Y0066314D01*
X0217121Y0066357D01*
X0217172Y0066404D01*
X0217220Y0066453D01*
X0217265Y0066505D01*
X0217307Y0066560D01*
X0217346Y0066616D01*
X0217383Y0066675D01*
X0217415Y0066736D01*
X0217445Y0066798D01*
X0217471Y0066862D01*
X0217493Y0066927D01*
X0217512Y0066993D01*
X0217527Y0067060D01*
X0217538Y0067128D01*
X0217546Y0067197D01*
X0217550Y0067266D01*
X0217550Y0067334D01*
X0217546Y0067403D01*
X0217538Y0067472D01*
X0217527Y0067540D01*
X0217512Y0067607D01*
X0217493Y0067673D01*
X0217471Y0067738D01*
X0217445Y0067802D01*
X0217415Y0067864D01*
X0217383Y0067925D01*
X0217346Y0067984D01*
X0217307Y0068040D01*
X0217265Y0068095D01*
X0217220Y0068147D01*
X0217172Y0068196D01*
X0217121Y0068243D01*
X0217068Y0068286D01*
X0217012Y0068327D01*
X0216955Y0068365D01*
X0216895Y0068399D01*
X0216833Y0068430D01*
X0216770Y0068458D01*
X0216706Y0068482D01*
X0216640Y0068503D01*
X0216573Y0068520D01*
X0216506Y0068533D01*
X0216438Y0068542D01*
X0216369Y0068548D01*
X0216300Y0068550D01*
X0215050Y0066050D02*
X0214963Y0066052D01*
X0214876Y0066058D01*
X0214789Y0066067D01*
X0214703Y0066080D01*
X0214617Y0066097D01*
X0214532Y0066118D01*
X0214449Y0066143D01*
X0214366Y0066171D01*
X0214285Y0066202D01*
X0214205Y0066237D01*
X0214127Y0066276D01*
X0214050Y0066318D01*
X0213975Y0066363D01*
X0213903Y0066412D01*
X0213832Y0066463D01*
X0213764Y0066518D01*
X0213699Y0066575D01*
X0213636Y0066636D01*
X0213575Y0066699D01*
X0213518Y0066764D01*
X0213463Y0066832D01*
X0213412Y0066903D01*
X0213363Y0066975D01*
X0213318Y0067050D01*
X0213276Y0067127D01*
X0213237Y0067205D01*
X0213202Y0067285D01*
X0213171Y0067366D01*
X0213143Y0067449D01*
X0213118Y0067532D01*
X0213097Y0067617D01*
X0213080Y0067703D01*
X0213067Y0067789D01*
X0213058Y0067876D01*
X0213052Y0067963D01*
X0213050Y0068050D01*
D14*
X0031300Y0069300D02*
X0031300Y0070300D01*
X0021300Y0070300D01*
X0021300Y0069300D01*
X0021800Y0092300D02*
X0021800Y0093300D01*
X0021800Y0092300D02*
X0031300Y0092300D01*
X0031300Y0093300D01*
X0031300Y0099300D02*
X0031300Y0100300D01*
X0021300Y0100300D01*
X0021300Y0099300D01*
X0021800Y0122300D02*
X0021800Y0123300D01*
X0021800Y0122300D02*
X0031300Y0122300D01*
X0031300Y0123300D01*
D15*
X0014646Y0023780D02*
X0007954Y0023780D01*
X0007954Y0017875D01*
X0007954Y0017874D02*
X0008027Y0017838D01*
X0008098Y0017797D01*
X0008168Y0017754D01*
X0008235Y0017707D01*
X0008300Y0017657D01*
X0008362Y0017604D01*
X0008422Y0017549D01*
X0008479Y0017490D01*
X0008534Y0017429D01*
X0008585Y0017365D01*
X0008634Y0017299D01*
X0008679Y0017231D01*
X0008721Y0017161D01*
X0008760Y0017089D01*
X0008796Y0017015D01*
X0008827Y0016940D01*
X0008856Y0016863D01*
X0008880Y0016785D01*
X0008901Y0016706D01*
X0008918Y0016626D01*
X0008932Y0016545D01*
X0008941Y0016464D01*
X0008947Y0016382D01*
X0008949Y0016300D01*
X0008947Y0016218D01*
X0008941Y0016136D01*
X0008932Y0016055D01*
X0008918Y0015974D01*
X0008901Y0015894D01*
X0008880Y0015815D01*
X0008856Y0015737D01*
X0008827Y0015660D01*
X0008796Y0015585D01*
X0008760Y0015511D01*
X0008721Y0015439D01*
X0008679Y0015369D01*
X0008634Y0015301D01*
X0008585Y0015235D01*
X0008534Y0015171D01*
X0008479Y0015110D01*
X0008422Y0015051D01*
X0008362Y0014996D01*
X0008300Y0014943D01*
X0008235Y0014893D01*
X0008168Y0014846D01*
X0008098Y0014803D01*
X0008027Y0014762D01*
X0007954Y0014726D01*
X0007954Y0014725D02*
X0007954Y0008820D01*
X0014646Y0008820D01*
X0014646Y0014725D01*
X0014646Y0014726D02*
X0014573Y0014762D01*
X0014502Y0014803D01*
X0014432Y0014846D01*
X0014365Y0014893D01*
X0014300Y0014943D01*
X0014238Y0014996D01*
X0014178Y0015051D01*
X0014121Y0015110D01*
X0014066Y0015171D01*
X0014015Y0015235D01*
X0013966Y0015301D01*
X0013921Y0015369D01*
X0013879Y0015439D01*
X0013840Y0015511D01*
X0013804Y0015585D01*
X0013773Y0015660D01*
X0013744Y0015737D01*
X0013720Y0015815D01*
X0013699Y0015894D01*
X0013682Y0015974D01*
X0013668Y0016055D01*
X0013659Y0016136D01*
X0013653Y0016218D01*
X0013651Y0016300D01*
X0013653Y0016382D01*
X0013659Y0016464D01*
X0013668Y0016545D01*
X0013682Y0016626D01*
X0013699Y0016706D01*
X0013720Y0016785D01*
X0013744Y0016863D01*
X0013773Y0016940D01*
X0013804Y0017015D01*
X0013840Y0017089D01*
X0013879Y0017161D01*
X0013921Y0017231D01*
X0013966Y0017299D01*
X0014015Y0017365D01*
X0014066Y0017429D01*
X0014121Y0017490D01*
X0014178Y0017549D01*
X0014238Y0017604D01*
X0014300Y0017657D01*
X0014365Y0017707D01*
X0014432Y0017754D01*
X0014502Y0017797D01*
X0014573Y0017838D01*
X0014646Y0017874D01*
X0014646Y0017875D02*
X0014646Y0023780D01*
D16*
X0009096Y0010560D02*
X0009096Y0009460D01*
X0008791Y0009460D02*
X0009402Y0009460D01*
X0008791Y0010316D02*
X0009096Y0010560D01*
M02*
