M48
;Layer_Color=9474304
;FILE_FORMAT=2:5
INCH,LZ
;TYPE=PLATED
T1F00S00C0.01181
T3F00S00C0.03000
T5F00S00C0.03543
T6F00S00C0.03583
T7F00S00C0.03937
T8F00S00C0.11811
;TYPE=NON_PLATED
T9F00S00C0.03150
%
T01
X015Y0012992
X0137402Y0026772
X0124016Y0043307
X0130703Y0053937
X015748Y0045276
X0164961Y0039764
X0175197Y0043307
X0183465Y0049606
X0170472Y0027362
X0220866Y0019685
Y0054724
X0243307Y0048819
X0263386
X0261417Y0034646
X0292126Y004685
X0307087Y0020472
X0329921Y0023622
X0367717Y0036614
X0393701
X032874Y0136614
X0331102Y0190945
X0314567Y0196457
X0298819
X0293701Y0166535
X0304331Y0157087
X0282283Y0151575
X0293307Y0135433
X0292913Y0105905
X0305512Y0088189
X0219291Y007559
X0216929Y0069685
X0213622Y0064764
X0201181Y0059449
X0206693Y0122047
X0223622Y0134252
X0220472Y0151575
X021811Y0164567
X0232283Y0174409
X0223622Y0190157
X0203543Y0175197
X0182677Y0181496
X0173622Y019252
X0162598Y0188583
X0159843Y0190945
X0164173Y0177362
X0161811Y0160236
Y0141437
X0180315Y0146063
X0182283Y0137008
X0190551Y0147244
X0179528Y0161417
X0161811Y0112205
X0155905Y0105512
X0149606Y0116142
X0155512Y0130709
X013361Y0121844
X0133465Y0140551
X0132382Y0146358
X0116929Y0143701
X0104331Y0111811
X0105905Y0101969
X0095669Y0107874
X0082677Y0101969
Y0131102
X0074213Y0149016
X0051772Y0166732
X0058268Y0183858
X007126Y0187008
X0075197Y019252
X0072835Y019685
X0072835Y0204724
X0101575Y0180709
X0109449Y0183465
X0116535Y0188189
X0127953Y018937
X0126181Y0192717
X0122047Y0198425
X0141339Y0178347
X0143307Y0083071
X0117717Y006063
X0043701Y0058268
X0015846Y0056791
X0075197Y0219685
X0074016Y0229134
X0080709Y0237008
X0079528Y0244882
X0079134Y0252756
X0079528Y026063
X0056299Y0260629
X0050787Y0262205
X0045472Y0266339
Y0286614
X009252Y0278346
X0124803Y0276378
X0122835Y0268504
X0114961Y026063
X0124016Y0251673
Y0228346
X0156299Y0240158
X017126Y0244882
X0190157
X0199213Y0268898
X0216535Y0294882
X0230906Y029311
X0255118Y027559
X0284646Y0286614
X0304724Y0272835
X0237008Y0244882
X0321654Y0294882
X0334842Y029311
X0385827Y0279134
T03
X0048819Y0301181
X0058819
X0068819Y0301102
T05
X0253543Y0015472
X0261417
X0269291
X0359842
X0367717
X0375591
X0268898Y0300669
X0261024
X025315
X0359449
X0367323
X0375197
T06
T07
X0010039Y0100591
Y0118307
Y0128937
Y0146653
X003563
Y0128937
Y0118307
Y0100591
T08
X0016142Y0014961
X0400394Y0015354
X0016142Y0299606
X0400394
T09
X0018307Y0046949
Y0066634
M30
