G04*
G04 #@! TF.GenerationSoftware,Altium Limited,Altium Designer,19.1.5 (86)*
G04*
G04 Layer_Physical_Order=1*
G04 Layer_Color=255*
%FSLAX25Y25*%
%MOIN*%
G70*
G01*
G75*
%ADD14C,0.02362*%
%ADD19R,0.01968X0.01772*%
%ADD20R,0.01968X0.01968*%
%ADD21R,0.02756X0.03543*%
%ADD22R,0.03347X0.03740*%
%ADD23R,0.08661X0.12992*%
%ADD24R,0.08661X0.03937*%
%ADD25R,0.05020X0.01772*%
%ADD26R,0.04331X0.06693*%
%ADD27R,0.07874X0.04724*%
%ADD28O,0.08268X0.01378*%
%ADD29R,0.03150X0.05512*%
G04:AMPARAMS|DCode=30|XSize=15.75mil|YSize=47.24mil|CornerRadius=1.97mil|HoleSize=0mil|Usage=FLASHONLY|Rotation=90.000|XOffset=0mil|YOffset=0mil|HoleType=Round|Shape=RoundedRectangle|*
%AMROUNDEDRECTD30*
21,1,0.01575,0.04331,0,0,90.0*
21,1,0.01181,0.04724,0,0,90.0*
1,1,0.00394,0.02165,0.00591*
1,1,0.00394,0.02165,-0.00591*
1,1,0.00394,-0.02165,-0.00591*
1,1,0.00394,-0.02165,0.00591*
%
%ADD30ROUNDEDRECTD30*%
%ADD31R,0.02008X0.01575*%
%ADD32R,0.06890X0.05906*%
%ADD33R,0.03740X0.03347*%
%ADD34R,0.05709X0.05118*%
%ADD35R,0.05118X0.05709*%
%ADD36R,0.07087X0.03937*%
%ADD64C,0.11811*%
%ADD65C,0.01968*%
%ADD66C,0.03937*%
%ADD67C,0.03150*%
%ADD68C,0.02559*%
%ADD69C,0.01575*%
%ADD70C,0.01339*%
%ADD71C,0.01496*%
%ADD72C,0.01732*%
%ADD73C,0.01693*%
%ADD74C,0.06000*%
%ADD75C,0.03150*%
%ADD76O,0.07087X0.04528*%
%ADD77O,0.07874X0.05709*%
%ADD78C,0.05575*%
%ADD79C,0.05906*%
%ADD80R,0.05512X0.05512*%
%ADD81C,0.05512*%
%ADD82C,0.02362*%
G36*
X412503Y314961D02*
X412900D01*
X413679Y314806D01*
X414413Y314502D01*
X415073Y314060D01*
X415635Y313499D01*
X416077Y312838D01*
X416381Y312104D01*
X416535Y311325D01*
Y310928D01*
X416535Y4907D01*
Y4501D01*
X416377Y3705D01*
X416067Y2956D01*
X415616Y2281D01*
X415042Y1707D01*
X414367Y1256D01*
X413617Y946D01*
X412821Y787D01*
X412416D01*
Y787D01*
X4040D01*
X3342Y926D01*
X2685Y1199D01*
X2093Y1594D01*
X1590Y2097D01*
X1195Y2689D01*
X922Y3346D01*
X784Y4044D01*
Y4400D01*
X780Y4437D01*
X1181Y42618D01*
X788Y310446D01*
X788Y310928D01*
D01*
X808Y311427D01*
X942Y312104D01*
X1246Y312838D01*
X1688Y313499D01*
X2249Y314060D01*
X2910Y314502D01*
X3644Y314806D01*
X4423Y314961D01*
X4820D01*
X412503Y314961D01*
Y314961D01*
D02*
G37*
%LPC*%
G36*
X49319Y305150D02*
Y301681D01*
X52788D01*
X52716Y302225D01*
X52313Y303198D01*
X51672Y304034D01*
X50836Y304675D01*
X49863Y305078D01*
X49319Y305150D01*
D02*
G37*
G36*
X48319D02*
X47775Y305078D01*
X46802Y304675D01*
X45966Y304034D01*
X45325Y303198D01*
X44922Y302225D01*
X44850Y301681D01*
X48319D01*
Y305150D01*
D02*
G37*
G36*
X363205Y304425D02*
X359949D01*
Y301169D01*
X363205D01*
Y304425D01*
D02*
G37*
G36*
X358949D02*
X355693D01*
Y301169D01*
X358949D01*
Y304425D01*
D02*
G37*
G36*
X256906D02*
X253650D01*
Y301169D01*
X256906D01*
Y304425D01*
D02*
G37*
G36*
X252650D02*
X249394D01*
Y301169D01*
X252650D01*
Y304425D01*
D02*
G37*
G36*
X287024Y303165D02*
X285146D01*
Y300894D01*
X287024D01*
Y303165D01*
D02*
G37*
G36*
X284146D02*
X282268D01*
Y300894D01*
X284146D01*
Y303165D01*
D02*
G37*
G36*
X284646Y300394D02*
D01*
D01*
D01*
D02*
G37*
G36*
X287024Y299894D02*
X285146D01*
Y297622D01*
X287024D01*
Y299894D01*
D02*
G37*
G36*
X284146D02*
X282268D01*
Y297622D01*
X284146D01*
Y299894D01*
D02*
G37*
G36*
X58819Y305001D02*
X57830Y304871D01*
X56909Y304489D01*
X56118Y303882D01*
X55511Y303091D01*
X55129Y302170D01*
X54999Y301181D01*
X55129Y300192D01*
X55255Y299888D01*
X49652Y294285D01*
X49304Y293764D01*
X49182Y293150D01*
X49182Y293149D01*
Y263345D01*
X48933Y262973D01*
X48780Y262205D01*
X48933Y261437D01*
X49368Y260786D01*
X50019Y260350D01*
X50787Y260198D01*
X51556Y260350D01*
X52207Y260786D01*
X52642Y261437D01*
X52794Y262205D01*
X52642Y262973D01*
X52393Y263345D01*
Y292484D01*
X57526Y297617D01*
X57830Y297491D01*
X58819Y297361D01*
X59808Y297491D01*
X60729Y297873D01*
X61520Y298480D01*
X62127Y299271D01*
X62509Y300192D01*
X62639Y301181D01*
X62509Y302170D01*
X62127Y303091D01*
X61520Y303882D01*
X60729Y304489D01*
X59808Y304871D01*
X58819Y305001D01*
D02*
G37*
G36*
X68819Y304922D02*
X67830Y304792D01*
X66909Y304411D01*
X66118Y303804D01*
X65511Y303012D01*
X65129Y302091D01*
X64999Y301102D01*
X65129Y300114D01*
X65511Y299192D01*
X66118Y298401D01*
X66909Y297794D01*
X67830Y297412D01*
X68819Y297282D01*
X69808Y297412D01*
X70729Y297794D01*
X71520Y298401D01*
X72127Y299192D01*
X72509Y300114D01*
X72639Y301102D01*
X72509Y302091D01*
X72127Y303012D01*
X71520Y303804D01*
X70729Y304411D01*
X69808Y304792D01*
X68819Y304922D01*
D02*
G37*
G36*
X52788Y300681D02*
X49319D01*
Y297212D01*
X49863Y297284D01*
X50836Y297687D01*
X51672Y298328D01*
X52313Y299164D01*
X52716Y300137D01*
X52788Y300681D01*
D02*
G37*
G36*
X48319D02*
X44850D01*
X44922Y300137D01*
X45325Y299164D01*
X45966Y298328D01*
X46802Y297687D01*
X47775Y297284D01*
X48319Y297212D01*
Y300681D01*
D02*
G37*
G36*
X332299Y298539D02*
X330815D01*
Y297153D01*
X332299D01*
Y298539D01*
D02*
G37*
G36*
X329815D02*
X328331D01*
Y297153D01*
X329815D01*
Y298539D01*
D02*
G37*
G36*
X228756D02*
X227272D01*
Y297153D01*
X228756D01*
Y298539D01*
D02*
G37*
G36*
X226272D02*
X224787D01*
Y297153D01*
X226272D01*
Y298539D01*
D02*
G37*
G36*
X363205Y300169D02*
X359949D01*
Y296913D01*
X363205D01*
Y300169D01*
D02*
G37*
G36*
X358949D02*
X355693D01*
Y296913D01*
X358949D01*
Y300169D01*
D02*
G37*
G36*
X256906D02*
X253650D01*
Y296913D01*
X256906D01*
Y300169D01*
D02*
G37*
G36*
X252650D02*
X249394D01*
Y296913D01*
X252650D01*
Y300169D01*
D02*
G37*
G36*
X388205Y295685D02*
X386327D01*
Y293413D01*
X388205D01*
Y295685D01*
D02*
G37*
G36*
X385327D02*
X383449D01*
Y293413D01*
X385327D01*
Y295685D01*
D02*
G37*
G36*
X321654Y296889D02*
X320885Y296736D01*
X320234Y296301D01*
X319799Y295650D01*
X319647Y294882D01*
X319799Y294114D01*
X320234Y293463D01*
X320885Y293028D01*
X321654Y292875D01*
X322422Y293028D01*
X322794Y293276D01*
X323819D01*
Y293110D01*
X327362D01*
Y296654D01*
X323819D01*
Y296487D01*
X322794D01*
X322422Y296736D01*
X321654Y296889D01*
D02*
G37*
G36*
X216535D02*
X215767Y296736D01*
X215116Y296301D01*
X214681Y295650D01*
X214528Y294882D01*
X214681Y294114D01*
X215116Y293463D01*
X215767Y293028D01*
X216535Y292875D01*
X217303Y293028D01*
X217676Y293276D01*
X220276D01*
Y293110D01*
X223819D01*
Y296654D01*
X220276D01*
Y296487D01*
X217676D01*
X217303Y296736D01*
X216535Y296889D01*
D02*
G37*
G36*
X400394Y306332D02*
X399082Y306202D01*
X397820Y305820D01*
X396657Y305198D01*
X395638Y304362D01*
X394802Y303343D01*
X394180Y302180D01*
X393798Y300918D01*
X393668Y299606D01*
X393798Y298294D01*
X394180Y297033D01*
X394802Y295870D01*
X395638Y294851D01*
X396657Y294014D01*
X397820Y293393D01*
X399082Y293010D01*
X400394Y292881D01*
X401706Y293010D01*
X402967Y293393D01*
X404130Y294014D01*
X405149Y294851D01*
X405986Y295870D01*
X406607Y297033D01*
X406990Y298294D01*
X407119Y299606D01*
X406990Y300918D01*
X406607Y302180D01*
X405986Y303343D01*
X405149Y304362D01*
X404130Y305198D01*
X402967Y305820D01*
X401706Y306202D01*
X400394Y306332D01*
D02*
G37*
G36*
X16142D02*
X14830Y306202D01*
X13568Y305820D01*
X12405Y305198D01*
X11386Y304362D01*
X10550Y303343D01*
X9928Y302180D01*
X9546Y300918D01*
X9416Y299606D01*
X9546Y298294D01*
X9928Y297033D01*
X10550Y295870D01*
X11386Y294851D01*
X12405Y294014D01*
X13568Y293393D01*
X14830Y293010D01*
X16142Y292881D01*
X17454Y293010D01*
X18715Y293393D01*
X19878Y294014D01*
X20897Y294851D01*
X21734Y295870D01*
X22355Y297033D01*
X22738Y298294D01*
X22867Y299606D01*
X22738Y300918D01*
X22355Y302180D01*
X21734Y303343D01*
X20897Y304362D01*
X19878Y305198D01*
X18715Y305820D01*
X17454Y306202D01*
X16142Y306332D01*
D02*
G37*
G36*
X332299Y296153D02*
X330315D01*
X328331D01*
Y294768D01*
X328543D01*
Y291437D01*
X332087D01*
Y291505D01*
X333702D01*
X334074Y291256D01*
X334842Y291103D01*
X335611Y291256D01*
X336262Y291691D01*
X336697Y292342D01*
X336850Y293110D01*
X336697Y293878D01*
X336262Y294529D01*
X335611Y294965D01*
X334842Y295117D01*
X334074Y294965D01*
X333702Y294716D01*
X332778D01*
X332299Y294768D01*
Y296153D01*
D02*
G37*
G36*
X228756Y296153D02*
X226772D01*
X224787D01*
Y294768D01*
X225000D01*
Y293285D01*
X224965Y293110D01*
X225000Y292936D01*
Y291437D01*
X226102D01*
X226772Y291304D01*
X230066D01*
X230137Y291256D01*
X230906Y291103D01*
X231674Y291256D01*
X232325Y291691D01*
X232760Y292342D01*
X232913Y293110D01*
X232760Y293878D01*
X232325Y294529D01*
X231674Y294965D01*
X230906Y295117D01*
X230137Y294965D01*
X230066Y294917D01*
X228756D01*
Y296153D01*
D02*
G37*
G36*
X388205Y292413D02*
X386327D01*
Y290142D01*
X388205D01*
Y292413D01*
D02*
G37*
G36*
X385327D02*
X383449D01*
Y290142D01*
X385327D01*
Y292413D01*
D02*
G37*
G36*
X268898Y304243D02*
X267973Y304121D01*
X267111Y303764D01*
X266371Y303196D01*
X265803Y302456D01*
X265445Y301594D01*
X265324Y300669D01*
X265445Y299744D01*
X265803Y298882D01*
X266371Y298142D01*
X267111Y297574D01*
X267292Y297499D01*
Y277437D01*
X260359Y270503D01*
X200353D01*
X199981Y270752D01*
X199213Y270905D01*
X198444Y270752D01*
X197793Y270317D01*
X197358Y269666D01*
X197205Y268898D01*
X197358Y268130D01*
X197793Y267478D01*
X198444Y267043D01*
X199213Y266891D01*
X199981Y267043D01*
X200353Y267292D01*
X261024D01*
X261024Y267292D01*
X261638Y267414D01*
X262159Y267762D01*
X270427Y276030D01*
X270775Y276551D01*
X270897Y277165D01*
X270775Y277780D01*
X270503Y278186D01*
Y297499D01*
X270685Y297574D01*
X271425Y298142D01*
X271993Y298882D01*
X272068Y299064D01*
X276969D01*
Y297835D01*
X277253D01*
Y294685D01*
X276969D01*
Y289567D01*
X281299D01*
Y294685D01*
X280464D01*
Y297835D01*
X281299D01*
Y302953D01*
X276969D01*
Y302275D01*
X272068D01*
X271993Y302456D01*
X271425Y303196D01*
X270685Y303764D01*
X269823Y304121D01*
X268898Y304243D01*
D02*
G37*
G36*
X286811Y294685D02*
X282480D01*
Y289567D01*
X283040D01*
Y287754D01*
X282791Y287382D01*
X282639Y286614D01*
X282791Y285846D01*
X283226Y285195D01*
X283878Y284760D01*
X284646Y284607D01*
X285414Y284760D01*
X286065Y285195D01*
X286500Y285846D01*
X286653Y286614D01*
X286500Y287382D01*
X286251Y287754D01*
Y289567D01*
X286811D01*
Y294685D01*
D02*
G37*
G36*
X375197Y304243D02*
X374272Y304121D01*
X373410Y303764D01*
X372670Y303196D01*
X372102Y302456D01*
X371745Y301594D01*
X371623Y300669D01*
X371745Y299744D01*
X372102Y298882D01*
X372670Y298142D01*
X373410Y297574D01*
X373985Y297336D01*
Y271137D01*
X307526Y204679D01*
X307178Y204158D01*
X307056Y203543D01*
X307056Y203543D01*
Y170350D01*
X300516Y163810D01*
X237673Y163810D01*
X207828Y193655D01*
X207307Y194003D01*
X206693Y194125D01*
X206693Y194125D01*
X174762D01*
X174390Y194374D01*
X173622Y194527D01*
X172854Y194374D01*
X172203Y193939D01*
X171768Y193288D01*
X171615Y192520D01*
X171768Y191752D01*
X172203Y191101D01*
X172291Y191042D01*
X172139Y190542D01*
X167142D01*
X166935Y191042D01*
X172712Y196820D01*
X278469Y196820D01*
X279967Y195321D01*
X279967Y195321D01*
X280488Y194973D01*
X281102Y194851D01*
X297679D01*
X298051Y194602D01*
X298819Y194450D01*
X299587Y194602D01*
X300238Y195037D01*
X300673Y195689D01*
X300826Y196457D01*
X300673Y197225D01*
X300238Y197876D01*
X299587Y198311D01*
X298819Y198464D01*
X298051Y198311D01*
X297679Y198062D01*
X281767D01*
X280269Y199561D01*
X279748Y199909D01*
X279134Y200031D01*
X279134Y200031D01*
X172047Y200031D01*
X172047Y200031D01*
X171433Y199909D01*
X170912Y199561D01*
X170912Y199560D01*
X168823Y197471D01*
X168323Y197679D01*
Y199500D01*
X165650D01*
Y200000D01*
X165150D01*
Y202870D01*
X163502D01*
X163295Y203370D01*
X167761Y207835D01*
X190157D01*
X190926Y207988D01*
X191577Y208423D01*
X205356Y222203D01*
X205791Y222854D01*
X205944Y223622D01*
Y238932D01*
X209887Y242875D01*
X237008D01*
X237776Y243028D01*
X238427Y243463D01*
X238862Y244114D01*
X239015Y244882D01*
X238862Y245650D01*
X238427Y246301D01*
X237776Y246736D01*
X237008Y246889D01*
X186024D01*
Y247441D01*
X181693D01*
Y242323D01*
X186024D01*
Y242875D01*
X192476D01*
X194450Y240901D01*
Y240201D01*
X193263Y239015D01*
X186024D01*
Y239567D01*
X181693D01*
Y234449D01*
X186024D01*
Y235001D01*
X194095D01*
X194863Y235154D01*
X195514Y235589D01*
X197876Y237951D01*
X198311Y238602D01*
X198464Y239370D01*
Y241732D01*
X198336Y242375D01*
X198616Y242875D01*
X203556D01*
X203748Y242413D01*
X202518Y241183D01*
X202083Y240532D01*
X201930Y239764D01*
Y224453D01*
X189326Y211850D01*
X166929D01*
X166161Y211697D01*
X165510Y211262D01*
X158915Y204667D01*
X158480Y204016D01*
X158328Y203248D01*
Y202658D01*
X157874D01*
Y197343D01*
X158528D01*
Y196739D01*
X156100Y194311D01*
X152362D01*
X151978Y194234D01*
X151653Y194017D01*
X151435Y193691D01*
X151359Y193307D01*
Y192126D01*
X151435Y191742D01*
X151639Y191437D01*
X151435Y191132D01*
X151359Y190748D01*
Y189567D01*
X151435Y189183D01*
X151639Y188878D01*
X151435Y188573D01*
X151359Y188189D01*
Y187008D01*
X151435Y186624D01*
X151639Y186319D01*
X151435Y186014D01*
X151359Y185630D01*
Y184449D01*
X151435Y184065D01*
X151639Y183760D01*
X151435Y183455D01*
X151359Y183071D01*
Y181890D01*
X150929Y181487D01*
X145981D01*
X143732Y183736D01*
Y187402D01*
X143609Y188016D01*
X143261Y188537D01*
X140505Y191293D01*
X139985Y191641D01*
X139370Y191763D01*
X139168Y191723D01*
X135685D01*
X135256Y192126D01*
Y193307D01*
X135179Y193691D01*
X134962Y194017D01*
X134636Y194234D01*
X134252Y194311D01*
X129921D01*
X129778Y194282D01*
X127381D01*
X126949Y194571D01*
X126181Y194724D01*
X125413Y194571D01*
X124762Y194136D01*
X124327Y193485D01*
X124174Y192717D01*
X124327Y191948D01*
X124762Y191297D01*
X125413Y190862D01*
X125914Y190762D01*
X126163Y190235D01*
X126099Y190138D01*
X125946Y189370D01*
X126099Y188602D01*
X126504Y187995D01*
X126506Y187984D01*
X126846Y187476D01*
X127173Y187148D01*
X126988Y186677D01*
X126601Y186636D01*
X123613Y189625D01*
Y193499D01*
X123653Y193701D01*
Y197285D01*
X123901Y197657D01*
X124054Y198425D01*
X123901Y199193D01*
X123467Y199844D01*
X122815Y200279D01*
X122047Y200432D01*
X121279Y200279D01*
X120628Y199844D01*
X120193Y199193D01*
X120040Y198425D01*
X120193Y197657D01*
X120442Y197285D01*
Y193701D01*
X120482Y193499D01*
Y188976D01*
X120601Y188377D01*
X120940Y187869D01*
X124302Y184508D01*
X124110Y184046D01*
X116650D01*
X114598Y186098D01*
Y186646D01*
X115098Y186797D01*
X115116Y186770D01*
X115767Y186335D01*
X116535Y186182D01*
X117304Y186335D01*
X117955Y186770D01*
X118390Y187421D01*
X118543Y188189D01*
X118390Y188957D01*
X118141Y189329D01*
Y198427D01*
X118204Y198521D01*
X118342Y199213D01*
X118204Y199904D01*
X117813Y200490D01*
X110726Y207576D01*
X110140Y207968D01*
X109449Y208106D01*
X78701D01*
X69917Y216890D01*
Y259094D01*
X77520Y266698D01*
X100394D01*
Y265354D01*
X109843D01*
Y271654D01*
X100394D01*
Y270310D01*
X76772D01*
X76080Y270173D01*
X75494Y269781D01*
X66833Y261120D01*
X66441Y260534D01*
X66304Y259842D01*
Y216142D01*
X66441Y215451D01*
X66833Y214864D01*
X76675Y205022D01*
X77262Y204630D01*
X77953Y204493D01*
X108701D01*
X114930Y198264D01*
Y196858D01*
X114430Y196707D01*
X114269Y196947D01*
X107970Y203246D01*
X107384Y203637D01*
X106693Y203775D01*
X76339D01*
X74706Y205408D01*
X74689Y205492D01*
X74254Y206144D01*
X73603Y206579D01*
X72835Y206732D01*
X72067Y206579D01*
X71415Y206144D01*
X70980Y205492D01*
X70828Y204724D01*
X70980Y203956D01*
X71415Y203305D01*
X72067Y202870D01*
X72151Y202853D01*
X74313Y200691D01*
X74899Y200300D01*
X75590Y200162D01*
X105945D01*
X111387Y194720D01*
Y192105D01*
X111164Y192030D01*
X110887Y192022D01*
X110584Y192474D01*
X110584Y192474D01*
X105072Y197986D01*
X104551Y198334D01*
X103937Y198456D01*
X103937Y198456D01*
X73975D01*
X73603Y198705D01*
X72835Y198857D01*
X72067Y198705D01*
X71415Y198270D01*
X70980Y197618D01*
X70828Y196850D01*
X70980Y196082D01*
X71415Y195431D01*
X72067Y194996D01*
X72835Y194843D01*
X73603Y194996D01*
X73975Y195245D01*
X103272D01*
X107843Y190673D01*
Y184688D01*
X107450Y184346D01*
X107117Y184560D01*
Y187795D01*
X107117Y187795D01*
X106995Y188410D01*
X106647Y188931D01*
X101923Y193655D01*
X101402Y194003D01*
X100787Y194125D01*
X100787Y194125D01*
X76337D01*
X75965Y194374D01*
X75197Y194527D01*
X74429Y194374D01*
X73778Y193939D01*
X73343Y193288D01*
X73190Y192520D01*
X73343Y191752D01*
X73778Y191101D01*
X74429Y190665D01*
X75197Y190513D01*
X75965Y190665D01*
X76337Y190914D01*
X100122D01*
X103906Y187130D01*
Y182283D01*
X103906Y182283D01*
X104028Y181669D01*
X104376Y181148D01*
X108313Y177211D01*
X108313Y177211D01*
X108834Y176863D01*
X109449Y176741D01*
X117839D01*
X123274Y171306D01*
X123795Y170958D01*
X124409Y170835D01*
X124409Y170835D01*
X190673Y170835D01*
X217369Y144140D01*
X217369Y144140D01*
X217889Y143792D01*
X218504Y143670D01*
X237130D01*
X238946Y141855D01*
Y136098D01*
X236933Y134086D01*
X235234D01*
X234878Y134433D01*
X234878Y134586D01*
Y135721D01*
X232874D01*
X230870D01*
Y134433D01*
X231417D01*
X231626Y134028D01*
X231520Y133858D01*
X231083D01*
Y132536D01*
X231071Y132480D01*
X231083Y132424D01*
Y130709D01*
X234665D01*
Y130875D01*
X237598D01*
X237598Y130875D01*
X238213Y130997D01*
X238734Y131345D01*
X241687Y134298D01*
X242035Y134819D01*
X242157Y135433D01*
X242157Y135433D01*
Y142520D01*
X242035Y143134D01*
X241687Y143655D01*
X238931Y146411D01*
X238410Y146759D01*
X237795Y146881D01*
X237795Y146881D01*
X219169D01*
X192474Y173576D01*
X191953Y173924D01*
X191339Y174047D01*
X191339Y174047D01*
X125075Y174047D01*
X122842Y176279D01*
X123034Y176741D01*
X125197D01*
X125197Y176741D01*
X125811Y176863D01*
X126332Y177211D01*
X127477Y178356D01*
X128387D01*
X128704Y177969D01*
X128701Y177953D01*
Y177862D01*
X132087D01*
X135472D01*
Y177953D01*
X135379Y178420D01*
X135115Y178816D01*
X135099Y178826D01*
X135179Y178947D01*
X135256Y179331D01*
Y180512D01*
X135553Y180875D01*
X136933D01*
X139353Y178455D01*
X139331Y178347D01*
X139484Y177578D01*
X139919Y176927D01*
X140570Y176492D01*
X141339Y176339D01*
X142107Y176492D01*
X142758Y176927D01*
X143193Y177578D01*
X143346Y178347D01*
X143215Y179004D01*
X143595Y179285D01*
X143627Y179299D01*
X144140Y178786D01*
X144661Y178438D01*
X145276Y178316D01*
X145477Y178356D01*
X150929D01*
X151359Y177953D01*
Y176772D01*
X151435Y176388D01*
X151653Y176062D01*
X151978Y175845D01*
X152362Y175768D01*
X156693D01*
X156836Y175797D01*
X162973D01*
X163405Y175508D01*
X164173Y175355D01*
X164941Y175508D01*
X165592Y175943D01*
X166027Y176594D01*
X166180Y177362D01*
X166027Y178130D01*
X165592Y178781D01*
X164941Y179217D01*
X164173Y179369D01*
X163405Y179217D01*
X162973Y178928D01*
X160141D01*
X159950Y179390D01*
X160162Y179602D01*
X160502Y180110D01*
X160621Y180709D01*
Y181496D01*
X160502Y182095D01*
X160162Y182603D01*
X159555Y183210D01*
X159762Y183710D01*
X163133D01*
X163732Y183829D01*
X164240Y184169D01*
X167482Y187411D01*
X202051D01*
X233510Y155951D01*
X233510Y155951D01*
X234031Y155603D01*
X234646Y155481D01*
X234646Y155481D01*
X303190D01*
X303563Y155232D01*
X304331Y155079D01*
X305099Y155232D01*
X305750Y155667D01*
X306185Y156318D01*
X306338Y157087D01*
X306185Y157855D01*
X305750Y158506D01*
X305099Y158941D01*
X304331Y159094D01*
X303563Y158941D01*
X303190Y158692D01*
X235311D01*
X203891Y190112D01*
X203439Y190414D01*
X203448Y190691D01*
X203522Y190914D01*
X206028D01*
X235873Y161069D01*
X235873Y161069D01*
X236393Y160721D01*
X237008Y160599D01*
X301181Y160599D01*
X301181Y160599D01*
X301796Y160721D01*
X302316Y161069D01*
X309797Y168550D01*
X310145Y169071D01*
X310267Y169685D01*
X310267Y169685D01*
Y202878D01*
X376726Y269337D01*
X376726Y269337D01*
X377074Y269858D01*
X377196Y270472D01*
Y297737D01*
X377724Y298142D01*
X377926Y298406D01*
X377957Y298408D01*
X378434Y298246D01*
Y295472D01*
X378150D01*
Y290354D01*
X378434D01*
Y287598D01*
X378150D01*
Y282480D01*
X382480D01*
Y287598D01*
X381645D01*
Y290354D01*
X382480D01*
Y295472D01*
X381645D01*
Y299095D01*
X381645Y299095D01*
X381523Y299709D01*
X381175Y300230D01*
X379600Y301805D01*
X379079Y302153D01*
X378465Y302275D01*
X378465Y302275D01*
X378367D01*
X378292Y302456D01*
X377724Y303196D01*
X376984Y303764D01*
X376122Y304121D01*
X375197Y304243D01*
D02*
G37*
G36*
X166142Y310645D02*
X103114D01*
X102807Y310584D01*
X102546Y310410D01*
X102372Y310150D01*
X102311Y309842D01*
Y282321D01*
X102372Y282014D01*
X102546Y281753D01*
X102807Y281579D01*
X103114Y281518D01*
X166142D01*
X166449Y281579D01*
X166709Y281753D01*
X166883Y282014D01*
X166945Y282321D01*
Y309842D01*
X166883Y310150D01*
X166709Y310410D01*
X166449Y310584D01*
X166142Y310645D01*
D02*
G37*
G36*
X168898Y279528D02*
X159449D01*
Y278184D01*
X125643D01*
X125571Y278232D01*
X124803Y278385D01*
X124035Y278232D01*
X123384Y277797D01*
X122949Y277146D01*
X122796Y276378D01*
X122949Y275610D01*
X123384Y274959D01*
X124035Y274524D01*
X124803Y274371D01*
X125571Y274524D01*
X125643Y274572D01*
X159449D01*
Y273228D01*
X168898D01*
Y279528D01*
D02*
G37*
G36*
X387992Y287598D02*
X383661D01*
Y282480D01*
X384221D01*
Y280274D01*
X383973Y279902D01*
X383820Y279134D01*
X383973Y278366D01*
X384407Y277715D01*
X385059Y277280D01*
X385827Y277127D01*
X386595Y277280D01*
X387246Y277715D01*
X387681Y278366D01*
X387834Y279134D01*
X387681Y279902D01*
X387432Y280274D01*
Y282480D01*
X387992D01*
Y287598D01*
D02*
G37*
G36*
X83661Y281693D02*
X79331D01*
Y281141D01*
X59055D01*
X58287Y280988D01*
X57636Y280553D01*
X54880Y277797D01*
X54445Y277146D01*
X54292Y276378D01*
Y260630D01*
X54292Y260629D01*
X54292Y260628D01*
Y213430D01*
X50352Y209490D01*
X49917Y208839D01*
X49765Y208071D01*
Y166732D01*
X49917Y165964D01*
X50352Y165313D01*
X51004Y164878D01*
X51772Y164725D01*
X52540Y164878D01*
X53191Y165313D01*
X53626Y165964D01*
X53779Y166732D01*
Y207240D01*
X57718Y211179D01*
X58153Y211830D01*
X58306Y212598D01*
Y275547D01*
X59886Y277127D01*
X79331D01*
Y276575D01*
X83661D01*
Y281693D01*
D02*
G37*
G36*
X261024Y304243D02*
X260099Y304121D01*
X259237Y303764D01*
X258496Y303196D01*
X257928Y302456D01*
X257572Y301594D01*
X257450Y300669D01*
X257572Y299744D01*
X257928Y298882D01*
X258496Y298142D01*
X259016Y297743D01*
Y296894D01*
X253699Y291577D01*
X253264Y290926D01*
X253111Y290158D01*
Y275590D01*
X253264Y274822D01*
X253699Y274171D01*
X254350Y273736D01*
X255118Y273584D01*
X255886Y273736D01*
X256537Y274171D01*
X256972Y274822D01*
X257125Y275590D01*
Y289326D01*
X262443Y294644D01*
X262878Y295295D01*
X263031Y296063D01*
Y297743D01*
X263551Y298142D01*
X264119Y298882D01*
X264476Y299744D01*
X264598Y300669D01*
X264476Y301594D01*
X264119Y302456D01*
X263551Y303196D01*
X262811Y303764D01*
X261949Y304121D01*
X261024Y304243D01*
D02*
G37*
G36*
X89173Y281693D02*
X84842D01*
Y276575D01*
X89173D01*
Y277327D01*
X90833D01*
X91101Y276927D01*
X91752Y276492D01*
X91836Y276475D01*
X93211Y275101D01*
X93797Y274709D01*
X94488Y274572D01*
X100394D01*
Y273228D01*
X109843D01*
Y279528D01*
X100394D01*
Y278184D01*
X95236D01*
X94391Y279030D01*
X94374Y279115D01*
X93939Y279766D01*
X93288Y280201D01*
X93203Y280218D01*
X93010Y280411D01*
X92424Y280803D01*
X91732Y280940D01*
X89173D01*
Y281693D01*
D02*
G37*
G36*
X367323Y304243D02*
X366398Y304121D01*
X365536Y303764D01*
X364796Y303196D01*
X364228Y302456D01*
X363871Y301594D01*
X363749Y300669D01*
X363871Y299744D01*
X364228Y298882D01*
X364796Y298142D01*
X365316Y297743D01*
Y289414D01*
X350743Y274842D01*
X304724D01*
X303956Y274689D01*
X303305Y274254D01*
X302870Y273603D01*
X302717Y272835D01*
X302870Y272067D01*
X303305Y271415D01*
X303956Y270980D01*
X304724Y270828D01*
X351575D01*
X352343Y270980D01*
X352994Y271415D01*
X368742Y287163D01*
X369177Y287815D01*
X369330Y288583D01*
Y297743D01*
X369850Y298142D01*
X370418Y298882D01*
X370775Y299744D01*
X370897Y300669D01*
X370775Y301594D01*
X370418Y302456D01*
X369850Y303196D01*
X369110Y303764D01*
X368248Y304121D01*
X367323Y304243D01*
D02*
G37*
G36*
X168898Y271654D02*
X159449D01*
Y270310D01*
X123674D01*
X123603Y270358D01*
X122835Y270511D01*
X122067Y270358D01*
X121415Y269923D01*
X120980Y269272D01*
X120828Y268504D01*
X120980Y267736D01*
X121415Y267085D01*
X122067Y266650D01*
X122835Y266497D01*
X123603Y266650D01*
X123674Y266698D01*
X159449D01*
Y265354D01*
X168898D01*
Y271654D01*
D02*
G37*
G36*
X45472Y288621D02*
X44704Y288469D01*
X44053Y288033D01*
X43618Y287382D01*
X43465Y286614D01*
X43618Y285846D01*
X43867Y285474D01*
Y267479D01*
X43618Y267107D01*
X43465Y266339D01*
X43618Y265570D01*
X44053Y264919D01*
X44704Y264484D01*
X45472Y264332D01*
X46240Y264484D01*
X46892Y264919D01*
X47327Y265570D01*
X47480Y266339D01*
X47327Y267107D01*
X47078Y267479D01*
Y285474D01*
X47327Y285846D01*
X47480Y286614D01*
X47327Y287382D01*
X46892Y288033D01*
X46240Y288469D01*
X45472Y288621D01*
D02*
G37*
G36*
X109843Y263779D02*
X100394D01*
Y263410D01*
X90158D01*
X89438Y263315D01*
X89134Y263189D01*
X87992D01*
Y262335D01*
X87750Y262020D01*
X87672Y261831D01*
X87131D01*
X87053Y262020D01*
X86811Y262335D01*
Y263189D01*
X85669D01*
X85365Y263315D01*
X84646Y263410D01*
X79528D01*
X78808Y263315D01*
X78138Y263037D01*
X77562Y262595D01*
X77120Y262020D01*
X76843Y261349D01*
X76748Y260630D01*
X76843Y259910D01*
X77120Y259240D01*
X77562Y258664D01*
X78138Y258223D01*
X78808Y257945D01*
X79528Y257850D01*
X84646D01*
X85365Y257945D01*
X85669Y258071D01*
X86811D01*
Y258925D01*
X87053Y259240D01*
X87131Y259429D01*
X87672D01*
X87750Y259240D01*
X87992Y258925D01*
Y258071D01*
X89134D01*
X89438Y257945D01*
X90158Y257850D01*
X100394D01*
Y257480D01*
X109843D01*
Y263779D01*
D02*
G37*
G36*
X168898D02*
X159449D01*
Y257480D01*
X168898D01*
Y263779D01*
D02*
G37*
G36*
X109843Y255906D02*
X100394D01*
Y254562D01*
X79974D01*
X79902Y254610D01*
X79134Y254763D01*
X78366Y254610D01*
X77715Y254175D01*
X77280Y253524D01*
X77127Y252756D01*
X77280Y251988D01*
X77715Y251337D01*
X78366Y250902D01*
X79134Y250749D01*
X79902Y250902D01*
X79974Y250950D01*
X100394D01*
Y249606D01*
X109843D01*
Y255906D01*
D02*
G37*
G36*
X168898D02*
X159449D01*
Y249606D01*
X168898D01*
Y255906D01*
D02*
G37*
G36*
X109843Y248031D02*
X100394D01*
Y246688D01*
X80367D01*
X80296Y246736D01*
X79528Y246889D01*
X78759Y246736D01*
X78108Y246301D01*
X77673Y245650D01*
X77521Y244882D01*
X77673Y244114D01*
X78108Y243463D01*
X78759Y243028D01*
X79528Y242875D01*
X80296Y243028D01*
X80367Y243075D01*
X100394D01*
Y241732D01*
X109843D01*
Y248031D01*
D02*
G37*
G36*
X168898D02*
X159449D01*
Y241732D01*
X168898D01*
Y243075D01*
X170420D01*
X170492Y243028D01*
X171260Y242875D01*
X172028Y243028D01*
X172100Y243075D01*
X176181D01*
Y242323D01*
X180512D01*
Y247441D01*
X176181D01*
Y246688D01*
X172100D01*
X172028Y246736D01*
X171260Y246889D01*
X170492Y246736D01*
X170420Y246688D01*
X168898D01*
Y248031D01*
D02*
G37*
G36*
X109843Y240158D02*
X100394D01*
Y238814D01*
X81549D01*
X81477Y238862D01*
X80709Y239015D01*
X79941Y238862D01*
X79290Y238427D01*
X78854Y237776D01*
X78702Y237008D01*
X78854Y236240D01*
X79290Y235589D01*
X79941Y235154D01*
X80709Y235001D01*
X81477Y235154D01*
X81549Y235202D01*
X100394D01*
Y233858D01*
X109843D01*
Y240158D01*
D02*
G37*
G36*
X168898D02*
X159449D01*
Y233858D01*
X168898D01*
Y235202D01*
X176181D01*
Y234449D01*
X180512D01*
Y239567D01*
X176181D01*
Y238814D01*
X168898D01*
Y240158D01*
D02*
G37*
G36*
X109843Y232283D02*
X100394D01*
Y230940D01*
X74856D01*
X74784Y230988D01*
X74016Y231141D01*
X73248Y230988D01*
X72597Y230553D01*
X72162Y229902D01*
X72009Y229134D01*
X72162Y228366D01*
X72597Y227715D01*
X73248Y227280D01*
X74016Y227127D01*
X74784Y227280D01*
X74856Y227327D01*
X100394D01*
Y225984D01*
X109843D01*
Y232283D01*
D02*
G37*
G36*
X186630Y231118D02*
X184752D01*
Y228847D01*
X186630D01*
Y231118D01*
D02*
G37*
G36*
X183752D02*
X181874D01*
Y228847D01*
X183752D01*
Y231118D01*
D02*
G37*
G36*
X124016Y253680D02*
X123248Y253527D01*
X122597Y253092D01*
X122161Y252441D01*
X122009Y251673D01*
X122161Y250905D01*
X122410Y250533D01*
Y229487D01*
X122161Y229115D01*
X122009Y228346D01*
X122161Y227578D01*
X122597Y226927D01*
X123248Y226492D01*
X124016Y226339D01*
X124784Y226492D01*
X125435Y226927D01*
X125870Y227578D01*
X126023Y228346D01*
X125870Y229115D01*
X125621Y229487D01*
Y250533D01*
X125870Y250905D01*
X126023Y251673D01*
X125870Y252441D01*
X125435Y253092D01*
X124784Y253527D01*
X124016Y253680D01*
D02*
G37*
G36*
X168898Y232283D02*
X159449D01*
Y225984D01*
X168898D01*
Y227327D01*
X176575D01*
Y225787D01*
X180905D01*
Y230906D01*
X178127D01*
X177953Y230940D01*
X168898D01*
Y232283D01*
D02*
G37*
G36*
X186630Y227847D02*
X184752D01*
Y225575D01*
X186630D01*
Y227847D01*
D02*
G37*
G36*
X183752D02*
X181874D01*
Y225575D01*
X183752D01*
Y227847D01*
D02*
G37*
G36*
X129528Y262637D02*
X114961D01*
X114193Y262484D01*
X113541Y262049D01*
X113106Y261398D01*
X112954Y260630D01*
X113106Y259862D01*
X113541Y259211D01*
X114193Y258776D01*
X114961Y258623D01*
X128696D01*
X135001Y252318D01*
Y231102D01*
X135154Y230334D01*
X135589Y229683D01*
X140313Y224959D01*
X140964Y224524D01*
X141732Y224371D01*
X149606D01*
X150374Y224524D01*
X151025Y224959D01*
X157718Y231652D01*
X158153Y232303D01*
X158306Y233071D01*
Y240158D01*
X158153Y240926D01*
X157718Y241577D01*
X157067Y242012D01*
X156299Y242164D01*
X155531Y242012D01*
X154880Y241577D01*
X154445Y240926D01*
X154292Y240158D01*
Y233902D01*
X148775Y228385D01*
X142564D01*
X139015Y231934D01*
Y253150D01*
X138862Y253918D01*
X138427Y254569D01*
X130947Y262049D01*
X130296Y262484D01*
X129528Y262637D01*
D02*
G37*
G36*
X85031Y224524D02*
X82858D01*
Y222153D01*
X85031D01*
Y224524D01*
D02*
G37*
G36*
X169110Y224622D02*
X164673D01*
Y221760D01*
X169110D01*
Y224622D01*
D02*
G37*
G36*
X163673D02*
X159236D01*
Y221760D01*
X163673D01*
Y224622D01*
D02*
G37*
G36*
X85031Y221153D02*
X82858D01*
Y218783D01*
X85031D01*
Y221153D01*
D02*
G37*
G36*
X169110Y220760D02*
X164673D01*
Y217898D01*
X169110D01*
Y220760D01*
D02*
G37*
G36*
X163673D02*
X159236D01*
Y217898D01*
X163673D01*
Y220760D01*
D02*
G37*
G36*
X88205Y224524D02*
X87974Y224524D01*
X86032D01*
Y221654D01*
Y218783D01*
X88205D01*
X88617Y218996D01*
X88705Y218996D01*
X93307D01*
Y219647D01*
X99261D01*
X99430Y219176D01*
X92878Y213780D01*
X82671Y214768D01*
X77067Y220371D01*
X77051Y220453D01*
X76616Y221104D01*
X75965Y221539D01*
X75197Y221692D01*
X74429Y221539D01*
X73778Y221104D01*
X73343Y220453D01*
X73190Y219685D01*
X73218Y219544D01*
X73190Y219403D01*
X73343Y218635D01*
X73778Y217984D01*
X80342Y211420D01*
X80588Y211256D01*
X80818Y211068D01*
X80911Y211040D01*
X80993Y210985D01*
X81283Y210927D01*
X81567Y210842D01*
X93319Y209704D01*
X94098Y209783D01*
X94788Y210153D01*
X104451Y218110D01*
X109843D01*
Y224409D01*
X100394D01*
Y223661D01*
X93307D01*
Y224311D01*
X88617Y224311D01*
X88205Y224524D01*
D02*
G37*
G36*
X157283Y219488D02*
X151378D01*
Y211221D01*
X157283D01*
Y219488D01*
D02*
G37*
G36*
X149409D02*
X143504D01*
Y211221D01*
X149409D01*
Y219488D01*
D02*
G37*
G36*
X141535D02*
X135630D01*
Y211221D01*
X141535D01*
Y219488D01*
D02*
G37*
G36*
X133661D02*
X127756D01*
Y211221D01*
X133661D01*
Y219488D01*
D02*
G37*
G36*
X125787D02*
X119882D01*
Y211221D01*
X125787D01*
Y219488D01*
D02*
G37*
G36*
X117913D02*
X112008D01*
Y211221D01*
X117913D01*
Y219488D01*
D02*
G37*
G36*
X168323Y202870D02*
X166150D01*
Y200500D01*
X168323D01*
Y202870D01*
D02*
G37*
G36*
X233697Y193913D02*
X232193D01*
Y192626D01*
X233697D01*
Y193913D01*
D02*
G37*
G36*
X231193D02*
X229689D01*
Y192626D01*
X231193D01*
Y193913D01*
D02*
G37*
G36*
X223622Y192165D02*
X222854Y192012D01*
X222203Y191577D01*
X221768Y190926D01*
X221615Y190157D01*
X221768Y189389D01*
X222203Y188738D01*
X222854Y188303D01*
X223622Y188150D01*
X224390Y188303D01*
X224762Y188552D01*
X226772D01*
X226927Y188583D01*
X228366D01*
Y190101D01*
X228377Y190157D01*
X228366Y190214D01*
Y191732D01*
X226927D01*
X226772Y191763D01*
X224762D01*
X224390Y192012D01*
X223622Y192165D01*
D02*
G37*
G36*
X338028Y189189D02*
X336524D01*
Y187902D01*
X338028D01*
Y189189D01*
D02*
G37*
G36*
X335524D02*
X334020D01*
Y187902D01*
X335524D01*
Y189189D01*
D02*
G37*
G36*
X314567Y198464D02*
X313799Y198311D01*
X313148Y197876D01*
X312713Y197225D01*
X312560Y196457D01*
X312713Y195689D01*
X313148Y195037D01*
X313799Y194602D01*
X314567Y194450D01*
X315335Y194602D01*
X315707Y194851D01*
X341067D01*
X342489Y193429D01*
Y187673D01*
X340083Y185267D01*
X338384D01*
X338028Y185614D01*
X338028Y185767D01*
Y186902D01*
X336024D01*
Y187402D01*
D01*
Y186902D01*
X334020D01*
Y185614D01*
X334566D01*
X334776Y185210D01*
X334669Y185039D01*
X334232D01*
Y183718D01*
X334221Y183661D01*
X334232Y183605D01*
Y181890D01*
X337815D01*
Y182056D01*
X340748D01*
X340748Y182056D01*
X341363Y182178D01*
X341883Y182526D01*
X345230Y185872D01*
X345578Y186393D01*
X345700Y187008D01*
X345700Y187008D01*
Y194094D01*
X345700Y194095D01*
X345578Y194709D01*
X345230Y195230D01*
X342868Y197592D01*
X342347Y197940D01*
X341732Y198062D01*
X341732Y198062D01*
X315707D01*
X315335Y198311D01*
X314567Y198464D01*
D02*
G37*
G36*
X331102Y192952D02*
X330334Y192799D01*
X329683Y192364D01*
X329248Y191713D01*
X329095Y190945D01*
X329248Y190177D01*
X329497Y189805D01*
Y187008D01*
X329114D01*
Y183858D01*
X330947D01*
X331102Y183827D01*
X331258Y183858D01*
X332697D01*
Y185377D01*
X332708Y185433D01*
Y189805D01*
X332957Y190177D01*
X333109Y190945D01*
X332957Y191713D01*
X332522Y192364D01*
X331870Y192799D01*
X331102Y192952D01*
D02*
G37*
G36*
X364016Y186283D02*
X363083Y186160D01*
X362213Y185800D01*
X361466Y185227D01*
X360893Y184480D01*
X360533Y183610D01*
X360410Y182677D01*
X360533Y181744D01*
X360893Y180874D01*
X361466Y180128D01*
X362213Y179555D01*
X363083Y179194D01*
X364016Y179071D01*
X364949Y179194D01*
X365819Y179555D01*
X366565Y180128D01*
X367138Y180874D01*
X367498Y181744D01*
X367621Y182677D01*
X367498Y183610D01*
X367138Y184480D01*
X366565Y185227D01*
X365819Y185800D01*
X364949Y186160D01*
X364016Y186283D01*
D02*
G37*
G36*
X255906D02*
X254972Y186160D01*
X254103Y185800D01*
X253356Y185227D01*
X252783Y184480D01*
X252423Y183610D01*
X252300Y182677D01*
X252423Y181744D01*
X252783Y180874D01*
X253356Y180128D01*
X254103Y179555D01*
X254972Y179194D01*
X255906Y179071D01*
X256839Y179194D01*
X257708Y179555D01*
X258455Y180128D01*
X259028Y180874D01*
X259388Y181744D01*
X259511Y182677D01*
X259388Y183610D01*
X259028Y184480D01*
X258455Y185227D01*
X257708Y185800D01*
X256839Y186160D01*
X255906Y186283D01*
D02*
G37*
G36*
X71260Y189015D02*
X70492Y188862D01*
X69841Y188427D01*
X69406Y187776D01*
X69253Y187008D01*
X69406Y186240D01*
X69841Y185589D01*
X70492Y185154D01*
X71260Y185001D01*
X72028Y185154D01*
X72400Y185402D01*
X97760D01*
X99969Y183193D01*
X99969Y181849D01*
X99721Y181477D01*
X99568Y180709D01*
X99721Y179941D01*
X100156Y179289D01*
X100807Y178854D01*
X101575Y178702D01*
X102343Y178854D01*
X102994Y179289D01*
X103429Y179941D01*
X103582Y180709D01*
X103429Y181477D01*
X103180Y181849D01*
X103181Y183858D01*
X103058Y184473D01*
X102710Y184994D01*
X99561Y188143D01*
X99040Y188491D01*
X98425Y188613D01*
X98425Y188613D01*
X72400D01*
X72028Y188862D01*
X71260Y189015D01*
D02*
G37*
G36*
X135472Y176862D02*
X132587D01*
Y175551D01*
X134252D01*
X134719Y175644D01*
X135115Y175909D01*
X135379Y176305D01*
X135472Y176772D01*
Y176862D01*
D02*
G37*
G36*
X131587D02*
X128701D01*
Y176772D01*
X128794Y176305D01*
X129058Y175909D01*
X129454Y175644D01*
X129921Y175551D01*
X131587D01*
Y176862D01*
D02*
G37*
G36*
X231693Y192126D02*
D01*
Y191626D01*
X229689D01*
Y190339D01*
X230236D01*
X230445Y189934D01*
X230339Y189764D01*
X229902D01*
Y188442D01*
X229890Y188386D01*
X229902Y188330D01*
Y186614D01*
X233484D01*
Y186780D01*
X236146D01*
X237371Y185555D01*
Y181767D01*
X231954Y176351D01*
X231515Y176264D01*
X230864Y175829D01*
X230429Y175178D01*
X230276Y174409D01*
X230429Y173641D01*
X230864Y172990D01*
X231515Y172555D01*
X232283Y172402D01*
X233051Y172555D01*
X233703Y172990D01*
X234138Y173641D01*
X234225Y174080D01*
X240112Y179967D01*
X240112Y179967D01*
X240460Y180488D01*
X240582Y181102D01*
Y186221D01*
X240460Y186835D01*
X240112Y187356D01*
X240112Y187356D01*
X237946Y189521D01*
X237425Y189869D01*
X236811Y189991D01*
X236811Y189991D01*
X234053D01*
X233697Y190339D01*
X233697Y190491D01*
Y191626D01*
X231693D01*
Y192126D01*
D02*
G37*
G36*
X374016Y186283D02*
X373082Y186160D01*
X372213Y185800D01*
X371466Y185227D01*
X370893Y184480D01*
X370533Y183610D01*
X370410Y182677D01*
X370533Y181744D01*
X370893Y180874D01*
X371466Y180128D01*
X372213Y179555D01*
X373082Y179194D01*
X374016Y179071D01*
X374949Y179194D01*
X375819Y179555D01*
X376565Y180128D01*
X377136Y180871D01*
X383110D01*
X391242Y172739D01*
X391828Y172347D01*
X392520Y172209D01*
X393110D01*
Y171457D01*
X397441D01*
Y176575D01*
X393110D01*
Y176575D01*
X392689Y176400D01*
X385136Y183954D01*
X384549Y184346D01*
X383858Y184484D01*
X377136D01*
X376565Y185227D01*
X375819Y185800D01*
X374949Y186160D01*
X374016Y186283D01*
D02*
G37*
G36*
X265905D02*
X264972Y186160D01*
X264103Y185800D01*
X263356Y185227D01*
X262783Y184480D01*
X262423Y183610D01*
X262300Y182677D01*
X262423Y181744D01*
X262783Y180874D01*
X263356Y180128D01*
X264103Y179555D01*
X264972Y179194D01*
X265905Y179071D01*
X266839Y179194D01*
X267708Y179555D01*
X268455Y180128D01*
X269025Y180871D01*
X283394D01*
X286583Y177681D01*
Y176575D01*
X286024D01*
Y171457D01*
X290354D01*
Y176575D01*
X289795D01*
Y178346D01*
X289795Y178347D01*
X289672Y178961D01*
X289324Y179482D01*
X285549Y183257D01*
X285527Y183368D01*
X285136Y183954D01*
X284549Y184346D01*
X283858Y184484D01*
X269025D01*
X268455Y185227D01*
X267708Y185800D01*
X266839Y186160D01*
X265905Y186283D01*
D02*
G37*
G36*
X295866Y176575D02*
X291535D01*
Y171457D01*
X291694D01*
Y166535D01*
X291846Y165767D01*
X292282Y165116D01*
X292933Y164681D01*
X293701Y164528D01*
X294469Y164681D01*
X295120Y165116D01*
X295555Y165767D01*
X295708Y166535D01*
Y171457D01*
X295866D01*
Y176575D01*
D02*
G37*
G36*
X169488Y167913D02*
X165157D01*
Y167161D01*
X164567D01*
X163876Y167023D01*
X163290Y166632D01*
X160534Y163876D01*
X160142Y163290D01*
X160005Y162598D01*
Y161076D01*
X159957Y161004D01*
X159804Y160236D01*
X159957Y159468D01*
X160005Y159396D01*
Y157874D01*
X160142Y157183D01*
X160534Y156597D01*
X162502Y154628D01*
X163088Y154237D01*
X163779Y154099D01*
X165157D01*
Y152953D01*
X169488D01*
Y158071D01*
X165157D01*
Y157712D01*
X164528D01*
X163617Y158622D01*
Y159396D01*
X163665Y159468D01*
X163818Y160236D01*
X163665Y161004D01*
X163617Y161076D01*
Y161850D01*
X164737Y162970D01*
X165157Y162795D01*
Y162795D01*
X169488D01*
Y167913D01*
D02*
G37*
G36*
X203543Y177204D02*
X202775Y177051D01*
X202124Y176616D01*
X201689Y175965D01*
X201536Y175197D01*
X201689Y174429D01*
X202124Y173778D01*
X202775Y173343D01*
X203543Y173190D01*
X204311Y173343D01*
X204683Y173591D01*
X206815D01*
X216169Y164238D01*
X216256Y163799D01*
X216691Y163148D01*
X217342Y162713D01*
X218110Y162560D01*
X218878Y162713D01*
X219529Y163148D01*
X219965Y163799D01*
X220117Y164567D01*
X219965Y165335D01*
X219529Y165986D01*
X218878Y166421D01*
X218439Y166508D01*
X208616Y176332D01*
X208095Y176680D01*
X207480Y176803D01*
X207480Y176803D01*
X204683D01*
X204311Y177051D01*
X203543Y177204D01*
D02*
G37*
G36*
X175000Y167913D02*
X170669D01*
Y162795D01*
X175000D01*
Y163021D01*
X175462Y163212D01*
X177586Y161088D01*
X177673Y160649D01*
X178108Y159998D01*
X178760Y159563D01*
X179528Y159410D01*
X180296Y159563D01*
X180947Y159998D01*
X181382Y160649D01*
X181535Y161417D01*
X181382Y162185D01*
X180947Y162837D01*
X180296Y163272D01*
X179857Y163359D01*
X176726Y166490D01*
X176205Y166838D01*
X175591Y166960D01*
X175591Y166960D01*
X175000D01*
Y167913D01*
D02*
G37*
G36*
X150409Y161728D02*
X147350D01*
Y158374D01*
X150409D01*
Y161728D01*
D02*
G37*
G36*
X58268Y185865D02*
X57500Y185713D01*
X56849Y185277D01*
X56413Y184626D01*
X56261Y183858D01*
X56413Y183090D01*
X56849Y182439D01*
X57500Y182004D01*
X58268Y181851D01*
X59036Y182004D01*
X59108Y182052D01*
X66071D01*
X89581Y158542D01*
X89390Y158080D01*
X87008D01*
Y159350D01*
X82193D01*
X82087Y159350D01*
X81693D01*
X81587Y159350D01*
X76772D01*
Y158700D01*
X61024D01*
X60256Y158547D01*
X59604Y158112D01*
X42675Y141183D01*
X42240Y140532D01*
X42087Y139764D01*
Y137052D01*
X37321Y132285D01*
X36606Y132581D01*
X35630Y132709D01*
X34654Y132581D01*
X33744Y132204D01*
X32962Y131605D01*
X32456Y130944D01*
X13214D01*
X12707Y131605D01*
X11926Y132204D01*
X11016Y132581D01*
X10039Y132709D01*
X9063Y132581D01*
X8153Y132204D01*
X7372Y131605D01*
X6772Y130823D01*
X6396Y129913D01*
X6267Y128937D01*
X6396Y127961D01*
X6772Y127051D01*
X7372Y126269D01*
X8153Y125670D01*
X9063Y125293D01*
X10039Y125165D01*
X11016Y125293D01*
X11926Y125670D01*
X12707Y126269D01*
X13214Y126930D01*
X32456D01*
X32962Y126269D01*
X33744Y125670D01*
X34654Y125293D01*
X35630Y125165D01*
X36606Y125293D01*
X37516Y125670D01*
X38297Y126269D01*
X38897Y127051D01*
X39274Y127961D01*
X39365Y128652D01*
X45514Y134801D01*
X45949Y135452D01*
X46102Y136221D01*
Y138932D01*
X61855Y154686D01*
X76772D01*
Y154035D01*
X81587D01*
X81693Y154035D01*
X82087D01*
X82193Y154035D01*
X87008D01*
Y155109D01*
X93518D01*
X93787Y154612D01*
X93672Y154035D01*
X93787Y153459D01*
X94034Y153089D01*
X94082Y152756D01*
X94034Y152422D01*
X93787Y152052D01*
X93672Y151476D01*
X93787Y150900D01*
X93518Y150402D01*
X75653D01*
X75632Y150435D01*
X74981Y150870D01*
X74213Y151023D01*
X73444Y150870D01*
X72793Y150435D01*
X72358Y149784D01*
X72206Y149016D01*
X72358Y148248D01*
X72793Y147597D01*
X73444Y147161D01*
X74213Y147009D01*
X74981Y147161D01*
X75386Y147432D01*
X93518D01*
X93787Y146934D01*
X93672Y146358D01*
X93787Y145782D01*
X93916Y145589D01*
X93959Y145017D01*
X93586Y144458D01*
X93555Y144299D01*
X98622D01*
X103690D01*
X103658Y144458D01*
X103285Y145017D01*
X103329Y145589D01*
X103458Y145782D01*
X103572Y146358D01*
X103458Y146934D01*
X103210Y147304D01*
X103162Y147638D01*
X103210Y147971D01*
X103458Y148341D01*
X103572Y148917D01*
X103458Y149493D01*
X103726Y149991D01*
X110398D01*
Y141339D01*
X110536Y140647D01*
X110927Y140061D01*
X111513Y139670D01*
X111625Y139647D01*
X113727Y137546D01*
X114248Y137198D01*
X114862Y137075D01*
X115468Y137196D01*
X120683D01*
X120952Y136698D01*
X120837Y136122D01*
X120952Y135546D01*
X121081Y135353D01*
X121125Y134781D01*
X120752Y134222D01*
X120720Y134063D01*
X125787D01*
X130855D01*
X130823Y134222D01*
X130450Y134781D01*
X130494Y135353D01*
X130623Y135546D01*
X130738Y136122D01*
X130623Y136698D01*
X130892Y137196D01*
X131594D01*
X131595Y137196D01*
X132163Y137309D01*
X132645Y137631D01*
X133581Y138567D01*
X134233Y138697D01*
X134884Y139132D01*
X141519Y145768D01*
X142584Y145768D01*
X142996Y145555D01*
X143227Y145555D01*
X145169D01*
Y148425D01*
X145669D01*
D01*
X145169D01*
Y151295D01*
X142996D01*
X142901Y151246D01*
X142401Y151551D01*
Y154232D01*
X143291D01*
Y154020D01*
X146350D01*
Y157874D01*
Y161728D01*
X143291D01*
Y161516D01*
X137205D01*
Y154232D01*
X138387D01*
Y151083D01*
X137894D01*
Y147819D01*
X132045Y141970D01*
X131610Y141319D01*
X131538Y140954D01*
X131392Y140876D01*
X130947Y141205D01*
X130954Y141240D01*
X130823Y141899D01*
X130450Y142458D01*
X130494Y143030D01*
X130623Y143223D01*
X130738Y143799D01*
X130623Y144375D01*
X130719Y144554D01*
X131337Y144689D01*
X131614Y144504D01*
X132382Y144351D01*
X133150Y144504D01*
X133801Y144939D01*
X134236Y145590D01*
X134389Y146358D01*
X134236Y147126D01*
X133801Y147777D01*
X133150Y148213D01*
X132382Y148365D01*
X131614Y148213D01*
X131337Y148028D01*
X130719Y148163D01*
X130623Y148341D01*
X130738Y148917D01*
X130623Y149493D01*
X130494Y149687D01*
X130450Y150259D01*
X130823Y150817D01*
X130855Y150976D01*
X125787D01*
X120720D01*
X120752Y150817D01*
X121125Y150259D01*
X121081Y149687D01*
X120952Y149493D01*
X120837Y148917D01*
X120952Y148341D01*
X121199Y147971D01*
X121247Y147638D01*
X121199Y147304D01*
X120952Y146934D01*
X120837Y146358D01*
X120952Y145782D01*
X121016Y145686D01*
X120749Y145186D01*
X118249D01*
X117697Y145555D01*
X116929Y145708D01*
X116161Y145555D01*
X115510Y145120D01*
X115075Y144469D01*
X114922Y143701D01*
X115075Y142933D01*
X115510Y142282D01*
X116161Y141847D01*
X116929Y141694D01*
X117697Y141847D01*
X118249Y142216D01*
X120407D01*
X120700Y141740D01*
X125787D01*
Y140740D01*
X120720D01*
X120735Y140666D01*
X120473Y140166D01*
X115648D01*
X114011Y141803D01*
Y150787D01*
X113874Y151479D01*
X113482Y152065D01*
X112793Y152754D01*
X112207Y153145D01*
X111516Y153283D01*
X110825Y153145D01*
X110550Y152962D01*
X103726D01*
X103458Y153459D01*
X103572Y154035D01*
X103458Y154612D01*
X103131Y155100D01*
Y155530D01*
X103458Y156018D01*
X103572Y156595D01*
X103458Y157170D01*
X103210Y157541D01*
X103162Y157874D01*
X103210Y158207D01*
X103458Y158578D01*
X103572Y159153D01*
X103458Y159730D01*
X103131Y160218D01*
X102643Y160544D01*
X102067Y160659D01*
X95177D01*
X95076Y160639D01*
X92026D01*
X68226Y184438D01*
X68204Y184549D01*
X67813Y185136D01*
X67227Y185527D01*
X66535Y185665D01*
X59108D01*
X59036Y185713D01*
X58268Y185865D01*
D02*
G37*
G36*
X150409Y157374D02*
X147350D01*
Y154020D01*
X150409D01*
Y157374D01*
D02*
G37*
G36*
X129232Y160659D02*
X122343D01*
X121766Y160544D01*
X121278Y160218D01*
X120952Y159730D01*
X120837Y159153D01*
X120952Y158578D01*
X121199Y158207D01*
X121247Y157874D01*
X121199Y157541D01*
X120952Y157170D01*
X120837Y156595D01*
X120952Y156018D01*
X121278Y155530D01*
Y155100D01*
X120952Y154612D01*
X120837Y154035D01*
X120952Y153459D01*
X121081Y153266D01*
X121125Y152694D01*
X120752Y152135D01*
X120720Y151976D01*
X125787D01*
X130855D01*
X130823Y152135D01*
X130450Y152694D01*
X130494Y153266D01*
X130623Y153459D01*
X130738Y154035D01*
X130623Y154612D01*
X130297Y155100D01*
Y155530D01*
X130623Y156018D01*
X130738Y156595D01*
X130623Y157170D01*
X130376Y157541D01*
X130328Y157874D01*
X130376Y158207D01*
X130623Y158578D01*
X130738Y159153D01*
X130623Y159730D01*
X130297Y160218D01*
X129808Y160544D01*
X129232Y160659D01*
D02*
G37*
G36*
X182677Y183503D02*
X181909Y183350D01*
X181258Y182915D01*
X180823Y182264D01*
X180670Y181496D01*
X180823Y180728D01*
X181258Y180077D01*
X181909Y179642D01*
X182677Y179489D01*
X183445Y179642D01*
X183817Y179890D01*
X187918D01*
X217369Y150440D01*
X217369Y150439D01*
X217889Y150091D01*
X218504Y149969D01*
X219332D01*
X219704Y149721D01*
X220472Y149568D01*
X221240Y149721D01*
X221892Y150156D01*
X222327Y150807D01*
X222480Y151575D01*
X222327Y152343D01*
X221892Y152994D01*
X221240Y153429D01*
X220472Y153582D01*
X219704Y153429D01*
X219332Y153180D01*
X219169D01*
X189718Y182631D01*
X189197Y182980D01*
X188583Y183102D01*
X188583Y183102D01*
X183817D01*
X183445Y183350D01*
X182677Y183503D01*
D02*
G37*
G36*
X146169Y151295D02*
Y148925D01*
X148343D01*
Y151295D01*
X146169D01*
D02*
G37*
G36*
X36130Y150575D02*
Y147153D01*
X39551D01*
X39481Y147685D01*
X39083Y148647D01*
X38449Y149473D01*
X37623Y150106D01*
X36662Y150505D01*
X36130Y150575D01*
D02*
G37*
G36*
X35130D02*
X34598Y150505D01*
X33637Y150106D01*
X32811Y149473D01*
X32177Y148647D01*
X31779Y147685D01*
X31709Y147153D01*
X35130D01*
Y150575D01*
D02*
G37*
G36*
X10539D02*
Y147153D01*
X13960D01*
X13890Y147685D01*
X13492Y148647D01*
X12858Y149473D01*
X12033Y150106D01*
X11071Y150505D01*
X10539Y150575D01*
D02*
G37*
G36*
X9539D02*
X9008Y150505D01*
X8046Y150106D01*
X7220Y149473D01*
X6587Y148647D01*
X6188Y147685D01*
X6118Y147153D01*
X9539D01*
Y150575D01*
D02*
G37*
G36*
X148343Y147925D02*
X146169D01*
Y145555D01*
X148343D01*
Y147925D01*
D02*
G37*
G36*
X175000Y158071D02*
X170669D01*
Y152953D01*
X175000D01*
Y153906D01*
X181618D01*
X188610Y146915D01*
X188697Y146476D01*
X189132Y145825D01*
X189783Y145390D01*
X190551Y145237D01*
X191319Y145390D01*
X191970Y145825D01*
X192405Y146476D01*
X192558Y147244D01*
X192405Y148012D01*
X191970Y148663D01*
X191319Y149098D01*
X190880Y149186D01*
X183419Y156647D01*
X182898Y156995D01*
X182283Y157117D01*
X182283Y157117D01*
X175000D01*
Y158071D01*
D02*
G37*
G36*
X397835Y146653D02*
X393504D01*
Y145700D01*
X377165D01*
X376551Y145578D01*
X376030Y145230D01*
X375146Y144346D01*
X374949Y144428D01*
X374016Y144551D01*
X373082Y144428D01*
X372213Y144068D01*
X371466Y143494D01*
X370893Y142748D01*
X370533Y141878D01*
X370410Y140945D01*
X370533Y140012D01*
X370893Y139142D01*
X371466Y138395D01*
X372213Y137822D01*
X373082Y137462D01*
X374016Y137339D01*
X374949Y137462D01*
X375819Y137822D01*
X376565Y138395D01*
X377138Y139142D01*
X377499Y140012D01*
X377621Y140945D01*
X377499Y141878D01*
X377417Y142075D01*
X377831Y142489D01*
X393504D01*
Y141535D01*
X397835D01*
Y146653D01*
D02*
G37*
G36*
X175000Y148622D02*
X170669D01*
Y143504D01*
X175000D01*
Y144457D01*
X179175D01*
X179547Y144209D01*
X180315Y144056D01*
X181083Y144209D01*
X181734Y144644D01*
X182169Y145295D01*
X182322Y146063D01*
X182169Y146831D01*
X181734Y147482D01*
X181083Y147917D01*
X180315Y148070D01*
X179547Y147917D01*
X179175Y147669D01*
X175000D01*
Y148622D01*
D02*
G37*
G36*
X169488D02*
X165157D01*
Y147869D01*
X163779D01*
X163088Y147732D01*
X162502Y147340D01*
X160534Y145372D01*
X160142Y144786D01*
X160005Y144095D01*
Y142277D01*
X159957Y142205D01*
X159804Y141437D01*
X159957Y140669D01*
X160005Y140597D01*
Y138779D01*
X160142Y138088D01*
X160534Y137502D01*
X162305Y135731D01*
X162891Y135339D01*
X163583Y135202D01*
X165551D01*
Y134449D01*
X169882D01*
Y139567D01*
X165551D01*
Y138814D01*
X164331D01*
X163617Y139528D01*
Y140597D01*
X163665Y140669D01*
X163818Y141437D01*
X163665Y142205D01*
X163617Y142277D01*
Y143346D01*
X164528Y144257D01*
X165157D01*
Y143504D01*
X169488D01*
Y148622D01*
D02*
G37*
G36*
X289961Y145866D02*
X285630D01*
Y144913D01*
X275984D01*
X275370Y144790D01*
X274849Y144442D01*
X274849Y144442D01*
X273351Y142944D01*
X269228D01*
X269146Y143141D01*
X268573Y143888D01*
X267827Y144461D01*
X266957Y144821D01*
X266024Y144944D01*
X265090Y144821D01*
X264221Y144461D01*
X263474Y143888D01*
X262901Y143141D01*
X262541Y142272D01*
X262418Y141339D01*
X262541Y140405D01*
X262901Y139536D01*
X263474Y138789D01*
X264221Y138216D01*
X265090Y137856D01*
X266024Y137733D01*
X266957Y137856D01*
X267827Y138216D01*
X268573Y138789D01*
X269146Y139536D01*
X269228Y139733D01*
X274016D01*
X274016Y139733D01*
X274630Y139855D01*
X275151Y140203D01*
X276649Y141701D01*
X285630D01*
Y140748D01*
X289961D01*
Y145866D01*
D02*
G37*
G36*
X39551Y146153D02*
X36130D01*
Y142733D01*
X36662Y142803D01*
X37623Y143201D01*
X38449Y143834D01*
X39083Y144660D01*
X39481Y145622D01*
X39551Y146153D01*
D02*
G37*
G36*
X35130D02*
X31709D01*
X31779Y145622D01*
X32177Y144660D01*
X32811Y143834D01*
X33637Y143201D01*
X34598Y142803D01*
X35130Y142733D01*
Y146153D01*
D02*
G37*
G36*
X13960D02*
X10539D01*
Y142733D01*
X11071Y142803D01*
X12033Y143201D01*
X12858Y143834D01*
X13492Y144660D01*
X13890Y145622D01*
X13960Y146153D01*
D02*
G37*
G36*
X9539D02*
X6118D01*
X6188Y145622D01*
X6587Y144660D01*
X7220Y143834D01*
X8046Y143201D01*
X9008Y142803D01*
X9539Y142733D01*
Y146153D01*
D02*
G37*
G36*
X338421Y140370D02*
X336917D01*
Y139083D01*
X338421D01*
Y140370D01*
D02*
G37*
G36*
X335917D02*
X334413D01*
Y139083D01*
X335917D01*
Y140370D01*
D02*
G37*
G36*
X256024Y144944D02*
X255090Y144821D01*
X254221Y144461D01*
X253474Y143888D01*
X252901Y143141D01*
X252541Y142272D01*
X252418Y141339D01*
X252541Y140405D01*
X252901Y139536D01*
X253474Y138789D01*
X254221Y138216D01*
X255090Y137856D01*
X256024Y137733D01*
X256957Y137856D01*
X257826Y138216D01*
X258573Y138789D01*
X259146Y139536D01*
X259506Y140405D01*
X259629Y141339D01*
X259506Y142272D01*
X259146Y143141D01*
X258573Y143888D01*
X257826Y144461D01*
X256957Y144821D01*
X256024Y144944D01*
D02*
G37*
G36*
X364016Y144551D02*
X363083Y144428D01*
X362213Y144068D01*
X361466Y143494D01*
X360893Y142748D01*
X360533Y141878D01*
X360410Y140945D01*
X360533Y140012D01*
X360893Y139142D01*
X361466Y138395D01*
X362213Y137822D01*
X363083Y137462D01*
X364016Y137339D01*
X364949Y137462D01*
X365819Y137822D01*
X366565Y138395D01*
X367138Y139142D01*
X367498Y140012D01*
X367621Y140945D01*
X367498Y141878D01*
X367138Y142748D01*
X366565Y143494D01*
X365819Y144068D01*
X364949Y144428D01*
X364016Y144551D01*
D02*
G37*
G36*
X234878Y138008D02*
X233374D01*
Y136721D01*
X234878D01*
Y138008D01*
D02*
G37*
G36*
X232374D02*
X230870D01*
Y136721D01*
X232374D01*
Y138008D01*
D02*
G37*
G36*
X282283Y153582D02*
X281515Y153429D01*
X280864Y152994D01*
X280429Y152343D01*
X280276Y151575D01*
X280429Y150807D01*
X280864Y150156D01*
X281515Y149721D01*
X282283Y149568D01*
X283051Y149721D01*
X283424Y149969D01*
X340280D01*
X344851Y145398D01*
Y140429D01*
X340870Y136448D01*
X338777D01*
X338421Y136795D01*
X338421Y136948D01*
Y138083D01*
X336417D01*
X334413D01*
Y136795D01*
X334960D01*
X335169Y136391D01*
X335063Y136221D01*
X334626D01*
Y134899D01*
X334615Y134843D01*
X334626Y134786D01*
Y133071D01*
X338209D01*
Y133237D01*
X341535D01*
X341535Y133237D01*
X342150Y133359D01*
X342671Y133707D01*
X347592Y138628D01*
X347592Y138628D01*
X347940Y139149D01*
X348062Y139764D01*
Y146063D01*
X348062Y146063D01*
X347940Y146677D01*
X347592Y147198D01*
X347592Y147198D01*
X342080Y152710D01*
X341559Y153058D01*
X340945Y153181D01*
X340945Y153180D01*
X283424D01*
X283051Y153429D01*
X282283Y153582D01*
D02*
G37*
G36*
X175394Y139567D02*
X171063D01*
Y134449D01*
X175394D01*
Y135402D01*
X181143D01*
X181515Y135154D01*
X182283Y135001D01*
X183052Y135154D01*
X183703Y135589D01*
X184138Y136240D01*
X184291Y137008D01*
X184138Y137776D01*
X183703Y138427D01*
X183052Y138862D01*
X182283Y139015D01*
X181515Y138862D01*
X181143Y138613D01*
X175394D01*
Y139567D01*
D02*
G37*
G36*
X328740Y138621D02*
X327972Y138469D01*
X327321Y138033D01*
X326886Y137382D01*
X326733Y136614D01*
X326886Y135846D01*
X327321Y135195D01*
X327972Y134760D01*
X328740Y134607D01*
X329508Y134760D01*
X329880Y135009D01*
X331496D01*
X331651Y135039D01*
X333090D01*
Y136558D01*
X333102Y136614D01*
X333090Y136670D01*
Y138189D01*
X331651D01*
X331496Y138220D01*
X329880D01*
X329508Y138469D01*
X328740Y138621D01*
D02*
G37*
G36*
X295472Y145866D02*
X291142D01*
Y140748D01*
X291300D01*
Y135433D01*
X291453Y134665D01*
X291888Y134014D01*
X292539Y133579D01*
X293307Y133426D01*
X294075Y133579D01*
X294726Y134014D01*
X295161Y134665D01*
X295314Y135433D01*
Y140748D01*
X295472D01*
Y145866D01*
D02*
G37*
G36*
X143291Y134366D02*
X142879Y134153D01*
X142791Y134153D01*
X138189D01*
Y132489D01*
X131102D01*
X130840Y132989D01*
X130855Y133063D01*
X125787D01*
X120720D01*
X120752Y132904D01*
X121125Y132345D01*
X121081Y131773D01*
X120952Y131580D01*
X120837Y131004D01*
X120952Y130428D01*
X120683Y129930D01*
X113844D01*
X113736Y130002D01*
X113091Y130131D01*
X112445Y130002D01*
X111898Y129637D01*
X94905Y112644D01*
X94392Y112301D01*
X94000Y111715D01*
X93863Y111024D01*
Y108714D01*
X93815Y108642D01*
X93662Y107874D01*
X93815Y107106D01*
X94250Y106455D01*
X94901Y106020D01*
X95669Y105867D01*
X96437Y106020D01*
X97088Y106455D01*
X97524Y107106D01*
X97676Y107874D01*
X97524Y108642D01*
X97476Y108714D01*
Y110446D01*
X113990Y126960D01*
X114473D01*
X114665Y126498D01*
X103139Y114972D01*
X102773Y114425D01*
X102645Y113779D01*
Y112831D01*
X102476Y112579D01*
X102324Y111811D01*
X102476Y111043D01*
X102911Y110392D01*
X103563Y109957D01*
X104331Y109804D01*
X105099Y109957D01*
X105750Y110392D01*
X106185Y111043D01*
X106338Y111811D01*
X106185Y112579D01*
X106017Y112831D01*
Y113081D01*
X117336Y124401D01*
X122242D01*
X122343Y124381D01*
X129232D01*
X129808Y124495D01*
X130297Y124821D01*
X130623Y125310D01*
X130738Y125886D01*
X130623Y126462D01*
X130376Y126832D01*
X130328Y127165D01*
X130376Y127499D01*
X130623Y127869D01*
X130738Y128445D01*
X130623Y129021D01*
X130892Y129519D01*
X138189D01*
Y128839D01*
X142879Y128839D01*
X143291Y128626D01*
X143522Y128626D01*
X145465D01*
Y131496D01*
Y134366D01*
X143291D01*
D02*
G37*
G36*
X223622Y136259D02*
X222854Y136106D01*
X222203Y135671D01*
X221768Y135020D01*
X221615Y134252D01*
X221768Y133484D01*
X222203Y132833D01*
X222854Y132398D01*
X223622Y132245D01*
X224390Y132398D01*
X224762Y132646D01*
X227953D01*
X228108Y132677D01*
X229547D01*
Y134196D01*
X229558Y134252D01*
X229547Y134308D01*
Y135827D01*
X228108D01*
X227953Y135858D01*
X224762D01*
X224390Y136106D01*
X223622Y136259D01*
D02*
G37*
G36*
X146465Y134366D02*
Y131996D01*
X148638D01*
Y134366D01*
X146465D01*
D02*
G37*
G36*
X148638Y130996D02*
X146465D01*
Y128626D01*
X148638D01*
Y130996D01*
D02*
G37*
G36*
X155512Y132716D02*
X154744Y132563D01*
X154093Y132128D01*
X153657Y131477D01*
X153505Y130709D01*
X153657Y129941D01*
X154093Y129289D01*
X154744Y128854D01*
X155512Y128702D01*
X156280Y128854D01*
X156652Y129103D01*
X162327D01*
X163825Y127605D01*
X164346Y127257D01*
X164961Y127135D01*
X164961Y127135D01*
X165551D01*
Y126181D01*
X169882D01*
Y131299D01*
X165551D01*
Y131074D01*
X165089Y130882D01*
X164128Y131844D01*
X163607Y132192D01*
X162992Y132314D01*
X162992Y132314D01*
X156652D01*
X156280Y132563D01*
X155512Y132716D01*
D02*
G37*
G36*
X103690Y143299D02*
X98622D01*
X93555D01*
X93586Y143140D01*
X93959Y142581D01*
X93916Y142009D01*
X93787Y141816D01*
X93672Y141240D01*
X93787Y140664D01*
X94113Y140176D01*
Y139745D01*
X93787Y139257D01*
X93672Y138681D01*
X93787Y138105D01*
X94034Y137735D01*
X94082Y137402D01*
X94034Y137068D01*
X93787Y136698D01*
X93672Y136122D01*
X93787Y135546D01*
X94113Y135058D01*
Y134627D01*
X93787Y134139D01*
X93672Y133563D01*
X93787Y132987D01*
X94034Y132617D01*
X94082Y132283D01*
X94034Y131950D01*
X93787Y131580D01*
X93672Y131004D01*
X93787Y130428D01*
X94113Y129939D01*
Y129509D01*
X93787Y129021D01*
X93672Y128445D01*
X93787Y127869D01*
X94034Y127499D01*
X94082Y127165D01*
X94034Y126832D01*
X93787Y126462D01*
X93672Y125886D01*
X93787Y125310D01*
X94113Y124821D01*
X94601Y124495D01*
X95177Y124381D01*
X102067D01*
X102643Y124495D01*
X103131Y124821D01*
X103458Y125310D01*
X103572Y125886D01*
X103458Y126462D01*
X103210Y126832D01*
X103162Y127165D01*
X103210Y127499D01*
X103458Y127869D01*
X103572Y128445D01*
X103458Y129021D01*
X103131Y129509D01*
Y129939D01*
X103458Y130428D01*
X103572Y131004D01*
X103458Y131580D01*
X103210Y131950D01*
X103162Y132283D01*
X103210Y132617D01*
X103458Y132987D01*
X103572Y133563D01*
X103458Y134139D01*
X103131Y134627D01*
Y135058D01*
X103458Y135546D01*
X103572Y136122D01*
X103458Y136698D01*
X103210Y137068D01*
X103162Y137402D01*
X103210Y137735D01*
X103458Y138105D01*
X103572Y138681D01*
X103458Y139257D01*
X103131Y139745D01*
Y140176D01*
X103458Y140664D01*
X103572Y141240D01*
X103458Y141816D01*
X103329Y142009D01*
X103285Y142581D01*
X103658Y143140D01*
X103690Y143299D01*
D02*
G37*
G36*
X36130Y122228D02*
Y118807D01*
X39551D01*
X39481Y119339D01*
X39083Y120300D01*
X38449Y121126D01*
X37623Y121760D01*
X36662Y122158D01*
X36130Y122228D01*
D02*
G37*
G36*
X35130D02*
X34598Y122158D01*
X33637Y121760D01*
X32811Y121126D01*
X32177Y120300D01*
X31779Y119339D01*
X31709Y118807D01*
X35130D01*
Y122228D01*
D02*
G37*
G36*
X10539D02*
Y118807D01*
X13960D01*
X13890Y119339D01*
X13492Y120300D01*
X12858Y121126D01*
X12033Y121760D01*
X11071Y122158D01*
X10539Y122228D01*
D02*
G37*
G36*
X9539D02*
X9008Y122158D01*
X8046Y121760D01*
X7220Y121126D01*
X6587Y120300D01*
X6188Y119339D01*
X6118Y118807D01*
X9539D01*
Y122228D01*
D02*
G37*
G36*
X175394Y131299D02*
X171063D01*
Y126181D01*
X175394D01*
Y127135D01*
X178469D01*
X179103Y126500D01*
Y118775D01*
X175654Y115326D01*
X175193Y115572D01*
X175228Y115748D01*
X175228Y115748D01*
Y117520D01*
X175787D01*
Y122638D01*
X171457D01*
Y117747D01*
X170276D01*
Y122638D01*
X165945D01*
Y121684D01*
X164567D01*
X164370Y121645D01*
X164173Y121684D01*
X149646D01*
X149031Y121562D01*
X148511Y121214D01*
X148511Y121214D01*
X142172Y114875D01*
X141824Y114354D01*
X141701Y113740D01*
X141701Y113740D01*
Y84211D01*
X141453Y83839D01*
X141300Y83071D01*
X141453Y82303D01*
X141888Y81652D01*
X142539Y81217D01*
X143307Y81064D01*
X144075Y81217D01*
X144726Y81652D01*
X145161Y82303D01*
X145314Y83071D01*
X145161Y83839D01*
X144913Y84211D01*
Y113075D01*
X147269Y115432D01*
X147819Y115274D01*
X148187Y114723D01*
X148838Y114287D01*
X149606Y114135D01*
X150374Y114287D01*
X150747Y114536D01*
X160716D01*
X161013Y114073D01*
X161009Y114036D01*
X160392Y113624D01*
X159957Y112973D01*
X159804Y112205D01*
X159957Y111437D01*
X160392Y110785D01*
X161043Y110350D01*
X161811Y110198D01*
X162579Y110350D01*
X162951Y110599D01*
X174803D01*
X174803Y110599D01*
X175418Y110721D01*
X175938Y111069D01*
X181844Y116975D01*
X181844Y116975D01*
X182192Y117496D01*
X182314Y118110D01*
X182314Y118110D01*
Y127165D01*
X182314Y127165D01*
X182192Y127780D01*
X181844Y128301D01*
X181844Y128301D01*
X180269Y129876D01*
X179748Y130224D01*
X179134Y130346D01*
X179134Y130346D01*
X175394D01*
Y131299D01*
D02*
G37*
G36*
X13960Y117807D02*
X10539D01*
Y114386D01*
X11071Y114456D01*
X12033Y114854D01*
X12858Y115488D01*
X13492Y116314D01*
X13890Y117275D01*
X13960Y117807D01*
D02*
G37*
G36*
X9539D02*
X6118D01*
X6188Y117275D01*
X6587Y116314D01*
X7220Y115488D01*
X8046Y114854D01*
X9008Y114456D01*
X9539Y114386D01*
Y117807D01*
D02*
G37*
G36*
X39551D02*
X36130D01*
Y114386D01*
X36662Y114456D01*
X37623Y114854D01*
X38449Y115488D01*
X39083Y116314D01*
X39481Y117275D01*
X39551Y117807D01*
D02*
G37*
G36*
X35130D02*
X31709D01*
X31779Y117275D01*
X32177Y116314D01*
X32811Y115488D01*
X33637Y114854D01*
X34598Y114456D01*
X35130Y114386D01*
Y117807D01*
D02*
G37*
G36*
X181471Y108715D02*
X181223Y108674D01*
X180972Y108668D01*
X180840Y108610D01*
X180698Y108587D01*
X180485Y108454D01*
X180255Y108353D01*
X175425Y104972D01*
X173467Y106931D01*
X172815Y107366D01*
X172047Y107519D01*
X155905D01*
X155137Y107366D01*
X154486Y106931D01*
X154051Y106280D01*
X153898Y105512D01*
X154051Y104744D01*
X154486Y104093D01*
X155137Y103657D01*
X155905Y103505D01*
X171216D01*
X176339Y98381D01*
Y91265D01*
X175843Y91256D01*
X175839Y91256D01*
X171012D01*
Y88288D01*
Y85319D01*
X175839D01*
X175843Y85319D01*
X176339Y85310D01*
Y82721D01*
X175886Y82268D01*
X175591Y82307D01*
X174871Y82213D01*
X174387Y82012D01*
X170512D01*
X170332Y81988D01*
X166570D01*
X160574Y82076D01*
X160153Y82268D01*
Y85327D01*
X152445D01*
Y82268D01*
X152657D01*
Y76181D01*
X159941D01*
Y76181D01*
X160285Y76520D01*
X170470Y76371D01*
X171613Y76354D01*
X172334Y76439D01*
X172369Y76453D01*
X175295D01*
X175476Y76476D01*
X175630D01*
Y76497D01*
X176015Y76547D01*
X176685Y76825D01*
X177261Y77267D01*
X177556Y77562D01*
X177998Y78138D01*
X178276Y78808D01*
X178302Y79006D01*
X179766Y80471D01*
X180201Y81122D01*
X180353Y81890D01*
Y99213D01*
X180201Y99981D01*
X179766Y100632D01*
X178583Y101815D01*
X178626Y102313D01*
X182010Y104681D01*
X192768Y104334D01*
X209077Y86937D01*
X208735Y76350D01*
X208863Y75578D01*
X209277Y74913D01*
X215465Y68312D01*
X215492Y68293D01*
X215510Y68266D01*
X215809Y68066D01*
X216102Y67857D01*
X216134Y67849D01*
X216161Y67831D01*
X216514Y67761D01*
X216864Y67679D01*
X216897Y67684D01*
X216929Y67678D01*
X217282Y67748D01*
X217637Y67807D01*
X217665Y67824D01*
X217697Y67831D01*
X217996Y68031D01*
X218302Y68221D01*
X218321Y68248D01*
X218348Y68266D01*
X218548Y68565D01*
X218758Y68858D01*
X218765Y68890D01*
X218783Y68917D01*
X218854Y69270D01*
X218935Y69620D01*
X218930Y69653D01*
X218936Y69685D01*
X218866Y70038D01*
X218807Y70393D01*
X218790Y70421D01*
X218783Y70453D01*
X218584Y70752D01*
X218393Y71058D01*
X212774Y77052D01*
X213116Y87638D01*
X212988Y88411D01*
X212574Y89076D01*
X212574Y89076D01*
X195128Y107686D01*
X194491Y108142D01*
X193729Y108319D01*
X181471Y108715D01*
D02*
G37*
G36*
X82677Y133109D02*
X81909Y132957D01*
X81258Y132522D01*
X80823Y131870D01*
X80806Y131786D01*
X51417Y102397D01*
X38930D01*
X38897Y102477D01*
X38297Y103258D01*
X37516Y103858D01*
X36606Y104234D01*
X35630Y104363D01*
X34654Y104234D01*
X33744Y103858D01*
X33109Y103370D01*
X12561D01*
X11926Y103858D01*
X11016Y104234D01*
X10039Y104363D01*
X9063Y104234D01*
X8153Y103858D01*
X7372Y103258D01*
X6772Y102477D01*
X6396Y101567D01*
X6267Y100591D01*
X6396Y99614D01*
X6772Y98704D01*
X7372Y97923D01*
X8153Y97324D01*
X9063Y96947D01*
X10039Y96818D01*
X11016Y96947D01*
X11926Y97324D01*
X12561Y97811D01*
X33109D01*
X33744Y97324D01*
X34654Y96947D01*
X35630Y96818D01*
X36606Y96947D01*
X37516Y97324D01*
X38297Y97923D01*
X38897Y98704D01*
X38930Y98784D01*
X52165D01*
X52857Y98922D01*
X53443Y99313D01*
X83361Y129231D01*
X83445Y129248D01*
X84096Y129683D01*
X84531Y130334D01*
X84684Y131102D01*
X84531Y131870D01*
X84096Y132522D01*
X83445Y132957D01*
X82677Y133109D01*
D02*
G37*
G36*
X402953Y176575D02*
X398622D01*
Y171457D01*
X398814D01*
X399138Y146778D01*
X399016Y146653D01*
X399016D01*
Y141535D01*
X399174D01*
Y137839D01*
X380271Y118936D01*
X314173Y118936D01*
X313405Y118783D01*
X312754Y118348D01*
X295382Y100977D01*
X294920Y101168D01*
Y105905D01*
X294768Y106674D01*
X294333Y107325D01*
X293682Y107760D01*
X292913Y107913D01*
X292145Y107760D01*
X291494Y107325D01*
X291059Y106674D01*
X290906Y105905D01*
Y48469D01*
X290707Y48270D01*
X290272Y47618D01*
X290119Y46850D01*
X290272Y46082D01*
X290707Y45431D01*
X291358Y44996D01*
X292126Y44843D01*
X292126D01*
X292894Y44996D01*
X293545Y45431D01*
X293545Y45431D01*
X294333Y46219D01*
X294768Y46870D01*
X294920Y47638D01*
Y94838D01*
X315005Y114922D01*
X381102Y114922D01*
X381870Y115075D01*
X382522Y115510D01*
X402600Y135589D01*
X403035Y136240D01*
X403188Y137008D01*
Y141535D01*
X403346D01*
Y146653D01*
X403155D01*
X402830Y171332D01*
X402953Y171457D01*
X402953D01*
Y176575D01*
D02*
G37*
G36*
X105905Y103976D02*
X82677D01*
X81909Y103823D01*
X81258Y103388D01*
X80823Y102737D01*
X80670Y101969D01*
X80823Y101200D01*
X81258Y100549D01*
X81909Y100114D01*
X82677Y99961D01*
X105905D01*
X106674Y100114D01*
X107325Y100549D01*
X107760Y101200D01*
X107913Y101969D01*
X107760Y102737D01*
X107325Y103388D01*
X106674Y103823D01*
X105905Y103976D01*
D02*
G37*
G36*
X170012Y91256D02*
X165182D01*
Y88788D01*
X170012D01*
Y91256D01*
D02*
G37*
G36*
X160153Y89386D02*
X156799D01*
Y86327D01*
X160153D01*
Y89386D01*
D02*
G37*
G36*
X155799D02*
X152445D01*
Y86327D01*
X155799D01*
Y89386D01*
D02*
G37*
G36*
X170012Y87787D02*
X165182D01*
Y85319D01*
X170012D01*
Y87787D01*
D02*
G37*
G36*
X87500Y87047D02*
X80216D01*
Y86267D01*
X68110D01*
X67189Y86083D01*
X66407Y85561D01*
X45058Y64212D01*
X40157D01*
X39389Y64059D01*
X39017Y63810D01*
X22441D01*
X21826Y63688D01*
X21669Y63583D01*
X19144D01*
Y58457D01*
X16896D01*
X16614Y58646D01*
X15846Y58798D01*
X15078Y58646D01*
X14427Y58210D01*
X13992Y57559D01*
X13839Y56791D01*
X13992Y56023D01*
X14427Y55372D01*
X15078Y54937D01*
X15846Y54784D01*
X16614Y54937D01*
X16896Y55125D01*
X18931D01*
Y54732D01*
X22441D01*
X25951D01*
Y56118D01*
X25951D01*
X25988Y56343D01*
X26480Y56683D01*
X26587Y56662D01*
X26587Y56662D01*
X42561D01*
X42933Y56413D01*
X43701Y56261D01*
X44469Y56413D01*
X45120Y56849D01*
X45555Y57500D01*
X45708Y58268D01*
X45555Y59036D01*
X45120Y59687D01*
X45436Y60046D01*
X45535Y59980D01*
X46457Y59796D01*
X47378Y59980D01*
X48160Y60502D01*
X69108Y81450D01*
X79978D01*
X80004Y80961D01*
X80004D01*
Y77902D01*
X83858D01*
X87713D01*
Y80961D01*
X87500D01*
Y82145D01*
X105118D01*
Y80709D01*
X113779D01*
Y86221D01*
X110147D01*
X109449Y86359D01*
X87500D01*
Y87047D01*
D02*
G37*
G36*
X199465Y86728D02*
X194634D01*
Y79732D01*
X199465D01*
Y86728D01*
D02*
G37*
G36*
X193634D02*
X188804D01*
Y79732D01*
X193634D01*
Y86728D01*
D02*
G37*
G36*
X133331Y123932D02*
X132553Y123667D01*
X131936Y123124D01*
X127460Y117271D01*
X127339Y117025D01*
X127187Y116797D01*
X127159Y116659D01*
X127097Y116532D01*
X127080Y116259D01*
X127026Y115990D01*
Y77559D01*
X127187Y76753D01*
X127644Y76069D01*
X128401Y75311D01*
X128210Y74849D01*
X113779D01*
Y75197D01*
X105118D01*
Y69685D01*
X113779D01*
Y70033D01*
X116793D01*
X116984Y69570D01*
X116226Y68813D01*
X115770Y68129D01*
X115609Y67323D01*
Y60630D01*
X115770Y59824D01*
X116226Y59140D01*
X116910Y58683D01*
X117717Y58522D01*
X118523Y58683D01*
X119207Y59140D01*
X119664Y59824D01*
X119824Y60630D01*
Y66450D01*
X123407Y70033D01*
X151758D01*
X153248Y68543D01*
X153248Y66963D01*
X153035Y66551D01*
X153035Y66320D01*
Y64378D01*
X155905D01*
Y63878D01*
D01*
Y64378D01*
X158776D01*
Y66551D01*
X158563Y66963D01*
X158563Y67474D01*
X158917Y67828D01*
X165394D01*
Y67421D01*
X175630D01*
Y72933D01*
X165394D01*
Y72645D01*
X155958D01*
X154459Y74144D01*
X153678Y74666D01*
X152756Y74849D01*
X134824D01*
X131241Y78432D01*
Y115277D01*
X135284Y120563D01*
X135646Y121301D01*
X135699Y122122D01*
X135433Y122900D01*
X134890Y123518D01*
X134152Y123880D01*
X133331Y123932D01*
D02*
G37*
G36*
X87713Y76902D02*
X84358D01*
Y73843D01*
X87713D01*
Y76902D01*
D02*
G37*
G36*
X83358D02*
X80004D01*
Y73843D01*
X83358D01*
Y76902D01*
D02*
G37*
G36*
X206693Y124054D02*
X205925Y123901D01*
X205274Y123467D01*
X204839Y122815D01*
X204686Y122047D01*
X204839Y121279D01*
X205087Y120907D01*
Y101181D01*
X205087Y101181D01*
X205209Y100567D01*
X205557Y100046D01*
X217686Y87918D01*
Y76731D01*
X217437Y76359D01*
X217284Y75590D01*
X217437Y74822D01*
X217872Y74171D01*
X218523Y73736D01*
X219291Y73584D01*
X220059Y73736D01*
X220711Y74171D01*
X221146Y74822D01*
X221298Y75590D01*
X221146Y76359D01*
X220897Y76731D01*
Y88583D01*
X220897Y88583D01*
X220775Y89197D01*
X220427Y89718D01*
X208299Y101846D01*
Y120907D01*
X208547Y121279D01*
X208700Y122047D01*
X208547Y122815D01*
X208112Y123467D01*
X207461Y123901D01*
X206693Y124054D01*
D02*
G37*
G36*
X8760Y75339D02*
X7980D01*
Y72547D01*
X11986D01*
X11940Y72899D01*
X11611Y73693D01*
X11088Y74375D01*
X10406Y74898D01*
X9612Y75227D01*
X8760Y75339D01*
D02*
G37*
G36*
X6980D02*
X6201D01*
X5349Y75227D01*
X4555Y74898D01*
X3873Y74375D01*
X3350Y73693D01*
X3021Y72899D01*
X2975Y72547D01*
X6980D01*
Y75339D01*
D02*
G37*
G36*
X23524Y75344D02*
X22941D01*
Y71957D01*
X27345D01*
X27279Y72463D01*
X26890Y73400D01*
X26273Y74206D01*
X25467Y74823D01*
X24530Y75212D01*
X23524Y75344D01*
D02*
G37*
G36*
X21941D02*
X21358D01*
X20352Y75212D01*
X19414Y74823D01*
X18609Y74206D01*
X17991Y73400D01*
X17603Y72463D01*
X17537Y71957D01*
X21941D01*
Y75344D01*
D02*
G37*
G36*
X199465Y78732D02*
X194634D01*
Y71736D01*
X199465D01*
Y78732D01*
D02*
G37*
G36*
X193634D02*
X188804D01*
Y71736D01*
X193634D01*
Y78732D01*
D02*
G37*
G36*
X11986Y71547D02*
X7980D01*
Y68755D01*
X8760D01*
X9612Y68867D01*
X10406Y69196D01*
X11088Y69719D01*
X11611Y70401D01*
X11940Y71195D01*
X11986Y71547D01*
D02*
G37*
G36*
X6980D02*
X2975D01*
X3021Y71195D01*
X3350Y70401D01*
X3873Y69719D01*
X4555Y69196D01*
X5349Y68867D01*
X6201Y68755D01*
X6980D01*
Y71547D01*
D02*
G37*
G36*
X27345Y70957D02*
X22941D01*
Y67569D01*
X23524D01*
X24530Y67702D01*
X25467Y68090D01*
X26273Y68708D01*
X26890Y69513D01*
X27279Y70451D01*
X27345Y70957D01*
D02*
G37*
G36*
X21941D02*
X17537D01*
X17603Y70451D01*
X17991Y69513D01*
X18007Y69493D01*
X17800Y68941D01*
X17385Y68859D01*
X16604Y68337D01*
X16082Y67555D01*
X15899Y66634D01*
X16082Y65712D01*
X16604Y64931D01*
X17385Y64409D01*
X18307Y64225D01*
X19229Y64409D01*
X20010Y64931D01*
X20532Y65712D01*
X20716Y66634D01*
X20610Y67163D01*
X21031Y67612D01*
X21358Y67569D01*
X21941D01*
Y70957D01*
D02*
G37*
G36*
X213622Y66771D02*
X212854Y66618D01*
X212777Y66566D01*
X201575D01*
X201575Y66566D01*
X200960Y66444D01*
X200439Y66096D01*
X200439Y66096D01*
X193823Y59480D01*
X159843Y59480D01*
X159228Y59357D01*
X158707Y59009D01*
X158707Y59009D01*
X149062Y49364D01*
X148713Y48843D01*
X148591Y48228D01*
X148591Y48228D01*
Y41339D01*
X147835D01*
Y34252D01*
X152559D01*
Y41339D01*
X151803D01*
Y47563D01*
X160508Y56268D01*
X194488Y56268D01*
X194488Y56268D01*
X195103Y56391D01*
X195230Y56476D01*
X195549Y56087D01*
X188235Y48773D01*
X187887Y48252D01*
X187764Y47638D01*
X187764Y47638D01*
Y31374D01*
X183018Y26627D01*
X182670Y26107D01*
X182548Y25492D01*
X182548Y25492D01*
Y23031D01*
X179921D01*
Y15551D01*
X188386D01*
Y23031D01*
X185759D01*
Y24827D01*
X190505Y29573D01*
X190505Y29573D01*
X190854Y30094D01*
X190976Y30709D01*
X190976Y30709D01*
Y46973D01*
X201510Y57507D01*
X201949Y57595D01*
X202600Y58030D01*
X203035Y58681D01*
X203188Y59449D01*
X203035Y60217D01*
X202600Y60868D01*
X201949Y61303D01*
X201181Y61456D01*
X201015Y61423D01*
X200768Y61884D01*
X202240Y63355D01*
X212196D01*
X212203Y63345D01*
X212854Y62910D01*
X213622Y62757D01*
X214390Y62910D01*
X215041Y63345D01*
X215476Y63996D01*
X215629Y64764D01*
X215476Y65532D01*
X215041Y66183D01*
X214390Y66618D01*
X213622Y66771D01*
D02*
G37*
G36*
X158776Y63378D02*
X156405D01*
Y61205D01*
X158776D01*
Y63378D01*
D02*
G37*
G36*
X155405D02*
X153035D01*
Y61205D01*
X155405D01*
Y63378D01*
D02*
G37*
G36*
X25951Y53732D02*
X22441D01*
X18931D01*
Y52346D01*
Y52173D01*
X22441D01*
X25951D01*
Y52346D01*
Y53732D01*
D02*
G37*
G36*
Y51173D02*
X22941D01*
Y49787D01*
X25951D01*
Y51173D01*
D02*
G37*
G36*
X21941D02*
X18931D01*
Y49787D01*
X21941D01*
Y51173D01*
D02*
G37*
G36*
X263386Y50826D02*
X243307D01*
X242539Y50673D01*
X241888Y50238D01*
X241453Y49587D01*
X241300Y48819D01*
X241453Y48051D01*
X241888Y47400D01*
X242539Y46965D01*
X243307Y46812D01*
X263386D01*
X264154Y46965D01*
X264805Y47400D01*
X265240Y48051D01*
X265393Y48819D01*
X265240Y49587D01*
X264805Y50238D01*
X264154Y50673D01*
X263386Y50826D01*
D02*
G37*
G36*
X23524Y46014D02*
X22941D01*
Y42626D01*
X27345D01*
X27279Y43132D01*
X26890Y44070D01*
X26273Y44875D01*
X25467Y45493D01*
X24530Y45881D01*
X23524Y46014D01*
D02*
G37*
G36*
X18307Y49357D02*
X17385Y49174D01*
X16604Y48652D01*
X16082Y47870D01*
X15899Y46949D01*
X16082Y46027D01*
X16604Y45246D01*
X17385Y44724D01*
X17800Y44641D01*
X18007Y44090D01*
X17991Y44070D01*
X17603Y43132D01*
X17537Y42626D01*
X21941D01*
Y46014D01*
X21358D01*
X21031Y45970D01*
X20610Y46419D01*
X20716Y46949D01*
X20532Y47870D01*
X20010Y48652D01*
X19229Y49174D01*
X18307Y49357D01*
D02*
G37*
G36*
X8760Y44827D02*
X7980D01*
Y42035D01*
X11986D01*
X11940Y42387D01*
X11611Y43181D01*
X11088Y43863D01*
X10406Y44386D01*
X9612Y44715D01*
X8760Y44827D01*
D02*
G37*
G36*
X6980D02*
X6201D01*
X5349Y44715D01*
X4555Y44386D01*
X3873Y43863D01*
X3350Y43181D01*
X3021Y42387D01*
X2975Y42035D01*
X6980D01*
Y44827D01*
D02*
G37*
G36*
X11986Y41035D02*
X7980D01*
Y38243D01*
X8760D01*
X9612Y38356D01*
X10406Y38684D01*
X11088Y39208D01*
X11611Y39889D01*
X11940Y40683D01*
X11986Y41035D01*
D02*
G37*
G36*
X6980D02*
X2975D01*
X3021Y40683D01*
X3350Y39889D01*
X3873Y39208D01*
X4555Y38684D01*
X5349Y38356D01*
X6201Y38243D01*
X6980D01*
Y41035D01*
D02*
G37*
G36*
X27345Y41626D02*
X22941D01*
Y38238D01*
X23524D01*
X24530Y38371D01*
X25467Y38759D01*
X26273Y39377D01*
X26890Y40182D01*
X27279Y41120D01*
X27345Y41626D01*
D02*
G37*
G36*
X21941D02*
X17537D01*
X17603Y41120D01*
X17991Y40182D01*
X18609Y39377D01*
X19414Y38759D01*
X20352Y38371D01*
X21358Y38238D01*
X21941D01*
Y41626D01*
D02*
G37*
G36*
X377559Y51212D02*
X377559Y51212D01*
X362598D01*
X361984Y51090D01*
X361463Y50742D01*
X361463Y50742D01*
X340597Y29875D01*
X340249Y29355D01*
X340127Y28740D01*
X340127Y28740D01*
Y26575D01*
X339567D01*
Y21457D01*
X343898D01*
Y26575D01*
X343338D01*
Y28075D01*
X363264Y48001D01*
X376894D01*
X384369Y40526D01*
X384449Y40059D01*
X384449D01*
Y36728D01*
X384236D01*
Y35342D01*
X386221D01*
Y34843D01*
D01*
Y35342D01*
X388205D01*
Y36728D01*
X387992D01*
Y40059D01*
X387826D01*
Y40945D01*
X387826Y40945D01*
X387704Y41559D01*
X387356Y42080D01*
X387356Y42080D01*
X378694Y50742D01*
X378173Y51090D01*
X378072Y51110D01*
X377559Y51212D01*
D02*
G37*
G36*
X393701Y38621D02*
X392933Y38469D01*
X392717Y38386D01*
X392717Y38386D01*
X392717Y38386D01*
X389173D01*
Y34843D01*
X392717D01*
X392717Y34843D01*
X392879Y34796D01*
X392933Y34760D01*
X393701Y34607D01*
X394469Y34760D01*
X395120Y35195D01*
X395555Y35846D01*
X395708Y36614D01*
X395555Y37382D01*
X395120Y38033D01*
X394469Y38469D01*
X393701Y38621D01*
D02*
G37*
G36*
X183465Y51613D02*
X182696Y51461D01*
X182045Y51025D01*
X181610Y50374D01*
X181457Y49606D01*
X181610Y48838D01*
X182045Y48187D01*
X182056Y48180D01*
Y41339D01*
X179331D01*
Y34252D01*
X184055D01*
Y37887D01*
X184797Y38628D01*
X185145Y39149D01*
X185267Y39764D01*
X185267Y39764D01*
Y48761D01*
X185319Y48838D01*
X185472Y49606D01*
X185319Y50374D01*
X184884Y51025D01*
X184233Y51461D01*
X183465Y51613D01*
D02*
G37*
G36*
X175197Y45314D02*
X174429Y45161D01*
X173778Y44726D01*
X173343Y44075D01*
X173190Y43307D01*
X173343Y42539D01*
X173591Y42167D01*
Y41339D01*
X172638D01*
Y34252D01*
X177362D01*
Y41339D01*
X176803D01*
Y42167D01*
X177051Y42539D01*
X177204Y43307D01*
X177051Y44075D01*
X176616Y44726D01*
X175965Y45161D01*
X175197Y45314D01*
D02*
G37*
G36*
X157480Y47283D02*
X156712Y47130D01*
X156061Y46695D01*
X155626Y46044D01*
X155473Y45276D01*
X155626Y44508D01*
X155875Y44135D01*
Y41339D01*
X154528D01*
Y34252D01*
X159252D01*
Y41339D01*
X159086D01*
Y44135D01*
X159335Y44508D01*
X159487Y45276D01*
X159335Y46044D01*
X158899Y46695D01*
X158248Y47130D01*
X157480Y47283D01*
D02*
G37*
G36*
X130703Y55944D02*
X129935Y55791D01*
X129284Y55356D01*
X128849Y54705D01*
X128696Y53937D01*
X128849Y53169D01*
X129089Y52809D01*
X129006Y41339D01*
X128150D01*
Y34252D01*
X132874D01*
Y41339D01*
X132572D01*
X132220Y41693D01*
X132300Y52784D01*
X132557Y53169D01*
X132710Y53937D01*
X132557Y54705D01*
X132122Y55356D01*
X131471Y55791D01*
X130703Y55944D01*
D02*
G37*
G36*
X388205Y34343D02*
X386720D01*
Y32957D01*
X388205D01*
Y34343D01*
D02*
G37*
G36*
X385720D02*
X384236D01*
Y32957D01*
X385720D01*
Y34343D01*
D02*
G37*
G36*
X307087Y22479D02*
X306319Y22327D01*
X305946Y22078D01*
X303740D01*
Y22244D01*
X300197D01*
Y18701D01*
X303740D01*
Y18867D01*
X305946D01*
X306319Y18618D01*
X307087Y18465D01*
X307855Y18618D01*
X308506Y19053D01*
X308941Y19704D01*
X309094Y20472D01*
X308941Y21240D01*
X308506Y21892D01*
X307855Y22327D01*
X307087Y22479D01*
D02*
G37*
G36*
X305512Y90196D02*
X304744Y90043D01*
X304093Y89608D01*
X303658Y88957D01*
X303505Y88189D01*
X303658Y87421D01*
X304093Y86770D01*
X304744Y86335D01*
X304972Y86289D01*
X320835Y66368D01*
Y31102D01*
X320835Y31102D01*
X320957Y30488D01*
X321306Y29967D01*
X327980Y23293D01*
X328067Y22854D01*
X328502Y22203D01*
X329153Y21768D01*
X329921Y21615D01*
X330689Y21768D01*
X331341Y22203D01*
X331776Y22854D01*
X331928Y23622D01*
X331776Y24390D01*
X331341Y25041D01*
X330689Y25476D01*
X330250Y25564D01*
X324047Y31767D01*
Y66929D01*
X324003Y67149D01*
X323984Y67373D01*
X323942Y67454D01*
X323924Y67544D01*
X323800Y67730D01*
X323697Y67929D01*
X307504Y88265D01*
X307366Y88957D01*
X306931Y89608D01*
X306280Y90043D01*
X305512Y90196D01*
D02*
G37*
G36*
X272047Y43732D02*
X272047Y43732D01*
X248819D01*
X248204Y43609D01*
X247684Y43261D01*
X247684Y43261D01*
X235873Y31450D01*
X235524Y30929D01*
X235402Y30315D01*
X235402Y30315D01*
Y26575D01*
X234842D01*
Y21457D01*
X239173D01*
Y26575D01*
X238614D01*
Y29650D01*
X249484Y40520D01*
X271382D01*
X290794Y21109D01*
X290794Y21109D01*
X291315Y20761D01*
X291929Y20638D01*
X291929Y20638D01*
X294781D01*
X295260Y20587D01*
Y19201D01*
X297244D01*
X299228D01*
Y20587D01*
X299016D01*
Y23917D01*
X295472D01*
Y23850D01*
X292594D01*
X273183Y43261D01*
X272662Y43609D01*
X272560Y43630D01*
X272047Y43732D01*
D02*
G37*
G36*
X220866Y56731D02*
X220098Y56579D01*
X219447Y56144D01*
X219012Y55493D01*
X218859Y54724D01*
X219012Y53956D01*
X219261Y53584D01*
Y20825D01*
X219012Y20453D01*
X218859Y19685D01*
X219012Y18917D01*
X219447Y18266D01*
X220098Y17831D01*
X220866Y17678D01*
X221634Y17831D01*
X222285Y18266D01*
X222720Y18917D01*
X222873Y19685D01*
X222720Y20453D01*
X222472Y20825D01*
Y53584D01*
X222720Y53956D01*
X222873Y54724D01*
X222720Y55493D01*
X222285Y56144D01*
X221634Y56579D01*
X220866Y56731D01*
D02*
G37*
G36*
X299228Y18201D02*
X297744D01*
Y16815D01*
X299228D01*
Y18201D01*
D02*
G37*
G36*
X296744D02*
X295260D01*
Y16815D01*
X296744D01*
Y18201D01*
D02*
G37*
G36*
X239386Y18520D02*
X237508D01*
Y16248D01*
X239386D01*
Y18520D01*
D02*
G37*
G36*
X236508D02*
X234630D01*
Y16248D01*
X236508D01*
Y18520D01*
D02*
G37*
G36*
X273047Y19228D02*
X269791D01*
Y15972D01*
X273047D01*
Y19228D01*
D02*
G37*
G36*
X379346D02*
X376091D01*
Y15972D01*
X379346D01*
Y19228D01*
D02*
G37*
G36*
X375091D02*
X371835D01*
Y15972D01*
X375091D01*
Y19228D01*
D02*
G37*
G36*
X268791D02*
X265535D01*
Y15972D01*
X268791D01*
Y19228D01*
D02*
G37*
G36*
X344110Y18126D02*
X342232D01*
Y15854D01*
X344110D01*
Y18126D01*
D02*
G37*
G36*
X341232D02*
X339354D01*
Y15854D01*
X341232D01*
Y18126D01*
D02*
G37*
G36*
X164961Y41771D02*
X164193Y41618D01*
X163541Y41183D01*
X163106Y40532D01*
X162954Y39764D01*
X163106Y38996D01*
X163355Y38624D01*
Y32161D01*
X155754Y24561D01*
X155406Y24040D01*
X155284Y23425D01*
X155284Y23425D01*
Y22835D01*
X154528D01*
Y15748D01*
X159252D01*
Y22835D01*
X159223D01*
X159032Y23297D01*
X166096Y30361D01*
X166444Y30882D01*
X166566Y31496D01*
X166566Y31496D01*
Y38624D01*
X166815Y38996D01*
X166968Y39764D01*
X166815Y40532D01*
X166380Y41183D01*
X165729Y41618D01*
X164961Y41771D01*
D02*
G37*
G36*
X139567Y41339D02*
X134843D01*
Y34252D01*
X135097D01*
Y22835D01*
X134843D01*
Y15748D01*
X139567D01*
Y22835D01*
X139312D01*
Y26287D01*
X139409Y26772D01*
X139312Y27257D01*
Y34252D01*
X139567D01*
Y41339D01*
D02*
G37*
G36*
X124016Y45314D02*
X123248Y45161D01*
X122597Y44726D01*
X122161Y44075D01*
X122009Y43307D01*
X122161Y42539D01*
X122410Y42167D01*
Y21654D01*
X122410Y21654D01*
X122532Y21039D01*
X122880Y20518D01*
X125243Y18156D01*
X125243Y18156D01*
X125763Y17808D01*
X126378Y17686D01*
X126378Y17686D01*
X128150D01*
Y15748D01*
X132874D01*
Y22835D01*
X128150D01*
Y20897D01*
X127043D01*
X125621Y22319D01*
Y42167D01*
X125870Y42539D01*
X126023Y43307D01*
X125870Y44075D01*
X125435Y44726D01*
X124784Y45161D01*
X124016Y45314D01*
D02*
G37*
G36*
X170472Y29369D02*
X169704Y29217D01*
X169053Y28781D01*
X168618Y28130D01*
X168465Y27362D01*
X168618Y26594D01*
X168666Y26522D01*
Y23031D01*
X167520D01*
Y15551D01*
X175984D01*
Y23031D01*
X172279D01*
Y26522D01*
X172327Y26594D01*
X172479Y27362D01*
X172327Y28130D01*
X171892Y28781D01*
X171240Y29217D01*
X170472Y29369D01*
D02*
G37*
G36*
X239386Y15248D02*
X237508D01*
Y12976D01*
X239386D01*
Y15248D01*
D02*
G37*
G36*
X236508D02*
X234630D01*
Y12976D01*
X236508D01*
Y15248D01*
D02*
G37*
G36*
X344110Y14854D02*
X342232D01*
Y12583D01*
X344110D01*
Y14854D01*
D02*
G37*
G36*
X341232D02*
X339354D01*
Y12583D01*
X341232D01*
Y14854D01*
D02*
G37*
G36*
X367717Y38621D02*
X366949Y38469D01*
X366297Y38033D01*
X365862Y37382D01*
X365709Y36614D01*
Y18399D01*
X365189Y18000D01*
X364621Y17259D01*
X364264Y16397D01*
X364143Y15472D01*
X364264Y14548D01*
X364621Y13686D01*
X365189Y12945D01*
X365930Y12377D01*
X366792Y12020D01*
X367717Y11899D01*
X368641Y12020D01*
X369503Y12377D01*
X370244Y12945D01*
X370812Y13686D01*
X371169Y14548D01*
X371290Y15472D01*
X371169Y16397D01*
X370812Y17259D01*
X370244Y18000D01*
X369724Y18399D01*
Y36614D01*
X369571Y37382D01*
X369136Y38033D01*
X368485Y38469D01*
X367717Y38621D01*
D02*
G37*
G36*
X349410Y26575D02*
X345079D01*
Y21457D01*
X345638D01*
Y17913D01*
X345079D01*
Y12795D01*
X349409D01*
Y13749D01*
X356721D01*
X356748Y13686D01*
X357315Y12945D01*
X358056Y12377D01*
X358917Y12020D01*
X359842Y11899D01*
X360768Y12020D01*
X361629Y12377D01*
X362370Y12945D01*
X362938Y13686D01*
X363295Y14548D01*
X363416Y15472D01*
X363295Y16397D01*
X362938Y17259D01*
X362370Y18000D01*
X361629Y18567D01*
X360768Y18925D01*
X359842Y19046D01*
X358917Y18925D01*
X358056Y18567D01*
X357315Y18000D01*
X356748Y17259D01*
X356623Y16960D01*
X349409D01*
Y17913D01*
X348850D01*
Y21457D01*
X349410D01*
Y26575D01*
D02*
G37*
G36*
X261417Y36653D02*
X260649Y36500D01*
X259998Y36065D01*
X259563Y35414D01*
X259410Y34646D01*
Y18399D01*
X258890Y18000D01*
X258322Y17259D01*
X257965Y16397D01*
X257843Y15472D01*
X257965Y14548D01*
X258322Y13686D01*
X258890Y12945D01*
X259630Y12377D01*
X260492Y12020D01*
X261417Y11899D01*
X262342Y12020D01*
X263204Y12377D01*
X263944Y12945D01*
X264512Y13686D01*
X264869Y14548D01*
X264991Y15472D01*
X264869Y16397D01*
X264512Y17259D01*
X263944Y18000D01*
X263424Y18399D01*
Y34646D01*
X263272Y35414D01*
X262837Y36065D01*
X262185Y36500D01*
X261417Y36653D01*
D02*
G37*
G36*
X244685Y26575D02*
X240354D01*
Y21457D01*
X240914D01*
Y18307D01*
X240354D01*
Y13189D01*
X244685D01*
Y14142D01*
X250259D01*
X250448Y13686D01*
X251016Y12945D01*
X251756Y12377D01*
X252618Y12020D01*
X253543Y11899D01*
X254468Y12020D01*
X255330Y12377D01*
X256070Y12945D01*
X256638Y13686D01*
X256995Y14548D01*
X257117Y15472D01*
X256995Y16397D01*
X256638Y17259D01*
X256070Y18000D01*
X255330Y18567D01*
X254468Y18925D01*
X253543Y19046D01*
X252618Y18925D01*
X251756Y18567D01*
X251016Y18000D01*
X250521Y17354D01*
X244685D01*
Y18307D01*
X244125D01*
Y21457D01*
X244685D01*
Y26575D01*
D02*
G37*
G36*
X379346Y14972D02*
X376091D01*
Y11716D01*
X379346D01*
Y14972D01*
D02*
G37*
G36*
X375091D02*
X371835D01*
Y11716D01*
X375091D01*
Y14972D01*
D02*
G37*
G36*
X273047D02*
X269791D01*
Y11716D01*
X273047D01*
Y14972D01*
D02*
G37*
G36*
X268791D02*
X265535D01*
Y11716D01*
X268791D01*
Y14972D01*
D02*
G37*
G36*
X152559Y22835D02*
X147835D01*
Y15748D01*
X148394D01*
Y14132D01*
X148146Y13760D01*
X147993Y12992D01*
X148146Y12224D01*
X148581Y11573D01*
X149232Y11138D01*
X150000Y10985D01*
X150768Y11138D01*
X151419Y11573D01*
X151854Y12224D01*
X152007Y12992D01*
X151854Y13760D01*
X151606Y14132D01*
Y15748D01*
X152559D01*
Y22835D01*
D02*
G37*
G36*
X400394Y22080D02*
X399082Y21950D01*
X397820Y21568D01*
X396657Y20946D01*
X395638Y20110D01*
X394802Y19091D01*
X394180Y17928D01*
X393798Y16666D01*
X393668Y15354D01*
X393798Y14042D01*
X394180Y12781D01*
X394802Y11618D01*
X395638Y10599D01*
X396657Y9763D01*
X397820Y9141D01*
X399082Y8758D01*
X400394Y8629D01*
X401706Y8758D01*
X402967Y9141D01*
X404130Y9763D01*
X405149Y10599D01*
X405986Y11618D01*
X406607Y12781D01*
X406990Y14042D01*
X407119Y15354D01*
X406990Y16666D01*
X406607Y17928D01*
X405986Y19091D01*
X405149Y20110D01*
X404130Y20946D01*
X402967Y21568D01*
X401706Y21950D01*
X400394Y22080D01*
D02*
G37*
G36*
X16142Y21686D02*
X14830Y21557D01*
X13568Y21174D01*
X12405Y20552D01*
X11386Y19716D01*
X10550Y18697D01*
X9928Y17534D01*
X9546Y16273D01*
X9416Y14961D01*
X9546Y13649D01*
X9928Y12387D01*
X10550Y11224D01*
X11386Y10205D01*
X12405Y9369D01*
X13568Y8747D01*
X14830Y8365D01*
X16142Y8235D01*
X17454Y8365D01*
X18715Y8747D01*
X19878Y9369D01*
X20897Y10205D01*
X21734Y11224D01*
X22355Y12387D01*
X22738Y13649D01*
X22867Y14961D01*
X22738Y16273D01*
X22355Y17534D01*
X21734Y18697D01*
X20897Y19716D01*
X19878Y20552D01*
X18715Y21174D01*
X17454Y21557D01*
X16142Y21686D01*
D02*
G37*
%LPD*%
D14*
X56299Y212598D02*
Y276378D01*
X243307Y48819D02*
X263386D01*
X210741Y76286D02*
X216929Y69685D01*
X210741Y76286D02*
X211110Y87703D01*
X193664Y106313D02*
X211110Y87703D01*
X181406Y106709D02*
X193664Y106313D01*
X175197Y102362D02*
X181406Y106709D01*
X140394Y147480D02*
Y157874D01*
X178347Y81890D02*
Y99213D01*
X176772Y80315D02*
X178347Y81890D01*
X175984Y79528D02*
X176772Y80315D01*
X175591Y79528D02*
X175984D01*
X209055Y244882D02*
X237008D01*
X190157D02*
X209055D01*
X203937Y239764D02*
X209055Y244882D01*
X203937Y223622D02*
Y239764D01*
X190157Y209842D02*
X203937Y223622D01*
X166929Y209842D02*
X190157D01*
X160335Y203248D02*
X166929Y209842D01*
X160335Y200000D02*
Y203248D01*
X293701Y166535D02*
Y174016D01*
X293307Y135433D02*
Y143307D01*
X293307Y96063D02*
X314173Y116929D01*
X381102Y116929D01*
X401181Y137008D01*
Y144095D01*
X400787Y174016D02*
X401181Y144095D01*
X292913Y47638D02*
Y105905D01*
X292126Y46850D02*
X292913Y47638D01*
X351575Y272835D02*
X367323Y288583D01*
X261417Y15472D02*
Y34646D01*
X367717Y15472D02*
Y36614D01*
X140945Y72441D02*
X140945Y72441D01*
X10039Y128937D02*
X36811D01*
X59055Y279134D02*
X81496D01*
X56299Y276378D02*
X59055Y279134D01*
X51772Y166732D02*
Y208071D01*
X56299Y212598D01*
X82677Y101969D02*
X105905D01*
X61024Y156693D02*
X79232D01*
X44094Y139764D02*
X61024Y156693D01*
X155905Y105512D02*
X172047D01*
X178347Y99213D01*
X193701Y244488D02*
X196457Y241732D01*
Y239370D02*
Y241732D01*
X194095Y237008D02*
X196457Y239370D01*
X183858Y237008D02*
X194095D01*
X183858Y244882D02*
X190157D01*
X40157Y62205D02*
X46457D01*
X36811Y128937D02*
X44094Y136221D01*
X133465Y140551D02*
X140394Y147480D01*
X44094Y136221D02*
Y139764D01*
X304724Y272835D02*
X351575D01*
X367323Y288583D02*
Y300669D01*
X255118Y275590D02*
Y290158D01*
X261024Y296063D01*
Y300669D01*
X156299Y233071D02*
Y240158D01*
X149606Y226378D02*
X156299Y233071D01*
X141732Y226378D02*
X149606D01*
X137008Y231102D02*
X141732Y226378D01*
X137008Y231102D02*
Y253150D01*
X129528Y260630D02*
X137008Y253150D01*
X114961Y260630D02*
X129528D01*
X75197Y219403D02*
X81761Y212840D01*
X93512Y211702D01*
X105118Y221260D01*
X90847Y221654D02*
X104724D01*
D19*
X330315Y293110D02*
D03*
Y296654D02*
D03*
X226772D02*
D03*
Y293110D02*
D03*
X297244Y22244D02*
D03*
Y18701D02*
D03*
X386221Y34843D02*
D03*
Y38386D02*
D03*
D20*
X325590Y294882D02*
D03*
X222047D02*
D03*
X301969Y20472D02*
D03*
X390945Y36614D02*
D03*
D21*
X400787Y174016D02*
D03*
X395276D02*
D03*
X401181Y144095D02*
D03*
X395669D02*
D03*
X293307Y143307D02*
D03*
X287795D02*
D03*
X293701Y174016D02*
D03*
X288189D02*
D03*
X87008Y279134D02*
D03*
X81496D02*
D03*
X178347Y244882D02*
D03*
X183858D02*
D03*
X172835Y155512D02*
D03*
X167323D02*
D03*
X172835Y165354D02*
D03*
X167323D02*
D03*
X84646Y260630D02*
D03*
X90158D02*
D03*
X183858Y237008D02*
D03*
X178347D02*
D03*
X178740Y228346D02*
D03*
X184252D02*
D03*
X167717Y137008D02*
D03*
X173228D02*
D03*
X380315Y292913D02*
D03*
X385827D02*
D03*
X167323Y146063D02*
D03*
X172835D02*
D03*
X279134Y300394D02*
D03*
X284646D02*
D03*
X167717Y128740D02*
D03*
X173228D02*
D03*
X173622Y120079D02*
D03*
X168110D02*
D03*
X242520Y15748D02*
D03*
X237008D02*
D03*
X347244Y15354D02*
D03*
X341732D02*
D03*
X385827Y285039D02*
D03*
X380315D02*
D03*
X237008Y24016D02*
D03*
X242520D02*
D03*
X341732D02*
D03*
X347244D02*
D03*
X284646Y292126D02*
D03*
X279134D02*
D03*
D22*
X140650Y131496D02*
D03*
X145965D02*
D03*
X84547Y156693D02*
D03*
X79232D02*
D03*
X165650Y200000D02*
D03*
X160335D02*
D03*
X85532Y221654D02*
D03*
X90847D02*
D03*
X140354Y148425D02*
D03*
X145669D02*
D03*
D23*
X194134Y79232D02*
D03*
D24*
X170512Y70177D02*
D03*
Y79232D02*
D03*
Y88288D02*
D03*
D25*
X22441Y54232D02*
D03*
Y56791D02*
D03*
Y59350D02*
D03*
Y51673D02*
D03*
Y61909D02*
D03*
D26*
X154331Y215354D02*
D03*
X146457D02*
D03*
X138583D02*
D03*
X130709D02*
D03*
X122835D02*
D03*
X114961D02*
D03*
D27*
X164173Y276378D02*
D03*
Y268504D02*
D03*
Y260630D02*
D03*
Y252756D02*
D03*
Y244882D02*
D03*
Y237008D02*
D03*
Y229134D02*
D03*
Y221260D02*
D03*
X105118D02*
D03*
Y229134D02*
D03*
Y237008D02*
D03*
Y244882D02*
D03*
Y252756D02*
D03*
Y260630D02*
D03*
Y268504D02*
D03*
Y276378D02*
D03*
D28*
X125787Y125886D02*
D03*
Y128445D02*
D03*
Y131004D02*
D03*
Y133563D02*
D03*
Y136122D02*
D03*
Y138681D02*
D03*
Y141240D02*
D03*
Y143799D02*
D03*
Y146358D02*
D03*
Y148917D02*
D03*
Y151476D02*
D03*
Y154035D02*
D03*
Y156595D02*
D03*
Y159153D02*
D03*
X98622Y125886D02*
D03*
Y128445D02*
D03*
Y131004D02*
D03*
Y133563D02*
D03*
Y136122D02*
D03*
Y138681D02*
D03*
Y141240D02*
D03*
Y143799D02*
D03*
Y146358D02*
D03*
Y148917D02*
D03*
Y151476D02*
D03*
Y154035D02*
D03*
Y156595D02*
D03*
Y159153D02*
D03*
D29*
X175000Y37795D02*
D03*
X181693D02*
D03*
X156890Y19291D02*
D03*
X150197D02*
D03*
Y37795D02*
D03*
X156890D02*
D03*
X130512D02*
D03*
X137205D02*
D03*
Y19291D02*
D03*
X130512D02*
D03*
D30*
X154528Y177362D02*
D03*
Y179921D02*
D03*
Y182480D02*
D03*
Y185039D02*
D03*
Y187598D02*
D03*
Y190157D02*
D03*
Y192717D02*
D03*
X132087Y177362D02*
D03*
Y179921D02*
D03*
Y182480D02*
D03*
Y185039D02*
D03*
Y187598D02*
D03*
Y190157D02*
D03*
Y192717D02*
D03*
D31*
X331299Y136614D02*
D03*
X336417Y138583D02*
D03*
Y134646D02*
D03*
X227756Y134252D02*
D03*
X232874Y136221D02*
D03*
Y132283D02*
D03*
X226575Y190157D02*
D03*
X231693Y192126D02*
D03*
Y188189D02*
D03*
X330906Y185433D02*
D03*
X336024Y187402D02*
D03*
Y183465D02*
D03*
D32*
X184153Y19291D02*
D03*
X171752D02*
D03*
D33*
X155905Y69193D02*
D03*
Y63878D02*
D03*
D34*
X83858Y77402D02*
D03*
Y83701D02*
D03*
X156299Y85827D02*
D03*
Y79528D02*
D03*
D35*
X146850Y157874D02*
D03*
X140551D02*
D03*
D36*
X109449Y72441D02*
D03*
Y83465D02*
D03*
D64*
X400394Y15354D02*
D03*
Y299606D02*
D03*
X16142D02*
D03*
Y14961D02*
D03*
D65*
X163779Y155905D02*
X167323D01*
X52165Y100591D02*
X82677Y131102D01*
X35630Y100591D02*
X52165D01*
X105118Y276378D02*
X106299D01*
X94488D02*
X105118D01*
X92520Y278346D02*
X94488Y276378D01*
X72835Y204724D02*
X75590Y201969D01*
X68110Y216142D02*
X77953Y206299D01*
X161811Y157874D02*
X163779Y155905D01*
X164567Y165354D02*
X167323D01*
X161811Y162598D02*
X164567Y165354D01*
X161811Y160236D02*
Y162598D01*
Y157874D02*
Y160236D01*
Y141437D02*
Y144095D01*
Y138779D02*
Y141437D01*
Y138779D02*
X163583Y137008D01*
X167717D01*
X161811Y144095D02*
X163779Y146063D01*
X167323D01*
X160335Y196161D02*
Y200000D01*
X95669Y107874D02*
Y111024D01*
X58268Y183858D02*
X66535D01*
X91732Y279134D02*
X92520Y278346D01*
X87008Y279134D02*
X91732D01*
X109449Y206299D02*
X116535Y199213D01*
X77953Y206299D02*
X109449D01*
X106693Y201969D02*
X112992Y195669D01*
X75590Y201969D02*
X106693D01*
X68110Y216142D02*
Y259842D01*
X170472Y20079D02*
Y27362D01*
X68110Y259842D02*
X76772Y268504D01*
X122835D02*
X164173D01*
X124803Y276378D02*
X164173D01*
X74016Y229134D02*
X105118D01*
X80709Y237008D02*
X105118D01*
X79528Y244882D02*
X105118D01*
X79134Y252756D02*
X105118D01*
X76772Y268504D02*
X105118D01*
X171260Y244882D02*
X178347D01*
X164173Y229134D02*
X177953D01*
X164173Y237008D02*
X178347D01*
X164173Y244882D02*
X171260D01*
X112205Y141339D02*
Y150787D01*
X111516Y151476D02*
X112205Y150787D01*
X226772Y293110D02*
X230906D01*
X265905Y182677D02*
X283858D01*
X374016D02*
X383858D01*
X392520Y174016D01*
X395276D01*
D66*
X170511Y79151D02*
X171653Y79134D01*
X156297Y79359D02*
X170511Y79151D01*
X155512Y79370D02*
X156297Y79359D01*
X175295Y79232D02*
X175591Y79528D01*
X170512Y79232D02*
X175295D01*
X79528Y260630D02*
X84646D01*
X90158D02*
X105118D01*
X10039Y100591D02*
X35630D01*
D67*
X154961Y70236D02*
X170512D01*
X68110Y83858D02*
X83858D01*
X46457Y62205D02*
X68110Y83858D01*
X140945Y72441D02*
X152756D01*
X109449D02*
X140945D01*
X152756D02*
X154961Y70236D01*
X82441Y83701D02*
X83858D01*
D68*
X137205Y19291D02*
Y37795D01*
X83858Y84252D02*
X109449D01*
X117717Y67323D02*
X122047Y71653D01*
X117717Y60630D02*
Y67323D01*
X129134Y77559D02*
X133858Y72835D01*
X129134Y115990D02*
X133610Y121844D01*
X129134Y77559D02*
Y115990D01*
D69*
X22441Y62205D02*
X40157D01*
X291929Y22244D02*
X297244D01*
X375591Y270472D02*
Y300669D01*
X380039Y285709D02*
Y299095D01*
X378465Y300669D02*
X380039Y299095D01*
X170472Y20079D02*
X171506Y19045D01*
X377559Y49606D02*
X386221Y40945D01*
X45472Y266339D02*
Y286614D01*
X50787Y293150D02*
X58819Y301181D01*
X50787Y262205D02*
Y293150D01*
X216535Y294882D02*
X222047D01*
X278858Y292402D02*
Y300669D01*
X375591D02*
X378465D01*
X375197D02*
X375591D01*
X341732Y24016D02*
Y28740D01*
X322441Y31102D02*
X329921Y23622D01*
X386221Y38386D02*
Y40945D01*
X150000Y12992D02*
Y19685D01*
X220866D02*
Y54724D01*
X301969Y20472D02*
X307087D01*
X237008Y30315D02*
X248819Y42126D01*
X237008Y24016D02*
Y30315D01*
Y23622D02*
Y24016D01*
X248819Y42126D02*
X272047D01*
X291929Y22244D01*
X341732Y28740D02*
X362598Y49606D01*
X377559D01*
X159843Y191339D02*
X164961D01*
X335827Y183661D02*
X340748D01*
X164961Y191339D02*
X172047Y198425D01*
X279134Y198425D02*
X281102Y196457D01*
X172047Y198425D02*
X279134Y198425D01*
X281102Y196457D02*
X298819D01*
X314567D02*
X341732D01*
X344094Y194095D01*
Y187008D02*
Y194095D01*
X340748Y183661D02*
X344094Y187008D01*
X231496Y188386D02*
X236811D01*
X132087Y182480D02*
X137598D01*
X141339Y178740D01*
Y178347D02*
Y178740D01*
X203543Y175197D02*
X207480D01*
X218110Y164567D01*
X232283Y174409D02*
X238976Y181102D01*
Y186221D01*
X336221Y134843D02*
X341535D01*
X218504Y151575D02*
X220472D01*
X188583Y181496D02*
X218504Y151575D01*
X182677Y181496D02*
X188583D01*
X219291Y75590D02*
Y88583D01*
X206693Y101181D02*
X219291Y88583D01*
X206693Y101181D02*
Y122047D01*
X202756Y188976D02*
X234646Y157087D01*
X304331D01*
X206693Y192520D02*
X237008Y162205D01*
X173622Y192520D02*
X206693D01*
X237008Y162205D02*
X301181Y162205D01*
X118504Y178347D02*
X125197D01*
X109449D02*
X118504D01*
X232677Y132480D02*
X237598D01*
X118504Y178347D02*
X124409Y172441D01*
X191339Y172441D02*
X218504Y145276D01*
X124409Y172441D02*
X191339Y172441D01*
X218504Y145276D02*
X237795D01*
X282283Y151575D02*
X340945D01*
X374016Y140945D02*
X377165Y144095D01*
X395669D01*
X266024Y141339D02*
X274016D01*
X275984Y143307D01*
X143307Y113740D02*
X149646Y120079D01*
X143307Y83071D02*
Y113740D01*
X149646Y120079D02*
X164173D01*
X149606Y116142D02*
X173228D01*
X173622Y115748D01*
X201575Y64961D02*
X213032D01*
X194488Y57874D02*
X201575Y64961D01*
X116535Y188189D02*
Y199213D01*
X112992Y185433D02*
Y195669D01*
X109449Y183465D02*
Y191339D01*
X103937Y196850D02*
X109449Y191339D01*
X72835Y196850D02*
X103937D01*
X105512Y182283D02*
Y187795D01*
X100787Y192520D02*
X105512Y187795D01*
X75197Y192520D02*
X100787D01*
X75197Y192520D02*
X75197Y192520D01*
X101575Y180709D02*
X101575Y183858D01*
X98425Y187008D02*
X101575Y183858D01*
X71260Y187008D02*
X98425D01*
X125197Y178347D02*
X126772Y179921D01*
X105512Y182283D02*
X109449Y178347D01*
X112992Y185433D02*
X115945Y182480D01*
X142126Y183071D02*
Y187402D01*
X139370Y190157D02*
X142126Y187402D01*
X25603Y59252D02*
X26587Y58268D01*
X43701D01*
X22539Y59252D02*
X25603D01*
X22441Y59350D02*
X22539Y59252D01*
X130586Y37795D02*
X130703Y53937D01*
X161811Y112205D02*
X174803D01*
X124016Y21654D02*
Y43307D01*
X213425Y64567D02*
X213622Y64764D01*
X175591Y165354D02*
X179528Y161417D01*
X172835Y165354D02*
X175591D01*
X164961Y31496D02*
Y39764D01*
X156890Y23425D02*
X164961Y31496D01*
X156890Y19291D02*
Y23425D01*
X175197Y37992D02*
Y43307D01*
X175000Y37795D02*
X175197Y37992D01*
X156890Y37795D02*
X157480Y38386D01*
Y45276D01*
X189370Y47638D02*
X201181Y59449D01*
X201181D02*
X201181D01*
X182283Y155512D02*
X190551Y147244D01*
X172835Y155512D02*
X182283D01*
X189370Y30709D02*
Y47638D01*
X184153Y25492D02*
X189370Y30709D01*
X184153Y19291D02*
Y25492D01*
X174803Y112205D02*
X180709Y118110D01*
X173622Y115748D02*
Y120079D01*
X179134Y128740D02*
X180709Y127165D01*
Y118110D02*
Y127165D01*
X173622Y128740D02*
X179134D01*
X124016Y21654D02*
X126378Y19291D01*
X130512D01*
X124016Y228346D02*
Y251673D01*
X122047Y193701D02*
Y198425D01*
X301181Y162205D02*
X308661Y169685D01*
Y203543D01*
X375590Y270472D01*
X150197Y37795D02*
Y48228D01*
X159843Y57874D01*
X181693Y37795D02*
X183661Y39764D01*
X66535Y183858D02*
X91240Y159153D01*
X159843Y57874D02*
X194488Y57874D01*
X142126Y183071D02*
X145276Y179921D01*
X305512Y88189D02*
X322441Y66929D01*
Y31102D02*
Y66929D01*
X329921Y23622D02*
Y23622D01*
X199213Y268898D02*
X261024D01*
X269291Y277165D01*
X268898D02*
Y300669D01*
X155512Y130709D02*
X162992D01*
X164961Y128740D01*
X167717D01*
X164567Y120079D02*
X168110D01*
X112205Y141339D02*
X114862Y138681D01*
X390945Y36614D02*
X393701D01*
X347244Y15354D02*
Y24016D01*
X347244Y15354D02*
X359724D01*
X242520Y15748D02*
Y24016D01*
Y15748D02*
X253268D01*
X172835Y146063D02*
X180315D01*
X284646Y286614D02*
Y292126D01*
X268898Y300669D02*
X278858D01*
X183661Y39764D02*
Y49409D01*
X173228Y137008D02*
X182283D01*
X321654Y294882D02*
X325590D01*
X330315Y293110D02*
X334842D01*
X385827Y279134D02*
Y285039D01*
X340945Y151575D02*
X346457Y146063D01*
Y139764D02*
Y146063D01*
X341535Y134843D02*
X346457Y139764D01*
X328740Y136614D02*
X331496D01*
X237795Y145276D02*
X240551Y142520D01*
Y135433D02*
Y142520D01*
X237598Y132480D02*
X240551Y135433D01*
X223622Y134252D02*
X227953D01*
X275984Y143307D02*
X287795D01*
X236811Y188386D02*
X238976Y186221D01*
X223622Y190157D02*
X226772D01*
X283858Y182677D02*
X288189Y178347D01*
Y174016D02*
Y178347D01*
X331102Y185433D02*
Y190945D01*
D70*
X74213Y148917D02*
X98622D01*
X116929Y143701D02*
X125689D01*
X125787Y143799D01*
X113091Y128445D02*
X125787D01*
X116437Y125886D02*
X125787D01*
X131595Y138681D02*
X133465Y140551D01*
X125787Y138681D02*
X131595D01*
X125787Y131004D02*
X140650D01*
X98622Y151476D02*
X111516D01*
X91240Y159153D02*
X98622D01*
X125787Y146358D02*
X132382D01*
X114862Y138681D02*
X125787D01*
X83720Y156595D02*
X98622D01*
D71*
X163133Y185276D02*
X166834Y188976D01*
X154764Y185276D02*
X163133D01*
X166834Y188976D02*
X202756D01*
X154528Y185039D02*
X154764Y185276D01*
X154528Y190157D02*
X159055D01*
X154528Y192717D02*
X156890D01*
X154528Y177362D02*
X164173D01*
X161614Y187598D02*
X162598Y188583D01*
X154528Y187598D02*
X161614D01*
X159055Y190157D02*
X159843Y190945D01*
X126772Y179921D02*
X132087D01*
X115945Y182480D02*
X132087D01*
Y190157D02*
X139370D01*
X122047Y188976D02*
Y193701D01*
Y188976D02*
X125984Y185039D01*
X132087D01*
X126181Y192717D02*
X132087D01*
X128937Y187598D02*
X132087D01*
X127953Y188583D02*
X128937Y187598D01*
X127953Y188583D02*
Y189370D01*
X128740Y190157D01*
X132087D01*
X154528Y182480D02*
X158071D01*
X159055Y181496D01*
Y180709D02*
Y181496D01*
X158268Y179921D02*
X159055Y180709D01*
X154528Y179921D02*
X158268D01*
X145276D02*
X154528D01*
D72*
X156890Y192717D02*
X160335Y196161D01*
X95669Y111024D02*
X113091Y128445D01*
X104331Y113779D02*
X116437Y125886D01*
X104331Y111811D02*
Y113779D01*
D73*
X15846Y56791D02*
X22441D01*
D74*
X68819Y301102D02*
D03*
X58819Y301181D02*
D03*
X48819D02*
D03*
D75*
X18307Y46949D02*
D03*
Y66634D02*
D03*
D76*
X7480Y41535D02*
D03*
Y72047D02*
D03*
D77*
X22441Y42126D02*
D03*
Y71457D02*
D03*
D78*
X364016Y182677D02*
D03*
X374016D02*
D03*
X255906D02*
D03*
X265905D02*
D03*
X266024Y141339D02*
D03*
X256024D02*
D03*
X374016Y140945D02*
D03*
X364016D02*
D03*
D79*
X35630Y118307D02*
D03*
Y100591D02*
D03*
X10039D02*
D03*
Y118307D02*
D03*
Y146653D02*
D03*
Y128937D02*
D03*
X35630D02*
D03*
Y146653D02*
D03*
D80*
X359449Y300669D02*
D03*
X253150D02*
D03*
X269291Y15472D02*
D03*
X375591D02*
D03*
D81*
X367323Y300669D02*
D03*
X375197D02*
D03*
X261024D02*
D03*
X268898D02*
D03*
X261417Y15472D02*
D03*
X253543D02*
D03*
X367717D02*
D03*
X359842D02*
D03*
D82*
X263386Y48819D02*
D03*
X243307D02*
D03*
X216929Y69685D02*
D03*
X117717Y60630D02*
D03*
X45472Y286614D02*
D03*
Y266339D02*
D03*
X50787Y262205D02*
D03*
X216535Y294882D02*
D03*
X293701Y166535D02*
D03*
X293307Y135433D02*
D03*
X292913Y105905D02*
D03*
X261417Y34646D02*
D03*
X220866Y19685D02*
D03*
X307087Y20472D02*
D03*
X298819Y196457D02*
D03*
X314567D02*
D03*
X141339Y178347D02*
D03*
X203543Y175197D02*
D03*
X218110Y164567D02*
D03*
X232283Y174409D02*
D03*
X219291Y75590D02*
D03*
X220866Y54724D02*
D03*
X173622Y192520D02*
D03*
X282283Y151575D02*
D03*
X304331Y157087D02*
D03*
X220472Y151575D02*
D03*
X182677Y181496D02*
D03*
X143307Y83071D02*
D03*
X82677Y131102D02*
D03*
X72835Y204724D02*
D03*
X51772Y166732D02*
D03*
X105905Y101969D02*
D03*
X82677D02*
D03*
X161811Y160236D02*
D03*
X155905Y105512D02*
D03*
X149606Y116142D02*
D03*
X161811Y141437D02*
D03*
X116929Y143701D02*
D03*
X74213Y149016D02*
D03*
X58268Y183858D02*
D03*
X162598Y188583D02*
D03*
X159843Y190945D02*
D03*
X101575Y180709D02*
D03*
X71260Y187008D02*
D03*
X109449Y183465D02*
D03*
X75197Y192520D02*
D03*
X72835Y196850D02*
D03*
X127953Y189370D02*
D03*
X116535Y188189D02*
D03*
X95669Y107874D02*
D03*
X43701Y58268D02*
D03*
X104331Y111811D02*
D03*
X133465Y140551D02*
D03*
X133610Y121844D02*
D03*
X161811Y112205D02*
D03*
X130703Y53937D02*
D03*
X124016Y43307D02*
D03*
X132382Y146358D02*
D03*
X213622Y64764D02*
D03*
X206693Y122047D02*
D03*
X150000Y12992D02*
D03*
X179528Y161417D02*
D03*
X164961Y39764D02*
D03*
X175197Y43307D02*
D03*
X157480Y45276D02*
D03*
X201181Y59449D02*
D03*
X190551Y147244D02*
D03*
X170472Y27362D02*
D03*
X124016Y228346D02*
D03*
Y251673D02*
D03*
X122047Y198425D02*
D03*
X126181Y192717D02*
D03*
X164173Y177362D02*
D03*
X15846Y56791D02*
D03*
X137402Y26772D02*
D03*
X367717Y36614D02*
D03*
X292126Y46850D02*
D03*
X304724Y272835D02*
D03*
X237008Y244882D02*
D03*
X255118Y275590D02*
D03*
X114961Y260630D02*
D03*
X156299Y240158D02*
D03*
X190157Y244882D02*
D03*
X75197Y219685D02*
D03*
X56299Y260629D02*
D03*
X79528Y260630D02*
D03*
X122835Y268504D02*
D03*
X124803Y276378D02*
D03*
X74016Y229134D02*
D03*
X80709Y237008D02*
D03*
X79528Y244882D02*
D03*
X79134Y252756D02*
D03*
X305512Y88189D02*
D03*
X329921Y23622D02*
D03*
X199213Y268898D02*
D03*
X171260Y244882D02*
D03*
X92520Y278346D02*
D03*
X155512Y130709D02*
D03*
X393701Y36614D02*
D03*
X180315Y146063D02*
D03*
X284646Y286614D02*
D03*
X230906Y293110D02*
D03*
X183465Y49606D02*
D03*
X182283Y137008D02*
D03*
X321654Y294882D02*
D03*
X334842Y293110D02*
D03*
X385827Y279134D02*
D03*
X328740Y136614D02*
D03*
X223622Y134252D02*
D03*
Y190157D02*
D03*
X331102Y190945D02*
D03*
M02*
