G04*
G04 #@! TF.GenerationSoftware,Altium Limited,Altium Designer,19.1.5 (86)*
G04*
G04 Layer_Color=16711935*
%FSLAX25Y25*%
%MOIN*%
G70*
G01*
G75*
%ADD11C,0.00394*%
%ADD12C,0.00787*%
%ADD13C,0.00500*%
%ADD84C,0.00197*%
G36*
X175197Y37401D02*
X174401D01*
Y38189D01*
X175197D01*
Y37401D01*
D02*
G37*
G36*
X150394D02*
X149598D01*
Y38189D01*
X150394D01*
Y37401D01*
D02*
G37*
G36*
X130709D02*
X129913D01*
Y38189D01*
X130709D01*
Y37401D01*
D02*
G37*
G36*
X150394Y18897D02*
X149598D01*
Y19685D01*
X150394D01*
Y18897D01*
D02*
G37*
G36*
X130709D02*
X129913D01*
Y19685D01*
X130709D01*
Y18897D01*
D02*
G37*
D11*
X4724Y315354D02*
G03*
X394Y311024I0J-4331D01*
G01*
X416929Y311322D02*
G03*
X412897Y315354I-4033J0D01*
G01*
X412598Y394D02*
G03*
X416929Y4724I0J4331D01*
G01*
X394Y4724D02*
G03*
X4724Y394I4331J0D01*
G01*
X106693Y159646D02*
G03*
X106693Y159646I-1969J0D01*
G01*
X139961Y191535D02*
G03*
X139961Y191535I-1969J0D01*
G01*
X4724Y315354D02*
X412897D01*
X329528Y292126D02*
Y297638D01*
X326378Y292126D02*
Y297638D01*
Y292126D02*
X329528D01*
X326378Y297638D02*
X329528D01*
X222835D02*
X225984D01*
X222835Y292126D02*
X225984D01*
X222835D02*
Y297638D01*
X225984Y292126D02*
Y297638D01*
X298031Y17717D02*
Y23228D01*
X301181Y17717D02*
Y23228D01*
X298031D02*
X301181D01*
X298031Y17717D02*
X301181D01*
X387008Y33858D02*
X390158D01*
X387008Y39370D02*
X390158D01*
Y33858D02*
Y39370D01*
X387008Y33858D02*
Y39370D01*
X401378Y172244D02*
Y175787D01*
X394685Y172244D02*
Y175787D01*
Y172244D02*
X401378D01*
X394685Y175787D02*
X401378D01*
X401772Y142323D02*
Y145866D01*
X395079Y142323D02*
Y145866D01*
Y142323D02*
X401772D01*
X395079Y145866D02*
X401772D01*
X139961Y129724D02*
Y133268D01*
X146653Y129724D02*
Y133268D01*
X139961D02*
X146653D01*
X139961Y129724D02*
X146653D01*
X85236Y154921D02*
Y158465D01*
X78543Y154921D02*
Y158465D01*
Y154921D02*
X85236D01*
X78543Y158465D02*
X85236D01*
X175040Y66043D02*
X189607D01*
X175040Y92421D02*
X189607D01*
Y66043D02*
Y92421D01*
X175040Y66043D02*
Y92421D01*
X159646Y198228D02*
X166339D01*
X159646Y201772D02*
X166339D01*
Y198228D02*
Y201772D01*
X159646Y198228D02*
Y201772D01*
X2756Y41043D02*
Y42224D01*
X-1969D02*
X2756D01*
X-1969D02*
Y71358D01*
X2756D01*
Y72539D01*
X24016Y41043D02*
Y72539D01*
X2756D02*
X24016D01*
X2756Y41043D02*
X24016D01*
X4724Y394D02*
X412598D01*
X394Y4724D02*
Y42224D01*
X394Y311024D02*
X394Y42224D01*
X416929Y311322D02*
X416929Y4331D01*
X293898Y141535D02*
Y145079D01*
X287205Y141535D02*
Y145079D01*
Y141535D02*
X293898D01*
X287205Y145079D02*
X293898D01*
X294291Y172244D02*
Y175787D01*
X287598Y172244D02*
Y175787D01*
Y172244D02*
X294291D01*
X287598Y175787D02*
X294291D01*
X87598Y277362D02*
Y280906D01*
X80905Y277362D02*
Y280906D01*
Y277362D02*
X87598D01*
X80905Y280906D02*
X87598D01*
X84842Y219882D02*
Y223425D01*
X91535Y219882D02*
Y223425D01*
X84842D02*
X91535D01*
X84842Y219882D02*
X91535D01*
X101181Y121850D02*
X123228D01*
X101181Y163189D02*
X123228D01*
Y121850D02*
Y163189D01*
X101181Y121850D02*
Y163189D01*
X177756Y243110D02*
Y246654D01*
X184449Y243110D02*
Y246654D01*
X177756D02*
X184449D01*
X177756Y243110D02*
X184449D01*
X134449Y175000D02*
X152165D01*
X134449Y195079D02*
X152165D01*
Y175000D02*
Y195079D01*
X134449Y175000D02*
Y195079D01*
X11024Y97638D02*
X34646D01*
X11024D02*
Y121260D01*
X34646Y97638D02*
Y121260D01*
X11024D02*
X34646D01*
X332283Y139764D02*
X335433D01*
X332283Y133465D02*
X335433D01*
X332283D02*
Y139764D01*
X335433Y133465D02*
Y139764D01*
X228740Y137402D02*
X231890D01*
X228740Y131102D02*
X231890D01*
X228740D02*
Y137402D01*
X231890Y131102D02*
Y137402D01*
X227559Y193307D02*
X230709D01*
X227559Y187008D02*
X230709D01*
X227559D02*
Y193307D01*
X230709Y187008D02*
Y193307D01*
X331890Y188583D02*
X335039D01*
X331890Y182283D02*
X335039D01*
X331890D02*
Y188583D01*
X335039Y182283D02*
Y188583D01*
X173425Y153740D02*
Y157283D01*
X166732Y153740D02*
Y157283D01*
Y153740D02*
X173425D01*
X166732Y157283D02*
X173425D01*
Y163583D02*
Y167126D01*
X166732Y163583D02*
Y167126D01*
Y163583D02*
X173425D01*
X166732Y167126D02*
X173425D01*
X184252Y16142D02*
Y22441D01*
X171653D02*
X184252D01*
X171653Y16142D02*
Y22441D01*
Y16142D02*
X184252D01*
X139665Y150197D02*
X146358D01*
X139665Y146653D02*
X146358D01*
X139665D02*
Y150197D01*
X146358Y146653D02*
Y150197D01*
X157677Y63189D02*
Y69882D01*
X154134Y63189D02*
Y69882D01*
X157677D01*
X154134Y63189D02*
X157677D01*
X81004Y76221D02*
X86713D01*
X81004Y84882D02*
X86713D01*
X81004Y76221D02*
Y84882D01*
X86713Y76221D02*
Y84882D01*
X148031Y155020D02*
Y160728D01*
X139370Y155020D02*
Y160728D01*
Y155020D02*
X148031D01*
X139370Y160728D02*
X148031D01*
X153445Y87008D02*
X159153D01*
X153445Y78347D02*
X159153D01*
Y87008D01*
X153445Y78347D02*
Y87008D01*
X112697Y71653D02*
Y84252D01*
X106201Y71653D02*
Y84252D01*
X112697D01*
X106201Y71653D02*
X112697D01*
X11024Y149606D02*
X34646D01*
Y125984D02*
Y149606D01*
X11024Y125984D02*
Y149606D01*
Y125984D02*
X34646D01*
X358268Y293701D02*
X376378D01*
X358268D02*
Y303937D01*
X376378D01*
Y293701D02*
Y303937D01*
X251969Y293701D02*
X270079D01*
X251969D02*
Y303937D01*
X270079D01*
Y293701D02*
Y303937D01*
X252362Y22441D02*
X270472D01*
Y12205D02*
Y22441D01*
X252362Y12205D02*
X270472D01*
X252362D02*
Y22441D01*
X358661D02*
X376772D01*
Y12205D02*
Y22441D01*
X358661Y12205D02*
X376772D01*
X358661D02*
Y22441D01*
X84055Y262402D02*
X90748D01*
X84055Y258858D02*
X90748D01*
X84055D02*
Y262402D01*
X90748Y258858D02*
Y262402D01*
X177756Y235236D02*
X184449D01*
X177756Y238779D02*
X184449D01*
Y235236D02*
Y238779D01*
X177756Y235236D02*
Y238779D01*
X178150Y230118D02*
X184843D01*
X178150Y226575D02*
X184843D01*
X178150D02*
Y230118D01*
X184843Y226575D02*
Y230118D01*
X167126Y138779D02*
X173819D01*
X167126Y135236D02*
X173819D01*
X167126D02*
Y138779D01*
X173819Y135236D02*
Y138779D01*
X379724Y294685D02*
X386417D01*
X379724Y291142D02*
X386417D01*
X379724D02*
Y294685D01*
X386417Y291142D02*
Y294685D01*
X166732Y147835D02*
X173425D01*
X166732Y144291D02*
X173425D01*
X166732D02*
Y147835D01*
X173425Y144291D02*
Y147835D01*
X278543Y302165D02*
X285236D01*
X278543Y298622D02*
X285236D01*
X278543D02*
Y302165D01*
X285236Y298622D02*
Y302165D01*
X167126Y130512D02*
X173819D01*
X167126Y126969D02*
X173819D01*
X167126D02*
Y130512D01*
X173819Y126969D02*
Y130512D01*
X167520Y118307D02*
X174213D01*
X167520Y121850D02*
X174213D01*
Y118307D02*
Y121850D01*
X167520Y118307D02*
Y121850D01*
X236417Y13976D02*
X243110D01*
X236417Y17520D02*
X243110D01*
Y13976D02*
Y17520D01*
X236417Y13976D02*
Y17520D01*
X341142Y13583D02*
X347835D01*
X341142Y17126D02*
X347835D01*
Y13583D02*
Y17126D01*
X341142Y13583D02*
Y17126D01*
X379724Y283268D02*
X386417D01*
X379724Y286811D02*
X386417D01*
Y283268D02*
Y286811D01*
X379724Y283268D02*
Y286811D01*
X236417Y25787D02*
X243110D01*
X236417Y22244D02*
X243110D01*
X236417D02*
Y25787D01*
X243110Y22244D02*
Y25787D01*
X341142D02*
X347835D01*
X341142Y22244D02*
X347835D01*
X341142D02*
Y25787D01*
X347835Y22244D02*
Y25787D01*
X278543Y290354D02*
X285236D01*
X278543Y293898D02*
X285236D01*
Y290354D02*
Y293898D01*
X278543Y290354D02*
Y293898D01*
D12*
X357402Y182677D02*
G03*
X380630Y182677I11614J0D01*
G01*
D02*
G03*
X357402Y182677I-11614J0D01*
G01*
X249291D02*
G03*
X272520Y182677I11614J0D01*
G01*
D02*
G03*
X249291Y182677I-11614J0D01*
G01*
X272638Y141339D02*
G03*
X249410Y141339I-11614J0D01*
G01*
D02*
G03*
X272638Y141339I11614J0D01*
G01*
X380630Y140945D02*
G03*
X357402Y140945I-11614J0D01*
G01*
D02*
G03*
X380630Y140945I11614J0D01*
G01*
X359291Y176378D02*
Y188976D01*
X251181Y176378D02*
Y188976D01*
X251299Y135039D02*
Y147638D01*
X359291Y134646D02*
Y147244D01*
D13*
X103150Y215354D02*
Y309842D01*
Y215354D02*
X166142D01*
Y309842D01*
X103150D02*
X166142D01*
X103150Y215354D02*
Y309842D01*
Y215354D02*
X166142D01*
Y309842D01*
X103150D02*
X166142D01*
D84*
X174409Y35335D02*
X182283D01*
Y40256D01*
X174409D02*
X182283D01*
X174409Y35335D02*
Y40256D01*
Y35335D02*
X182283D01*
Y40256D01*
X174409D02*
X182283D01*
X174409Y35335D02*
Y40256D01*
X149606Y16831D02*
Y21752D01*
X157480D01*
Y16831D02*
Y21752D01*
X149606Y16831D02*
X157480D01*
X149606D02*
Y21752D01*
X157480D01*
Y16831D02*
Y21752D01*
X149606Y16831D02*
X157480D01*
X149606Y35335D02*
X157480D01*
Y40256D01*
X149606D02*
X157480D01*
X149606Y35335D02*
Y40256D01*
Y35335D02*
X157480D01*
Y40256D01*
X149606D02*
X157480D01*
X149606Y35335D02*
Y40256D01*
X129921Y35335D02*
X137795D01*
Y40256D01*
X129921D02*
X137795D01*
X129921Y35335D02*
Y40256D01*
Y35335D02*
X137795D01*
Y40256D01*
X129921D02*
X137795D01*
X129921Y35335D02*
Y40256D01*
Y16831D02*
Y21752D01*
X137795D01*
Y16831D02*
Y21752D01*
X129921Y16831D02*
X137795D01*
X129921D02*
Y21752D01*
X137795D01*
Y16831D02*
Y21752D01*
X129921Y16831D02*
X137795D01*
M02*
