G04*
G04 #@! TF.GenerationSoftware,Altium Limited,Altium Designer,19.1.5 (86)*
G04*
G04 Layer_Color=8388736*
%FSLAX25Y25*%
%MOIN*%
G70*
G01*
G75*
%ADD37R,0.02769X0.02572*%
%ADD38R,0.02769X0.02769*%
%ADD39R,0.03556X0.04343*%
%ADD40R,0.04147X0.04540*%
%ADD41R,0.09461X0.13792*%
%ADD42R,0.09461X0.04737*%
%ADD43R,0.05177X0.01929*%
%ADD44R,0.05131X0.07493*%
%ADD45R,0.08674X0.05524*%
%ADD46O,0.08976X0.02087*%
%ADD47R,0.03950X0.06312*%
G04:AMPARAMS|DCode=48|XSize=17.72mil|YSize=49.21mil|CornerRadius=2.95mil|HoleSize=0mil|Usage=FLASHONLY|Rotation=90.000|XOffset=0mil|YOffset=0mil|HoleType=Round|Shape=RoundedRectangle|*
%AMROUNDEDRECTD48*
21,1,0.01772,0.04331,0,0,90.0*
21,1,0.01181,0.04921,0,0,90.0*
1,1,0.00591,0.02165,0.00591*
1,1,0.00591,0.02165,-0.00591*
1,1,0.00591,-0.02165,-0.00591*
1,1,0.00591,-0.02165,0.00591*
%
%ADD48ROUNDEDRECTD48*%
G04:AMPARAMS|DCode=49|XSize=17.01mil|YSize=48.5mil|CornerRadius=2.6mil|HoleSize=0mil|Usage=FLASHONLY|Rotation=90.000|XOffset=0mil|YOffset=0mil|HoleType=Round|Shape=RoundedRectangle|*
%AMROUNDEDRECTD49*
21,1,0.01701,0.04331,0,0,90.0*
21,1,0.01181,0.04850,0,0,90.0*
1,1,0.00520,0.02165,0.00591*
1,1,0.00520,0.02165,-0.00591*
1,1,0.00520,-0.02165,-0.00591*
1,1,0.00520,-0.02165,0.00591*
%
%ADD49ROUNDEDRECTD49*%
%ADD50R,0.02808X0.02375*%
%ADD51R,0.07690X0.06706*%
%ADD52R,0.04540X0.04147*%
%ADD53R,0.05866X0.05276*%
%ADD54R,0.05276X0.05866*%
%ADD55R,0.07887X0.04737*%
%ADD56C,0.06800*%
%ADD57C,0.03543*%
%ADD58O,0.07887X0.05328*%
%ADD59O,0.08268X0.06102*%
%ADD60C,0.06375*%
%ADD61C,0.06706*%
%ADD62R,0.06312X0.06312*%
%ADD63C,0.06312*%
%ADD64C,0.11811*%
D37*
X330315Y293110D02*
D03*
Y296654D02*
D03*
X226772D02*
D03*
Y293110D02*
D03*
X297244Y22244D02*
D03*
Y18701D02*
D03*
X386221Y34843D02*
D03*
Y38386D02*
D03*
D38*
X325590Y294882D02*
D03*
X222047D02*
D03*
X301969Y20472D02*
D03*
X390945Y36614D02*
D03*
D39*
X400787Y174016D02*
D03*
X395276D02*
D03*
X401181Y144095D02*
D03*
X395669D02*
D03*
X293307Y143307D02*
D03*
X287795D02*
D03*
X293701Y174016D02*
D03*
X288189D02*
D03*
X87008Y279134D02*
D03*
X81496D02*
D03*
X178347Y244882D02*
D03*
X183858D02*
D03*
X172835Y155512D02*
D03*
X167323D02*
D03*
X172835Y165354D02*
D03*
X167323D02*
D03*
X84646Y260630D02*
D03*
X90158D02*
D03*
X183858Y237008D02*
D03*
X178347D02*
D03*
X178740Y228346D02*
D03*
X184252D02*
D03*
X167717Y137008D02*
D03*
X173228D02*
D03*
X380315Y292913D02*
D03*
X385827D02*
D03*
X167323Y146063D02*
D03*
X172835D02*
D03*
X279134Y300394D02*
D03*
X284646D02*
D03*
X167717Y128740D02*
D03*
X173228D02*
D03*
X173622Y120079D02*
D03*
X168110D02*
D03*
X242520Y15748D02*
D03*
X237008D02*
D03*
X347244Y15354D02*
D03*
X341732D02*
D03*
X385827Y285039D02*
D03*
X380315D02*
D03*
X237008Y24016D02*
D03*
X242520D02*
D03*
X341732D02*
D03*
X347244D02*
D03*
X284646Y292126D02*
D03*
X279134D02*
D03*
D40*
X140650Y131496D02*
D03*
X145965D02*
D03*
X84547Y156693D02*
D03*
X79232D02*
D03*
X165650Y200000D02*
D03*
X160335D02*
D03*
X85532Y221654D02*
D03*
X90847D02*
D03*
X140354Y148425D02*
D03*
X145669D02*
D03*
D41*
X194134Y79232D02*
D03*
D42*
X170512Y70177D02*
D03*
Y79232D02*
D03*
Y88288D02*
D03*
D43*
X22441Y54232D02*
D03*
Y56791D02*
D03*
Y59350D02*
D03*
Y51673D02*
D03*
Y61909D02*
D03*
D44*
X154331Y215354D02*
D03*
X146457D02*
D03*
X138583D02*
D03*
X130709D02*
D03*
X122835D02*
D03*
X114961D02*
D03*
D45*
X164173Y276378D02*
D03*
Y268504D02*
D03*
Y260630D02*
D03*
Y252756D02*
D03*
Y244882D02*
D03*
Y237008D02*
D03*
Y229134D02*
D03*
Y221260D02*
D03*
X105118D02*
D03*
Y229134D02*
D03*
Y237008D02*
D03*
Y244882D02*
D03*
Y252756D02*
D03*
Y260630D02*
D03*
Y268504D02*
D03*
Y276378D02*
D03*
D46*
X125787Y125886D02*
D03*
Y128445D02*
D03*
Y131004D02*
D03*
Y133563D02*
D03*
Y136122D02*
D03*
Y138681D02*
D03*
Y141240D02*
D03*
Y143799D02*
D03*
Y146358D02*
D03*
Y148917D02*
D03*
Y151476D02*
D03*
Y154035D02*
D03*
Y156595D02*
D03*
Y159153D02*
D03*
X98622Y125886D02*
D03*
Y128445D02*
D03*
Y131004D02*
D03*
Y133563D02*
D03*
Y136122D02*
D03*
Y138681D02*
D03*
Y141240D02*
D03*
Y143799D02*
D03*
Y146358D02*
D03*
Y148917D02*
D03*
Y151476D02*
D03*
Y154035D02*
D03*
Y156595D02*
D03*
Y159153D02*
D03*
D47*
X175000Y37795D02*
D03*
X181693D02*
D03*
X156890Y19291D02*
D03*
X150197D02*
D03*
Y37795D02*
D03*
X156890D02*
D03*
X130512D02*
D03*
X137205D02*
D03*
Y19291D02*
D03*
X130512D02*
D03*
D48*
X154528Y177362D02*
D03*
Y179921D02*
D03*
Y182480D02*
D03*
Y185039D02*
D03*
Y187598D02*
D03*
X132087Y177362D02*
D03*
Y179921D02*
D03*
Y182480D02*
D03*
Y185039D02*
D03*
Y187598D02*
D03*
Y190157D02*
D03*
Y192717D02*
D03*
D49*
X154528Y190157D02*
D03*
Y192717D02*
D03*
D50*
X331299Y136614D02*
D03*
X336417Y138583D02*
D03*
Y134646D02*
D03*
X227756Y134252D02*
D03*
X232874Y136221D02*
D03*
Y132283D02*
D03*
X226575Y190157D02*
D03*
X231693Y192126D02*
D03*
Y188189D02*
D03*
X330906Y185433D02*
D03*
X336024Y187402D02*
D03*
Y183465D02*
D03*
D51*
X184153Y19291D02*
D03*
X171752D02*
D03*
D52*
X155905Y69193D02*
D03*
Y63878D02*
D03*
D53*
X83858Y77402D02*
D03*
Y83701D02*
D03*
X156299Y85827D02*
D03*
Y79528D02*
D03*
D54*
X146850Y157874D02*
D03*
X140551D02*
D03*
D55*
X109449Y72441D02*
D03*
Y83465D02*
D03*
D56*
X68819Y301102D02*
D03*
X58819Y301181D02*
D03*
X48819D02*
D03*
D57*
X18307Y46949D02*
D03*
Y66634D02*
D03*
D58*
X7480Y41535D02*
D03*
Y72047D02*
D03*
D59*
X22441Y42126D02*
D03*
Y71457D02*
D03*
D60*
X364016Y182677D02*
D03*
X374016D02*
D03*
X255906D02*
D03*
X265905D02*
D03*
X266024Y141339D02*
D03*
X256024D02*
D03*
X374016Y140945D02*
D03*
X364016D02*
D03*
D61*
X35630Y118307D02*
D03*
Y100591D02*
D03*
X10039D02*
D03*
Y118307D02*
D03*
Y146653D02*
D03*
Y128937D02*
D03*
X35630D02*
D03*
Y146653D02*
D03*
D62*
X359449Y300669D02*
D03*
X253150D02*
D03*
X269291Y15472D02*
D03*
X375591D02*
D03*
D63*
X367323Y300669D02*
D03*
X375197D02*
D03*
X261024D02*
D03*
X268898D02*
D03*
X261417Y15472D02*
D03*
X253543D02*
D03*
X367717D02*
D03*
X359842D02*
D03*
D64*
X400394Y15354D02*
D03*
Y299606D02*
D03*
X16142D02*
D03*
Y14961D02*
D03*
M02*
