G04*
G04 #@! TF.GenerationSoftware,Altium Limited,Altium Designer,19.1.5 (86)*
G04*
G04 Layer_Color=16711935*
%FSLAX25Y25*%
%MOIN*%
G70*
G01*
G75*
%ADD56C,0.06800*%
%ADD57C,0.03543*%
%ADD58O,0.07887X0.05328*%
%ADD59O,0.08268X0.06102*%
%ADD60C,0.06375*%
%ADD61C,0.06706*%
%ADD62R,0.06312X0.06312*%
%ADD63C,0.06312*%
%ADD64C,0.11811*%
D56*
X68819Y301102D02*
D03*
X58819Y301181D02*
D03*
X48819D02*
D03*
D57*
X18307Y46949D02*
D03*
Y66634D02*
D03*
D58*
X7480Y41535D02*
D03*
Y72047D02*
D03*
D59*
X22441Y42126D02*
D03*
Y71457D02*
D03*
D60*
X364016Y182677D02*
D03*
X374016D02*
D03*
X255906D02*
D03*
X265905D02*
D03*
X266024Y141339D02*
D03*
X256024D02*
D03*
X374016Y140945D02*
D03*
X364016D02*
D03*
D61*
X35630Y118307D02*
D03*
Y100591D02*
D03*
X10039D02*
D03*
Y118307D02*
D03*
Y146653D02*
D03*
Y128937D02*
D03*
X35630D02*
D03*
Y146653D02*
D03*
D62*
X359449Y300669D02*
D03*
X253150D02*
D03*
X269291Y15472D02*
D03*
X375591D02*
D03*
D63*
X367323Y300669D02*
D03*
X375197D02*
D03*
X261024D02*
D03*
X268898D02*
D03*
X261417Y15472D02*
D03*
X253543D02*
D03*
X367717D02*
D03*
X359842D02*
D03*
D64*
X400394Y15354D02*
D03*
Y299606D02*
D03*
X16142D02*
D03*
Y14961D02*
D03*
M02*
