G04*
G04 #@! TF.GenerationSoftware,Altium Limited,Altium Designer,19.1.5 (86)*
G04*
G04 Layer_Color=65535*
%FSLAX25Y25*%
%MOIN*%
G70*
G01*
G75*
%ADD10C,0.01181*%
%ADD11C,0.00394*%
%ADD12C,0.00787*%
%ADD13C,0.00500*%
%ADD14C,0.02362*%
%ADD15C,0.00984*%
%ADD16C,0.00591*%
%ADD17C,0.07874*%
%ADD18C,0.00669*%
G36*
X49216Y34409D02*
X50016D01*
Y33609D01*
Y32809D01*
Y32009D01*
X50816D01*
Y31209D01*
Y30409D01*
X51616D01*
Y29609D01*
Y28809D01*
X52416D01*
Y28009D01*
Y27209D01*
Y26409D01*
X53216D01*
Y25609D01*
Y24810D01*
X54016D01*
Y24010D01*
Y23210D01*
X54816D01*
Y22410D01*
Y21610D01*
X55616D01*
Y20809D01*
Y20009D01*
Y19209D01*
X56416D01*
Y18409D01*
X55616D01*
Y17609D01*
X54016D01*
Y18409D01*
Y19209D01*
X53216D01*
Y20009D01*
Y20809D01*
X52416D01*
Y21610D01*
X42816D01*
Y20809D01*
X42016D01*
Y20009D01*
Y19209D01*
X41216D01*
Y18409D01*
Y17609D01*
X39616D01*
Y18409D01*
Y19209D01*
Y20009D01*
Y20809D01*
X40416D01*
Y21610D01*
Y22410D01*
Y23210D01*
X41216D01*
Y24010D01*
Y24810D01*
X42016D01*
Y25609D01*
X42816D01*
Y26409D01*
Y27209D01*
Y28009D01*
X43616D01*
Y28809D01*
Y29609D01*
Y30409D01*
X44416D01*
Y31209D01*
X45216D01*
Y32009D01*
Y32809D01*
Y33609D01*
X46016D01*
Y34409D01*
Y35209D01*
X49216D01*
Y34409D01*
D02*
G37*
G36*
X66816Y30409D02*
X68416D01*
Y29609D01*
X70016D01*
Y28809D01*
Y28009D01*
X70816D01*
Y27209D01*
Y26409D01*
Y25609D01*
X71616D01*
Y24810D01*
Y24010D01*
Y23210D01*
X61216D01*
Y22410D01*
Y21610D01*
Y20809D01*
X62016D01*
Y20009D01*
X62816D01*
Y19209D01*
X64416D01*
Y18409D01*
X66816D01*
Y19209D01*
X68416D01*
Y20009D01*
X70016D01*
Y19209D01*
X70816D01*
Y18409D01*
X69216D01*
Y17609D01*
X66816D01*
Y16809D01*
X63616D01*
Y17609D01*
X62016D01*
Y18409D01*
X60416D01*
Y19209D01*
X59616D01*
Y20009D01*
Y20809D01*
X58816D01*
Y21610D01*
Y22410D01*
Y23210D01*
X58016D01*
Y24010D01*
Y24810D01*
X58816D01*
Y25609D01*
Y26409D01*
Y27209D01*
X59616D01*
Y28009D01*
Y28809D01*
X60416D01*
Y29609D01*
X61216D01*
Y30409D01*
X63616D01*
Y31209D01*
X66816D01*
Y30409D01*
D02*
G37*
G36*
X82016D02*
X83616D01*
Y29609D01*
X84416D01*
Y28809D01*
X86016D01*
Y29609D01*
X85216D01*
Y30409D01*
X88416D01*
Y29609D01*
Y28809D01*
Y28009D01*
Y27209D01*
Y26409D01*
Y25609D01*
Y24810D01*
Y24010D01*
Y23210D01*
Y22410D01*
Y21610D01*
Y20809D01*
Y20009D01*
Y19209D01*
X87616D01*
Y18409D01*
Y17609D01*
Y16809D01*
Y16010D01*
X86816D01*
Y15210D01*
Y14410D01*
X85216D01*
Y13610D01*
X83616D01*
Y12810D01*
X77216D01*
Y13610D01*
X74816D01*
Y14410D01*
Y15210D01*
X75616D01*
Y16010D01*
X76416D01*
Y15210D01*
X78816D01*
Y14410D01*
X82016D01*
Y15210D01*
X83616D01*
Y16010D01*
X84416D01*
Y16809D01*
X85216D01*
Y17609D01*
Y18409D01*
Y19209D01*
X86016D01*
Y20009D01*
Y20809D01*
X84416D01*
Y20009D01*
X83616D01*
Y19209D01*
X82016D01*
Y18409D01*
X78016D01*
Y19209D01*
X76416D01*
Y20009D01*
X75616D01*
Y20809D01*
X74816D01*
Y21610D01*
Y22410D01*
X74016D01*
Y23210D01*
Y24010D01*
Y24810D01*
Y25609D01*
Y26409D01*
X74816D01*
Y27209D01*
Y28009D01*
Y28809D01*
X75616D01*
Y29609D01*
X76416D01*
Y30409D01*
X78016D01*
Y31209D01*
X82016D01*
Y30409D01*
D02*
G37*
G36*
X94016Y29609D02*
Y28809D01*
Y28009D01*
Y27209D01*
Y26409D01*
Y25609D01*
Y24810D01*
Y24010D01*
Y23210D01*
Y22410D01*
Y21610D01*
Y20809D01*
Y20009D01*
Y19209D01*
Y18409D01*
Y17609D01*
X92416D01*
Y18409D01*
Y19209D01*
Y20009D01*
Y20809D01*
Y21610D01*
Y22410D01*
Y23210D01*
Y24010D01*
Y24810D01*
Y25609D01*
Y26409D01*
Y27209D01*
Y28009D01*
Y28809D01*
Y29609D01*
Y30409D01*
X94016D01*
Y29609D01*
D02*
G37*
G36*
X105216Y30409D02*
X106816D01*
Y29609D01*
Y28809D01*
Y28009D01*
X106016D01*
Y28809D01*
X104416D01*
Y29609D01*
X101216D01*
Y28809D01*
X100416D01*
Y28009D01*
X99616D01*
Y27209D01*
Y26409D01*
X101216D01*
Y25609D01*
X102816D01*
Y24810D01*
X105216D01*
Y24010D01*
X106816D01*
Y23210D01*
Y22410D01*
X107616D01*
Y21610D01*
Y20809D01*
Y20009D01*
Y19209D01*
X106816D01*
Y18409D01*
X106016D01*
Y17609D01*
X103616D01*
Y16809D01*
X101216D01*
Y17609D01*
X98816D01*
Y18409D01*
X97216D01*
Y19209D01*
Y20009D01*
X99616D01*
Y19209D01*
X101216D01*
Y18409D01*
X103616D01*
Y19209D01*
X105216D01*
Y20009D01*
Y20809D01*
Y21610D01*
Y22410D01*
X103616D01*
Y23210D01*
X101216D01*
Y24010D01*
X99616D01*
Y24810D01*
X98016D01*
Y25609D01*
Y26409D01*
Y27209D01*
Y28009D01*
Y28809D01*
Y29609D01*
X98816D01*
Y30409D01*
X100416D01*
Y31209D01*
X105216D01*
Y30409D01*
D02*
G37*
G36*
X94016Y35209D02*
Y34409D01*
X91616D01*
Y35209D01*
Y36009D01*
X94016D01*
Y35209D01*
D02*
G37*
%LPC*%
G36*
X48416Y32009D02*
X46816D01*
Y31209D01*
Y30409D01*
X46016D01*
Y29609D01*
Y28809D01*
X45216D01*
Y28009D01*
Y27209D01*
X44416D01*
Y26409D01*
Y25609D01*
X43616D01*
Y24810D01*
Y24010D01*
X50816D01*
Y24810D01*
Y25609D01*
Y26409D01*
Y27209D01*
X50016D01*
Y28009D01*
Y28809D01*
X49216D01*
Y29609D01*
Y30409D01*
X48416D01*
Y31209D01*
Y32009D01*
D02*
G37*
G36*
X66816Y29609D02*
X63616D01*
Y28809D01*
X62816D01*
Y28009D01*
X62016D01*
Y27209D01*
X61216D01*
Y26409D01*
Y25609D01*
Y24810D01*
X69216D01*
Y25609D01*
Y26409D01*
Y27209D01*
X68416D01*
Y28009D01*
X67616D01*
Y28809D01*
X66816D01*
Y29609D01*
D02*
G37*
G36*
X82016D02*
X79616D01*
Y28809D01*
X78016D01*
Y28009D01*
X77216D01*
Y27209D01*
X76416D01*
Y26409D01*
Y25609D01*
X75616D01*
Y24810D01*
Y24010D01*
X76416D01*
Y23210D01*
Y22410D01*
X77216D01*
Y21610D01*
X78016D01*
Y20809D01*
X79616D01*
Y20009D01*
X82016D01*
Y20809D01*
X83616D01*
Y21610D01*
X84416D01*
Y22410D01*
X85216D01*
Y23210D01*
Y24010D01*
Y24810D01*
Y25609D01*
Y26409D01*
Y27209D01*
X84416D01*
Y28009D01*
X83616D01*
Y28809D01*
X82016D01*
Y29609D01*
D02*
G37*
%LPD*%
D10*
X412416Y787D02*
G03*
X416535Y4907I0J4120D01*
G01*
X416535Y310928D02*
G03*
X412503Y314961I-4032J0D01*
G01*
X4820Y314961D02*
G03*
X787Y310928I0J-4032D01*
G01*
X784Y4400D02*
G03*
X4396Y787I3612J0D01*
G01*
X416535Y310928D02*
X416535Y4907D01*
X4820Y314961D02*
X412503Y314961D01*
X787Y310928D02*
X1181Y42618D01*
X780Y4437D02*
X1181Y42618D01*
X4396Y787D02*
X412416D01*
D11*
X330319Y291339D02*
G03*
X330319Y291339I-4J0D01*
G01*
X226776D02*
G03*
X226776Y291339I-4J0D01*
G01*
X297248Y24016D02*
G03*
X297248Y24016I-4J0D01*
G01*
X386224Y40157D02*
G03*
X386224Y40157I-4J0D01*
G01*
X357402Y182677D02*
G03*
X380630Y182677I11614J0D01*
G01*
D02*
G03*
X357402Y182677I-11614J0D01*
G01*
X249291D02*
G03*
X272520Y182677I11614J0D01*
G01*
D02*
G03*
X249291Y182677I-11614J0D01*
G01*
X272638Y141339D02*
G03*
X249410Y141339I-11614J0D01*
G01*
D02*
G03*
X272638Y141339I11614J0D01*
G01*
X380630Y140945D02*
G03*
X357402Y140945I-11614J0D01*
G01*
D02*
G03*
X380630Y140945I11614J0D01*
G01*
X326378Y297638D02*
X326870D01*
X328346D01*
X326378Y296850D02*
Y297638D01*
X329528Y294685D02*
Y295079D01*
X326378Y292126D02*
Y292913D01*
Y292126D02*
X328346D01*
X222835D02*
X224803D01*
X222835Y292126D02*
Y292913D01*
X225984Y294685D02*
Y295079D01*
X222835Y296850D02*
Y297638D01*
X223327D02*
X224803D01*
X222835D02*
X223327D01*
X300689Y17717D02*
X301181D01*
X299213D02*
X300689D01*
X301181D02*
Y18504D01*
X298031Y20276D02*
Y20669D01*
X301181Y22441D02*
Y23228D01*
X299213Y23228D02*
X301181D01*
X388189Y39370D02*
X390158D01*
Y38583D02*
Y39370D01*
X387008Y36417D02*
Y36811D01*
X390158Y33858D02*
Y34646D01*
X388189Y33858D02*
X389665D01*
X390158D01*
X359291Y176378D02*
Y188976D01*
X251181Y176378D02*
Y188976D01*
X251299Y135039D02*
Y147638D01*
X359291Y134646D02*
Y147244D01*
D12*
X172126Y91831D02*
G03*
X172126Y91831I-39J0D01*
G01*
X137795Y128740D02*
Y134252D01*
Y128740D02*
X148819D01*
Y134252D01*
X137795D02*
X148819D01*
X87402Y153937D02*
Y159449D01*
X76378D02*
X87402D01*
X76378Y153937D02*
Y159449D01*
Y153937D02*
X87402D01*
X189804Y86713D02*
Y92618D01*
X174843D02*
X189804D01*
X174843Y91437D02*
Y92618D01*
Y82382D02*
Y85138D01*
Y73327D02*
Y76083D01*
X189804Y65847D02*
Y71752D01*
X174843Y65847D02*
X189804D01*
X174843D02*
Y67225D01*
X157480Y202756D02*
X168504D01*
Y197244D02*
Y202756D01*
X157480Y197244D02*
X168504D01*
X157480D02*
Y202756D01*
X24016Y46161D02*
Y49508D01*
X12205Y41043D02*
X17520D01*
X12205Y72539D02*
X17520D01*
X24016Y64075D02*
Y67421D01*
X82677Y218898D02*
Y224410D01*
Y218898D02*
X93701D01*
Y224410D01*
X82677D02*
X93701D01*
X104331Y121850D02*
X120079D01*
X104331Y163189D02*
X120079D01*
Y121850D02*
Y163189D01*
X104331Y121850D02*
Y163189D01*
X136024Y175000D02*
X150591D01*
X136024Y195079D02*
X150591D01*
Y175000D02*
Y195079D01*
X136024Y175000D02*
Y195079D01*
X15354Y100394D02*
X30709D01*
X34646Y105012D02*
Y113886D01*
X13473Y121260D02*
X32197D01*
X11024Y105118D02*
Y113886D01*
X14567Y97638D02*
X32197D01*
X332283Y138976D02*
Y139764D01*
X333890D01*
X332283Y133465D02*
Y134252D01*
Y133465D02*
X333890D01*
X228740Y136614D02*
Y137402D01*
X230346D01*
X228740Y131102D02*
Y131890D01*
Y131102D02*
X230346D01*
X227559Y192520D02*
Y193307D01*
X229165D01*
X227559Y187008D02*
Y187795D01*
Y187008D02*
X229165D01*
X331890Y187795D02*
Y188583D01*
X333496D01*
X331890Y182283D02*
Y183071D01*
Y182283D02*
X333496D01*
X188976Y15354D02*
Y23228D01*
X166142D02*
X188976D01*
X167323Y15354D02*
Y23228D01*
X166142Y15354D02*
Y23228D01*
Y15354D02*
X188976D01*
X137500Y145669D02*
X148524D01*
X137500D02*
Y151181D01*
X148524D01*
Y145669D02*
Y151181D01*
X153150Y61024D02*
Y72047D01*
X158661D01*
Y61024D02*
Y72047D01*
X153150Y61024D02*
X158661D01*
X79921Y73858D02*
X87795D01*
Y87244D01*
X79921D02*
X87795D01*
X79921Y73858D02*
Y87244D01*
X150394Y153937D02*
Y161811D01*
X137008D02*
X150394D01*
X137008Y153937D02*
Y161811D01*
Y153937D02*
X150394D01*
X152362Y89370D02*
X160236D01*
X152362Y75984D02*
Y89370D01*
Y75984D02*
X160236D01*
Y89370D01*
X114173Y69291D02*
Y86614D01*
X104724Y69291D02*
Y86614D01*
Y69291D02*
X114173D01*
X104724Y86614D02*
X114173D01*
X14567Y125984D02*
X32197D01*
X11024Y133465D02*
Y142232D01*
X13473Y149606D02*
X32197D01*
X34646Y133358D02*
Y142232D01*
X15354Y128740D02*
X30709D01*
X358268Y293701D02*
X376378D01*
X251969D02*
X270079D01*
X252362Y22441D02*
X270472D01*
X358661D02*
X376772D01*
X363622Y191141D02*
X364934D01*
X255512D02*
X256824D01*
X255630Y149803D02*
X256942D01*
X363622Y149409D02*
X364934D01*
X13780Y85827D02*
Y90550D01*
X15354Y88975D01*
X16928Y90550D01*
Y85827D01*
X20864Y90550D02*
X19290D01*
X18502Y89763D01*
Y86614D01*
X19290Y85827D01*
X20864D01*
X21651Y86614D01*
Y89763D01*
X20864Y90550D01*
X23225D02*
Y85827D01*
X25587D01*
X26374Y86614D01*
Y89763D01*
X25587Y90550D01*
X23225D01*
X31097D02*
X27948D01*
Y85827D01*
X31097D01*
X27948Y88188D02*
X29522D01*
X12992Y156299D02*
Y161022D01*
X15354D01*
X16141Y160235D01*
Y158661D01*
X15354Y157873D01*
X12992D01*
X14566D02*
X16141Y156299D01*
X20864Y161022D02*
X17715D01*
Y156299D01*
X20864D01*
X17715Y158661D02*
X19289D01*
X25587Y160235D02*
X24799Y161022D01*
X23225D01*
X22438Y160235D01*
Y159448D01*
X23225Y158661D01*
X24799D01*
X25587Y157873D01*
Y157086D01*
X24799Y156299D01*
X23225D01*
X22438Y157086D01*
X30309Y161022D02*
X27161D01*
Y156299D01*
X30309D01*
X27161Y158661D02*
X28735D01*
X31884Y161022D02*
X35032D01*
X33458D01*
Y156299D01*
D13*
X99213Y279823D02*
G03*
X99213Y279823I-984J0D01*
G01*
X158268Y215354D02*
X166142D01*
Y217323D01*
X103150Y215354D02*
X111024D01*
X103150D02*
Y217323D01*
X166142Y280315D02*
Y309842D01*
X103150D02*
X166142D01*
X103150Y280315D02*
Y309842D01*
X111024Y220236D02*
Y279291D01*
Y220236D02*
X158268D01*
Y279291D01*
X111024D02*
X158268D01*
D14*
X109449Y159252D02*
G03*
X109449Y159252I-1181J0D01*
G01*
X141142Y191142D02*
G03*
X141142Y191142I-1181J0D01*
G01*
D15*
X5413Y100591D02*
G03*
X5413Y100591I-492J0D01*
G01*
X336653Y132283D02*
G03*
X336653Y132283I-39J0D01*
G01*
X233110Y129921D02*
G03*
X233110Y129921I-39J0D01*
G01*
X231929Y185827D02*
G03*
X231929Y185827I-39J0D01*
G01*
X336260Y181102D02*
G03*
X336260Y181102I-39J0D01*
G01*
X5413Y128937D02*
G03*
X5413Y128937I-492J0D01*
G01*
X355020Y302819D02*
G03*
X355020Y302819I-492J0D01*
G01*
X248721D02*
G03*
X248721Y302819I-492J0D01*
G01*
X274705Y13323D02*
G03*
X274705Y13323I-492J0D01*
G01*
X381004D02*
G03*
X381004Y13323I-492J0D01*
G01*
D16*
X392913Y171260D02*
X403150D01*
X392913D02*
Y176772D01*
X403150D01*
Y171260D02*
Y176772D01*
X393307Y141339D02*
X403543D01*
X393307D02*
Y146850D01*
X403543D01*
Y141339D02*
Y146850D01*
X285433Y140551D02*
X295669D01*
X285433D02*
Y146063D01*
X295669D01*
Y140551D02*
Y146063D01*
X285827Y171260D02*
X296063D01*
X285827D02*
Y176772D01*
X296063D01*
Y171260D02*
Y176772D01*
X79134Y276378D02*
X89370D01*
X79134D02*
Y281890D01*
X89370D01*
Y276378D02*
Y281890D01*
X184252Y34252D02*
Y41339D01*
X171260Y34252D02*
Y41339D01*
Y34252D02*
X172441D01*
X171260Y41339D02*
X172441D01*
Y34252D02*
Y41339D01*
Y34252D02*
X184252D01*
X172441Y41339D02*
X184252D01*
X147638Y22835D02*
X159449D01*
X147638Y15748D02*
X159449D01*
X147638D02*
Y22835D01*
X146457D02*
X147638D01*
X146457Y15748D02*
X147638D01*
X146457D02*
Y22835D01*
X159449Y15748D02*
Y22835D01*
Y34252D02*
Y41339D01*
X146457Y34252D02*
Y41339D01*
Y34252D02*
X147638D01*
X146457Y41339D02*
X147638D01*
Y34252D02*
Y41339D01*
Y34252D02*
X159449D01*
X147638Y41339D02*
X159449D01*
X139764Y34252D02*
Y41339D01*
X126772Y34252D02*
Y41339D01*
Y34252D02*
X127953D01*
X126772Y41339D02*
X127953D01*
Y34252D02*
Y41339D01*
Y34252D02*
X139764D01*
X127953Y41339D02*
X139764D01*
X175984Y247638D02*
X186221D01*
Y242126D02*
Y247638D01*
X175984Y242126D02*
X186221D01*
X175984D02*
Y247638D01*
X164961Y152756D02*
X175197D01*
X164961D02*
Y158268D01*
X175197D01*
Y152756D02*
Y158268D01*
X164961Y162598D02*
X175197D01*
X164961D02*
Y168110D01*
X175197D01*
Y162598D02*
Y168110D01*
X127953Y22835D02*
X139764D01*
X127953Y15748D02*
X139764D01*
X127953D02*
Y22835D01*
X126772D02*
X127953D01*
X126772Y15748D02*
X127953D01*
X126772D02*
Y22835D01*
X139764Y15748D02*
Y22835D01*
X92520Y257874D02*
Y263386D01*
X82284D02*
X92520D01*
X82284Y257874D02*
Y263386D01*
Y257874D02*
X92520D01*
X175984Y234252D02*
Y239764D01*
Y234252D02*
X186221D01*
Y239764D01*
X175984D02*
X186221D01*
X186614Y225590D02*
Y231102D01*
X176378D02*
X186614D01*
X176378Y225590D02*
Y231102D01*
Y225590D02*
X186614D01*
X175591Y134252D02*
Y139764D01*
X165354D02*
X175591D01*
X165354Y134252D02*
Y139764D01*
Y134252D02*
X175591D01*
X388189Y290158D02*
Y295669D01*
X377953D02*
X388189D01*
X377953Y290158D02*
Y295669D01*
Y290158D02*
X388189D01*
X175197Y143307D02*
Y148819D01*
X164961D02*
X175197D01*
X164961Y143307D02*
Y148819D01*
Y143307D02*
X175197D01*
X287008Y297638D02*
Y303150D01*
X276772D02*
X287008D01*
X276772Y297638D02*
Y303150D01*
Y297638D02*
X287008D01*
X175591Y125984D02*
Y131496D01*
X165354D02*
X175591D01*
X165354Y125984D02*
Y131496D01*
Y125984D02*
X175591D01*
X165748Y117323D02*
Y122835D01*
Y117323D02*
X175984D01*
Y122835D01*
X165748D02*
X175984D01*
X234646Y12992D02*
Y18504D01*
Y12992D02*
X244882D01*
Y18504D01*
X234646D02*
X244882D01*
X339370Y12598D02*
Y18110D01*
Y12598D02*
X349606D01*
Y18110D01*
X339370D02*
X349606D01*
X377953Y282283D02*
Y287795D01*
Y282283D02*
X388189D01*
Y287795D01*
X377953D02*
X388189D01*
X244882Y21260D02*
Y26772D01*
X234646D02*
X244882D01*
X234646Y21260D02*
Y26772D01*
Y21260D02*
X244882D01*
X349606D02*
Y26772D01*
X339370D02*
X349606D01*
X339370Y21260D02*
Y26772D01*
Y21260D02*
X349606D01*
X276772Y289370D02*
Y294882D01*
Y289370D02*
X287008D01*
Y294882D01*
X276772D02*
X287008D01*
D17*
X314173Y307480D02*
Y311811D01*
X314567Y3937D02*
Y8661D01*
X204331Y307874D02*
Y311811D01*
X204331Y3937D02*
Y9843D01*
X410630Y161811D02*
X413386D01*
D18*
X9054Y267717D02*
Y266536D01*
Y267126D01*
X5512D01*
Y267717D01*
Y266536D01*
X7873Y264765D02*
X5512D01*
X6692D01*
X7283Y264174D01*
X7873Y263584D01*
Y262994D01*
X5512Y259452D02*
Y260632D01*
X6102Y261223D01*
X7283D01*
X7873Y260632D01*
Y259452D01*
X7283Y258861D01*
X6692D01*
Y261223D01*
X5512Y257680D02*
X7873D01*
Y255909D01*
X7283Y255319D01*
X5512D01*
Y252367D02*
Y253548D01*
X6102Y254138D01*
X7283D01*
X7873Y253548D01*
Y252367D01*
X7283Y251777D01*
X6692D01*
Y254138D01*
X8464Y244692D02*
X9054Y245283D01*
Y246464D01*
X8464Y247054D01*
X6102D01*
X5512Y246464D01*
Y245283D01*
X6102Y244692D01*
X7283D01*
Y245873D01*
X7873Y243512D02*
X6102D01*
X5512Y242921D01*
Y241150D01*
X7873D01*
Y239379D02*
Y238198D01*
X7283Y237608D01*
X5512D01*
Y239379D01*
X6102Y239970D01*
X6692Y239379D01*
Y237608D01*
X7873Y236427D02*
X5512D01*
X6692D01*
X7283Y235837D01*
X7873Y235247D01*
Y234656D01*
X9054Y230524D02*
X5512D01*
Y232295D01*
X6102Y232885D01*
X7283D01*
X7873Y232295D01*
Y230524D01*
X5512Y229343D02*
Y228162D01*
Y228753D01*
X7873D01*
Y229343D01*
X5512Y225801D02*
Y224620D01*
X6102Y224030D01*
X7283D01*
X7873Y224620D01*
Y225801D01*
X7283Y226391D01*
X6102D01*
X5512Y225801D01*
Y222849D02*
Y221669D01*
Y222259D01*
X9054D01*
Y222849D01*
X7873Y219307D02*
Y218126D01*
X7283Y217536D01*
X5512D01*
Y219307D01*
X6102Y219897D01*
X6692Y219307D01*
Y217536D01*
X9054Y212813D02*
X5512D01*
Y210452D01*
X7873Y209271D02*
X6102D01*
X5512Y208681D01*
Y206909D01*
X7873D01*
X5512Y205729D02*
X7873D01*
Y203958D01*
X7283Y203367D01*
X5512D01*
X7873Y201596D02*
Y200415D01*
X7283Y199825D01*
X5512D01*
Y201596D01*
X6102Y202187D01*
X6692Y201596D01*
Y199825D01*
X172440Y201771D02*
X171850Y202361D01*
X170669D01*
X170079Y201771D01*
Y199409D01*
X170669Y198819D01*
X171850D01*
X172440Y199409D01*
X173621Y201771D02*
X174211Y202361D01*
X175392D01*
X175982Y201771D01*
Y201180D01*
X175392Y200590D01*
X175982Y200000D01*
Y199409D01*
X175392Y198819D01*
X174211D01*
X173621Y199409D01*
Y200000D01*
X174211Y200590D01*
X173621Y201180D01*
Y201771D01*
X174211Y200590D02*
X175392D01*
X176772Y155905D02*
Y159448D01*
X178543D01*
X179133Y158857D01*
Y157677D01*
X178543Y157086D01*
X176772D01*
X177952D02*
X179133Y155905D01*
X180314D02*
X181494D01*
X180904D01*
Y159448D01*
X180314Y158857D01*
X185037Y155905D02*
Y159448D01*
X183266Y157677D01*
X185627D01*
X176772Y165748D02*
Y169290D01*
X178543D01*
X179133Y168700D01*
Y167519D01*
X178543Y166929D01*
X176772D01*
X177952D02*
X179133Y165748D01*
X180314D02*
X181494D01*
X180904D01*
Y169290D01*
X180314Y168700D01*
X183266D02*
X183856Y169290D01*
X185037D01*
X185627Y168700D01*
Y168110D01*
X185037Y167519D01*
X185627Y166929D01*
Y166338D01*
X185037Y165748D01*
X183856D01*
X183266Y166338D01*
Y166929D01*
X183856Y167519D01*
X183266Y168110D01*
Y168700D01*
X183856Y167519D02*
X185037D01*
X106693Y168503D02*
Y165551D01*
X107283Y164961D01*
X108464D01*
X109054Y165551D01*
Y168503D01*
X112596D02*
X110235D01*
Y166732D01*
X111416Y167322D01*
X112006D01*
X112596Y166732D01*
Y165551D01*
X112006Y164961D01*
X110825D01*
X110235Y165551D01*
X288976Y290945D02*
Y294487D01*
X290747D01*
X291338Y293897D01*
Y292716D01*
X290747Y292126D01*
X288976D01*
X290157D02*
X291338Y290945D01*
X294880D02*
X292518D01*
X294880Y293306D01*
Y293897D01*
X294290Y294487D01*
X293109D01*
X292518Y293897D01*
X298422Y290945D02*
X296061D01*
X298422Y293306D01*
Y293897D01*
X297832Y294487D01*
X296651D01*
X296061Y293897D01*
X347638Y28346D02*
Y31889D01*
X349409D01*
X349999Y31298D01*
Y30117D01*
X349409Y29527D01*
X347638D01*
X348818D02*
X349999Y28346D01*
X353541D02*
X351180D01*
X353541Y30708D01*
Y31298D01*
X352951Y31889D01*
X351770D01*
X351180Y31298D01*
X354722Y28346D02*
X355903D01*
X355312D01*
Y31889D01*
X354722Y31298D01*
X223228Y22441D02*
Y25983D01*
X224999D01*
X225590Y25393D01*
Y24212D01*
X224999Y23622D01*
X223228D01*
X224409D02*
X225590Y22441D01*
X229132D02*
X226770D01*
X229132Y24802D01*
Y25393D01*
X228542Y25983D01*
X227361D01*
X226770Y25393D01*
X230313D02*
X230903Y25983D01*
X232084D01*
X232674Y25393D01*
Y23031D01*
X232084Y22441D01*
X230903D01*
X230313Y23031D01*
Y25393D01*
X389764Y282677D02*
Y286219D01*
X391535D01*
X392125Y285629D01*
Y284448D01*
X391535Y283858D01*
X389764D01*
X390945D02*
X392125Y282677D01*
X393306D02*
X394487D01*
X393896D01*
Y286219D01*
X393306Y285629D01*
X396258Y283267D02*
X396848Y282677D01*
X398029D01*
X398619Y283267D01*
Y285629D01*
X398029Y286219D01*
X396848D01*
X396258Y285629D01*
Y285039D01*
X396848Y284448D01*
X398619D01*
X381496Y21652D02*
Y18701D01*
X382086Y18110D01*
X383267D01*
X383857Y18701D01*
Y21652D01*
X385038Y18701D02*
X385629Y18110D01*
X386809D01*
X387400Y18701D01*
Y21062D01*
X386809Y21652D01*
X385629D01*
X385038Y21062D01*
Y20472D01*
X385629Y19881D01*
X387400D01*
X277559Y18896D02*
Y15945D01*
X278149Y15354D01*
X279330D01*
X279921Y15945D01*
Y18896D01*
X281101Y18306D02*
X281692Y18896D01*
X282872D01*
X283463Y18306D01*
Y17716D01*
X282872Y17125D01*
X283463Y16535D01*
Y15945D01*
X282872Y15354D01*
X281692D01*
X281101Y15945D01*
Y16535D01*
X281692Y17125D01*
X281101Y17716D01*
Y18306D01*
X281692Y17125D02*
X282872D01*
X240158Y299605D02*
Y296653D01*
X240748Y296063D01*
X241929D01*
X242519Y296653D01*
Y299605D01*
X243700D02*
X246061D01*
Y299015D01*
X243700Y296653D01*
Y296063D01*
X347638Y299212D02*
Y296260D01*
X348228Y295669D01*
X349409D01*
X349999Y296260D01*
Y299212D01*
X352951Y295669D02*
Y299212D01*
X351180Y297440D01*
X353541D01*
X182677Y98030D02*
Y95078D01*
X183267Y94488D01*
X184448D01*
X185039Y95078D01*
Y98030D01*
X186219Y97440D02*
X186810Y98030D01*
X187990D01*
X188581Y97440D01*
Y96850D01*
X187990Y96259D01*
X187400D01*
X187990D01*
X188581Y95669D01*
Y95078D01*
X187990Y94488D01*
X186810D01*
X186219Y95078D01*
X139370Y201180D02*
Y198228D01*
X139960Y197638D01*
X141141D01*
X141732Y198228D01*
Y201180D01*
X145274Y197638D02*
X142912D01*
X145274Y199999D01*
Y200590D01*
X144683Y201180D01*
X143503D01*
X142912Y200590D01*
X95669Y307873D02*
Y304921D01*
X96260Y304331D01*
X97440D01*
X98031Y304921D01*
Y307873D01*
X99212Y304331D02*
X100392D01*
X99802D01*
Y307873D01*
X99212Y307282D01*
X327165Y12992D02*
Y16534D01*
X328936D01*
X329527Y15944D01*
Y14763D01*
X328936Y14173D01*
X327165D01*
X328346D02*
X329527Y12992D01*
X333069D02*
X330708D01*
X333069Y15354D01*
Y15944D01*
X332479Y16534D01*
X331298D01*
X330708Y15944D01*
X334250D02*
X334840Y16534D01*
X336021D01*
X336611Y15944D01*
Y15354D01*
X336021Y14763D01*
X335430D01*
X336021D01*
X336611Y14173D01*
Y13582D01*
X336021Y12992D01*
X334840D01*
X334250Y13582D01*
X223228Y12205D02*
Y15747D01*
X224999D01*
X225590Y15157D01*
Y13976D01*
X224999Y13385D01*
X223228D01*
X224409D02*
X225590Y12205D01*
X226770D02*
X227951D01*
X227361D01*
Y15747D01*
X226770Y15157D01*
X229722Y15747D02*
X232084D01*
Y15157D01*
X229722Y12795D01*
Y12205D01*
X177559Y120079D02*
Y123621D01*
X179330D01*
X179920Y123030D01*
Y121850D01*
X179330Y121259D01*
X177559D01*
X178740D02*
X179920Y120079D01*
X181101D02*
X182282D01*
X181692D01*
Y123621D01*
X181101Y123030D01*
X186415Y123621D02*
X185234Y123030D01*
X184053Y121850D01*
Y120669D01*
X184643Y120079D01*
X185824D01*
X186415Y120669D01*
Y121259D01*
X185824Y121850D01*
X184053D01*
X177559Y129528D02*
Y133070D01*
X179330D01*
X179920Y132479D01*
Y131299D01*
X179330Y130708D01*
X177559D01*
X178740D02*
X179920Y129528D01*
X181101D02*
X182282D01*
X181692D01*
Y133070D01*
X181101Y132479D01*
X186415Y133070D02*
X184053D01*
Y131299D01*
X185234Y131889D01*
X185824D01*
X186415Y131299D01*
Y130118D01*
X185824Y129528D01*
X184643D01*
X184053Y130118D01*
X288976Y299606D02*
Y303149D01*
X290747D01*
X291338Y302558D01*
Y301377D01*
X290747Y300787D01*
X288976D01*
X290157D02*
X291338Y299606D01*
X292518D02*
X293699D01*
X293109D01*
Y303149D01*
X292518Y302558D01*
X295470D02*
X296061Y303149D01*
X297241D01*
X297832Y302558D01*
Y301968D01*
X297241Y301377D01*
X296651D01*
X297241D01*
X297832Y300787D01*
Y300197D01*
X297241Y299606D01*
X296061D01*
X295470Y300197D01*
X394488Y148819D02*
Y152361D01*
X396259D01*
X396850Y151771D01*
Y150590D01*
X396259Y150000D01*
X394488D01*
X395669D02*
X396850Y148819D01*
X398030D02*
X399211D01*
X398621D01*
Y152361D01*
X398030Y151771D01*
X403344Y148819D02*
X400982D01*
X403344Y151180D01*
Y151771D01*
X402753Y152361D01*
X401573D01*
X400982Y151771D01*
X287402Y148031D02*
Y151574D01*
X289173D01*
X289763Y150983D01*
Y149803D01*
X289173Y149212D01*
X287402D01*
X288582D02*
X289763Y148031D01*
X290944D02*
X292125D01*
X291534D01*
Y151574D01*
X290944Y150983D01*
X293896Y148031D02*
X295076D01*
X294486D01*
Y151574D01*
X293896Y150983D01*
X288189Y178347D02*
Y181889D01*
X289960D01*
X290550Y181298D01*
Y180117D01*
X289960Y179527D01*
X288189D01*
X289370D02*
X290550Y178347D01*
X291731D02*
X292912D01*
X292321D01*
Y181889D01*
X291731Y181298D01*
X294683D02*
X295273Y181889D01*
X296454D01*
X297044Y181298D01*
Y178937D01*
X296454Y178347D01*
X295273D01*
X294683Y178937D01*
Y181298D01*
X393307Y178740D02*
Y182282D01*
X395078D01*
X395669Y181692D01*
Y180511D01*
X395078Y179921D01*
X393307D01*
X394488D02*
X395669Y178740D01*
X396849Y179331D02*
X397440Y178740D01*
X398620D01*
X399211Y179331D01*
Y181692D01*
X398620Y182282D01*
X397440D01*
X396849Y181692D01*
Y181102D01*
X397440Y180511D01*
X399211D01*
X176772Y147638D02*
Y151180D01*
X178543D01*
X179133Y150590D01*
Y149409D01*
X178543Y148819D01*
X176772D01*
X177952D02*
X179133Y147638D01*
X180314Y150590D02*
X180904Y151180D01*
X182085D01*
X182675Y150590D01*
Y149999D01*
X182085Y149409D01*
X182675Y148819D01*
Y148228D01*
X182085Y147638D01*
X180904D01*
X180314Y148228D01*
Y148819D01*
X180904Y149409D01*
X180314Y149999D01*
Y150590D01*
X180904Y149409D02*
X182085D01*
X383858Y297244D02*
Y300786D01*
X385629D01*
X386220Y300196D01*
Y299015D01*
X385629Y298425D01*
X383858D01*
X385039D02*
X386220Y297244D01*
X387400Y300786D02*
X389762D01*
Y300196D01*
X387400Y297834D01*
Y297244D01*
X177165Y138976D02*
Y142518D01*
X178936D01*
X179527Y141928D01*
Y140747D01*
X178936Y140157D01*
X177165D01*
X178346D02*
X179527Y138976D01*
X183069Y142518D02*
X181888Y141928D01*
X180708Y140747D01*
Y139567D01*
X181298Y138976D01*
X182479D01*
X183069Y139567D01*
Y140157D01*
X182479Y140747D01*
X180708D01*
X188189Y227559D02*
Y231101D01*
X189960D01*
X190550Y230511D01*
Y229330D01*
X189960Y228740D01*
X188189D01*
X189370D02*
X190550Y227559D01*
X194093Y231101D02*
X191731D01*
Y229330D01*
X192912Y229921D01*
X193502D01*
X194093Y229330D01*
Y228149D01*
X193502Y227559D01*
X192322D01*
X191731Y228149D01*
X187795Y236221D02*
Y239763D01*
X189566D01*
X190157Y239172D01*
Y237992D01*
X189566Y237401D01*
X187795D01*
X188976D02*
X190157Y236221D01*
X193108D02*
Y239763D01*
X191337Y237992D01*
X193699D01*
X183858Y249213D02*
Y252755D01*
X185629D01*
X186220Y252164D01*
Y250984D01*
X185629Y250393D01*
X183858D01*
X185039D02*
X186220Y249213D01*
X187400Y252164D02*
X187991Y252755D01*
X189172D01*
X189762Y252164D01*
Y251574D01*
X189172Y250984D01*
X188581D01*
X189172D01*
X189762Y250393D01*
Y249803D01*
X189172Y249213D01*
X187991D01*
X187400Y249803D01*
X83071Y264961D02*
Y268503D01*
X84842D01*
X85432Y267912D01*
Y266732D01*
X84842Y266141D01*
X83071D01*
X84252D02*
X85432Y264961D01*
X88974D02*
X86613D01*
X88974Y267322D01*
Y267912D01*
X88384Y268503D01*
X87203D01*
X86613Y267912D01*
X80315Y283858D02*
Y287400D01*
X82086D01*
X82676Y286810D01*
Y285629D01*
X82086Y285039D01*
X80315D01*
X81496D02*
X82676Y283858D01*
X83857D02*
X85038D01*
X84447D01*
Y287400D01*
X83857Y286810D01*
X379527Y35630D02*
Y37991D01*
X378936Y38581D01*
X377756D01*
X377165Y37991D01*
Y35630D01*
X377756Y35039D01*
X378936D01*
X378346Y36220D02*
X379527Y35039D01*
X378936D02*
X379527Y35630D01*
X380708Y37991D02*
X381298Y38581D01*
X382479D01*
X383069Y37991D01*
Y37401D01*
X382479Y36810D01*
X383069Y36220D01*
Y35630D01*
X382479Y35039D01*
X381298D01*
X380708Y35630D01*
Y36220D01*
X381298Y36810D01*
X380708Y37401D01*
Y37991D01*
X381298Y36810D02*
X382479D01*
X334251Y142323D02*
Y144684D01*
X333661Y145274D01*
X332480D01*
X331890Y144684D01*
Y142323D01*
X332480Y141732D01*
X333661D01*
X333070Y142913D02*
X334251Y141732D01*
X333661D02*
X334251Y142323D01*
X335432Y145274D02*
X337793D01*
Y144684D01*
X335432Y142323D01*
Y141732D01*
X227165Y126181D02*
Y128542D01*
X226574Y129133D01*
X225394D01*
X224803Y128542D01*
Y126181D01*
X225394Y125591D01*
X226574D01*
X225984Y126771D02*
X227165Y125591D01*
X226574D02*
X227165Y126181D01*
X230707Y129133D02*
X229526Y128542D01*
X228345Y127362D01*
Y126181D01*
X228936Y125591D01*
X230116D01*
X230707Y126181D01*
Y126771D01*
X230116Y127362D01*
X228345D01*
X228150Y197084D02*
Y199445D01*
X227559Y200036D01*
X226378D01*
X225788Y199445D01*
Y197084D01*
X226378Y196494D01*
X227559D01*
X226969Y197674D02*
X228150Y196494D01*
X227559D02*
X228150Y197084D01*
X231692Y200036D02*
X229330D01*
Y198265D01*
X230511Y198855D01*
X231101D01*
X231692Y198265D01*
Y197084D01*
X231101Y196494D01*
X229921D01*
X229330Y197084D01*
X329527Y176575D02*
Y178936D01*
X328936Y179526D01*
X327756D01*
X327165Y178936D01*
Y176575D01*
X327756Y175984D01*
X328936D01*
X328346Y177165D02*
X329527Y175984D01*
X328936D02*
X329527Y176575D01*
X332479Y175984D02*
Y179526D01*
X330708Y177755D01*
X333069D01*
X299999Y12401D02*
Y14763D01*
X299409Y15353D01*
X298228D01*
X297638Y14763D01*
Y12401D01*
X298228Y11811D01*
X299409D01*
X298818Y12992D02*
X299999Y11811D01*
X299409D02*
X299999Y12401D01*
X301180Y14763D02*
X301770Y15353D01*
X302951D01*
X303541Y14763D01*
Y14173D01*
X302951Y13582D01*
X302361D01*
X302951D01*
X303541Y12992D01*
Y12401D01*
X302951Y11811D01*
X301770D01*
X301180Y12401D01*
X223621Y300197D02*
Y302558D01*
X223031Y303149D01*
X221850D01*
X221260Y302558D01*
Y300197D01*
X221850Y299606D01*
X223031D01*
X222441Y300787D02*
X223621Y299606D01*
X223031D02*
X223621Y300197D01*
X227163Y299606D02*
X224802D01*
X227163Y301968D01*
Y302558D01*
X226573Y303149D01*
X225392D01*
X224802Y302558D01*
X327165Y299803D02*
Y302164D01*
X326574Y302755D01*
X325394D01*
X324803Y302164D01*
Y299803D01*
X325394Y299213D01*
X326574D01*
X325984Y300393D02*
X327165Y299213D01*
X326574D02*
X327165Y299803D01*
X328345Y299213D02*
X329526D01*
X328936D01*
Y302755D01*
X328345Y302164D01*
X32676Y73621D02*
X31496D01*
X32086D01*
Y70669D01*
X31496Y70079D01*
X30905D01*
X30315Y70669D01*
X33857Y70079D02*
X35038D01*
X34448D01*
Y73621D01*
X33857Y73031D01*
X99214Y73621D02*
Y71260D01*
X100985D01*
Y72441D01*
Y71260D01*
X102756D01*
Y74802D02*
Y75983D01*
Y75392D01*
X99214D01*
X99804Y74802D01*
X173622Y28345D02*
Y24803D01*
X175393D01*
X175984Y25394D01*
Y27755D01*
X175393Y28345D01*
X173622D01*
X177164Y24803D02*
X178345D01*
X177755D01*
Y28345D01*
X177164Y27755D01*
X180116D02*
X180706Y28345D01*
X181887D01*
X182477Y27755D01*
Y25394D01*
X181887Y24803D01*
X180706D01*
X180116Y25394D01*
Y27755D01*
X128347Y27952D02*
Y24409D01*
X130117D01*
X130708Y25000D01*
Y27361D01*
X130117Y27952D01*
X128347D01*
X131889Y25000D02*
X132479Y24409D01*
X133660D01*
X134250Y25000D01*
Y27361D01*
X133660Y27952D01*
X132479D01*
X131889Y27361D01*
Y26771D01*
X132479Y26180D01*
X134250D01*
X127559Y46455D02*
Y42913D01*
X129330D01*
X129920Y43504D01*
Y45865D01*
X129330Y46455D01*
X127559D01*
X131101Y45865D02*
X131692Y46455D01*
X132872D01*
X133463Y45865D01*
Y45275D01*
X132872Y44684D01*
X133463Y44094D01*
Y43504D01*
X132872Y42913D01*
X131692D01*
X131101Y43504D01*
Y44094D01*
X131692Y44684D01*
X131101Y45275D01*
Y45865D01*
X131692Y44684D02*
X132872D01*
X366535Y127558D02*
Y124016D01*
X368306D01*
X368897Y124606D01*
Y126968D01*
X368306Y127558D01*
X366535D01*
X370078D02*
X372439D01*
Y126968D01*
X370078Y124606D01*
Y124016D01*
X258661Y127164D02*
Y123622D01*
X260433D01*
X261023Y124212D01*
Y126574D01*
X260433Y127164D01*
X258661D01*
X264565D02*
X263384Y126574D01*
X262204Y125393D01*
Y124212D01*
X262794Y123622D01*
X263975D01*
X264565Y124212D01*
Y124803D01*
X263975Y125393D01*
X262204D01*
X258661Y199999D02*
Y196457D01*
X260433D01*
X261023Y197047D01*
Y199408D01*
X260433Y199999D01*
X258661D01*
X264565D02*
X262204D01*
Y198228D01*
X263384Y198818D01*
X263975D01*
X264565Y198228D01*
Y197047D01*
X263975Y196457D01*
X262794D01*
X262204Y197047D01*
X365748Y199605D02*
Y196063D01*
X367519D01*
X368109Y196653D01*
Y199015D01*
X367519Y199605D01*
X365748D01*
X371061Y196063D02*
Y199605D01*
X369290Y197834D01*
X371652D01*
X146850Y27952D02*
Y24409D01*
X148621D01*
X149212Y25000D01*
Y27361D01*
X148621Y27952D01*
X146850D01*
X150393Y27361D02*
X150983Y27952D01*
X152164D01*
X152754Y27361D01*
Y26771D01*
X152164Y26180D01*
X151573D01*
X152164D01*
X152754Y25590D01*
Y25000D01*
X152164Y24409D01*
X150983D01*
X150393Y25000D01*
X146850Y46455D02*
Y42913D01*
X148621D01*
X149212Y43504D01*
Y45865D01*
X148621Y46455D01*
X146850D01*
X152754Y42913D02*
X150393D01*
X152754Y45275D01*
Y45865D01*
X152164Y46455D01*
X150983D01*
X150393Y45865D01*
X177953Y46455D02*
Y42913D01*
X179724D01*
X180314Y43504D01*
Y45865D01*
X179724Y46455D01*
X177953D01*
X181495Y42913D02*
X182676D01*
X182085D01*
Y46455D01*
X181495Y45865D01*
X79527Y164369D02*
X78936Y164960D01*
X77756D01*
X77165Y164369D01*
Y162008D01*
X77756Y161417D01*
X78936D01*
X79527Y162008D01*
X80708D02*
X81298Y161417D01*
X82479D01*
X83069Y162008D01*
Y164369D01*
X82479Y164960D01*
X81298D01*
X80708Y164369D01*
Y163779D01*
X81298Y163188D01*
X83069D01*
X140550Y126574D02*
X139960Y127164D01*
X138779D01*
X138189Y126574D01*
Y124212D01*
X138779Y123622D01*
X139960D01*
X140550Y124212D01*
X141731Y127164D02*
X144093D01*
Y126574D01*
X141731Y124212D01*
Y123622D01*
X85432Y229330D02*
X84842Y229920D01*
X83661D01*
X83071Y229330D01*
Y226968D01*
X83661Y226378D01*
X84842D01*
X85432Y226968D01*
X88974Y229920D02*
X87794Y229330D01*
X86613Y228149D01*
Y226968D01*
X87203Y226378D01*
X88384D01*
X88974Y226968D01*
Y227559D01*
X88384Y228149D01*
X86613D01*
X148623Y64960D02*
X148033Y64369D01*
Y63189D01*
X148623Y62598D01*
X150984D01*
X151575Y63189D01*
Y64369D01*
X150984Y64960D01*
X148033Y68502D02*
Y66141D01*
X149804D01*
X149213Y67321D01*
Y67912D01*
X149804Y68502D01*
X150984D01*
X151575Y67912D01*
Y66731D01*
X150984Y66141D01*
X147836Y79921D02*
X147245Y79330D01*
Y78149D01*
X147836Y77559D01*
X150197D01*
X150787Y78149D01*
Y79330D01*
X150197Y79921D01*
X150787Y82872D02*
X147245D01*
X149016Y81101D01*
Y83463D01*
X152755Y149802D02*
X152165Y150393D01*
X150984D01*
X150394Y149802D01*
Y147441D01*
X150984Y146850D01*
X152165D01*
X152755Y147441D01*
X153936Y149802D02*
X154526Y150393D01*
X155707D01*
X156297Y149802D01*
Y149212D01*
X155707Y148621D01*
X155117D01*
X155707D01*
X156297Y148031D01*
Y147441D01*
X155707Y146850D01*
X154526D01*
X153936Y147441D01*
X154330Y159251D02*
X153740Y159841D01*
X152559D01*
X151969Y159251D01*
Y156890D01*
X152559Y156299D01*
X153740D01*
X154330Y156890D01*
X157872Y156299D02*
X155511D01*
X157872Y158661D01*
Y159251D01*
X157282Y159841D01*
X156101D01*
X155511Y159251D01*
X74607Y77558D02*
X74017Y76968D01*
Y75787D01*
X74607Y75197D01*
X76969D01*
X77559Y75787D01*
Y76968D01*
X76969Y77558D01*
X77559Y78739D02*
Y79920D01*
Y79329D01*
X74017D01*
X74607Y78739D01*
M02*
