%
M48
M72
T01C0.01378
T02C0.03150
T03C0.03543
T04C0.04000
%
T01
X55300Y25900
X61300Y21300
T02
X136300Y16300
X136300Y26300
X136300Y36300
X136300Y46300
X136300Y56300
X136300Y66300
X136300Y76300
X136300Y86300
X186300Y86300
X186300Y76300
X186300Y66300
X186300Y56300
X186300Y46300
X186300Y36300
X186300Y26300
X186300Y16300
T03
X11300Y12363
X11300Y20237
T04
X86300Y16300
X96300Y16300
X106300Y16300
X39100Y72400
X39100Y90200
X39100Y102400
X39100Y120200
X13500Y120200
X13500Y102400
X13500Y90200
X13500Y72400
X206300Y76300
X206300Y66300
X206300Y46300
X206300Y36300
X206300Y26300
X206300Y16300
X206300Y86300
X206300Y96300
X206300Y106300
X206300Y116300
M30
