M48
;Layer_Color=9474304
;FILE_FORMAT=2:5
INCH,LZ
;TYPE=PLATED
T1F00S00C0.01181
T2F00S00C0.04331
T3F00S00C0.11811
%
T01
X0073622Y-0055512
X0080709Y-0046457
X0091339Y-0027953
X0089272Y0020374
X0012598Y-0041339
X0007087Y-005
X-0003543Y-0045276
X-0010122Y-0042913
X-0008268Y-0053543
X-0004331Y-0069685
X0005276Y-0072598
X0017717Y-0080315
X-0009692Y-0092913
X-0017126Y-0088976
T02
X0038976Y-008126
Y-007126
Y-006126
X0035Y-003
X0045
X0055
X0065
Y-002
Y-001
Y0
Y001
Y002
X-0015
X-0025
X-0035
Y-003
X-0025
X-0015
X-0005
X0005
X0015
X0025
X-0045
X-0055
X-0065
Y003
X-0055
X-0045
X-0035
X-0025
X-0015
X-0005
X0005
X0015
X0025
X0035
X0045
X0055
X0065
T03
X0083517Y-0083517
X-0083517
Y0083517
X0083517
M30
